<svg width="98" height="91" viewBox="0 0 98 91" fill="none" xmlns="http://www.w3.org/2000/svg">
<rect x="1.5" y="1.5" width="95" height="88" rx="44" fill="#E3D84F"/>
<rect x="1.5" y="1.5" width="95" height="88" rx="44" stroke="#E3D84F" stroke-width="3"/>
<path d="M45.9484 31.7184H51.7464C51.8481 31.7311 51.899 31.782 51.899 31.871V32.8628L51.7464 33.3968C51.6955 36.2576 51.6701 38.3174 51.6701 39.5762C51.5684 39.5889 51.5175 39.6398 51.5175 39.7288V40.7968H51.5938C53.0688 40.7968 56.0186 40.7714 60.4434 40.7205L60.5196 40.8731V46.4422L60.3671 46.6711C59.0702 46.4676 57.7224 46.3659 56.3238 46.3659C56.222 46.4168 56.1457 46.4422 56.0949 46.4422C56.0695 46.2896 55.8914 46.2133 55.5609 46.2133C54.8615 46.2133 53.5392 46.1879 51.5938 46.1371L51.5175 46.2896V55.1392C51.5175 55.2409 51.4667 55.2917 51.365 55.2917H45.7959C45.6941 55.2917 45.6179 55.0374 45.567 54.5288C45.7704 54.1728 45.8721 53.2065 45.8721 51.6299L45.7959 51.3247C45.9103 50.9687 45.9866 50.7907 46.0247 50.7907L45.9484 50.4092V49.1123C45.9612 48.7563 46.012 48.5783 46.101 48.5783L46.0247 48.1969V46.8237L46.101 46.2896C45.9739 46.1879 45.8721 46.1371 45.7959 46.1371C45.2873 46.1371 43.5072 46.1625 40.4556 46.2133L40.303 46.4422L39.9979 46.3659C39.0697 46.3659 38.0779 46.4168 37.0226 46.5185L36.9463 46.3659V40.5679C36.9463 40.4917 37.0226 40.4154 37.1752 40.3391H38.0144L38.2432 40.4917C41.0278 40.5425 43.0876 40.5679 44.4227 40.5679C44.4354 40.6697 44.4862 40.7205 44.5752 40.7205H45.9484L46.101 40.6442L46.0247 40.2628V37.8978C46.0247 37.7834 46.0502 37.6817 46.101 37.5927C45.9993 37.3765 45.9484 36.9696 45.9484 36.3721V35.7617L46.0247 35.304C45.923 34.948 45.8467 34.77 45.7959 34.77C45.7959 34.7191 45.8213 34.6428 45.8721 34.5411C45.8213 33.4095 45.7959 32.494 45.7959 31.7947L45.9484 31.7184ZM46.9593 34.9416L46.8448 35.2659H47.3407L47.8175 34.9416L47.684 34.7891L46.9593 34.9416ZM47.3979 33.1488L47.4551 33.7591C48.2816 33.6574 48.7393 33.5049 48.8283 33.3014L48.9428 32.5195L49.4196 32.1952H49.0763C48.5296 32.1952 48.1481 32.4559 47.932 32.9772L47.3979 33.1488ZM48.8665 36.0478L48.7902 36.2004H49.1144L49.1717 36.0478H48.8665ZM49.0191 39.252C48.9301 39.4554 48.6631 39.5571 48.218 39.5571L48.1608 39.7097H48.8283L49.267 39.4045L49.1717 39.252H49.0191ZM46.8639 37.2875L46.1392 38.2221C46.0883 38.5399 46.2218 38.7497 46.5397 38.8514L47.3026 38.2221L47.3789 38.0695C47.2899 37.6245 47.1182 37.3638 46.8639 37.2875ZM47.2072 40.0339L47.3979 40.3391L47.5314 40.0339H47.2072ZM50.7165 41.121L50.6211 40.9685L50.5639 41.121L50.4495 41.7504H51.4794C51.6574 41.7504 51.9181 41.4898 52.2614 40.9685L52.0706 40.6442L52.5093 40.3391L52.5856 40.1865C51.8227 40.1865 51.3586 40.3899 51.1933 40.7968L50.7165 41.121ZM48.466 37.7643L48.4088 38.3937H48.5804L48.8283 37.7643H48.466ZM50.0108 40.7968H50.1825L50.6593 40.4917H50.4876L50.0108 40.7968ZM45.6814 41.2736L44.7278 42.3607L44.6706 42.5324H44.8613C45.7514 42.5324 46.4825 42.3735 47.0546 42.0556L47.0165 41.2736H45.6814ZM47.5696 38.8514L47.3789 39.3283H47.8366L47.5696 38.8514ZM48.3134 41.7504L47.7412 42.3607C47.5251 42.8821 47.6204 43.1999 48.0273 43.3144C48.1036 43.0982 48.3007 42.9901 48.6186 42.9901L48.8093 42.5324C48.733 42.0874 48.5677 41.8267 48.3134 41.7504ZM48.7139 39.1757L48.6567 39.3283H49.0191L49.0763 39.1757H48.7139ZM52.0134 42.0556L51.4031 42.685L51.4985 42.8375H51.6892L51.4413 42.9901L51.3077 43.3144H51.4985L51.632 42.9901L52.1851 43.6195H52.5093L52.3567 42.8375L52.8907 42.685C52.878 42.2654 52.5856 42.0556 52.0134 42.0556ZM49.9536 42.2082L49.8583 42.8375H50.0108L50.2588 42.2082H49.9536ZM46.4634 42.9901L46.349 43.3144H46.8448L46.6732 42.9901H46.4634ZM46.7495 40.4154L46.616 40.7396H46.7876L46.9021 40.4154H46.7495ZM44.8422 40.5679L45.1665 41.0448L45.2237 40.8922L45.052 40.5679H44.8422ZM49 43.3144L48.8093 43.7721H49.3242L49 43.3144ZM50.2016 43.6195L50.1443 43.7721H50.4876L50.5449 43.6195H50.2016ZM45.6242 44.7066L45.5479 44.8592L45.5098 45.336H45.7196L45.9103 44.8592L45.7768 44.7066H45.6242ZM50.6593 44.8592L50.5449 45.1834H50.7356L50.8691 44.8592H50.6593ZM48.8093 45.0309L48.6758 45.336L49.1335 45.4886L49.2479 45.1834L48.8093 45.0309ZM42.0005 42.8375L41.867 43.1618L42.2103 43.9437L43.3165 43.6195L43.469 42.8375H43.1639L42.8969 42.9901H42.7443L42.8397 43.1618L42.7824 43.3144L42.3438 43.6195L42.0005 42.8375ZM45.7005 46.118L45.6433 46.2706L45.8721 46.5948L45.9294 46.4231L45.7005 46.118ZM46.5015 46.5948L46.4252 46.7474H46.7876L46.8448 46.5948H46.5015ZM48.1799 46.5948C48.1545 46.8999 48.4151 47.0525 48.9619 47.0525L49.2098 46.8999L49.3433 46.5948H48.1799ZM49.6485 46.5948L48.9046 47.6819L49 47.8345H49.1526L50.0299 47.6819L50.2206 47.2051L49.8201 46.5948H49.6485ZM44.0412 43.9437L43.8886 44.7257H44.1938L44.3654 43.9437H44.0412ZM44.9185 44.5541L44.8041 44.8783H44.9567L45.4335 44.5541H44.9185ZM45.5479 47.3767L45.3572 47.8345C45.6751 47.8345 45.7704 47.9934 45.6433 48.3113L45.7196 48.4639H45.9294L46.4634 48.3113L46.5969 48.4639L46.9402 47.9871C46.9656 47.6565 46.8258 47.453 46.5206 47.3767L46.3108 47.5293L46.4062 47.6819L46.3299 47.8345L45.8531 48.1396L45.5479 47.3767ZM42.5536 44.7257L42.4964 44.8783H42.8015L42.8778 44.7257H42.5536ZM46.1201 44.8783L45.9294 45.336H46.4443L46.5778 45.0309L46.1201 44.8783ZM42.7824 45.8128L42.7062 45.9654H42.8587L43.2783 45.336C43.0749 45.336 42.9096 45.495 42.7824 45.8128ZM47.0356 48.1396L46.7685 48.769H47.4361L47.0356 48.1396ZM49.534 48.1396L49.4577 48.3113L49.6485 48.6164L49.7057 48.4639L49.534 48.1396ZM47.7222 48.4639L47.3407 49.3984L47.5887 49.2458H47.7603L47.9129 48.4639H47.7222ZM43.7742 46.118L43.6598 46.4422H44.0031L43.7742 46.118ZM42.5917 46.2706L41.8479 47.2242H42.2103L42.8969 46.7474L42.5917 46.2706ZM48.485 49.0933L48.3515 49.3984C48.8474 49.5256 49.0127 49.7862 48.8474 50.1804H49.1717L48.7902 49.0933H48.485ZM49.6866 49.3984L49.4959 49.8752H49.9536L50.0871 49.551L49.6866 49.3984ZM46.1773 46.7474L46.0629 47.0525H46.2154L46.3299 46.7474H46.1773ZM50.0299 33.9499H49.3624L49.7247 34.4267C49.801 34.6301 49.4514 34.7318 48.6758 34.7318L49.1526 35.0561C49.3942 35.6537 49.3115 36.1178 48.9046 36.4483L49.0954 36.9251L49.3052 37.0777C49.9155 37.0777 50.227 36.8679 50.2397 36.4483H49.8773L49.5531 35.6664C49.7438 35.6664 49.9473 35.2023 50.1634 34.2741L50.0299 33.9499ZM46.6732 49.8752L46.4825 50.3329H46.635L46.8448 49.8752H46.6732ZM46.9021 50.4855H47.2454L47.684 50.1804H47.3789L46.9021 50.4855ZM47.7031 34.7318H46.5206L46.5778 34.8844H47.7603L47.7031 34.7318ZM45.2618 47.8345L45.2046 48.0061L45.3953 48.3113L45.5861 47.8345H45.2618ZM47.2644 50.8098L47.2072 50.9623H47.5696L47.6268 50.8098H47.2644ZM49.5912 51.2675L49.7629 51.5917L49.8964 51.2675H49.5912ZM46.883 35.9906L46.3108 35.838L46.5015 36.2958H46.6923L46.883 35.9906ZM49.5531 51.7443L49.4196 52.0495H49.5722L49.7057 51.7443H49.5531ZM47.5124 52.202L47.1691 52.6788L47.1118 52.8314H47.2644L47.6077 52.3737L47.684 52.202H47.5124ZM48.7902 52.3737L48.7139 52.5263L48.9428 52.8314L49.0191 52.6788L48.7902 52.3737ZM40.1314 46.8618C40.5128 46.8618 40.729 46.6011 40.7799 46.0798H40.3221L39.8453 46.5566L39.9025 46.7092L40.1314 46.8618ZM47.8366 37.0777H47.4742L47.6649 37.5545L47.8938 37.2303L47.8366 37.0777ZM48.2562 53.3082L48.1799 53.4608L48.8856 52.984H48.6948L48.2562 53.3082ZM49.0381 38.0123H48.218L48.3325 38.3365H49.1526L49.0381 38.0123ZM47.8938 53.766L47.3026 54.3953L47.0356 55.0247L47.951 54.3953L48.0845 54.0902L47.8938 53.766ZM48.0273 38.7942L47.417 38.9468L47.4933 39.1185H47.6459C47.9765 39.1185 48.1036 39.0104 48.0273 38.7942ZM51.0979 39.4236V39.538L51.365 39.7669V39.6525L51.0979 39.4236ZM51.8608 39.7669V39.8813H52.1088V39.7669H51.8608ZM40.303 39.6334L40.4747 40.4154H40.7799L40.6273 39.6334H40.303ZM39.1396 40.4154V40.5679H39.4448V40.4154H39.1396ZM39.8072 41.5025V41.6551H39.9597L40.1123 41.0257C39.9089 41.0257 39.8072 41.1846 39.8072 41.5025ZM40.9324 41.8076V42.1319H41.2948L40.9324 41.8076ZM39.8072 41.9602L39.4448 42.9138H39.8072L40.303 42.437L39.8072 41.9602ZM45.6433 40.587H45.7959L46.3108 40.4344V40.2628L46.1582 39.4808C45.9802 39.4808 45.8086 39.8496 45.6433 40.587ZM49.3052 39.4808V39.8051L49.6103 39.4808H49.3052ZM38.3195 42.7422V43.0664H38.6247V42.7422H38.3195ZM40.9324 42.9138L40.7799 43.0664V43.219L40.9324 43.3716V43.5241L41.4474 43.3716L40.9324 42.9138ZM43.5072 40.1102V40.2628H44.6706V40.1102H43.5072ZM38.6247 43.8484V44.3061L39.6546 44.6303L39.8072 44.4778V44.1535L38.9871 43.8484H38.6247ZM46.9783 41.0448V41.2164H47.3216V41.0448H46.9783ZM40.303 44.4778V44.7829L40.7799 44.6303V44.3061L40.303 44.4778ZM44.8232 41.369L45.1474 41.6741H45.3381V41.2164L44.8232 41.369ZM47.9892 41.6741V41.8267H48.466V41.6741H47.9892ZM38.4721 45.4123L38.3195 45.5649V45.7175L38.9871 46.1943H39.4448C39.1905 45.673 38.8663 45.4123 38.4721 45.4123ZM44.3273 42.4561V42.6087L44.6706 42.9329V42.4561H44.3273ZM47.6459 42.9329L47.9892 43.2381H48.1417L47.7984 42.9329H47.6459ZM46.0057 43.2381V43.5432L46.3108 43.2381H46.0057ZM43.5072 43.3906V43.7149H44.3273V43.3906H43.5072ZM44.8232 44.1726C44.8232 44.3888 44.9948 44.4968 45.3381 44.4968H45.4907V44.3252L44.8232 44.1726ZM50.2588 52.6025L50.3541 52.7551L50.4113 52.6025L50.5258 51.9732H49.4959C49.3179 51.9732 49.0572 52.2338 48.7139 52.7551L48.9046 53.0794L48.466 53.3845L48.3897 53.5371C49.1526 53.5371 49.6167 53.3337 49.782 52.9268L50.2588 52.6025ZM50.9644 52.9268H50.7928L50.316 53.2319H50.4876L50.9644 52.9268ZM46.2154 52.7551L46.4634 52.1448H46.3108L45.9103 52.7551H46.2154ZM51.0217 51.5154L51.117 50.886H50.9644L50.7165 51.5154H51.0217ZM50.7737 50.1041L50.8309 49.9515H50.4876L50.4304 50.1041H50.7737ZM50.316 48.8644L50.4304 48.5402H50.2397L50.1062 48.8644H50.316ZM51.3268 47.1288L52.0706 46.0417L51.9753 45.8891H51.8227L50.9454 46.0417L50.7546 46.5185L51.1552 47.1288H51.3268ZM55.4274 46.3468L55.6181 45.8891C55.3002 45.8891 55.2048 45.7302 55.332 45.4123L55.2557 45.2597H55.0459L54.5119 45.4123L54.3784 45.2597L54.0351 45.7365C54.0096 46.0671 54.1495 46.2706 54.4547 46.3468L54.6645 46.1943L54.5691 46.0417L54.6454 45.8891L55.1222 45.584L55.4274 46.3468ZM53.9397 45.584L54.2067 44.9546H53.5392L53.9397 45.584ZM51.4413 45.584L51.5175 45.4123L51.3268 45.1071L51.2696 45.2597L51.4413 45.584ZM53.2531 45.2597L53.6346 44.3252L53.3866 44.4778H53.215L53.0624 45.2597H53.2531ZM52.4902 44.6303L52.6237 44.3252C52.1279 44.198 51.9626 43.9374 52.1279 43.5432H51.8036L52.1851 44.6303H52.4902ZM51.2887 44.3252L51.4794 43.8484H51.0217L50.8882 44.1726L51.2887 44.3252ZM54.3021 43.8484L54.4928 43.3906H54.3402L54.1304 43.8484H54.3021ZM54.0732 43.2381H53.7299L53.2913 43.5432H53.5964L54.0732 43.2381ZM56.9722 46.0417L57.3537 45.5649L57.4299 45.4123H57.2201L56.8768 45.8891L56.8196 46.0417H56.9722ZM55.7134 45.8891L55.7707 45.7175L55.5799 45.4123L55.3892 45.8891H55.7134ZM53.7108 42.9138L53.7681 42.7613H53.4057L53.3485 42.9138H53.7108ZM51.384 42.4561L51.2124 42.1319L51.0789 42.4561H51.384ZM51.4222 41.9793L51.5557 41.6741H51.4031L51.2696 41.9793H51.4222ZM52.1851 41.3499L52.2614 41.1973L52.0325 40.8922L51.9562 41.0448L52.1851 41.3499ZM52.7191 40.4154L52.7954 40.2628L52.0897 40.7396H52.2804L52.7191 40.4154ZM56.7624 42.5515C56.9658 42.0302 56.9531 41.7695 56.7243 41.7695L55.8279 41.9221L55.6371 42.3798L55.9995 43.1618L56.7624 42.5515ZM57.2964 42.8566L57.4109 42.5515H57.0676L56.9341 42.8566H57.2964ZM49.8773 54.3V54.1855L49.6103 53.9567V54.0711L49.8773 54.3ZM49.1144 53.9567V53.8422H48.8665V53.9567H49.1144Z" fill="#243866"/>
</svg>
