<svg width="150" height="150" viewBox="0 0 150 150" fill="none" xmlns="http://www.w3.org/2000/svg">
<path d="M35 51.426L35.6378 51.0041H53.4961C54.9488 52.6214 56.5079 55.0122 58.1732 58.1765L70.0788 77.7951C73.0197 82.8229 74.8622 85.8465 75.6063 86.8662L95.3778 53.7465C96.512 51.9182 97.2206 51.0041 97.5041 51.0041H115.362C115.575 51.0041 115.787 51.215 116 51.6369L90.4882 94.2495C87.9014 98.6444 86.4134 100.895 86.0237 101H65.6141C64.6575 101 63.4528 99.4531 62 96.3591C53.0709 81.6978 48.6063 74.2441 48.6063 73.998C40.9173 61.4463 36.3819 53.9222 35 51.426ZM57.6417 49L56.7382 49.8438H58.4921V49H57.6417ZM95.4844 52.428L94.6338 53.2718L95.0588 53.7465H95.9628V52.428H95.4844ZM99.8423 52.0061L98.9921 52.8499H99.8423V52.0061ZM46.3209 51.1623L44.9921 51.5842V52.4807H46.3209L47.1712 51.5842H46.3209V51.1623ZM108.559 55.4341L105.955 55.0122V55.4341L106.805 56.3306H107.709L108.559 55.4341ZM52.8051 55.9088V56.3306C53.124 57.4909 53.7086 58.071 54.559 58.071L55.8878 57.6491L56.313 58.071L56.7382 56.3306L56.313 54.5902L56.7382 53.3245H56.313C54.5768 53.6761 53.7086 54.5375 53.7086 55.9088H52.8051ZM99.8423 59.3367C99.2757 57.8952 98.1241 57.1744 96.3879 57.1744L96.8129 58.4929L96.3879 61.0771L96.8129 61.499H99.8423L100.321 59.7586L99.8423 59.3367ZM112.067 57.1744H111.163V57.5964H112.067V57.1744ZM51.9547 54.1684L51.1043 55.0649V55.4868L51.9547 54.5902V54.1684ZM102.021 58.9148L101.171 58.0183V58.9148H102.021ZM65.0295 55.9088H63.2756L63.7008 57.6491H64.126L65.0295 55.9088ZM89.8503 59.7586H88.0962L89.0002 61.499H89.4253L89.8503 59.7586ZM40.6339 56.7526L38.8799 59.8114L39.3051 60.2333H39.7835C41.8031 60.2333 43.3976 59.7938 44.5669 58.9148L43.6634 56.7526H40.6339ZM47.5965 58.071V58.4929L47.1712 60.2333C47.1712 61.3935 47.7559 62.1143 48.9252 62.3956L50.2008 60.6552V60.2333C49.4921 58.7918 48.624 58.071 47.5965 58.071ZM58.4921 58.4929C57.996 58.4929 57.5531 59.2136 57.1634 60.6552L60.6713 63.2394H61.0965L59.7677 61.0771L60.6713 60.2333L58.4921 58.4929ZM105.104 61.9209C104.289 62.1319 103.563 62.8526 102.925 64.0832V64.9797L104.679 65.8235H105.53L105.955 63.6613V62.8174L105.104 61.9209ZM52.8051 59.3895H52.3799L52.8051 60.6552H53.2835V58.9148L52.8051 59.3895ZM94.6338 62.3428C93.3227 62.9405 92.5966 63.5206 92.4546 64.0832V64.5051H93.358V64.9797L92.0295 66.6673V67.142H92.4546C94.4743 65.1028 95.7854 64.0832 96.3879 64.0832L94.6338 62.3428ZM100.321 62.8174H99.8423V64.0832H100.321V62.8174ZM45.4173 61.5517H44.5669V61.9736H45.4173V61.5517ZM108.984 65.4016H107.709V65.8235H108.984V65.4016ZM52.8051 63.714L51.5295 62.3956V62.8174L52.3799 63.714H52.8051ZM101.596 65.8235H101.171L100.321 66.6673V67.5639H101.171L101.596 66.2455V65.8235ZM55.8878 63.2394H54.9843V63.714H55.8878V63.2394ZM98.1415 66.6673H97.238V67.5639H98.1415V66.6673ZM44.9921 66.2982H44.5669V66.7201L44.9921 67.9858H45.4173V66.7201L44.9921 66.2982ZM108.559 69.7262C107.992 69.7262 107.709 70.1481 107.709 70.9919V71.4138H108.134L108.559 69.7262ZM95.0588 70.1481H94.6338V70.9919H95.0588V70.1481ZM53.7086 67.142H53.2835L54.559 68.4604V67.9858L53.7086 67.142ZM99.4172 70.9919L98.1415 71.4138V71.8885H98.5671L99.8423 71.4138V70.9919H99.4172ZM47.1712 70.1481H46.3209L46.7461 71.8885H47.1712V70.1481ZM96.5474 54.1156C95.9802 54.1156 95.6967 54.5551 95.6967 55.4341V55.856H96.1223L96.5474 54.1156ZM54.9843 71.4665H54.1339V71.8885H54.9843V71.4665ZM93.5175 55.4341H92.6674V55.856H93.5175V55.4341ZM53.2835 73.6288H52.3799V74.9473C53.2657 74.9473 53.9921 75.5098 54.559 76.6349L56.7382 76.213V73.6288H54.9843V75.3692H53.7086L53.2835 73.6288ZM92.6674 58.0183H90.9133V60.6025H91.3383L91.7639 60.1805H92.2423L93.5175 60.6025C94.0139 59.4773 94.5984 58.9148 95.2716 58.9148V58.0183H94.4215L93.9431 59.7586H92.6674V58.0183ZM60.2461 76.6349H59.3425L59.7677 78.7972H60.6713L60.2461 76.6349ZM87.884 60.6025H87.4056L86.9805 62.7647L87.4056 63.1866H87.884L88.309 61.0243L87.884 60.6025ZM63.7008 78.3753H62.4252V79.2191H62.8504L63.7008 78.3753ZM85.2264 62.7647H84.376L85.2264 63.6613V62.7647ZM67.2086 79.6937H65.8799V80.1157H67.2086V79.6937ZM81.3465 63.6613L80.4429 64.5051H81.7716V63.6613H81.3465ZM59.3425 80.9595H58.4921V82.2779H58.9173L59.3425 80.9595ZM89.1597 64.927H88.7341V66.6673H89.1597V64.927ZM96.5474 65.3489L94.4215 64.927V66.2455L95.2716 67.0893H96.1223L96.5474 65.3489ZM62.4252 83.5436L61.5216 82.6998V83.5436H62.4252ZM86.1298 67.0893H85.2264V67.9858L86.1298 67.0893ZM79.5925 68.4077H78.7421V68.8296H79.5925V68.4077ZM67.3681 70.9919H66.9429V71.8357H67.3681V70.9919ZM70.4508 70.9919H70.0256L71.3012 72.2576V71.8357L70.4508 70.9919ZM80.4429 70.9919L79.1673 72.2576V72.7323L80.4429 71.4138V70.9919ZM65.6673 75.3165H65.2421L64.7638 79.641V82.6471H65.2421L65.6673 79.641V75.3165ZM70.876 76.1603L70.0256 75.3165L69.1221 77.0568V78.3226C70.2913 77.9006 70.876 77.4787 70.876 77.0568V76.1603ZM60.8838 75.7383H60.4055C60.4055 77.4611 60.122 78.3226 59.5551 78.3226L58.2264 76.5822L56.9508 77.0568L57.8012 77.9006L57.376 80.4848V84.8094H57.8012L58.2264 80.0629H58.7047L59.1299 80.4848L61.3091 79.641L60.8838 75.7383ZM80.0177 75.7383H79.5925V77.9006L81.3465 78.3226V77.0568L80.0177 75.7383ZM85.2264 75.7383H84.8012V80.4848L85.2264 82.6471H85.7048V78.7444L85.2264 75.7383ZM90.0631 76.1603H89.5847L89.1597 79.641C91.4978 79.641 92.6674 81.2232 92.6674 84.3874V84.8094H93.0924V80.4848L92.6674 78.7444L93.0924 77.0568H91.7639C91.7639 77.9006 91.4804 78.3226 90.9133 78.3226C90.3467 78.3226 90.0631 77.6018 90.0631 76.1603ZM83.5256 77.0568H83.1004V77.9006H83.5256V77.0568ZM68.6968 83.4909L66.9429 82.6471C66.9429 83.2096 66.5177 83.4909 65.6673 83.4909C65.6673 84.0886 66.0925 84.3874 66.9429 84.3874L68.2717 83.9655V85.6532H68.6968V83.4909ZM83.5256 83.069C82.3563 83.3503 81.7716 83.9304 81.7716 84.8094V86.1278H82.1968V84.3874H84.8012V83.9655C83.9508 83.9655 83.5256 83.6667 83.5256 83.069ZM60.8838 84.3874H60.4055V85.6532L61.3091 84.8094L60.8838 84.3874ZM90.0631 84.3874H89.5847V85.6532H90.0631V84.3874ZM63.063 85.2312H62.1595V85.6532H63.063V85.2312ZM66.9429 85.2312H66.5177V86.5497H66.9429V85.2312ZM87.884 85.2312H87.4056V86.1278H87.884V85.2312ZM83.9508 85.6532H83.5256V86.5497H83.9508V85.6532ZM60.4055 86.9716H59.9803V91.7181L61.3091 92.14L63.4882 91.7181L63.9134 92.14L65.2421 89.9777C64.7815 88.8526 64.3386 88.2901 63.9134 88.2901H62.5846L60.4055 88.712V86.9716ZM82.1968 86.9716H81.7716V87.8154H82.1968V86.9716ZM90.4882 87.3935H90.0631V89.1339L87.884 88.712H85.7048L85.2264 91.2962L86.9805 92.5619L87.4056 92.14V91.7181L87.884 92.14H89.5847L90.4882 91.2962V87.3935ZM69.5472 88.2901H69.1221L67.3681 93.4584L67.8465 97.3611H68.2717V93.8804H68.6968L69.1221 94.3023H69.5472C69.5472 93.4584 69.9901 93.0365 70.876 93.0365L71.3012 92.5619V92.14C70.1319 91.7884 69.5472 90.5051 69.5472 88.2901ZM81.3465 88.712H80.9212C80.9212 90.0832 80.3366 91.3665 79.1673 92.5619V93.0365L81.3465 94.3023L81.7716 93.8804L82.1968 97.783H82.622L83.1004 93.8804L81.3465 88.712ZM67.3681 90.8742H65.6673L66.5177 91.7181L67.3681 90.8742ZM84.376 91.2962H83.5256V92.14L84.376 91.2962ZM62.1595 93.0365H61.3091C61.3091 95.9196 61.0079 97.3611 60.4055 97.3611L60.8838 97.783L60.4055 99.5234V100.789H60.8838L61.3091 97.3611H62.1595V98.2049L63.063 97.3611L61.7342 96.8865V96.0426L62.1595 93.0365ZM88.7341 93.4584H88.309L88.7341 96.4645V97.3611C87.8486 97.3611 87.4056 97.6424 87.4056 98.2049H87.884L89.1597 97.783V99.0487L88.7341 99.5234L89.5847 100.367V100.789H90.0631V100.367L89.1597 93.0365L88.7341 93.4584Z" fill="#1B294B"/>
</svg>
