<svg width="672" height="448" viewBox="0 0 672 448" fill="none" xmlns="http://www.w3.org/2000/svg">
<g clip-path="url(#clip0_3042_6098)">
<path d="M0 8C0 3.58172 3.58172 0 8 0H664C668.418 0 672 3.58172 672 8V432C672 440.837 664.837 448 656 448H16C7.16346 448 0 440.837 0 432V8Z" fill="#F7F4CD"/>
<path opacity="0.8" d="M438.441 -126.741C438.441 -126.741 322.387 -173.461 210.573 -105.311C98.7535 -37.1608 44.2645 101.638 -2.67988 212.756C-49.6243 323.874 -19.307 438.537 68.0057 492.367C155.312 546.197 212.618 470.757 333.678 469.564C454.745 468.378 487.67 487.782 586.819 415.914C685.973 344.045 700.917 169.715 619.237 38.7726C537.564 -92.1633 438.441 -126.741 438.441 -126.741Z" fill="#FDFCF0"/>
</g>
<defs>
<clipPath id="clip0_3042_6098">
<path d="M0 8C0 3.58172 3.58172 0 8 0H664C668.418 0 672 3.58172 672 8V432C672 440.837 664.837 448 656 448H16C7.16346 448 0 440.837 0 432V8Z" fill="white"/>
</clipPath>
</defs>
</svg>
