<svg width="80" height="80" viewBox="0 0 80 80" fill="none" xmlns="http://www.w3.org/2000/svg">
<path d="M71.2155 24.2616C71.1107 24.3589 68.8312 24.5666 66.1671 24.7288L61.3075 25.0273L61.5242 23.0547C61.692 21.5234 62.0976 20.9978 63.3352 20.6994C65.4958 20.1738 71.2715 20.1803 71.8379 20.6994C72.2574 21.0887 71.7959 23.7295 71.2155 24.2551L71.2155 24.2616Z" fill="#243866"/>
<path d="M65.1462 43.6105L60.6082 43.7338L61.0766 41.8001C61.5102 40.0093 61.8038 39.8276 64.9154 39.3994C69.2996 38.7959 70.1946 39.1852 69.9079 41.5471L69.6772 43.4872L65.1392 43.6105L65.1462 43.6105Z" fill="#243866"/>
<path d="M65.6494 60.3894C59.8179 60.0909 58.3705 59.6497 58.4054 58.1897C58.4753 55.6008 59.3074 55.2115 63.8105 55.6527C66.0899 55.8798 68.2785 56.2431 68.6211 56.4573C68.9638 56.6649 69.1526 57.6966 69.0337 58.6958C68.8239 60.5126 68.754 60.5451 65.6494 60.3829L65.6494 60.3894Z" fill="#243866"/>
<path d="M53.4972 30.3605C53.4273 30.3865 52.0987 30.7174 50.5045 31.1067C48.9102 31.496 47.1482 31.9308 46.5259 32.093C45.7008 32.3006 45.4141 32.0216 45.4281 31.0224C45.456 29.2121 46.0364 28.5243 48.4557 27.4277C50.6234 26.4414 53.2175 26.2208 53.9797 26.9475C54.3502 27.3044 53.9377 30.1983 53.4902 30.367L53.4972 30.3605Z" fill="#243866"/>
<path d="M50.9453 49.9502C50.1132 50.054 48.1553 49.9502 46.638 49.7231C43.9809 49.3273 43.8621 49.2235 44.0719 47.4262C44.2676 45.7391 44.5124 45.525 46.4772 45.3628C47.6869 45.2654 49.6167 45.3628 50.7844 45.5899C52.7423 45.9662 52.8891 46.1349 52.6864 47.8804C52.5185 49.3468 52.134 49.801 50.9453 49.9502Z" fill="#243866"/>
<path d="M34.1491 60.8442C31.6808 60.6236 29.3663 60.1953 29.0587 59.9033C28.758 59.6178 28.7091 58.6056 28.9608 57.7232C29.4223 56.1075 29.4922 56.088 33.3519 56.4255C38.2326 56.8537 38.736 57.1327 38.701 59.4297L38.6731 61.253L34.1421 60.8442L34.1491 60.8442Z" fill="#243866"/>
<path d="M37.6636 41.9863C37.272 42.3367 27.2101 40.9741 26.7137 40.5005C26.5109 40.3058 26.6368 39.4169 26.9934 38.5344C27.6087 37.0291 27.8744 36.9317 31.1048 37.081C33.0067 37.1653 35.51 37.4119 36.6777 37.6195C38.6425 37.9699 38.7684 38.1386 38.3908 39.8451C38.174 40.8443 37.8384 41.8241 37.6636 41.9799L37.6636 41.9863Z" fill="#243866"/>
<path d="M33.6531 23.1401C33.3804 23.5164 30.9471 23.8733 28.0942 23.9576L23.0178 24.1069L23.1647 22.4328C23.2486 21.492 23.4444 20.629 23.6052 20.4668C23.766 20.3045 26.1784 20.058 29.0382 19.9152C34.1146 19.6557 34.1775 19.6687 34.1636 21.0637C34.1566 21.8294 33.9188 22.7832 33.6601 23.1465L33.6531 23.1401Z" fill="#243866"/>
<path d="M13.8923 53.0138C11.2282 53.1371 10.8786 53.0138 10.8926 51.9757C10.9136 50.2043 12.6477 48.9974 15.116 49.0234C17.2066 49.0493 17.3255 49.1596 17.1158 50.957C16.906 52.8062 16.8011 52.8711 13.8853 53.0074L13.8923 53.0138Z" fill="#243866"/>
<path d="M10.4805 22.0442C9.5226 22.3297 8.01926 22.4076 7.24311 22.2129C6.04044 21.908 5.84465 21.5511 6.09638 20.1366C6.35509 18.7221 6.78862 18.3847 8.62759 18.1316C11.6762 17.7228 12.7251 18.2419 12.4733 20.0328C12.3335 21.032 11.6902 21.6744 10.4805 22.0377L10.4805 22.0442Z" fill="#243866"/>
</svg>
