<svg width="310" height="392" viewBox="0 0 310 392" fill="none" xmlns="http://www.w3.org/2000/svg">
<rect width="310" height="392" rx="16" fill="#F7F4CD"/>
<path d="M198.546 57.0633C198.546 57.0633 159.066 41.9206 121.029 64.0094C82.9896 86.0982 64.4532 131.086 48.4834 167.101C32.5135 203.117 42.8271 240.281 72.5296 257.728C102.23 275.176 121.725 250.724 162.908 250.337C204.093 249.953 215.293 256.242 249.022 232.948C282.753 209.655 287.837 153.151 260.051 110.71C232.267 68.2708 198.546 57.0633 198.546 57.0633Z" fill="#FDFCF0"/>
<path d="M242.67 26.8914C242.789 27.0106 243.044 29.601 243.242 32.6283L243.608 38.1507L241.192 37.9044C239.317 37.7137 238.673 37.2528 238.308 35.8464C237.664 33.3911 237.672 26.8279 238.308 26.1843C238.785 25.7075 242.019 26.2319 242.662 26.8914H242.67Z" fill="#253865"/>
<path d="M266.364 33.7887L266.515 38.9455L264.147 38.4131C261.954 37.9205 261.732 37.5868 261.208 34.0509C260.469 29.0688 260.945 28.0518 263.838 28.3775L266.213 28.6398L266.364 33.7966V33.7887Z" fill="#253865"/>
<path d="M286.913 33.2164C286.547 39.8432 286.007 41.488 284.219 41.4483C281.048 41.3688 280.572 40.4232 281.112 35.3061C281.39 32.7158 281.835 30.2287 282.097 29.8394C282.352 29.45 283.615 29.2355 284.839 29.3706C287.063 29.609 287.103 29.6884 286.905 33.2164H286.913Z" fill="#253865"/>
<path d="M250.139 47.0259C250.171 47.1054 250.576 48.6151 251.053 50.4268C251.53 52.2384 252.062 54.2408 252.261 54.9479C252.515 55.8856 252.173 56.2113 250.95 56.1954C248.733 56.1637 247.89 55.5042 246.548 52.7549C245.34 50.2917 245.07 47.3438 245.96 46.4777C246.397 46.0566 249.941 46.5254 250.147 47.0339L250.139 47.0259Z" fill="#253865"/>
<path d="M274.128 49.926C274.255 50.8715 274.128 53.0963 273.849 54.8206C273.365 57.84 273.238 57.9751 271.037 57.7367C268.971 57.5142 268.709 57.2361 268.51 55.0033C268.391 53.6287 268.51 51.4357 268.788 50.1087C269.249 47.8839 269.455 47.717 271.593 47.9474C273.389 48.1381 273.945 48.5752 274.128 49.926Z" fill="#253865"/>
<path d="M287.469 69.0124C287.199 71.8173 286.674 74.4474 286.317 74.797C285.967 75.1387 284.728 75.1943 283.647 74.9082C281.668 74.3838 281.645 74.3044 282.058 69.9183C282.582 64.3721 282.924 63.8 285.737 63.8397L287.969 63.8715L287.469 69.0204V69.0124Z" fill="#253865"/>
<path d="M264.376 65.019C264.805 65.464 263.136 76.898 262.556 77.4622C262.318 77.6926 261.229 77.5496 260.149 77.1443C258.305 76.4451 258.186 76.1432 258.369 72.4722C258.472 70.3109 258.774 67.4663 259.028 66.1394C259.457 63.9066 259.664 63.7636 261.754 64.1926C262.977 64.439 264.177 64.8204 264.368 65.019H264.376Z" fill="#253865"/>
<path d="M241.296 69.5763C241.757 69.8862 242.194 72.6513 242.297 75.8932L242.48 81.6619L240.43 81.495C239.278 81.3997 238.221 81.1772 238.022 80.9945C237.824 80.8117 237.522 78.0704 237.347 74.8205C237.029 69.0519 237.045 68.9804 238.753 68.9962C239.691 69.0042 240.859 69.2744 241.304 69.5683L241.296 69.5763Z" fill="#253865"/>
<path d="M277.878 92.0317C278.029 95.059 277.878 95.4563 276.607 95.4404C274.438 95.4166 272.96 93.446 272.992 90.6411C273.023 88.2653 273.159 88.1303 275.36 88.3686C277.624 88.607 277.704 88.7262 277.87 92.0396L277.878 92.0317Z" fill="#253865"/>
<path d="M239.952 95.9089C240.302 96.9975 240.397 98.7058 240.159 99.5878C239.786 100.955 239.349 101.177 237.616 100.891C235.884 100.597 235.471 100.104 235.161 98.0146C234.661 94.5502 235.296 93.3583 237.489 93.6443C238.713 93.8033 239.5 94.5343 239.945 95.9089H239.952Z" fill="#253865"/>
<path d="M32 364C32 363 23 346 23 346H34.74L24 323L44 336L54 311L60 343L72.01 337.5L61.78 359.93L67.55 364H32Z" fill="#253865"/>
</svg>
