<svg width="64" height="64" viewBox="0 0 64 64" fill="none" xmlns="http://www.w3.org/2000/svg">
<g clip-path="url(#clip0_3282_11967)">
<path d="M60.3763 16.7159C58.4646 14.5985 55.9676 13.1938 53.214 12.6594C53.051 10.3946 52.1404 8.26348 50.5876 6.55899C48.7576 4.54989 46.2548 3.37383 43.5401 3.24736C41.9405 3.17192 40.3778 3.46785 38.942 4.10766C36.6747 1.64308 33.5492 0.172206 30.1478 0.0136481C27.2296 -0.121869 24.3277 0.755401 21.9788 2.48554C20.1627 3.82337 18.7319 5.62511 17.8365 7.67236C17.1334 7.53561 16.4195 7.44976 15.7004 7.41632C7.59751 7.03565 0.704947 13.3205 0.327505 21.4196C0.0556032 27.2523 3.27346 32.6715 8.43068 35.2542C8.83735 37.9715 10.4515 40.3057 12.7143 41.6859C11.9679 42.9661 11.538 44.4526 11.538 46.0384C11.538 50.8198 15.4279 54.7095 20.2092 54.7095C24.4847 54.7095 28.0449 51.5983 28.7509 47.5214C28.8108 47.5224 28.8709 47.5256 28.9308 47.5256C32.1909 47.5254 35.2594 46.04 37.2911 43.5586C38.8655 44.6161 40.7033 45.2284 42.6351 45.3184C45.1468 45.4355 47.6191 44.6456 49.595 43.0939C51.1895 41.8417 52.381 40.1599 53.0347 38.2667C58.9361 37.2018 63.4353 32.1633 63.7203 26.0523C63.8811 22.5981 62.6936 19.2824 60.3763 16.7159ZM20.209 50.9933C17.4769 50.9933 15.2541 48.7705 15.2541 46.0384C15.2541 43.3062 17.4769 41.0835 20.209 41.0835C22.9412 41.0835 25.164 43.3062 25.164 46.0384C25.164 48.7705 22.9412 50.9933 20.209 50.9933ZM60.0078 25.8794C59.7893 30.5675 56.102 34.3725 51.4309 34.7304C50.6036 34.7938 49.9184 35.398 49.7523 36.211C49.4331 37.7732 48.562 39.1797 47.2994 40.1713C46.0246 41.1723 44.4288 41.6797 42.8077 41.6063C41.0642 41.5251 39.4389 40.7838 38.2311 39.5191C37.8157 39.084 37.2152 38.8774 36.62 38.9636C36.0247 39.0501 35.5081 39.4195 35.2338 39.9549C33.9698 42.4207 31.3673 43.9287 28.6031 43.8019C28.5973 43.8016 28.5916 43.801 28.5859 43.8007C27.5965 40.1008 24.2166 37.3673 20.209 37.3673C18.4045 37.3673 16.7272 37.922 15.3379 38.869C13.4249 38.0545 12.0797 36.1714 12.0472 33.984C12.036 33.2376 11.5792 32.5701 10.8872 32.2897C6.57468 30.5418 3.82296 26.2429 4.03974 21.5925C4.32192 15.5405 9.47741 10.8474 15.5271 11.1283C16.5207 11.1748 17.5006 11.3539 18.4393 11.6608C18.9229 11.8189 19.4502 11.7718 19.8981 11.5305C20.346 11.2892 20.6754 10.8747 20.8093 10.3838C21.3425 8.42972 22.5406 6.68732 24.1829 5.47757C25.8718 4.23376 27.8736 3.62976 29.9747 3.72563C32.7848 3.85682 35.3296 5.25126 36.9568 7.55171C37.5371 8.37225 38.6646 8.58258 39.5014 8.02676C40.6504 7.2642 41.988 6.89716 43.3672 6.95935C45.0902 7.03962 46.6788 7.7862 47.8403 9.06148C49.0019 10.3366 49.5974 11.9877 49.517 13.7106C49.5116 13.8251 49.5015 13.9517 49.486 14.0977C49.4324 14.6037 49.5884 15.1095 49.918 15.4972C50.2475 15.8849 50.7215 16.1204 51.2295 16.149C56.3067 16.434 60.2446 20.7991 60.0078 25.8794Z" fill="#DAE1F1"/>
<path d="M6.45904 51.6127C3.04386 51.6127 0.265381 54.3911 0.265381 57.8063C0.265381 61.2215 3.04386 64 6.45904 64C9.87423 64 12.6527 61.2215 12.6527 57.8063C12.6527 54.3911 9.87423 51.6127 6.45904 51.6127ZM6.45904 60.2838C5.09297 60.2838 3.98158 59.1724 3.98158 57.8063C3.98158 56.4403 5.09297 55.3289 6.45904 55.3289C7.82512 55.3289 8.93651 56.4403 8.93651 57.8063C8.93651 59.1724 7.82512 60.2838 6.45904 60.2838Z" fill="#DAE1F1"/>
<circle cx="20.5" cy="23.5" r="3.5" fill="#DAE1F1"/>
<circle cx="31.5" cy="23.5" r="3.5" fill="#DAE1F1"/>
<circle cx="43.5" cy="23.5" r="3.5" fill="#DAE1F1"/>
</g>
<defs>
<clipPath id="clip0_3282_11967">
<rect width="64" height="64" fill="white"/>
</clipPath>
</defs>
</svg>
