<svg width="48" height="48" viewBox="0 0 48 48" fill="none" xmlns="http://www.w3.org/2000/svg">
<g clip-path="url(#clip0_2981_8538)">
<path d="M38.1129 20.1407C37.5273 16.4596 32.9259 12.5275 29.3284 12.4438C29.0774 12.4438 28.8264 12.3601 28.6591 12.1928C28.4918 12.1092 28.3245 12.0255 28.2408 11.7745C26.9859 9.43199 27.6552 7.59143 29.7467 6.08551C32.1729 4.32862 36.0213 6.08551 37.9456 7.67509C42.798 11.6909 47.734 18.6346 47.483 25.2441C48.3196 29.6783 48.1523 34.4469 46.8974 38.379C46.0608 40.8888 43.6346 42.1438 41.1247 42.3111C38.6149 42.4785 33.4278 43.2314 31.169 41.7256C28.9101 40.2195 28.7428 37.2914 28.4918 34.7816C28.2408 32.0208 27.4878 26.8336 29.8304 24.6584C32.1729 22.5669 38.8658 24.8258 38.1129 20.1407Z" fill="#B3DCE6"/>
<path d="M10.5045 20.1407C9.91885 16.4596 5.31759 12.5275 1.72 12.4438C1.46901 12.4438 1.21803 12.3601 1.0507 12.1928C0.883242 12.1092 0.716055 12.0255 0.632256 11.7745C-0.622671 9.43199 0.0466213 7.59143 2.13817 6.08551C4.56436 4.32862 8.4128 6.08551 10.3372 7.67509C15.1895 11.6909 20.1256 18.6348 19.8746 25.2441C20.7112 29.6783 20.5439 34.4469 19.2891 38.379C18.4525 40.8888 16.0263 42.1438 13.5163 42.3111C11.0065 42.4785 5.81942 43.2314 3.56055 41.7256C1.30182 40.2195 1.13437 37.2914 0.883379 34.7816C0.632393 32.0208 -0.120564 26.8336 2.22197 24.6584C4.5645 22.5669 11.3411 24.8258 10.5045 20.1407Z" fill="#B3DCE6"/>
</g>
<defs>
<clipPath id="clip0_2981_8538">
<rect width="48" height="48" fill="white"/>
</clipPath>
</defs>
</svg>
