<?xml version="1.0" encoding="UTF-8"?>
<svg xmlns="http://www.w3.org/2000/svg" xmlns:xlink="http://www.w3.org/1999/xlink" version="1.1" viewBox="0 0 1280 720">
  <defs>
    <style>
      .cls-1 {
        fill: #ffa488;
      }

      .cls-1, .cls-2, .cls-3, .cls-4, .cls-5, .cls-6, .cls-7, .cls-8, .cls-9, .cls-10, .cls-11, .cls-12, .cls-13, .cls-14, .cls-15, .cls-16, .cls-17, .cls-18, .cls-19, .cls-20, .cls-21, .cls-22, .cls-23, .cls-24, .cls-25, .cls-26, .cls-27, .cls-28, .cls-29 {
        stroke-width: 0px;
      }

      .cls-2 {
        fill: #e40621;
      }

      .cls-30 {
        clip-path: url(#clippath);
      }

      .cls-3 {
        fill: #f9d5c5;
      }

      .cls-4 {
        fill: none;
      }

      .cls-5 {
        fill: url(#radial-gradient);
      }

      .cls-6 {
        fill: #ff8569;
      }

      .cls-31 {
        clip-path: url(#clippath-1);
      }

      .cls-32 {
        clip-path: url(#clippath-2);
      }

      .cls-7 {
        fill: #f89a6b;
      }

      .cls-8 {
        fill: #d08e78;
      }

      .cls-9 {
        fill: #193262;
      }

      .cls-10 {
        fill: #ffc28d;
      }

      .cls-11 {
        fill: url(#radial-gradient-2);
      }

      .cls-12 {
        fill: url(#radial-gradient-3);
      }

      .cls-13 {
        fill: url(#radial-gradient-4);
      }

      .cls-14 {
        fill: url(#radial-gradient-5);
      }

      .cls-15 {
        fill: #ff311f;
      }

      .cls-16 {
        fill: #cb102a;
      }

      .cls-17 {
        fill: #0d0d0d;
      }

      .cls-18 {
        fill: #243865;
      }

      .cls-19 {
        fill: #ff8d5e;
      }

      .cls-20 {
        fill: #f7f4ce;
        opacity: .3;
      }

      .cls-33 {
        isolation: isolate;
      }

      .cls-21 {
        fill: #ff8e4f;
      }

      .cls-22 {
        fill: #e35326;
      }

      .cls-23 {
        fill: #ffc0a9;
      }

      .cls-24 {
        fill: #3d4e76;
      }

      .cls-25 {
        fill: #eeeeeb;
      }

      .cls-26 {
        fill: #ff6050;
        mix-blend-mode: multiply;
        opacity: .6;
      }

      .cls-27 {
        fill: #fff;
      }

      .cls-28 {
        fill: #0081b3;
      }

      .cls-29 {
        fill: #ffcac0;
      }
    </style>
    <radialGradient id="radial-gradient" cx="-441.6" cy="408.4" fx="-441.6" fy="408.4" r="30.7" gradientTransform="translate(-62.1 55.1) rotate(175.2) scale(1 -1)" gradientUnits="userSpaceOnUse">
      <stop offset="0" stop-color="#ff6050"/>
      <stop offset=".4" stop-color="#f94f43"/>
      <stop offset="1" stop-color="#ec2d29"/>
    </radialGradient>
    <radialGradient id="radial-gradient-2" cx="384.9" cy="382.8" fx="384.9" fy="382.8" r="15.4" gradientTransform="translate(-16.4 51.3) rotate(-4.8)" gradientUnits="userSpaceOnUse">
      <stop offset="0" stop-color="#ffa400"/>
      <stop offset="1" stop-color="#ff8900"/>
    </radialGradient>
    <clipPath id="clippath">
      <circle class="cls-4" cx="479" cy="613" r="62.9" transform="translate(-203.1 987.1) rotate(-80.7)"/>
    </clipPath>
    <clipPath id="clippath-1">
      <circle class="cls-4" cx="808.6" cy="481" r="62.9" transform="translate(203.6 1201.6) rotate(-80.7)"/>
    </clipPath>
    <radialGradient id="radial-gradient-3" cx="814" cy="488.9" fx="814" fy="488.9" r="8.7" gradientUnits="userSpaceOnUse">
      <stop offset="0" stop-color="#ffb364"/>
      <stop offset="1" stop-color="#ff311f"/>
    </radialGradient>
    <radialGradient id="radial-gradient-4" cx="857.3" cy="269.6" fx="857.3" fy="269.6" r="35.6" gradientUnits="userSpaceOnUse">
      <stop offset="0" stop-color="#f91f37"/>
      <stop offset=".4" stop-color="#f51f37"/>
      <stop offset=".6" stop-color="#ea1f37"/>
      <stop offset=".9" stop-color="#d91f37"/>
      <stop offset="1" stop-color="#d22038"/>
    </radialGradient>
    <radialGradient id="radial-gradient-5" cx="850" cy="235.7" fx="850" fy="235.7" r="16.9" xlink:href="#radial-gradient-4"/>
    <clipPath id="clippath-2">
      <path class="cls-4" d="M853.4,62c10.2,4.5,11.1,21.6,2.4,28.2-8.3,6.3-21.1,10.2-48.9,2.5-8.6-2.4-10.9-13.6-4-19.3,9.4-7.8,23.5-23.3,50.4-11.5Z"/>
    </clipPath>
  </defs>
  <g class="cls-33">
    <g id="refs">
      <g id="anq6ZI.tif">
        <image id="Layer_0" data-name="Layer 0" width="1934" height="876" transform="translate(-1015.9 -577.2) scale(.5)" xlink:href="aula1-img1-1.png"/>
      </g>
      <image width="720" height="720" transform="translate(-889.2 15.1)" xlink:href="aula1-img1.jpg"/>
    </g>
    <g id="bg_amarelo" data-name="bg amarelo">
      <rect id="bg_amarelo-2" data-name="bg amarelo" class="cls-20" width="1280" height="720"/>
    </g>
    <g id="corpo_bg" data-name="corpo bg">
      <path class="cls-3" d="M784,332.6c-5.1-4.7-5,1.5-.4,8,4.7,6.5,10,13.9,7.5,15.4-2.5,1.4-11.9-15.1-13.8-14-1.9,1.1,9,20.9,5.8,22.5-3.2,1.7-9-19.1-11.6-19.4-2.8-.3,2,22.4-1.4,21.9-3.4-.5-4.2-21-6.1-21.5-2-.5-2.3,15-5,14.6-2.6-.5-.7-14.2-1.4-17.3,0,0-7.4-11-4.1-26.1,0,0-7.9-15.6-18-24.7-10.1-9.1-34-25.8-33.2-82.6,0,0-7.6,22.2-12.6,28.2-5,6,1.3,61.2,3.8,70.3,2.5,9.1,17.7,92.5,8.9,128.6,0,0-12.6,54.6-8,77.8,4.6,23.3,6.7,48.1-5.8,75.7-12.5,27.6-7.9,46.5-7.9,46.5,0,0,3.2,5,2.4,12.4-.7,6.3,3.5,13.9,7.1,23.1.6,1.6,1.2,3.3,1.8,5,3.8,11.5-23.8,15.1-30.6,8.9-3.3-3-3.9-8.4-3.9-14,0-5.7.8-11.6-.2-15.2-1.9-6.9,0-18.2,3-26.3,3-8.2,1.9-28.4-1.4-46.1-3.2-17.6-.3-35.5,4.3-55.5,4.6-19.9-13-41.7-11.9-71.9,1.1-29.1-11-50.5-11.3-87-.4,36.6-12.4,57.9-11.3,87,1.1,30.2-16.5,51.9-11.9,71.9,4.6,19.9,7.6,37.9,4.3,55.5-3.2,17.7-4.3,37.9-1.4,46.1,3,8.2,4.9,19.4,3,26.3-1,3.5-.3,9.4-.2,15.2,0,5.6-.5,11-3.9,14-6.8,6.1-34.3,2.6-30.6-8.9.6-1.7,1.2-3.4,1.8-5,3.6-9.2,7.8-16.8,7.1-23.1-.8-7.4,2.4-12.4,2.4-12.4,0,0,4.6-18.9-7.9-46.5-12.5-27.6-10.4-52.5-5.8-75.7,4.6-23.3-8-77.8-8-77.8-8.8-36.1,6.4-119.5,8.9-128.6,2.5-9.1,8.8-64.3,3.8-70.3-5-6-12.6-28.2-12.6-28.2.8,56.8-23.1,73.5-33.2,82.6-10.1,9.1-18,24.7-18,24.7,3.3,15.2-4.1,26.1-4.1,26.1-.7,3.1,1.2,16.8-1.4,17.3-2.6.5-3-15.1-5-14.6-2,.5-2.7,21-6.1,21.5-3.3.5,1.5-22.2-1.4-21.9-2.6.3-8.5,21.1-11.7,19.4-3.2-1.7,7.7-21.4,5.8-22.5-1.9-1.2-11.3,15.4-13.8,14-2.5-1.4,2.8-8.8,7.5-15.4,4.7-6.5,4.8-12.7-.4-8-5.1,4.7-16.9,5.4-11.9,2.3,4.9-3.1,8.9-7.4,15.2-15.5,6.3-8.1,12-7.7,12-7.7,3.4-4,9.8-18.8,13.4-38.1,3.7-19.3,22.6-39.6,22.6-39.6-.9-36.7,3.5-70.6,16.2-82.6,8.3-7.9,23-12.7,32.1-15,7.1-1.8,13.7-5.2,18.8-10.2,5.8-5.6,6.3-10.2,6.3-21.6s-9.1-18.3-12.6-25c-.9-1.6-1.4-3.4-1.4-5.3,0-9.8,4.9-7.2,4.9-7.2,0-36.7,24.4-36,28.5-36s28.5-.7,28.5,36c0,0,4.9-2.6,4.9,7.2s-.5,3.7-1.4,5.3c-3.6,6.7-12.6,12-12.6,25s.5,15.9,6.3,21.6c5.1,5,11.7,8.4,18.8,10.2,9.1,2.4,23.7,7.1,32.1,15,12.7,12,17.1,45.9,16.2,82.6,0,0,18.9,20.2,22.6,39.6,3.7,19.3,10.1,34.1,13.4,38.1,0,0,5.7-.4,12,7.7,6.3,8.1,10.2,12.4,15.2,15.5,5,3.1-6.8,2.4-11.9-2.3Z"/>
    </g>
    <g id="conector_avc" data-name="conector avc">
      <g id="conector_avc-2" data-name="conector avc">
        <rect class="cls-18" x="524.4" y="58.7" width="103.8" height="1" transform="translate(10 181.3) rotate(-18)"/>
        <circle class="cls-18" cx="621.8" cy="45" r="10.7"/>
      </g>
    </g>
    <g id="ic_avc" data-name="ic avc">
      <g id="ic_avc-2" data-name="ic avc">
        <g>
          <circle class="cls-27" cx="472.3" cy="111.8" r="62.9" transform="translate(-6.5 191.3) rotate(-22.7)"/>
          <g>
            <path class="cls-23" d="M515.2,116.2c0-2.9-1.2-5.5-3.1-7.4,1.2-1.7,2-3.8,2-6.1,0-3.8-2.1-7.2-5.3-9.1,0-.1,0-.2,0-.3,0-4.4-2.8-8.1-6.7-9.8-1.6-4-5.7-6.8-10.4-6.8s-.4,0-.7,0c-.8-4.1-4.6-7.2-9.1-7.2s-9.2,3.9-9.3,8.7h0v62.2h0c.1,6.6,6.2,12,13.8,12s8.2-1.8,10.7-4.5c.8.2,1.6.2,2.4.2,6.2,0,11.2-4.8,11.2-10.7s0-1.3-.2-1.9c2.9-1.9,4.8-5.1,4.8-8.8s-.6-3.8-1.5-5.3c1-1.6,1.5-3.4,1.5-5.3Z"/>
            <g>
              <path class="cls-8" d="M480.1,140c-.5-1.5-.4-3.1.4-4.9.4.3.8.5,1.4.5.1,0,.3,0,.4,0,2.8,0,6.1-3.2,6.5-3.6l-1.1-1.1c-.9.9-3.8,3.3-5.6,3.1-.3,0-.5-.2-.8-.4,0-.1.1-.3.2-.4,5.9-9,5.7-10.3,1.4-14.6l-.5-.5-1.1,1.1.5.5c3.6,3.5,4,4-1.6,12.6-1.7,2.6-2.3,5.1-1.8,7.4-.3,0-.7-.1-1,0-1.7.1-2.7,1.5-2.7,1.5l1.2.9s.7-.8,1.6-.9c.6,0,1.2.3,1.9.9,2.1,3.3,6.2,4.7,6.4,4.8l.5-1.5s-5-1.7-6.2-5.5Z"/>
              <path class="cls-8" d="M495.4,105.4c-.9,3.8.3,6.2,1.9,7.8-1.4,1.3-2.9,1.9-3.9,1.5-1-.4-1.5-1.9-1.3-4.1.1-1.9-.4-3.5-1.5-4.7-2.2-2.5-6.1-2.6-6.3-2.6v1.6s3.3.1,5.1,2.1c.8.9,1.2,2.1,1.1,3.5-.2,3.9,1.3,5.2,2.3,5.6.4.2.9.3,1.3.3,1.4,0,2.9-.8,4.3-2.1.6.4,1.2.8,1.7,1.2.6.4,1.1.7,1.5,1.1,1.1.9,2.4,2.3,2.2,3.8-.2,1.3-1.6,2.7-4.2,3.9-.4.2-.6.4-1,.5-1.1-2.1-2.5-3.4-4-3.7-2.2-.3-3.9,1.4-4,1.5l1.1,1.1s1.2-1.2,2.6-1c1.1.2,2.1,1.3,3,3.1-.8.8-1.3,1.6-1.4,2.6-.4,3.2,3.4,6.1,3.5,6.2l1-1.2c-.9-.7-3.1-2.9-2.9-4.8.1-1.1,1.1-2.1,2.8-2.9,3.2-1.5,4.9-3.2,5.1-5.1.2-1.7-.7-3.5-2.8-5.2-.5-.4-1.1-.8-1.7-1.2-2.5-1.6-5.3-3.4-4.2-8.3l-1.5-.4Z"/>
              <path class="cls-8" d="M504.4,104.9c-.7-1.2-.4-3.3,1.1-6.1,1.2-2.4,1.4-4.5.5-6.3-1.5-3-5.4-3.7-5.6-3.7l-.3,1.5s3.3.6,4.4,2.9c.5,1,.5,2.1,0,3.5-1.3-1.1-2.7-1.5-3.9-1.3-2.5.5-3.7,3.5-3.8,3.7l1.5.6s.9-2.4,2.6-2.7c.9-.2,1.9.3,3,1.3-1.7,3.3-2,5.8-.9,7.5,1.1,1.9,3.5,2.1,4.4,2.1v-1.6c-.7,0-2.3-.1-3.1-1.3Z"/>
              <path class="cls-8" d="M508.8,115l-1,1.2s2.3,2,2.3,4.5c0,1.4-.8,2.8-2.3,4.2l1,1.2c1.9-1.6,2.8-3.4,2.8-5.4,0-3.2-2.7-5.5-2.8-5.6Z"/>
              <path class="cls-8" d="M476.9,89.6l.9-1.3c-.7-.5-1.8-1.4-1.7-2.2,0-.6.7-1.8,4.5-3.4,2.7-1.2,4.2-2.6,4.2-4.2.1-2.4-2.7-4-3.1-4.2l-.8,1.4c.6.3,2.3,1.5,2.3,2.8,0,1-1.2,2-3.3,2.9-3.5,1.5-5.2,3-5.4,4.7-.2,1.8,1.4,3,2.3,3.7Z"/>
              <path class="cls-8" d="M491.7,90.5c-.3.7-1.6,1.9-7.4,1.7-4.3-.2-6.9.5-7.9,2.1-1.2,2,.2,4.7,1.5,7.3,1.9,3.6,2.9,5.9.7,7l.7,1.4c3.7-2,1.6-5.9,0-9.1-1.2-2.2-2.4-4.5-1.6-5.7.4-.7,1.8-1.4,5.9-1.4-.5,1.9-.4,3.3.4,4,.4.4,1,.5,1.6.5,1.5,0,3.1-.9,3.5-1.1l-.8-1.4c-1,.6-2.8,1.2-3.3.7-.3-.2-.3-1.1.2-2.8,4.6,0,7.2-.8,7.9-2.7.3-.9.1-1.9-.3-2.9.8-.1,1.5-.4,2-1,1.4-1.6.8-4.3.8-4.4l-1.5.3s.4,2.1-.5,3.1c-.3.4-.9.6-1.6.6-1.3-1.8-3-3.4-3.4-3.6l-1,1.2c1.9,1.5,4.6,4.6,4,6.2Z"/>
              <path class="cls-8" d="M479.7,123.9v-1.6s-2.6-.2-3.7,1.5c-.9,1.3-.6,3.3.9,5.9l1.4-.8c-1.1-2-1.4-3.5-.9-4.3.5-.8,1.9-.9,2.4-.8Z"/>
              <path class="cls-8" d="M483,86.5c-1.4.9-1.2,2.9-1.2,3.2h1.6c0-.6,0-1.5.5-1.8.4-.2,1.2,0,2.1.5l.8-1.4c-1.6-.9-2.8-1-3.7-.4Z"/>
              <path class="cls-8" d="M482.5,115.2c3,.4,4.8-.1,5.5-1.5,1-1.8-.6-4.3-1.3-5l-1.2,1c.5.6,1.5,2.4,1.1,3.3-.4.7-1.8.9-3.9.7-2.9-.4-5,.1-6.1,1.5-1.3,1.6-.6,3.8-.6,3.8l1.5-.5s-.4-1.4.3-2.4c.7-.9,2.3-1.2,4.7-.9Z"/>
              <path class="cls-8" d="M499.2,140.7c-.7.1-1.5.1-2.1,0,.6-.9.9-1.9.7-3-.5-3.1-4.6-5.2-4.8-5.3l-.7,1.4c1,.5,3.6,2.3,4,4.2.1.8-.2,1.5-.8,2.2-1.3-.5-2.1-1.2-2.2-1.2l-.4-.3-.4.2c-3.9,1.9-5.6-.4-5.7-.5l-1.3.9s2.4,3.3,7.2,1.2c.8.6,2.9,1.8,5.4,1.8s.9,0,1.4-.1c2.6-.5,4.7-2.4,6.5-5.6l-1.4-.7c-1.5,2.8-3.3,4.4-5.4,4.8Z"/>
            </g>
            <path class="cls-23" d="M429.3,116.2c0-2.9,1.2-5.5,3.1-7.4-1.2-1.7-2-3.8-2-6.1,0-3.8,2.1-7.2,5.3-9.1,0-.1,0-.2,0-.3,0-4.4,2.8-8.1,6.7-9.8,1.6-4,5.7-6.8,10.4-6.8s.4,0,.7,0c.8-4.1,4.6-7.2,9.1-7.2s9.2,3.9,9.3,8.7h0v62.2h0c-.1,6.6-6.2,12-13.8,12s-8.2-1.8-10.7-4.5c-.8.2-1.6.2-2.4.2-6.2,0-11.2-4.8-11.2-10.7s0-1.3.2-1.9c-2.9-1.9-4.8-5.1-4.8-8.8s.6-3.8,1.5-5.3c-1-1.6-1.5-3.4-1.5-5.3Z"/>
            <g>
              <path class="cls-8" d="M464.4,140c.5-1.5.4-3.1-.4-4.9-.4.3-.8.5-1.4.5-.1,0-.3,0-.4,0-2.8,0-6.1-3.2-6.5-3.6l1.1-1.1c.9.9,3.8,3.3,5.6,3.1.3,0,.5-.2.8-.4,0-.1-.1-.3-.2-.4-5.9-9-5.7-10.3-1.4-14.6l.5-.5,1.1,1.1-.5.5c-3.6,3.5-4,4,1.6,12.6,1.7,2.6,2.3,5.1,1.8,7.4.3,0,.7-.1,1,0,1.7.1,2.7,1.5,2.7,1.5l-1.2.9s-.7-.8-1.6-.9c-.6,0-1.2.3-1.9.9-2.1,3.3-6.2,4.7-6.4,4.8l-.5-1.5s5-1.7,6.2-5.5Z"/>
              <path class="cls-8" d="M449.2,105.4c.9,3.8-.3,6.2-1.9,7.8,1.4,1.3,2.9,1.9,3.9,1.5,1-.4,1.5-1.9,1.3-4.1-.1-1.9.4-3.5,1.5-4.7,2.2-2.5,6.1-2.6,6.3-2.6v1.6s-3.3.1-5.1,2.1c-.8.9-1.2,2.1-1.1,3.5.2,3.9-1.3,5.2-2.3,5.6-.4.2-.9.3-1.3.3-1.4,0-2.9-.8-4.3-2.1-.6.4-1.2.8-1.7,1.2-.6.4-1.1.7-1.5,1.1-1.1.9-2.4,2.3-2.2,3.8.2,1.3,1.6,2.7,4.2,3.9.4.2.6.4,1,.5,1.1-2.1,2.5-3.4,4-3.7,2.2-.3,3.9,1.4,4,1.5l-1.1,1.1s-1.2-1.2-2.6-1c-1.1.2-2.1,1.3-3,3.1.8.8,1.3,1.6,1.4,2.6.4,3.2-3.4,6.1-3.5,6.2l-1-1.2c.9-.7,3.1-2.9,2.9-4.8-.1-1.1-1.1-2.1-2.8-2.9-3.2-1.5-4.9-3.2-5.1-5.1-.2-1.7.7-3.5,2.8-5.2.5-.4,1.1-.8,1.7-1.2,2.5-1.6,5.3-3.4,4.2-8.3l1.5-.4Z"/>
              <path class="cls-8" d="M440.2,104.9c.7-1.2.4-3.3-1.1-6.1-1.2-2.4-1.4-4.5-.5-6.3,1.5-3,5.4-3.7,5.6-3.7l.3,1.5s-3.3.6-4.4,2.9c-.5,1-.5,2.1,0,3.5,1.3-1.1,2.7-1.5,3.9-1.3,2.5.5,3.7,3.5,3.8,3.7l-1.5.6s-.9-2.4-2.6-2.7c-.9-.2-1.9.3-3,1.3,1.7,3.3,2,5.8.9,7.5-1.1,1.9-3.5,2.1-4.4,2.1v-1.6c.7,0,2.3-.1,3.1-1.3Z"/>
              <path class="cls-8" d="M435.7,115l1,1.2s-2.3,2-2.3,4.5c0,1.4.8,2.8,2.3,4.2l-1,1.2c-1.9-1.6-2.8-3.4-2.8-5.4,0-3.2,2.7-5.5,2.8-5.6Z"/>
              <path class="cls-8" d="M467.6,89.6l-.9-1.3c.7-.5,1.8-1.4,1.7-2.2,0-.6-.7-1.8-4.5-3.4-2.7-1.2-4.2-2.6-4.2-4.2-.1-2.4,2.7-4,3.1-4.2l.7,1.4c-.6.3-2.3,1.5-2.3,2.8,0,1,1.2,2,3.3,2.9,3.5,1.5,5.2,3,5.4,4.7.2,1.8-1.4,3-2.3,3.7Z"/>
              <path class="cls-8" d="M452.8,90.5c.3.7,1.6,1.9,7.4,1.7,4.3-.2,6.9.5,7.9,2.1,1.2,2-.2,4.7-1.5,7.3-1.9,3.6-2.9,5.9-.7,7l-.7,1.4c-3.7-2-1.6-5.9,0-9.1,1.2-2.2,2.4-4.5,1.6-5.7-.4-.7-1.8-1.4-5.9-1.4.5,1.9.4,3.3-.4,4-.4.4-1,.5-1.6.5-1.5,0-3.1-.9-3.5-1.1l.8-1.4c1,.6,2.8,1.2,3.3.7.3-.2.3-1.1-.2-2.8-4.6,0-7.2-.8-7.9-2.7-.3-.9-.1-1.9.3-2.9-.8-.1-1.5-.4-2-1-1.4-1.6-.8-4.3-.8-4.4l1.5.3s-.4,2.1.5,3.1c.3.4.9.6,1.6.6,1.3-1.8,3-3.4,3.4-3.6l1,1.2c-1.9,1.5-4.6,4.6-4,6.2Z"/>
              <path class="cls-8" d="M464.9,123.9v-1.6s2.6-.2,3.7,1.5c.9,1.3.6,3.3-.9,5.9l-1.4-.8c1.1-2,1.4-3.5.9-4.3-.5-.8-1.9-.9-2.4-.8Z"/>
              <path class="cls-8" d="M461.5,86.5c1.4.9,1.2,2.9,1.2,3.2h-1.6c0-.6,0-1.5-.5-1.8-.4-.2-1.2,0-2.1.5l-.8-1.4c1.6-.9,2.8-1,3.7-.4Z"/>
              <path class="cls-8" d="M462.1,115.2c-3,.4-4.8-.1-5.5-1.5-1-1.8.6-4.3,1.3-5l1.2,1c-.5.6-1.5,2.4-1.1,3.3.4.7,1.8.9,3.9.7,2.9-.4,5,.1,6.1,1.5,1.3,1.6.6,3.8.6,3.8l-1.5-.5s.4-1.4-.3-2.4c-.7-.9-2.3-1.2-4.7-.9Z"/>
              <path class="cls-8" d="M445.4,140.7c.7.1,1.5.1,2.1,0-.6-.9-.9-1.9-.7-3,.5-3.1,4.6-5.2,4.8-5.3l.7,1.4c-1,.5-3.6,2.3-4,4.2-.1.8.2,1.5.8,2.2,1.3-.5,2.1-1.2,2.2-1.2l.4-.3.4.2c3.9,1.9,5.6-.4,5.7-.5l1.3.9s-2.4,3.3-7.2,1.2c-.8.6-2.9,1.8-5.4,1.8s-.9,0-1.4-.1c-2.6-.5-4.7-2.4-6.5-5.6l1.4-.7c1.5,2.8,3.3,4.4,5.4,4.8Z"/>
            </g>
          </g>
        </g>
        <g>
          <polygon class="cls-24" points="538.3 111.8 538.9 111.4 538 109.3 538.3 111.8"/>
          <path class="cls-24" d="M535.4,90.4c-.3-.4-.7-.9-1-1.4-.4-.5-.8-1.1-1.1-1.5-.7-1-1.5-1.6-2.2-1.4.9.9,1.6,1.8,2.4,2.7-.4.4-.4,1.1-.2,2,.2.8.7,1.8,1.1,2.7-.2-.7-.5-1.4-.7-2.1.3.5.8,0,1.1.5.3,1.7.8,2.7,1.2,3.7.4,1,.7,2,.5,3.7v-.2c-.1,0,1,2.4,1,2.4,0,.8-.5.6-.8.3.4,1.1.8,2,1.1,3.1.3,1.1.5,2.3.6,3.8.8-1.2.4-3-.2-4.6-.3-.8-.6-1.6-.7-2.4-.2-.8-.1-1.5.2-2.2v.2c-.4-1.4-.7-3-.9-4.7-.3-1.6-.6-3.3-1.3-4.6Z"/>
          <path class="cls-24" d="M536.6,101.9c0,0,0-.1,0-.2,0,0,0,.1,0,.2Z"/>
          <path class="cls-24" d="M441.8,51.3v.3c.1-.2.2-.4,0-.3Z"/>
          <path class="cls-24" d="M479.3,48.1c0,0-.1,0-.2,0-.3.4-.1.3.2,0Z"/>
          <path class="cls-24" d="M501.6,172.4h.9c-.3-.2-.6-.2-.9,0Z"/>
          <path class="cls-24" d="M535.9,134.8h0c0,0,0,0,0,0Z"/>
          <path class="cls-24" d="M519.7,151.7l-.3-.2c0,.2.2.2.3.2Z"/>
          <path class="cls-24" d="M527.5,138.5c.3-.3.5-.7.7-1.1-.3.2-.6.6-.7,1.1Z"/>
          <path class="cls-24" d="M535.9,135.4c0-.2,0-.4,0-.5,0,.2,0,.4,0,.5Z"/>
          <path class="cls-24" d="M501.5,165.8l-1-.6c.2.3.6.4,1,.6Z"/>
          <path class="cls-24" d="M528.3,134.7c.2-.1.4-.4.6-.6-.2,0-.5.3-.6.6Z"/>
          <path class="cls-24" d="M534.2,87.3c.2.4.4.9.7,1.5-.2-.6-.4-1.1-.7-1.5Z"/>
          <path class="cls-24" d="M424.5,148.9c.2,0,.3,0,.5,0-.3-.2-.4-.1-.5,0Z"/>
          <path class="cls-24" d="M467.1,172.2h.2c0,0,0-.1-.2-.2v.2Z"/>
          <path class="cls-24" d="M452.8,169.4c0,0,.2,0,.3-.1-.2,0-.2,0-.3.1Z"/>
          <path class="cls-24" d="M478,171.2c.2,0,.3-.2.5-.4-.2.1-.3.2-.5.4Z"/>
          <path class="cls-24" d="M488.4,170.2c-.5-.2-.1-.6.2-1.1-1.3.1-2.1.5-2.9.8-.4.2-.8.3-1.3.4-.5,0-1.1,0-1.8,0l1.3.2c-1.6,1-4.8,1.7-6.5.8l.5-.3c-.8.4-1.9.4-2.8.2-1-.2-1.8-.3-2.1,0,.7.4,0,.7,1.1,1-1.4.3-2.9.6-4.3.8l-.3-1.3c-.8.1-1.5.2-2.3.3.3.3-.5.1-1.3,0-.8-.1-1.7-.2-1.8.4-1.2-.6.7-.9,1.2-1.4-1.3.2-1.3-.3-2.6.2l-1-1.3c-1.1.1-2.2.1-3.3.1.2,0,0-.2.2-.3-.8.3-1.7,0-2.7-.4-.5-.2-1-.3-1.5-.4-.5,0-1.1,0-1.6.2.1,0,.1,0,.2-.1-1.3.5-3.5-1-4.3-1.6-1.6-.5-1.1.7-1.3,1.1-2.3-1.2-3-1.7-3.7-1.9-.8-.2-1.5-.2-3.7-.7-.7-1.3.2-1.3,1.1-1.5.8-.1,1.6-.2.4-1.5-.4.2-1.1,0-2-.2-.9-.3-2-.8-3.1-1.4-.4-.4-.9-.9-1.4-1.5-.5-.5-1-1.1-1.5-1.7-1-1.2-1.9-2.4-2.3-3.5l-.5.8-1.3-.9-1.3-1c.8.1,1.5.3,2.2.4-.6-.1-2.1-.9-3.2-1.3-2.8-2,.3-2.7-2.4-3.8,0-.1,0-.3,0-.4-.5-.1-1.1-.6-1.7-1.4-.6-.8-1.3-1.7-2.1-2.7h1.5c.2.6.5,1.1.7,1.5.4-1.3-1.6-2.1-2.4-3.5-1.2-1.2-1.6,0-2.4-.6-.3-.5-1-1.2-.9-1.8-.3-1.5,1.2-.8,1.8-.6-1.6-.6-1.8-1-3.4-3.4.5-.4.8-.3,1,0-.4-.5-.8-.8-1.4-.9l.3-1.2c0-.8-.3-1.4-.6-1.8-.3-.4-.7-.7-1.2-1-.4-.3-.9-.6-1.3-1.1-.4-.5-.7-1.2-.9-2.1.5.4.2-.4-.1-1.5-.3-1.1-.6-2.5-.3-3.1.4,1.3,1.6-1,2.5-.3,0-3-1.7-.9-2.3-3.3l1.6.8c-.9-2.2-.9-.4-1.6-2.8.5.6.3-1.1.9.3,0-1.6-.1-2.1-.1-2.7,0-.5,0-1,0-2.4l-1.4-.2c-.2-.9.4-1.3.7-1.6,0,.4,0,1,.2.9,1.2-1.1-.7-1.8.5-3-.5.3-1.1.6-1.2-.5.8.4.9-1.7,1.3-1.8-.7.7,0-2.5-1-2.7.8-1.3.6.5,1.1.6-.5-.6-.4-1.8-.2-2.9.2-1.1.5-2.2.3-2.8,0,0,.2,0,.2,0-.2-.8-.2-1.7-.2-2.9,0-1.1.1-2.5.1-4,.2.4.3.8.5,1.2,1.3-2.6-1.1-2.2-.2-4.5.5.4.8-.5,1.1-1.4.3-.9.7-1.6,1.1-.9,0-.8,0-1.6.1-2.3,0-.7,0-1.4-.2-2.1,1.2-.9.2,3.1,1.4,1.5l.4-2.1h.7c-.4-.3.5-1.9.1-2,.8.1,1.7-.3,2.1,0,.5-1.2,2-2.3,2.1-3.5h.4c-.5-1.7,2.1-3.1,1.4-4.5h1.1c1.2-1.7-.2-2.4.2-3.3.5-.6,1.1-1.5,1.8-2-.6,1.3-.1,1.2.5.9.7-.4,1.6-1,2-1,.7-.7,2.9-2.7,3.1-3.8-.5,1.3.5,1.3-1.1,2.8.9.2,1.5-.4,2.1-1.3.6-.8,1.3-1.8,2.3-2.5l.4.6c2.5-2.4,2.1-3.3,2.7-5.1.8.5.6.8.2,2.1,1.1-.4,2.4-1.2,3.7-2,1.3-.8,2.7-1.6,3.9-2.1,1,.2.6.7,0,1.3,2.1-1.7,5.5-2.1,6.7-4-.5.8,1.1,0,2.2,0,0-.3,0-.7.1-.7,1.4-1.1,5-2.4,7-2.2l-.6.5c1.1-.2,2.1-.4,2.9-.7.9-.3,1.7-.6,2.5-.9,1.6-.6,3.4-1,5.9-.5.9.3-.9,1.2.9,1.2.4-.3.6-.7.9-1,.3-.3.9-.5,2-.2l-.2.9,1.7-.8c-.7-.8-3.4-.8-1.5-1.5,2,1,2-.8,4.4.6-.6,0-1.5.6-1.9,1,2.6.9,4.4,1,6.3,1.1.9.1,1.9.2,2.9.4,1,.3,2.1.7,3.3,1.4,2.8,0,6.1,1.3,8.1,1.4-.5.8-.9,1.6-2.3,1.8,2,1,3.9-.4,4.7,1.6.8-.3,2.3.3,3.7.8,1.4.6,2.9,1.1,3.6.5-.1.4,2.1,1.5-.5.9,3,1.3,2.4,3.8,3.5,4.6.7.5,0-1.5,1.5-.3.1.2,0,.4.2.6h.8c.3.9-1.2.3-1.6.6.8,1,1.8,1.5,2.8,2,.5.3,1.1.5,1.6.9.5.4,1.1.8,1.6,1.3l-.6-.2c.7.8,1.4,1.5,2,2.3h-.2c.7.4,1.4.9,2.1,1.4l-.4.2c.5.4.8.3,1.3.9l-.6.2c.6,0,1.5.6,2.2,1.3.8.7,1.5,1.6,1.9,2.2v.4c0,0,1.4,1.1,1.4,1.1l1.4,1.2c.4,1.9-2.4-1.4-.2,1.6l-1.5-.2c.9,1,1.1,1.7,1.4,2.3.2.6.5,1.1,1,1.8.2-1-.4-2,.5-1.5-.1,1.2.2,1.9.9,2.5.6.6,1.5,1.1,2.1,1.9-.4-.9-.6-1.6-1.6-1.9-.4-1,.4-.6.2-1.2-.4-.4-.8-.7-1.2-1.1l.5-.7-1.8-2c.9-.3-1.1-2.1.3-1.7-1.2-1.4-1.3-2.6-3-3.5-.2-1.4,1.6,1.3,1,.1-4.6-5.7-9.6-11.4-15.4-16.3h.8c-.9,0-1.8-.3-2.5-.4-.3-.7-1.3-2-2.6-3-.6-.5-1.3-1-2-1.3-.7-.3-1.4-.4-1.9-.3-.2-.2.3-.2.5-.2-1.1-.6-2.6-1.6-4.2-2.6-.8-.5-1.7-1-2.6-1.5-.9-.5-1.8-.8-2.6-1.1-1,.4-2.2-.2-3.4-.8-1.2-.6-2.5-1-3.4-.2l.8-.2c1,.9-2.1.9-2.6,1.3-.7-1.5.2-1-.7-2.5l1.3.8v-1.2c-2.6.8-4.6.2-6.5-.5-.9-.3-1.8-.7-2.6-.8-.8-.1-1.7,0-2.4.4.2,0,.1-.3.3-.4-.9-.4-1.8-.2-2.5,0-.8.3-1.4.7-2.1.9-.2-.6.8-.9,1.6-1.3-.8-.1-1.8-.2-2.9,0-1.1.1-2.2.2-3.3.4-2.3.4-4.6.8-6.5.7-1.2,1,.6.9-.6,1.7-1.1,0-2.1-.5-.7-1.1-.9-.2-1.9-.1-3.1.2-1.2.2-2.5.7-3.8,1.3-1.3.5-2.7,1.1-4,1.6-1.3.6-2.6.9-3.9,1.2-2,1.8-.4,1.4-3.6,3.7.6-.9-1.7-1.2.4-2.3v-.7c-3.6,1.6-8.3,4.4-9,7-.8-.9-.7.2-2.3.6-.4.5.2.1.4,0-.5,1.7-1.7,1.3-2.4,2.1v-.4c-.4.8-1,1.6-1.5,2.4-.4.2-1.1.5-1.4.3l.6.6c-1.1,1.1-1.3-.3-2.5,1.2l.7.2c-1.1.6-1.8,2.6-2.6,2.2-.2,0,0-.2.3-.6-1.1.3-1.8,1.3-2.5,2.4-.6,1.1-1.3,2.3-2.2,3.1l1.4.3c-.9,2.1-1,.9-1.4.6-.9,1.2-1.4,1.2-2.6,2.9-.2,1,.2.7.3,1.2-.5.5-.9,1-1.3,1.6v-1.5c0,.9-.2,1.8-.6,2.7-.4.8-.8,1.7-1.3,2.5-.9,1.6-1.7,3.1-1.2,4.4-.8.9-.4-1.3-.8-.7-.5.8-.9,1.7-1.2,2.6-.3,1-.4,2-.6,3-.3,2-.5,3.9-1.3,5.3-.3.6-.5,1.2-.7,1.8-.2.6-.3,1.3-.5,1.9-.3,1.3-.4,2.7-.6,4.1-.1,1.4-.2,2.8-.3,4.2,0,1.4-.2,2.8-.3,4.2h.4c0,1.2-.2,2.6-.1,3.9.5.5.6,1.4.9,2.4.3,1,.5,2.1,1.1,2.8-.3,0-.7.3-1,0,.4,1.7,1.1,3.4.9,4.4l-.4-.5c.2.9.3,1.9.6,3,.3,1,.6,2,.9,3,.7,1.9,1.4,3.6,2.1,4.3.5,1.2,0,1.4-.4,1.9.8,2,1.8,3.2,3.1,4.5,0,.5.2,1,.1,1.6l1.2.3c.3.8-.5.5-.4,1.3,1.3,1.2,2.3,2.7,3.2,4.2.9,1.4,1.6,2.9,2.4,3.8v-.5c1,.6,1.7,2.4.6,1.8.7,1,1.4,1.8,2.1,2.4.7.7,1.5,1.2,2.3,1.8,1.6,1.1,3.5,2.3,5.8,4.4-.2.9,1,1.7,2.2,2.5,1.2.8,2.4,1.5,2.3,2.5,1.3.5,2.2,1.2,3,1.7.9.5,1.7.9,2.8.9,0,.2.1.4-.3.2.3.6,1.3,1.1,2.6,1.6,1.3.5,2.8.9,4.1,1.2v.6c.6-.4,2,0,3.4.2,1.4.2,2.8.5,3.4,0,.2.3-.6.4-1,.4,1,1.5,2.5.2,4.1.8-.2.3.2.7-.2.8,2.7,1.4,6.5,1.8,10.4,1.8,3.9,0,8-.3,11.9-.2,2.2-.2-.9-1.1,1.9-1.4.9.5-1.2,1.4.6,1.4,1.2-.9,1.7-.8,3.4-1.1-.2.4,0,.7-1.1,1.1.5.2,1.6-.3,2.7-.7,1.1-.4,2.4-.8,3.5-.6-.2-.3.1-.6.4-.9.6-.5,1.4-.7,2.1-.9.7-.2,1.5-.3,2.2-.4,1.4-.1,2.5-.2,2.5-.5,0,0,.9-.5,0-.3,1-.4,2.5-.8,2.5-.2.4-.5.6-1.2,1.4-1.6v.8c.3-.3.6-1,1-1.3-.3,0-.6,0-.9,0,1.4,0,2.9-2.4,3.4-1.2l-.4.2c.8-.2,1.5-.4,2.3-.6.6-.9,1.1-1.8,2.5-2.5,1.3.8,3.5-2,5.1-3.1l.2.4c.9-1.4,4-3.9,3.3-3.6,1.1-1,2.8-2.2,2.6-1.4.7-1,2.5-3,2.4-4l2.5-1.1c-.2-1.1.7-2,1.5-2.7.8-.8,1.4-1.4.7-2,1-1,1.2-.5,2-1.1.2-1.1.5-2,1-2.8.5-.9,1-1.7,1.6-2.5h.2c.6-.8.9-1.9,1.2-3,.3-1.2.6-2.4,1.1-3.7h1.5c.4-1.5-.5-2.2.2-3.4.3-.2.3,0,.2.5.2-1.4,1.1-3,1.7-3.9-.3-2.3.3-3.8-.3-5.8.7-.7.8,0,.8.6,0,.6,0,1.3.7.8,1.3-2.8,1.1-6,.7-9.4.3-.3.5.1.7.3,0,0-.2-.4-.5-1.1-.3-.6-.7-1.4-1.2-2.2-.9-1.5-2.1-2.8-2.7-2.2-.9-.8-1.4-1.6-2.2,1,.3.4.5,1.3.6,2,0,.8,0,1.5-.6,1.7l.9.2c0,1.8-.4,1.8-1,1.9-.6.1-1.2.3-1.4,2.3l.4-.8c0,.8.5,1.5,0,2.3-.3.2-.3-.4-.5-.7.2,1.2.5,2.4.6,3.6-.6,0-.8-.2-1.1-.9-.7,3,1.9-.2.6,3.4-.6.6-.5-.4-.7-1-1.3,1.5-.8,2.8-.9,4.7-.8-.3-.3-1.3-1.3-.1.5-.1,1.3,0,1,1-.6-.8-.7.7-1.3,1.6.4-.1.7.1.7.6,0,.6-.5.9-.8,1.6.5-.3.9-.6,1.3-1,0,1.1-.4,1.7-1,2.3-.5.5-1.1,1-1.7,1.6,0-.2,0-.5,0-.7-1,1.2-2.3,2.3-2.7,4.4v-.2c-.6,1.8-.2,1.7.3,1.8.4,0,.8,0,0,2.1-.9,1.1-1.9-2.1-3,1.2.7-.4.8.3.6,1.3-.3,1-.9,2.3-1.4,3.2,0-.9,0-1.7,0-2.6-.5.6-.9,1.9-1.4,2.1l.3.2c1.1.8-1.7,1.8-2.1,3.3-.2-2.6,0-2.4-1.1-3.9,0,.8-.1,1.7-.5,2.5-.3.9-.9,1.7-1.8,2.5.1-.8.3-1.6.4-2.4-1.2,1-2.1,2.5-3,4.1-.4.8-.8,1.6-1.2,2.4-.4.8-.7,1.5-1.1,2.2,0-1.3-1.2-1-.8-2.4-.8.7-1.6,1.3-2.3,2v-1.5c-.3,1.7-1.9,1.8-.9,3,.2-.4,0-.5.6-.8.2.4.3,1.6-1.1,2.4-1.1.3.2-.9-.3-1.1-.5,1.1-1.1.2-1.8,1.2h1.2c-.2,1.3-1.5,1.1-2.3,2,1-1,.3-1.2-.4-1.5h.1c-.7.5-1.3,1.5-2,1.3v-1.4s-.6,1.4-.6,1.4c-.5,0-.9-.2-.4-.8-1.7.4-1.4,1-1.3,1.6,0,.3.1.6-.2.9-.3.3-.9.6-2.1.7-.1-.5.3-.9,1.5-1.2-.1-.8-.6-1-1.8-.9,0,0,0,0,0-.1-2.2.9-5.1,1.7-6.4,3Z"/>
          <path class="cls-24" d="M494.8,167.3c1.2-.4,2.1-.9,2.5-1.3-.3-.1-2.8.6-2.5,1.3Z"/>
          <path class="cls-24" d="M446.4,56.4c-.1.1-.3.2-.4.3.1-.1.3-.2.4-.3Z"/>
          <path class="cls-24" d="M455.8,52.5c-.1,0-.4-.1-.6-.1,0,.2.2.4.6.1Z"/>
          <path class="cls-24" d="M416.8,136.6h0s0,0,0,0Z"/>
          <path class="cls-24" d="M420,81.5c0-1,0-1.4-.3-1.6-.2.5-.2,1.1.3,1.6Z"/>
          <path class="cls-24" d="M412.6,99.3c0,.1,0,.3.1.4,0-.3,0-.4-.1-.4Z"/>
          <path class="cls-24" d="M418.6,139.1c-.8-.6-1.3-1.7-1.9-2.4.3.3.5.9.7,1.4.3.5.6.9,1.1,1Z"/>
          <polygon class="cls-24" points="468 49 467 49.7 468.1 49.2 468 49"/>
          <path class="cls-24" d="M458.4,50.8c-.5,0-2,.7-1.5.9.4-.4.9-.7,1.5-.9Z"/>
          <polygon class="cls-24" points="426.1 68.7 426.4 69.5 426.6 68.5 426.1 68.7"/>
        </g>
      </g>
    </g>
    <g id="conector_nefropatia" data-name="conector nefropatia">
      <g id="conector_nefropatia-2" data-name="conector nefropatia">
        <rect class="cls-18" x="456.9" y="351.3" width="149.6" height="1" transform="translate(-102.4 285.5) rotate(-27.5)"/>
        <circle class="cls-18" cx="594.5" cy="319.5" r="10.7"/>
      </g>
    </g>
    <g id="ic_nefropatia" data-name="ic nefropatia">
      <g id="ic_nefropatia-2" data-name="ic nefropatia">
        <g>
          <circle class="cls-27" cx="409.1" cy="421.7" r="62.9"/>
          <g>
            <path class="cls-5" d="M434.2,441.6c-2.2,7.5-5.9,15.4-13.1,18.3-4.8,1.9-10.4,1.2-14.9-1.4-4.5-2.6-7.8-6.8-10-11.5-2.2-4.8-3.2-10.5-1.6-15.5.6-1.9,1.5-3.7,1.7-5.7.3-4.2-3-7.7-5.3-11.2-2.4-3.6-4-7.7-4.5-12-.3-2.2-.3-4.5.5-6.6,1.8-4.5,7.2-6.8,12-6.3,4.8.4,9.2,3,13.3,5.6,10.8,6.9,21.7,16,23.7,28.7.9,5.9-.2,11.9-1.8,17.7Z"/>
            <path class="cls-26" d="M436.1,423.9c-.5-2.9-1.4-5.6-2.7-8.1-4.4,11.4-14.5,20.3-30.4,20.3s-6.1-.5-8.9-1.1c-.4,4.1.5,8.4,2.2,12.1,2.1,4.7,5.5,8.9,10,11.5,4.5,2.6,10.1,3.3,14.9,1.4,7.2-2.9,11-10.9,13.1-18.3,1.7-5.7,2.8-11.8,1.8-17.7Z"/>
            <path class="cls-11" d="M394.7,413.9c1.6-1,2.3-2.9,3.3-4.4,3-4.7,8.5-6.8,13.7-8.8,2.1-.8,4.7-2.3,4.4-4.6-.2-1.3-1.3-2.2-2.3-3-5.1-3.6-11.2-5.7-17.3-6-1.7,0-3.5,0-5.2.4-4.4,1.2-7.7,5.3-8.5,9.8-.9,4.5.5,9.3,3.1,13,1,1.5,2.3,2.8,3.9,3.6,1.6.8,3.6.9,5.1,0Z"/>
          </g>
        </g>
        <g>
          <polygon class="cls-24" points="475.1 421.7 475.7 421.3 474.9 419.2 475.1 421.7"/>
          <path class="cls-24" d="M472.2,400.3c-.3-.4-.7-.9-1-1.4-.4-.5-.8-1.1-1.1-1.5-.7-1-1.5-1.6-2.2-1.4.9.9,1.6,1.8,2.4,2.7-.4.4-.4,1.1-.2,2,.2.8.7,1.8,1.1,2.7-.2-.7-.5-1.4-.7-2.1.3.5.8,0,1.1.5.3,1.7.8,2.7,1.2,3.7.4,1,.7,2,.5,3.7v-.2c-.1,0,1,2.4,1,2.4,0,.8-.5.6-.8.3.4,1.1.8,2,1.1,3.1.3,1.1.5,2.3.6,3.8.8-1.2.4-3-.2-4.6-.3-.8-.6-1.6-.7-2.4-.2-.8-.1-1.5.2-2.2v.2c-.4-1.4-.7-3-.9-4.7-.3-1.6-.6-3.3-1.3-4.6Z"/>
          <path class="cls-24" d="M473.5,411.7c0,0,0-.1,0-.2,0,0,0,.1,0,.2Z"/>
          <path class="cls-24" d="M378.6,361.1v.3c.1-.2.2-.4,0-.3Z"/>
          <path class="cls-24" d="M416.1,357.9c0,0-.1,0-.2,0-.3.4-.1.3.2,0Z"/>
          <path class="cls-24" d="M438.5,482.3h.9c-.3-.2-.6-.2-.9,0Z"/>
          <path class="cls-24" d="M472.7,444.7h0c0,0,0,0,0,0Z"/>
          <path class="cls-24" d="M456.6,461.6l-.3-.2c0,.2.2.2.3.2Z"/>
          <path class="cls-24" d="M464.3,448.3c.3-.3.5-.7.7-1.1-.3.2-.6.6-.7,1.1Z"/>
          <path class="cls-24" d="M472.7,445.2c0-.2,0-.4,0-.5,0,.2,0,.4,0,.5Z"/>
          <path class="cls-24" d="M438.3,475.6l-1-.6c.2.3.6.4,1,.6Z"/>
          <path class="cls-24" d="M465.1,444.6c.2-.1.4-.4.6-.6-.2,0-.5.3-.6.6Z"/>
          <path class="cls-24" d="M471,397.1c.2.4.4.9.7,1.5-.2-.6-.4-1.1-.7-1.5Z"/>
          <path class="cls-24" d="M361.3,458.8c.2,0,.3,0,.5,0-.3-.2-.4-.1-.5,0Z"/>
          <path class="cls-24" d="M403.9,482.1h.2c0,0,0-.1-.2-.2v.2Z"/>
          <path class="cls-24" d="M389.6,479.2c0,0,.2,0,.3-.1-.2,0-.2,0-.3.1Z"/>
          <path class="cls-24" d="M414.8,481c.2,0,.3-.2.5-.4-.2.1-.3.2-.5.4Z"/>
          <path class="cls-24" d="M425.2,480.1c-.5-.2-.1-.6.2-1.1-1.3.1-2.1.5-2.9.8-.4.2-.8.3-1.3.4-.5,0-1.1,0-1.8,0l1.3.2c-1.6,1-4.8,1.7-6.5.8l.5-.3c-.8.4-1.9.4-2.8.2-1-.2-1.8-.3-2.1,0,.7.4,0,.7,1.1,1-1.4.3-2.9.6-4.3.8l-.3-1.3c-.8.1-1.5.2-2.3.3.3.3-.5.1-1.3,0-.8-.1-1.7-.2-1.8.4-1.2-.6.7-.9,1.2-1.4-1.3.2-1.3-.3-2.6.2l-1-1.3c-1.1.1-2.2.1-3.3.1.2,0,0-.2.2-.3-.8.3-1.7,0-2.7-.4-.5-.2-1-.3-1.5-.4-.5,0-1.1,0-1.6.2.1,0,.1,0,.2-.1-1.3.5-3.5-1-4.3-1.6-1.6-.5-1.1.7-1.3,1.1-2.3-1.2-3-1.7-3.7-1.9-.8-.2-1.5-.2-3.7-.7-.7-1.3.2-1.3,1.1-1.5.8-.1,1.6-.2.4-1.5-.4.2-1.1,0-2-.2-.9-.3-2-.8-3.1-1.4-.4-.4-.9-.9-1.4-1.5-.5-.5-1-1.1-1.5-1.7-1-1.2-1.9-2.4-2.3-3.5l-.5.8-1.3-.9-1.3-1c.8.1,1.5.3,2.2.4-.6-.1-2.1-.9-3.2-1.3-2.8-2,.3-2.7-2.4-3.8,0-.1,0-.3,0-.4-.5-.1-1.1-.6-1.7-1.4-.6-.8-1.3-1.7-2.1-2.7h1.5c.2.6.5,1.1.7,1.5.4-1.3-1.6-2.1-2.4-3.5-1.2-1.2-1.6,0-2.4-.6-.3-.5-1-1.2-.9-1.8-.3-1.5,1.2-.8,1.8-.6-1.6-.6-1.8-1-3.4-3.4.5-.4.8-.3,1,0-.4-.5-.8-.8-1.4-.9l.3-1.2c0-.8-.3-1.4-.6-1.8-.3-.4-.7-.7-1.2-1-.4-.3-.9-.6-1.3-1.1-.4-.5-.7-1.2-.9-2.1.5.4.2-.4-.1-1.5-.3-1.1-.6-2.5-.3-3.1.4,1.3,1.6-1,2.5-.3,0-3-1.7-.9-2.3-3.3l1.6.8c-.9-2.2-.9-.4-1.6-2.8.5.6.3-1.1.9.3,0-1.6-.1-2.1-.1-2.7,0-.5,0-1,0-2.4l-1.4-.2c-.2-.9.4-1.3.7-1.6,0,.4,0,1,.2.9,1.2-1.1-.7-1.8.5-3-.5.3-1.1.6-1.2-.5.8.4.9-1.7,1.3-1.8-.7.7,0-2.5-1-2.7.8-1.3.6.5,1.1.6-.5-.6-.4-1.8-.2-2.9.2-1.1.5-2.2.3-2.8,0,0,.2,0,.2,0-.2-.8-.2-1.7-.2-2.9,0-1.1.1-2.5.1-4,.2.4.3.8.5,1.2,1.3-2.6-1.1-2.2-.2-4.5.5.4.8-.5,1.1-1.4.3-.9.7-1.6,1.1-.9,0-.8,0-1.6.1-2.3,0-.7,0-1.4-.2-2.1,1.2-.9.2,3.1,1.4,1.5l.4-2.1h.7c-.4-.3.5-1.9.1-2,.8.1,1.7-.3,2.1,0,.5-1.2,2-2.3,2.1-3.5h.4c-.5-1.7,2.1-3.1,1.4-4.5h1.1c1.2-1.7-.2-2.4.2-3.3.5-.6,1.1-1.5,1.8-2-.6,1.3-.1,1.2.5.9.7-.4,1.6-1,2-1,.7-.7,2.9-2.7,3.1-3.8-.5,1.3.5,1.3-1.1,2.8.9.2,1.5-.4,2.1-1.3.6-.8,1.3-1.8,2.3-2.5l.4.6c2.5-2.4,2.1-3.3,2.7-5.1.8.5.6.8.2,2.1,1.1-.4,2.4-1.2,3.7-2,1.3-.8,2.7-1.6,3.9-2.1,1,.2.6.7,0,1.3,2.1-1.7,5.5-2.1,6.7-4-.5.8,1.1,0,2.2,0,0-.3,0-.7.1-.7,1.4-1.1,5-2.4,7-2.2l-.6.5c1.1-.2,2.1-.4,2.9-.7.9-.3,1.7-.6,2.5-.9,1.6-.6,3.4-1,5.9-.5.9.3-.9,1.2.9,1.2.4-.3.6-.7.9-1,.3-.3.9-.5,2-.2l-.2.9,1.7-.8c-.7-.8-3.4-.8-1.5-1.5,2,1,2-.8,4.4.6-.6,0-1.5.6-1.9,1,2.6.9,4.4,1,6.3,1.1.9.1,1.9.2,2.9.4,1,.3,2.1.7,3.3,1.4,2.8,0,6.1,1.3,8.1,1.4-.5.8-.9,1.6-2.3,1.8,2,1,3.9-.4,4.7,1.6.8-.3,2.3.3,3.7.8,1.4.6,2.9,1.1,3.6.5-.1.4,2.1,1.5-.5.9,3,1.3,2.4,3.8,3.5,4.6.7.5,0-1.5,1.5-.3.1.2,0,.4.2.6h.8c.3.9-1.2.3-1.6.6.8,1,1.8,1.5,2.8,2,.5.3,1.1.5,1.6.9.5.4,1.1.8,1.6,1.3l-.6-.2c.7.8,1.4,1.5,2,2.3h-.2c.7.4,1.4.9,2.1,1.4l-.4.2c.5.4.8.3,1.3.9l-.6.2c.6,0,1.5.6,2.2,1.3.8.7,1.5,1.6,1.9,2.2v.4c0,0,1.4,1.1,1.4,1.1l1.4,1.2c.4,1.9-2.4-1.4-.2,1.6l-1.5-.2c.9,1,1.1,1.7,1.4,2.3.2.6.5,1.1,1,1.8.2-1-.4-2,.5-1.5-.1,1.2.2,1.9.9,2.5.6.6,1.5,1.1,2.1,1.9-.4-.9-.6-1.6-1.6-1.9-.4-1,.4-.6.2-1.2-.4-.4-.8-.7-1.2-1.1l.5-.7-1.8-2c.9-.3-1.1-2.1.3-1.7-1.2-1.4-1.3-2.6-3-3.5-.2-1.4,1.6,1.3,1,.1-4.6-5.7-9.6-11.4-15.4-16.3h.8c-.9,0-1.8-.3-2.5-.4-.3-.7-1.3-2-2.6-3-.6-.5-1.3-1-2-1.3-.7-.3-1.4-.4-1.9-.3-.2-.2.3-.2.5-.2-1.1-.6-2.6-1.6-4.2-2.6-.8-.5-1.7-1-2.6-1.5-.9-.5-1.8-.8-2.6-1.1-1,.4-2.2-.2-3.4-.8-1.2-.6-2.5-1-3.4-.2l.8-.2c1,.9-2.1.9-2.6,1.3-.7-1.5.2-1-.7-2.5l1.3.8v-1.2c-2.6.8-4.6.2-6.5-.5-.9-.3-1.8-.7-2.6-.8-.8-.1-1.7,0-2.4.4.2,0,.1-.3.3-.4-.9-.4-1.8-.2-2.5,0-.8.3-1.4.7-2.1.9-.2-.6.8-.9,1.6-1.3-.8-.1-1.8-.2-2.9,0-1.1.1-2.2.2-3.3.4-2.3.4-4.6.8-6.5.7-1.2,1,.6.9-.6,1.7-1.1,0-2.1-.5-.7-1.1-.9-.2-1.9-.1-3.1.2-1.2.3-2.5.7-3.8,1.3-1.3.5-2.7,1.1-4,1.6-1.3.6-2.6.9-3.9,1.2-2,1.8-.4,1.4-3.6,3.7.6-.9-1.7-1.2.4-2.3v-.7c-3.6,1.6-8.3,4.4-9,7-.8-.9-.7.2-2.3.6-.4.5.2.1.4,0-.5,1.7-1.7,1.3-2.4,2.1v-.4c-.4.8-1,1.6-1.5,2.4-.4.2-1.1.5-1.4.3l.6.6c-1.1,1.1-1.3-.3-2.5,1.2l.7.2c-1.1.6-1.8,2.6-2.6,2.2-.2,0,0-.2.3-.6-1.1.3-1.8,1.3-2.5,2.4-.6,1.1-1.3,2.3-2.2,3.1l1.4.3c-.9,2.1-1,.9-1.4.6-.9,1.2-1.4,1.2-2.6,2.9-.2,1,.2.7.3,1.2-.5.5-.9,1-1.3,1.6v-1.5c0,.9-.2,1.8-.6,2.7-.4.8-.8,1.7-1.3,2.5-.9,1.6-1.7,3.1-1.2,4.4-.8.9-.4-1.3-.8-.7-.5.8-.9,1.7-1.2,2.6-.3,1-.4,2-.6,3-.3,2-.5,3.9-1.3,5.3-.3.6-.5,1.2-.7,1.8-.2.6-.3,1.3-.5,1.9-.3,1.3-.4,2.7-.6,4.1-.1,1.4-.2,2.8-.3,4.2,0,1.4-.2,2.8-.3,4.2h.4c0,1.2-.2,2.6-.1,3.9.5.5.6,1.4.9,2.4.3,1,.5,2.1,1.1,2.8-.3,0-.7.3-1,0,.4,1.7,1.1,3.4.9,4.4l-.4-.5c.2.9.3,1.9.6,3,.3,1,.6,2,.9,3,.7,1.9,1.4,3.6,2.1,4.3.5,1.2,0,1.4-.4,1.9.8,2,1.8,3.2,3.1,4.5,0,.5.2,1,.1,1.6l1.2.3c.3.8-.5.5-.4,1.3,1.3,1.2,2.3,2.7,3.2,4.2.9,1.4,1.6,2.9,2.4,3.8v-.5c1,.6,1.7,2.4.6,1.8.7,1,1.4,1.8,2.1,2.4.7.7,1.5,1.2,2.3,1.8,1.6,1.1,3.5,2.3,5.8,4.4-.2.9,1,1.7,2.2,2.5,1.2.8,2.4,1.5,2.3,2.5,1.3.5,2.2,1.2,3,1.7.9.5,1.7.9,2.8.9,0,.2.1.4-.3.2.3.6,1.3,1.1,2.6,1.6,1.3.5,2.8.9,4.1,1.2v.6c.6-.4,2,0,3.4.2,1.4.2,2.8.5,3.4,0,.2.3-.6.4-1,.4,1,1.5,2.5.2,4.1.8-.2.3.2.7-.2.8,2.7,1.4,6.5,1.8,10.4,1.8,3.9,0,8-.3,11.9-.2,2.2-.2-.9-1.1,1.9-1.4.9.5-1.2,1.4.6,1.4,1.2-.9,1.7-.8,3.4-1.1-.2.4,0,.7-1.1,1.1.5.2,1.6-.3,2.7-.7,1.1-.4,2.4-.8,3.5-.6-.2-.3.1-.6.4-.9.6-.5,1.4-.7,2.1-.9.7-.2,1.5-.3,2.2-.4,1.4-.1,2.5-.2,2.5-.5,0,0,.9-.5,0-.3,1-.4,2.5-.8,2.5-.2.4-.5.6-1.2,1.4-1.6v.8c.3-.3.6-1,1-1.3-.3,0-.6,0-.9,0,1.4,0,2.9-2.4,3.4-1.2l-.4.2c.8-.2,1.5-.4,2.3-.6.6-.9,1.1-1.8,2.5-2.5,1.3.8,3.5-2,5.1-3.1l.2.4c.9-1.4,4-3.9,3.3-3.6,1.1-1,2.8-2.2,2.6-1.4.7-1,2.5-3,2.4-4l2.5-1.1c-.2-1.1.7-2,1.5-2.7.8-.8,1.4-1.4.7-2,1-1,1.2-.5,2-1.1.2-1.1.5-2,1-2.8.5-.9,1-1.7,1.6-2.5h.2c.6-.8.9-1.9,1.2-3,.3-1.2.6-2.4,1.1-3.7h1.5c.4-1.5-.5-2.2.2-3.4.3-.2.3,0,.2.5.2-1.4,1.1-3,1.7-3.9-.3-2.3.3-3.8-.3-5.8.7-.7.8,0,.8.6,0,.6,0,1.3.7.8,1.3-2.8,1.1-6,.7-9.4.3-.3.5.1.7.3,0,0-.2-.4-.5-1.1-.3-.6-.7-1.4-1.2-2.2-.9-1.5-2.1-2.8-2.7-2.2-.9-.8-1.4-1.6-2.2,1,.3.4.5,1.3.6,2,0,.8,0,1.5-.6,1.7l.9.2c0,1.8-.4,1.8-1,1.9-.6.1-1.2.3-1.4,2.3l.4-.8c0,.8.5,1.5,0,2.3-.3.2-.3-.4-.5-.7.2,1.2.5,2.4.6,3.6-.6,0-.8-.2-1.1-.9-.7,3,1.9-.2.6,3.4-.6.6-.5-.4-.7-1-1.3,1.5-.8,2.8-.9,4.7-.8-.3-.3-1.3-1.3-.1.5-.1,1.3,0,1,1-.6-.8-.7.7-1.3,1.6.4-.1.7.1.7.6,0,.6-.5.9-.8,1.6.5-.3.9-.6,1.3-1,0,1.1-.4,1.7-1,2.3-.5.5-1.1,1-1.7,1.6,0-.2,0-.5,0-.7-1,1.2-2.3,2.3-2.7,4.4v-.2c-.6,1.8-.2,1.7.3,1.8.4,0,.8,0,0,2.1-.9,1.1-1.9-2.1-3,1.2.7-.4.8.3.6,1.3-.3,1-.9,2.3-1.4,3.2,0-.9,0-1.7,0-2.6-.5.6-.9,1.9-1.4,2.1l.3.2c1.1.8-1.7,1.8-2.1,3.3-.2-2.6,0-2.4-1.1-3.9,0,.8-.1,1.7-.5,2.5-.3.9-.9,1.7-1.8,2.5.1-.8.3-1.6.4-2.4-1.2,1-2.1,2.5-3,4.1-.4.8-.8,1.6-1.2,2.4-.4.8-.7,1.5-1.1,2.2,0-1.3-1.2-1-.8-2.4-.8.7-1.6,1.3-2.3,2v-1.5c-.3,1.7-1.9,1.8-.9,3,.2-.4,0-.5.6-.8.2.4.3,1.6-1.1,2.4-1.1.3.2-.9-.3-1.1-.5,1.1-1.1.2-1.8,1.2h1.2c-.2,1.3-1.5,1.1-2.3,2,1-1,.3-1.2-.4-1.5h.1c-.7.5-1.3,1.5-2,1.3v-1.4s-.6,1.4-.6,1.4c-.5,0-.9-.2-.4-.8-1.7.4-1.4,1-1.3,1.6,0,.3.1.6-.2.9-.3.3-.9.6-2.1.7-.1-.5.3-.9,1.5-1.2-.1-.8-.6-1-1.8-.9,0,0,0,0,0-.1-2.2.9-5.1,1.7-6.4,3Z"/>
          <path class="cls-24" d="M431.6,477.1c1.2-.4,2.1-.9,2.5-1.3-.3-.1-2.8.6-2.5,1.3Z"/>
          <path class="cls-24" d="M383.2,366.2c-.1.1-.3.2-.4.3.1-.1.3-.2.4-.3Z"/>
          <path class="cls-24" d="M392.6,362.3c-.1,0-.4-.1-.6-.1,0,.2.2.4.6.1Z"/>
          <path class="cls-24" d="M353.6,446.5h0s0,0,0,0Z"/>
          <path class="cls-24" d="M356.8,391.3c0-1,0-1.4-.3-1.6-.2.5-.2,1.1.3,1.6Z"/>
          <path class="cls-24" d="M349.4,409.2c0,.1,0,.3.1.4,0-.3,0-.4-.1-.4Z"/>
          <path class="cls-24" d="M355.5,448.9c-.8-.6-1.3-1.7-1.9-2.4.3.3.5.9.7,1.4.3.5.6.9,1.1,1Z"/>
          <polygon class="cls-24" points="404.8 358.9 403.8 359.6 404.9 359 404.8 358.9"/>
          <path class="cls-24" d="M395.2,360.7c-.5,0-2,.7-1.5.9.4-.4.9-.7,1.5-.9Z"/>
          <polygon class="cls-24" points="363 378.5 363.2 379.3 363.4 378.3 363 378.5"/>
        </g>
      </g>
    </g>
    <g id="conector_pe" data-name="conector pe">
      <g id="conector_pe-2" data-name="conector pe">
        <rect class="cls-18" x="552.9" y="593.4" width="1" height="114.5" transform="translate(-289.5 788.8) rotate(-58.9)"/>
        <circle class="cls-18" cx="599.1" cy="677.5" r="10.7"/>
      </g>
    </g>
    <g id="ic_pe" data-name="ic pe">
      <g id="ic_pe-2" data-name="ic pe">
        <g class="cls-30">
          <circle class="cls-27" cx="479" cy="613" r="62.9" transform="translate(-203.1 987.1) rotate(-80.7)"/>
          <g>
            <path class="cls-1" d="M439.8,607c-2.3-5.3-19.7-28.1-25.8-34.5l28.1-15.4c3.5,6.3,21.5,38.8,30.9,43.9,2.4,1.3,14.1,9,15.9,10.7,7.4,7.3,8,13,18.5,17.4,0,0,8.4,1.2,12.7,3.1,0,0,5.6.6,7.4,1.1,1.8.4.7,4.9-1.4,5.3,0,0,1.5,2.9-2.8,3.5,0,0,.5,3.6-4.7,2.5,0,0,.2,4.7-7,2.3,0,0,1.7,4.7-8.8,1,0,0-8.3,3.5-10.8,4.2-4.9,1.3-10.7-.5-15.2-6.2-4.4-5.7-10.8-8.5-17.9-10.3-7.1-1.9-17.4,1.7-20.8-7.3-3.4-9,2.5-18.9,1.5-21.3Z"/>
            <path class="cls-6" d="M482.1,646.4c-3.6-2.4-5.5-6.5-9.1-8.8-4-2.6-8.9-3.6-13.4-5-4.3-1.3-8.2-3.5-12.2-5.5-5.5-2.8-4.2-16.7-5.2-20.7h0c0-.2-.1-.5-.2-.8-1.3-3.5-7-12-8.5-15.2-3.2-6.6-9.4-17.5-12-22l-7.6,4.1c5.2,5.4,20,24.6,24.1,31.3.5.8,1.6,2.5,1.9,3.9,0-.1,0-.2.2-.2,0,.2-.1.2-.2.2-1.4,8.5-3.8,15.1-1.7,20.6,3.4,9,13.7,5.4,20.8,7.3,7.1,1.9,13.5,4.7,17.9,10.3,4.4,5.7,10.2,7.5,15.2,6.2,1.9-.5,8.9-3.8,10.8-4.2-5.7-1.9-15.6,1.9-20.7-1.5Z"/>
            <path class="cls-6" d="M513,633.8c.1,0,4.9-1.2,13.4,4.6,0,0,0,.1.1.2,0,0-.2,0-.3,0-.2-.1-.4-.2-.7-.3-.2,0-.3,0-.4,0-8.1-5-12-3.9-12.1-3.9-.2,0-.3-.1-.3-.3,0-.2.1-.3.3-.3Z"/>
            <path class="cls-6" d="M511.5,636.7c.1,0,5.5-1,12,5.2,0,0,0,.1,0,.2,0,0-.2,0-.3,0,0,0,0,0,0,0-.3-.3-.6-.5-1-.5,0,0,0,0-.1,0-6.4-5.2-10.6-4.3-10.7-4.3-.2,0-.3-.1-.3-.3,0-.2.1-.3.3-.3Z"/>
            <path class="cls-6" d="M508.8,639.5c.4,0,5.7-.6,10.1,4.9,0,0,0,.2,0,.3-.1,0-.2,0-.3,0,0,0,0,0,0,0-.2-.4-.6-.7-1.2-.8-4.6-4.3-8.6-3.7-8.7-3.7-.2,0-.3-.1-.3-.3,0-.2.1-.3.3-.3Z"/>
            <path class="cls-6" d="M503.5,642.8c.3,0,5.4,0,8.5,4,0,0,0,.2,0,.3,0,0-.2,0-.3,0,0,0,0,0,0,0-.2-.3-.5-.5-.9-.6-3.3-3.1-7.2-3-7.3-3-.2,0-.3-.1-.3-.3,0-.2.1-.3.3-.3Z"/>
            <path class="cls-29" d="M522.4,632.5s-.9,2.1.5,2.6c1.4.5,4.2,1.9,4.5.4.3-1.8.3-2.3.3-2.3,0,0,.9-.1-5.2-.8Z"/>
            <path class="cls-29" d="M522,636.7s-1.6,1.9.3,3c1.9,1.2,3.3.5,3.7-1.2l-4-1.8Z"/>
            <path class="cls-29" d="M519.5,639.8s-1.8,1.5-.1,2.8c1.6,1.4,3.4.9,3.7-.7,0,0-3.6-2.2-3.6-2.2Z"/>
            <path class="cls-29" d="M515,642s-1.7,1.3-.2,2.6c1.5,1.3,3.1,1,3.4-.5,0,0-3.2-2.1-3.2-2.1Z"/>
            <path class="cls-29" d="M508.2,644.8s-1.5,1.2,0,2.3c1.9,1.4,3.3,0,3.2-.4,0-.1-1-.8-1.9-1.2-.7-.4-1.3-.7-1.3-.7Z"/>
          </g>
        </g>
        <g>
          <polygon class="cls-24" points="545 613 545.6 612.6 544.8 610.5 545 613"/>
          <path class="cls-24" d="M542.2,591.6c-.3-.4-.7-.9-1-1.4-.4-.5-.8-1.1-1.1-1.5-.7-1-1.5-1.6-2.2-1.4.9.9,1.6,1.8,2.4,2.7-.4.4-.4,1.1-.2,2,.2.8.7,1.8,1.1,2.7-.2-.7-.5-1.4-.7-2.1.3.5.8,0,1.1.5.3,1.7.8,2.7,1.2,3.7.4,1,.7,2,.5,3.7v-.2c-.1,0,1,2.4,1,2.4,0,.8-.5.6-.8.3.4,1.1.8,2,1.1,3.1.3,1.1.5,2.3.6,3.8.8-1.2.4-3-.2-4.6-.3-.8-.6-1.6-.7-2.4-.2-.8-.1-1.5.2-2.2v.2c-.4-1.4-.7-3-.9-4.7-.3-1.6-.6-3.3-1.3-4.6Z"/>
          <path class="cls-24" d="M543.4,603c0,0,0-.1,0-.2,0,0,0,.1,0,.2Z"/>
          <path class="cls-24" d="M448.6,552.5v.3c.1-.2.2-.4,0-.3Z"/>
          <path class="cls-24" d="M486,549.3c0,0-.1,0-.2,0-.3.4-.1.3.2,0Z"/>
          <path class="cls-24" d="M508.4,673.6h.9c-.3-.2-.6-.2-.9,0Z"/>
          <path class="cls-24" d="M542.7,636h0c0,0,0,0,0,0Z"/>
          <path class="cls-24" d="M526.5,652.9l-.3-.2c0,.2.2.2.3.2Z"/>
          <path class="cls-24" d="M534.2,639.6c.3-.3.5-.7.7-1.1-.3.2-.6.6-.7,1.1Z"/>
          <path class="cls-24" d="M542.6,636.6c0-.2,0-.4,0-.5,0,.2,0,.4,0,.5Z"/>
          <path class="cls-24" d="M508.3,667l-1-.6c.2.3.6.4,1,.6Z"/>
          <path class="cls-24" d="M535,635.9c.2-.1.4-.4.6-.6-.2,0-.5.3-.6.6Z"/>
          <path class="cls-24" d="M540.9,588.5c.2.4.4.9.7,1.5-.2-.6-.4-1.1-.7-1.5Z"/>
          <path class="cls-24" d="M431.3,650.1c.2,0,.3,0,.5,0-.3-.2-.4-.1-.5,0Z"/>
          <path class="cls-24" d="M473.8,673.4h.2c0,0,0-.1-.2-.2v.2Z"/>
          <path class="cls-24" d="M459.5,670.6c0,0,.2,0,.3-.1-.2,0-.2,0-.3.1Z"/>
          <path class="cls-24" d="M484.7,672.4c.2,0,.3-.2.5-.4-.2.1-.3.2-.5.4Z"/>
          <path class="cls-24" d="M495.2,671.4c-.5-.2-.1-.6.2-1.1-1.3.1-2.1.5-2.9.8-.4.2-.8.3-1.3.4-.5,0-1.1,0-1.8,0l1.3.2c-1.6,1-4.8,1.7-6.5.8l.5-.3c-.8.4-1.9.4-2.8.2-1-.2-1.8-.3-2.1,0,.7.4,0,.7,1.1,1-1.4.3-2.9.6-4.3.8l-.3-1.3c-.8.1-1.5.2-2.3.3.3.3-.5.1-1.3,0-.8-.1-1.7-.2-1.8.4-1.2-.6.7-.9,1.2-1.4-1.3.2-1.3-.3-2.6.2l-1-1.3c-1.1.1-2.2.1-3.3.1.2,0,0-.2.2-.3-.8.3-1.7,0-2.7-.4-.5-.2-1-.3-1.5-.4-.5,0-1.1,0-1.6.2.1,0,.1,0,.2-.1-1.3.5-3.5-1-4.3-1.6-1.6-.5-1.1.7-1.3,1.1-2.3-1.2-3-1.7-3.7-1.9-.8-.2-1.5-.2-3.7-.7-.7-1.3.2-1.3,1.1-1.5.8-.1,1.6-.2.4-1.5-.4.2-1.1,0-2-.2-.9-.3-2-.8-3.1-1.4-.4-.4-.9-.9-1.4-1.5-.5-.5-1-1.1-1.5-1.7-1-1.2-1.9-2.4-2.3-3.5l-.5.8-1.3-.9-1.3-1c.8.1,1.5.3,2.2.4-.6-.1-2.1-.9-3.2-1.3-2.8-2,.3-2.7-2.4-3.8,0-.1,0-.3,0-.4-.5-.1-1.1-.6-1.7-1.4-.6-.8-1.3-1.7-2.1-2.7h1.5c.2.6.5,1.1.7,1.5.4-1.3-1.6-2.1-2.4-3.5-1.2-1.2-1.6,0-2.4-.6-.3-.5-1-1.2-.9-1.8-.3-1.5,1.2-.8,1.8-.6-1.6-.6-1.8-1-3.4-3.4.5-.4.8-.3,1,0-.4-.5-.8-.8-1.4-.9l.3-1.2c0-.8-.3-1.4-.6-1.8-.3-.4-.7-.7-1.2-1-.4-.3-.9-.6-1.3-1.1-.4-.5-.7-1.2-.9-2.1.5.4.2-.4-.1-1.5-.3-1.1-.6-2.5-.3-3.1.4,1.3,1.6-1,2.5-.3,0-3-1.7-.9-2.3-3.3l1.6.8c-.9-2.2-.9-.4-1.6-2.8.5.6.3-1.1.9.3,0-1.6-.1-2.1-.1-2.7,0-.5,0-1,0-2.4l-1.4-.2c-.2-.9.4-1.3.7-1.6,0,.4,0,1,.2.9,1.2-1.1-.7-1.8.5-3-.5.3-1.1.6-1.2-.5.8.4.9-1.7,1.3-1.8-.7.7,0-2.5-1-2.7.8-1.3.6.5,1.1.6-.5-.6-.4-1.8-.2-2.9.2-1.1.5-2.2.3-2.8,0,0,.2,0,.2,0-.2-.8-.2-1.7-.2-2.9,0-1.1.1-2.5.1-4,.2.4.3.8.5,1.2,1.3-2.6-1.1-2.2-.2-4.5.5.4.8-.5,1.1-1.4.3-.9.7-1.6,1.1-.9,0-.8,0-1.6.1-2.3,0-.7,0-1.4-.2-2.1,1.2-.9.2,3.1,1.4,1.5l.4-2.1h.7c-.4-.3.5-1.9.1-2,.8.1,1.7-.3,2.1,0,.5-1.2,2-2.3,2.1-3.5h.4c-.5-1.7,2.1-3.1,1.4-4.5h1.1c1.2-1.7-.2-2.4.2-3.3.5-.6,1.1-1.5,1.8-2-.6,1.3-.1,1.2.5.9.7-.4,1.6-1,2-1,.7-.7,2.9-2.7,3.1-3.8-.5,1.3.5,1.3-1.1,2.8.9.2,1.5-.4,2.1-1.3.6-.8,1.3-1.8,2.3-2.5l.4.6c2.5-2.4,2.1-3.3,2.7-5.1.8.5.6.8.2,2.1,1.1-.4,2.4-1.2,3.7-2,1.3-.8,2.7-1.6,3.9-2.1,1,.2.6.7,0,1.3,2.1-1.7,5.5-2.1,6.7-4-.5.8,1.1,0,2.2,0,0-.3,0-.7.1-.7,1.4-1.1,5-2.4,7-2.2l-.6.5c1.1-.2,2.1-.4,2.9-.7.9-.3,1.7-.6,2.5-.9,1.6-.6,3.4-1,5.9-.5.9.3-.9,1.2.9,1.2.4-.3.6-.7.9-1,.3-.3.9-.5,2-.2l-.2.9,1.7-.8c-.7-.8-3.4-.8-1.5-1.5,2,1,2-.8,4.4.6-.6,0-1.5.6-1.9,1,2.6.9,4.4,1,6.3,1.1.9.1,1.9.2,2.9.4,1,.3,2.1.7,3.3,1.4,2.8,0,6.1,1.3,8.1,1.4-.5.8-.9,1.6-2.3,1.8,2,1,3.9-.4,4.7,1.6.8-.3,2.3.3,3.7.8,1.4.6,2.9,1.1,3.6.5-.1.4,2.1,1.5-.5.9,3,1.3,2.4,3.8,3.5,4.6.7.5,0-1.5,1.5-.3.1.2,0,.4.2.6h.8c.3.9-1.2.3-1.6.6.8,1,1.8,1.5,2.8,2,.5.3,1.1.5,1.6.9.5.4,1.1.8,1.6,1.3l-.6-.2c.7.8,1.4,1.5,2,2.3h-.2c.7.4,1.4.9,2.1,1.4l-.4.2c.5.4.8.3,1.3.9l-.6.2c.6,0,1.5.6,2.2,1.3.8.7,1.5,1.6,1.9,2.2v.4c0,0,1.4,1.1,1.4,1.1l1.4,1.2c.4,1.9-2.4-1.4-.2,1.6l-1.5-.2c.9,1,1.1,1.7,1.4,2.3.2.6.5,1.1,1,1.8.2-1-.4-2,.5-1.5-.1,1.2.2,1.9.9,2.5.6.6,1.5,1.1,2.1,1.9-.4-.9-.6-1.6-1.6-1.9-.4-1,.4-.6.2-1.2-.4-.4-.8-.7-1.2-1.1l.5-.7-1.8-2c.9-.3-1.1-2.1.3-1.7-1.2-1.4-1.3-2.6-3-3.5-.2-1.4,1.6,1.3,1,.1-4.6-5.7-9.6-11.4-15.4-16.3h.8c-.9,0-1.8-.3-2.5-.4-.3-.7-1.3-2-2.6-3-.6-.5-1.3-1-2-1.3-.7-.3-1.4-.4-1.9-.3-.2-.2.3-.2.5-.2-1.1-.6-2.6-1.6-4.2-2.6-.8-.5-1.7-1-2.6-1.5-.9-.5-1.8-.8-2.6-1.1-1,.4-2.2-.2-3.4-.8-1.2-.6-2.5-1-3.4-.2l.8-.2c1,.9-2.1.9-2.6,1.3-.7-1.5.2-1-.7-2.5l1.3.8v-1.2c-2.6.8-4.6.2-6.5-.5-.9-.3-1.8-.7-2.6-.8-.8-.1-1.7,0-2.4.4.2,0,.1-.3.3-.4-.9-.4-1.8-.2-2.5,0-.8.3-1.4.7-2.1.9-.2-.6.8-.9,1.6-1.3-.8-.1-1.8-.2-2.9,0-1.1.1-2.2.2-3.3.4-2.3.4-4.6.8-6.5.7-1.2,1,.6.9-.6,1.7-1.1,0-2.1-.5-.7-1.1-.9-.2-1.9-.1-3.1.2-1.2.2-2.5.7-3.8,1.3-1.3.5-2.7,1.1-4,1.6-1.3.6-2.6.9-3.9,1.2-2,1.8-.4,1.4-3.6,3.7.6-.9-1.7-1.2.4-2.3v-.7c-3.6,1.6-8.3,4.4-9,7-.8-.9-.7.2-2.3.6-.4.5.2.1.4,0-.5,1.7-1.7,1.3-2.4,2.1v-.4c-.4.8-1,1.6-1.5,2.4-.4.2-1.1.5-1.4.3l.6.6c-1.1,1.1-1.3-.3-2.5,1.2l.7.2c-1.1.6-1.8,2.6-2.6,2.2-.2,0,0-.2.3-.6-1.1.3-1.8,1.3-2.5,2.4-.6,1.1-1.3,2.3-2.2,3.1l1.4.3c-.9,2.1-1,.9-1.4.6-.9,1.2-1.4,1.2-2.6,2.9-.2,1,.2.7.3,1.2-.5.5-.9,1-1.3,1.6v-1.5c0,.9-.2,1.8-.6,2.7-.4.8-.8,1.7-1.3,2.5-.9,1.6-1.7,3.1-1.2,4.4-.8.9-.4-1.3-.8-.7-.5.8-.9,1.7-1.2,2.6-.3,1-.4,2-.6,3-.3,2-.5,3.9-1.3,5.3-.3.6-.5,1.2-.7,1.8-.2.6-.3,1.3-.5,1.9-.3,1.3-.4,2.7-.6,4.1-.1,1.4-.2,2.8-.3,4.2,0,1.4-.2,2.8-.3,4.2h.4c0,1.2-.2,2.6-.1,3.9.5.5.6,1.4.9,2.4.3,1,.5,2.1,1.1,2.8-.3,0-.7.3-1,0,.4,1.7,1.1,3.4.9,4.4l-.4-.5c.2.9.3,1.9.6,3,.3,1,.6,2,.9,3,.7,1.9,1.4,3.6,2.1,4.3.5,1.2,0,1.4-.4,1.9.8,2,1.8,3.2,3.1,4.5,0,.5.2,1,.1,1.6l1.2.3c.3.8-.5.5-.4,1.3,1.3,1.2,2.3,2.7,3.2,4.2.9,1.4,1.6,2.9,2.4,3.8v-.5c1,.6,1.7,2.4.6,1.8.7,1,1.4,1.8,2.1,2.4.7.7,1.5,1.2,2.3,1.8,1.6,1.1,3.5,2.3,5.8,4.4-.2.9,1,1.7,2.2,2.5,1.2.8,2.4,1.5,2.3,2.5,1.3.5,2.2,1.2,3,1.7.9.5,1.7.9,2.8.9,0,.2.1.4-.3.2.3.6,1.3,1.1,2.6,1.6,1.3.5,2.8.9,4.1,1.2v.6c.6-.4,2,0,3.4.2,1.4.2,2.8.5,3.4,0,.2.3-.6.4-1,.4,1,1.5,2.5.2,4.1.8-.2.3.2.7-.2.8,2.7,1.4,6.5,1.8,10.4,1.8,3.9,0,8-.3,11.9-.2,2.2-.2-.9-1.1,1.9-1.4.9.5-1.2,1.4.6,1.4,1.2-.9,1.7-.8,3.4-1.1-.2.4,0,.7-1.1,1.1.5.2,1.6-.3,2.7-.7,1.1-.4,2.4-.8,3.5-.6-.2-.3.1-.6.4-.9.6-.5,1.4-.7,2.1-.9.7-.2,1.5-.3,2.2-.4,1.4-.1,2.5-.2,2.5-.5,0,0,.9-.5,0-.3,1-.4,2.5-.8,2.5-.2.4-.5.6-1.2,1.4-1.6v.8c.3-.3.6-1,1-1.3-.3,0-.6,0-.9,0,1.4,0,2.9-2.4,3.4-1.2l-.4.2c.8-.2,1.5-.4,2.3-.6.6-.9,1.1-1.8,2.5-2.5,1.3.8,3.5-2,5.1-3.1l.2.4c.9-1.4,4-3.9,3.3-3.6,1.1-1,2.8-2.2,2.6-1.4.7-1,2.5-3,2.4-4l2.5-1.1c-.2-1.1.7-2,1.5-2.7.8-.8,1.4-1.4.7-2,1-1,1.2-.5,2-1.1.2-1.1.5-2,1-2.8.5-.9,1-1.7,1.6-2.5h.2c.6-.8.9-1.9,1.2-3,.3-1.2.6-2.4,1.1-3.7h1.5c.4-1.5-.5-2.2.2-3.4.3-.2.3,0,.2.5.2-1.4,1.1-3,1.7-3.9-.3-2.3.3-3.8-.3-5.8.7-.7.8,0,.8.6,0,.6,0,1.3.7.8,1.3-2.8,1.1-6,.7-9.4.3-.3.5.1.7.3,0,0-.2-.4-.5-1.1-.3-.6-.7-1.4-1.2-2.2-.9-1.5-2.1-2.8-2.7-2.2-.9-.8-1.4-1.6-2.2,1,.3.4.5,1.3.6,2,0,.8,0,1.5-.6,1.7l.9.2c0,1.8-.4,1.8-1,1.9-.6.1-1.2.3-1.4,2.3l.4-.8c0,.8.5,1.5,0,2.3-.3.2-.3-.4-.5-.7.2,1.2.5,2.4.6,3.6-.6,0-.8-.2-1.1-.9-.7,3,1.9-.2.6,3.4-.6.6-.5-.4-.7-1-1.3,1.5-.8,2.8-.9,4.7-.8-.3-.3-1.3-1.3-.1.5-.1,1.3,0,1,1-.6-.8-.7.7-1.3,1.6.4-.1.7.1.7.6,0,.6-.5.9-.8,1.6.5-.3.9-.6,1.3-1,0,1.1-.4,1.7-1,2.3-.5.5-1.1,1-1.7,1.6,0-.2,0-.5,0-.7-1,1.2-2.3,2.3-2.7,4.4v-.2c-.6,1.8-.2,1.7.3,1.8.4,0,.8,0,0,2.1-.9,1.1-1.9-2.1-3,1.2.7-.4.8.3.6,1.3-.3,1-.9,2.3-1.4,3.2,0-.9,0-1.7,0-2.6-.5.6-.9,1.9-1.4,2.1l.3.2c1.1.8-1.7,1.8-2.1,3.3-.2-2.6,0-2.4-1.1-3.9,0,.8-.1,1.7-.5,2.5-.3.9-.9,1.7-1.8,2.5.1-.8.3-1.6.4-2.4-1.2,1-2.1,2.5-3,4.1-.4.8-.8,1.6-1.2,2.4-.4.8-.7,1.5-1.1,2.2,0-1.3-1.2-1-.8-2.4-.8.7-1.6,1.3-2.3,2v-1.5c-.3,1.7-1.9,1.8-.9,3,.2-.4,0-.5.6-.8.2.4.3,1.6-1.1,2.4-1.1.3.2-.9-.3-1.1-.5,1.1-1.1.2-1.8,1.2h1.2c-.2,1.3-1.5,1.1-2.3,2,1-1,.3-1.2-.4-1.5h.1c-.7.5-1.3,1.5-2,1.3v-1.4s-.6,1.4-.6,1.4c-.5,0-.9-.2-.4-.8-1.7.4-1.4,1-1.3,1.6,0,.3.1.6-.2.9-.3.3-.9.6-2.1.7-.1-.5.3-.9,1.5-1.2-.1-.8-.6-1-1.8-.9,0,0,0,0,0-.1-2.2.9-5.1,1.7-6.4,3Z"/>
          <path class="cls-24" d="M501.5,668.5c1.2-.4,2.1-.9,2.5-1.3-.3-.1-2.8.6-2.5,1.3Z"/>
          <path class="cls-24" d="M453.1,557.6c-.1.1-.3.2-.4.3.1-.1.3-.2.4-.3Z"/>
          <path class="cls-24" d="M462.6,553.7c-.1,0-.4-.1-.6-.1,0,.2.2.4.6.1Z"/>
          <path class="cls-24" d="M423.5,637.8h0s0,0,0,0Z"/>
          <path class="cls-24" d="M426.8,582.7c0-1,0-1.4-.3-1.6-.2.5-.2,1.1.3,1.6Z"/>
          <path class="cls-24" d="M419.4,600.5c0,.1,0,.3.1.4,0-.3,0-.4-.1-.4Z"/>
          <path class="cls-24" d="M425.4,640.2c-.8-.6-1.3-1.7-1.9-2.4.3.3.5.9.7,1.4.3.5.6.9,1.1,1Z"/>
          <polygon class="cls-24" points="474.7 550.2 473.8 550.9 474.8 550.4 474.7 550.2"/>
          <path class="cls-24" d="M465.2,552c-.5,0-2,.7-1.5.9.4-.4.9-.7,1.5-.9Z"/>
          <polygon class="cls-24" points="432.9 569.9 433.1 570.7 433.3 569.7 432.9 569.9"/>
        </g>
      </g>
    </g>
    <g id="conector_neuropatia" data-name="conector neuropatia">
      <g id="conector_neuropatia-2" data-name="conector neuropatia">
        <rect class="cls-18" x="663.9" y="540.1" width="103.8" height="1" transform="translate(-172.6 664.5) rotate(-45)"/>
        <circle class="cls-18" cx="682.5" cy="574.6" r="10.7"/>
      </g>
    </g>
    <g id="ic_neuropatia" data-name="ic neuropatia">
      <g id="ic_neuropatia-2" data-name="ic neuropatia">
        <g class="cls-31">
          <circle class="cls-27" cx="808.6" cy="481" r="62.9" transform="translate(203.6 1201.6) rotate(-80.7)"/>
          <g>
            <path class="cls-15" d="M845.4,486.2c-5.2-1.8-9.5-1.5-14.5-1.2,0,0-.5-1.2-.5-1.3-.2-.6-.5-1.1-.9-1.5-.4-.5-1-1.4-1.6-1.7-.1-.2-.3-.4-.5-.6-.4-.2-.7-.7-1.1-1,4.2-3.5,6.3-7.9,7.5-12.7,1.5-.8,2.7-2,4.3-2.8,2.3-1.1,3.6-.3,5.8-.3,4.9,0,5.1-4.9,8.5-7-3.3,2.1-6,4.8-9.9,4.7-2.8,0-5.9.4-8,2.3,0-.4.2-.9.2-1.4.6-3.9,2-5.8,4.2-9.1,1.9-2.8,2.7-6.2,1.8-9.5.4,3.1-2,7.3-3.8,9.7-2.4,3.2-3.2,5.1-3.9,9.1-.5,3.2-1.5,5.9-3,8.7-1.3,2.5-3.4,4.5-5.7,6.3-2-1.6-3.4-2.4-5.7-3.6,0-5.2-2-10.4,1.2-14.9,3.2-4.5,6.4-12,4.4-17.7-.6,2.4-.8,5-1.7,7.5-1,2.7-2.9,5.6-4.4,8.1-1.6,2.8-3.7,3.8-4,7.2-.2,2.7.6,5.2,1.2,7.8,0,.2.2.5.3.7-1.4-.5-2.8-.8-4.3-.9-1.2,0-2.4,0-3.5.2-.5-.9-.9-1.9-1.4-2.8-1-1.5-2.4-2.8-3.3-4.4-1.7-2.9-3.9-6.5-5-9.6-1.3-3.6,1.7-7.3,2.9-10.7,1.2-3.6,1.4-7.2-.2-10.7,0,3.2.3,6.5-.9,9.5-1.1,2.7-3.4,4.9-4.3,7.7-1.7,5.4,4.8,9.4,4,14.7-5.6-.3-9.2-7.7-11.4-11.9-2.9-5.5-6.2-10.6-13.2-8.8,3.7,1.3,7.2,2.7,9,6.4,1.6,3.3,1.6,7.7,4.2,10.3,2.8,2.8,7,4.5,10.3,6.6,2,1.3,3.1,3.8,4.8,5.2-2.6,1.3-4.6,3.2-6,5.7-2.3-.2-5.6-1.4-7.1-1.7-3.5-.7-6.5-1.6-9.1-4.1-4.4-4.3-4.3-10.7-7.7-15.4.5,2.7,1.2,5.8,1.8,8.4.6,2.2,3.5,5.9,1,7.2-2,1.1-5.9.1-8.2.2-2.6.1-4.9.5-6.9,2.3,1.7,0,3.4.3,5,.2,2,0,3.4-1,5.4-1.2,1.4-.1,3.4-.3,4.7-.2,2,0,2.3.7,3.7,1.9,2.7,2.3,5.9,2.2,9.3,2.6,1.9.2,4.4,2.3,6.3,4.2-.2,1.1-.3,2.2-.3,3.4,0,.8,0,1.6.1,2.4-1.9,2.7-6.9,3.5-9.9,4.3-3.5.8-7.7,2.5-11,1.1-3.5-1.5-5.8-5.3-9.3-6.5-1.8-.6-3.2.2-4.9.2-1.9,0-3.5-.9-5.2-1.4,1.6,1.3,3.1,2.9,5,3.8,1.8.9,3.6.7,5.4,1.5,3.6,1.7,4,4.9,8.6,5,2.1,0,3.9-.2,2.1,2.1-1.2,1.6-3.8,2.2-5.4,3.5-2.1,1.7-3.4,4-5.1,6-1.6,1.9-3.9,3.3-5.4,5.1,4.3-.9,6-2.6,8.8-6,2.6-3.2,6.4-4.3,9.3-7,1.5-1.3,1.7-2.7,3.7-3.6,2-.9,4.4-1.1,6.5-1.9,2.5-.9,6.2-1.8,7-3.9,1.2,5.6,4.7,9.6,10.2,12-1.2,1.2-2.4,2.7-2.8,3-1.8,1.7-2.5,2.5-4.7,3-1.9.5-2.5.5-3.9,2.1-2.4,2.8-4,6-6.4,8.8-1.1,1.3-2.2,2.8-3.7,3.5-1.5.7-3.5,0-4.6,1.2,2.7,2,9.2,0,11.2-2.3,1.6-1.8,5.1-9.5,7-9.8.2,3.9-1.4,7.8-1.1,11.9.2,2.8,0,9,3.2,10.2.4-2-1.8-4.8-1.8-7.2,0-3.2.3-6.1,1.1-9.1,1-3.5,2.5-5,4.7-7.7,1.7-2.1,3.1-4.4,4.4-6.8,2.9.9,6,1.2,9,.8,4.7,1.1,6.6,8.8,7.6,13.2.3,1.5,4.4,24.6,6.5,37.1,1.8-.5,3.6-.9,5.5-1.4.8-.2,1.5-.5,2.3-.7-1.5-9.1-4.3-22.5-4.7-23.8-3.8-13.2-6.8-21.9-7.1-24.2-.1-.8.1-3.2,0-4.7,1-1,1.9-2.1,2.7-3.5,1.4-2.6,1.9-6.1,1.3-9.3,2,0,4.2.3,6.2.2,4.2,0,3,2.2,4.7,5.1,1.5,2.5,4.7,2,6.2,4.5,1.1,1.8,2,5.6,1.9,7.7.7-2,2.3-6.7.9-9.1-1.2-2.1-6.9-3.6-6.5-6.3,3.5.2,6.7,1.6,10.5,1.4,3.4-.2,6.6-.6,9.2-3.1-6.4,2.3-13.4.3-19.5-1.8Z"/>
            <path class="cls-21" d="M828,487.2c-4.2-8.6-12.9-14.2-22.2-10.9-4.6,1.6-6.7,8.7-5.8,13.2,1.1,4.9,6,8.7,10.4,10.6,4.7,2,10.9,1.8,14.9-1.5,2.3-1.9,4-8,2.6-11.4Z"/>
            <path class="cls-10" d="M828,487.2c-4.2-8.6-12.9-14.2-22.2-10.9-4.6,1.6-6.7,8.7-5.8,13.2,1.1,4.9,6,8.7,10.4,10.6,4.7,2,10.9,1.8,14.9-1.5,2.3-1.9,4-8,2.6-11.4Z"/>
            <path class="cls-22" d="M826.2,487.4c-3.6-7.5-11.2-12.3-19.3-9.5-4,1.4-5.8,7.6-5,11.5.9,4.3,5.2,7.6,9.1,9.2,4.1,1.7,9.4,1.6,13-1.3,2-1.7,3.5-6.9,2.2-9.9Z"/>
            <path class="cls-12" d="M820.6,484.9c-2.8-3.3-7.4-5.7-11.7-3.8-5.2,2.3-4.2,8.6-1.2,12.3,2.9,3.6,9.1,6,13,2.2,3.3-3.2,2.7-7.4,0-10.7Z"/>
          </g>
        </g>
        <g>
          <polygon class="cls-24" points="874.6 481 875.2 480.6 874.4 478.5 874.6 481"/>
          <path class="cls-24" d="M871.8,459.6c-.3-.4-.7-.9-1-1.4-.4-.5-.8-1.1-1.1-1.5-.7-1-1.5-1.6-2.2-1.4.9.9,1.6,1.8,2.4,2.7-.4.4-.4,1.1-.2,2,.2.8.7,1.8,1.1,2.7-.2-.7-.5-1.4-.7-2.1.3.5.8,0,1.1.5.3,1.7.8,2.7,1.2,3.7.4,1,.7,2,.5,3.7v-.2c-.1,0,1,2.4,1,2.4,0,.8-.5.6-.8.3.4,1.1.8,2,1.1,3.1.3,1.1.5,2.3.6,3.8.8-1.2.4-3-.2-4.6-.3-.8-.6-1.6-.7-2.4-.2-.8-.1-1.5.2-2.2v.2c-.4-1.4-.7-3-.9-4.7-.3-1.6-.6-3.3-1.3-4.6Z"/>
          <path class="cls-24" d="M873,471.1c0,0,0-.1,0-.2,0,0,0,.1,0,.2Z"/>
          <path class="cls-24" d="M778.2,420.5v.3c.1-.2.2-.4,0-.3Z"/>
          <path class="cls-24" d="M815.6,417.3c0,0-.1,0-.2,0-.3.4-.1.3.2,0Z"/>
          <path class="cls-24" d="M838,541.6h.9c-.3-.2-.6-.2-.9,0Z"/>
          <path class="cls-24" d="M872.2,504h0c0,0,0,0,0,0Z"/>
          <path class="cls-24" d="M856.1,520.9l-.3-.2c0,.2.2.2.3.2Z"/>
          <path class="cls-24" d="M863.8,507.6c.3-.3.5-.7.7-1.1-.3.2-.6.6-.7,1.1Z"/>
          <path class="cls-24" d="M872.2,504.6c0-.2,0-.4,0-.5,0,.2,0,.4,0,.5Z"/>
          <path class="cls-24" d="M837.8,535l-1-.6c.2.3.6.4,1,.6Z"/>
          <path class="cls-24" d="M864.6,503.9c.2-.1.4-.4.6-.6-.2,0-.5.3-.6.6Z"/>
          <path class="cls-24" d="M870.5,456.5c.2.4.4.9.7,1.5-.2-.6-.4-1.1-.7-1.5Z"/>
          <path class="cls-24" d="M760.9,518.1c.2,0,.3,0,.5,0-.3-.2-.4-.1-.5,0Z"/>
          <path class="cls-24" d="M803.4,541.4h.2c0,0,0-.1-.2-.2v.2Z"/>
          <path class="cls-24" d="M789.1,538.6c0,0,.2,0,.3-.1-.2,0-.2,0-.3.1Z"/>
          <path class="cls-24" d="M814.3,540.4c.2,0,.3-.2.5-.4-.2.1-.3.2-.5.4Z"/>
          <path class="cls-24" d="M824.8,539.4c-.5-.2-.1-.6.2-1.1-1.3.1-2.1.5-2.9.8-.4.2-.8.3-1.3.4-.5,0-1.1,0-1.8,0l1.3.2c-1.6,1-4.8,1.7-6.5.8l.5-.3c-.8.4-1.9.4-2.8.2-1-.2-1.8-.3-2.1,0,.7.4,0,.7,1.1,1-1.4.3-2.9.6-4.3.8l-.3-1.3c-.8.1-1.5.2-2.3.3.3.3-.5.1-1.3,0-.8-.1-1.7-.2-1.8.4-1.2-.6.7-.9,1.2-1.4-1.3.2-1.3-.3-2.6.2l-1-1.3c-1.1.1-2.2.1-3.3.1.2,0,0-.2.2-.3-.8.3-1.7,0-2.7-.4-.5-.2-1-.3-1.5-.4-.5,0-1.1,0-1.6.2.1,0,.1,0,.2-.1-1.3.5-3.5-1-4.3-1.6-1.6-.5-1.1.7-1.3,1.1-2.3-1.2-3-1.7-3.7-1.9-.8-.2-1.5-.2-3.7-.7-.7-1.3.2-1.3,1.1-1.5.8-.1,1.6-.2.4-1.5-.4.2-1.1,0-2-.2-.9-.3-2-.8-3.1-1.4-.4-.4-.9-.9-1.4-1.5-.5-.5-1-1.1-1.5-1.7-1-1.2-1.9-2.4-2.3-3.5l-.5.8-1.3-.9-1.3-1c.8.1,1.5.3,2.2.4-.6-.1-2.1-.9-3.2-1.3-2.8-2,.3-2.7-2.4-3.8,0-.1,0-.3,0-.4-.5-.1-1.1-.6-1.7-1.4-.6-.8-1.3-1.7-2.1-2.7h1.5c.2.6.5,1.1.7,1.5.4-1.3-1.6-2.1-2.4-3.5-1.2-1.2-1.6,0-2.4-.6-.3-.5-1-1.2-.9-1.8-.3-1.5,1.2-.8,1.8-.6-1.6-.6-1.8-1-3.4-3.4.5-.4.8-.3,1,0-.4-.5-.8-.8-1.4-.9l.3-1.2c0-.8-.3-1.4-.6-1.8-.3-.4-.7-.7-1.2-1-.4-.3-.9-.6-1.3-1.1-.4-.5-.7-1.2-.9-2.1.5.4.2-.4-.1-1.5-.3-1.1-.6-2.5-.3-3.1.4,1.3,1.6-1,2.5-.3,0-3-1.7-.9-2.3-3.3l1.6.8c-.9-2.2-.9-.4-1.6-2.8.5.6.3-1.1.9.3,0-1.6-.1-2.1-.1-2.7,0-.5,0-1,0-2.4l-1.4-.2c-.2-.9.4-1.3.7-1.6,0,.4,0,1,.2.9,1.2-1.1-.7-1.8.5-3-.5.3-1.1.6-1.2-.5.8.4.9-1.7,1.3-1.8-.7.7,0-2.5-1-2.7.8-1.3.6.5,1.1.6-.5-.6-.4-1.8-.2-2.9.2-1.1.5-2.2.3-2.8,0,0,.2,0,.2,0-.2-.8-.2-1.7-.2-2.9,0-1.1.1-2.5.1-4,.2.4.3.8.5,1.2,1.3-2.6-1.1-2.2-.2-4.5.5.4.8-.5,1.1-1.4.3-.9.7-1.6,1.1-.9,0-.8,0-1.6.1-2.3,0-.7,0-1.4-.2-2.1,1.2-.9.2,3.1,1.4,1.5l.4-2.1h.7c-.4-.3.5-1.9.1-2,.8.1,1.7-.3,2.1,0,.5-1.2,2-2.3,2.1-3.5h.4c-.5-1.7,2.1-3.1,1.4-4.5h1.1c1.2-1.7-.2-2.4.2-3.3.5-.6,1.1-1.5,1.8-2-.6,1.3-.1,1.2.5.9.7-.4,1.6-1,2-1,.7-.7,2.9-2.7,3.1-3.8-.5,1.3.5,1.3-1.1,2.8.9.2,1.5-.4,2.1-1.3.6-.8,1.3-1.8,2.3-2.5l.4.6c2.5-2.4,2.1-3.3,2.7-5.1.8.5.6.8.2,2.1,1.1-.4,2.4-1.2,3.7-2,1.3-.8,2.7-1.6,3.9-2.1,1,.2.6.7,0,1.3,2.1-1.7,5.5-2.1,6.7-4-.5.8,1.1,0,2.2,0,0-.3,0-.7.1-.7,1.4-1.1,5-2.4,7-2.2l-.6.5c1.1-.2,2.1-.4,2.9-.7.9-.3,1.7-.6,2.5-.9,1.6-.6,3.4-1,5.9-.5.9.3-.9,1.2.9,1.2.4-.3.6-.7.9-1,.3-.3.9-.5,2-.2l-.2.9,1.7-.8c-.7-.8-3.4-.8-1.5-1.5,2,1,2-.8,4.4.6-.6,0-1.5.6-1.9,1,2.6.9,4.4,1,6.3,1.1.9.1,1.9.2,2.9.4,1,.3,2.1.7,3.3,1.4,2.8,0,6.1,1.3,8.1,1.4-.5.8-.9,1.6-2.3,1.8,2,1,3.9-.4,4.7,1.6.8-.3,2.3.3,3.7.8,1.4.6,2.9,1.1,3.6.5-.1.4,2.1,1.5-.5.9,3,1.3,2.4,3.8,3.5,4.6.7.5,0-1.5,1.5-.3.1.2,0,.4.2.6h.8c.3.9-1.2.3-1.6.6.8,1,1.8,1.5,2.8,2,.5.3,1.1.5,1.6.9.5.4,1.1.8,1.6,1.3l-.6-.2c.7.8,1.4,1.5,2,2.3h-.2c.7.4,1.4.9,2.1,1.4l-.4.2c.5.4.8.3,1.3.9l-.6.2c.6,0,1.5.6,2.2,1.3.8.7,1.5,1.6,1.9,2.2v.4c0,0,1.4,1.1,1.4,1.1l1.4,1.2c.4,1.9-2.4-1.4-.2,1.6l-1.5-.2c.9,1,1.1,1.7,1.4,2.3.2.6.5,1.1,1,1.8.2-1-.4-2,.5-1.5-.1,1.2.2,1.9.9,2.5.6.6,1.5,1.1,2.1,1.9-.4-.9-.6-1.6-1.6-1.9-.4-1,.4-.6.2-1.2-.4-.4-.8-.7-1.2-1.1l.5-.7-1.8-2c.9-.3-1.1-2.1.3-1.7-1.2-1.4-1.3-2.6-3-3.5-.2-1.4,1.6,1.3,1,.1-4.6-5.7-9.6-11.4-15.4-16.3h.8c-.9,0-1.8-.3-2.5-.4-.3-.7-1.3-2-2.6-3-.6-.5-1.3-1-2-1.3-.7-.3-1.4-.4-1.9-.3-.2-.2.3-.2.5-.2-1.1-.6-2.6-1.6-4.2-2.6-.8-.5-1.7-1-2.6-1.5-.9-.5-1.8-.8-2.6-1.1-1,.4-2.2-.2-3.4-.8-1.2-.6-2.5-1-3.4-.2l.8-.2c1,.9-2.1.9-2.6,1.3-.7-1.5.2-1-.7-2.5l1.3.8v-1.2c-2.6.8-4.6.2-6.5-.5-.9-.3-1.8-.7-2.6-.8-.8-.1-1.7,0-2.4.4.2,0,.1-.3.3-.4-.9-.4-1.8-.2-2.5,0-.8.3-1.4.7-2.1.9-.2-.6.8-.9,1.6-1.3-.8-.1-1.8-.2-2.9,0-1.1.1-2.2.2-3.3.4-2.3.4-4.6.8-6.5.7-1.2,1,.6.9-.6,1.7-1.1,0-2.1-.5-.7-1.1-.9-.2-1.9-.1-3.1.2-1.2.2-2.5.7-3.8,1.3-1.3.5-2.7,1.1-4,1.6-1.3.6-2.6.9-3.9,1.2-2,1.8-.4,1.4-3.6,3.7.6-.9-1.7-1.2.4-2.3v-.7c-3.6,1.6-8.3,4.4-9,7-.8-.9-.7.2-2.3.6-.4.5.2.1.4,0-.5,1.7-1.7,1.3-2.4,2.1v-.4c-.4.8-1,1.6-1.5,2.4-.4.2-1.1.5-1.4.3l.6.6c-1.1,1.1-1.3-.3-2.5,1.2l.7.2c-1.1.6-1.8,2.6-2.6,2.2-.2,0,0-.2.3-.6-1.1.3-1.8,1.3-2.5,2.4-.6,1.1-1.3,2.3-2.2,3.1l1.4.3c-.9,2.1-1,.9-1.4.6-.9,1.2-1.4,1.2-2.6,2.9-.2,1,.2.7.3,1.2-.5.5-.9,1-1.3,1.6v-1.5c0,.9-.2,1.8-.6,2.7-.4.8-.8,1.7-1.3,2.5-.9,1.6-1.7,3.1-1.2,4.4-.8.9-.4-1.3-.8-.7-.5.8-.9,1.7-1.2,2.6-.3,1-.4,2-.6,3-.3,2-.5,3.9-1.3,5.3-.3.6-.5,1.2-.7,1.8-.2.6-.3,1.3-.5,1.9-.3,1.3-.4,2.7-.6,4.1-.1,1.4-.2,2.8-.3,4.2,0,1.4-.2,2.8-.3,4.2h.4c0,1.2-.2,2.6-.1,3.9.5.5.6,1.4.9,2.4.3,1,.5,2.1,1.1,2.8-.3,0-.7.3-1,0,.4,1.7,1.1,3.4.9,4.4l-.4-.5c.2.9.3,1.9.6,3,.3,1,.6,2,.9,3,.7,1.9,1.4,3.6,2.1,4.3.5,1.2,0,1.4-.4,1.9.8,2,1.8,3.2,3.1,4.5,0,.5.2,1,.1,1.6l1.2.3c.3.8-.5.5-.4,1.3,1.3,1.2,2.3,2.7,3.2,4.2.9,1.4,1.6,2.9,2.4,3.8v-.5c1,.6,1.7,2.4.6,1.8.7,1,1.4,1.8,2.1,2.4.7.7,1.5,1.2,2.3,1.8,1.6,1.1,3.5,2.3,5.8,4.4-.2.9,1,1.7,2.2,2.5,1.2.8,2.4,1.5,2.3,2.5,1.3.5,2.2,1.2,3,1.7.9.5,1.7.9,2.8.9,0,.2.1.4-.3.2.3.6,1.3,1.1,2.6,1.6,1.3.5,2.8.9,4.1,1.2v.6c.6-.4,2,0,3.4.2,1.4.2,2.8.5,3.4,0,.2.3-.6.4-1,.4,1,1.5,2.5.2,4.1.8-.2.3.2.7-.2.8,2.7,1.4,6.5,1.8,10.4,1.8,3.9,0,8-.3,11.9-.2,2.2-.2-.9-1.1,1.9-1.4.9.5-1.2,1.4.6,1.4,1.2-.9,1.7-.8,3.4-1.1-.2.4,0,.7-1.1,1.1.5.2,1.6-.3,2.7-.7,1.1-.4,2.4-.8,3.5-.6-.2-.3.1-.6.4-.9.6-.5,1.4-.7,2.1-.9.7-.2,1.5-.3,2.2-.4,1.4-.1,2.5-.2,2.5-.5,0,0,.9-.5,0-.3,1-.4,2.5-.8,2.5-.2.4-.5.6-1.2,1.4-1.6v.8c.3-.3.6-1,1-1.3-.3,0-.6,0-.9,0,1.4,0,2.9-2.4,3.4-1.2l-.4.2c.8-.2,1.5-.4,2.3-.6.6-.9,1.1-1.8,2.5-2.5,1.3.8,3.5-2,5.1-3.1l.2.4c.9-1.4,4-3.9,3.3-3.6,1.1-1,2.8-2.2,2.6-1.4.7-1,2.5-3,2.4-4l2.5-1.1c-.2-1.1.7-2,1.5-2.7.8-.8,1.4-1.4.7-2,1-1,1.2-.5,2-1.1.2-1.1.5-2,1-2.8.5-.9,1-1.7,1.6-2.5h.2c.6-.8.9-1.9,1.2-3,.3-1.2.6-2.4,1.1-3.7h1.5c.4-1.5-.5-2.2.2-3.4.3-.2.3,0,.2.5.2-1.4,1.1-3,1.7-3.9-.3-2.3.3-3.8-.3-5.8.7-.7.8,0,.8.6,0,.6,0,1.3.7.8,1.3-2.8,1.1-6,.7-9.4.3-.3.5.1.7.3,0,0-.2-.4-.5-1.1-.3-.6-.7-1.4-1.2-2.2-.9-1.5-2.1-2.8-2.7-2.2-.9-.8-1.4-1.6-2.2,1,.3.4.5,1.3.6,2,0,.8,0,1.5-.6,1.7l.9.2c0,1.8-.4,1.8-1,1.9-.6.1-1.2.3-1.4,2.3l.4-.8c0,.8.5,1.5,0,2.3-.3.2-.3-.4-.5-.7.2,1.2.5,2.4.6,3.6-.6,0-.8-.2-1.1-.9-.7,3,1.9-.2.6,3.4-.6.6-.5-.4-.7-1-1.3,1.5-.8,2.8-.9,4.7-.8-.3-.3-1.3-1.3-.1.5-.1,1.3,0,1,1-.6-.8-.7.7-1.3,1.6.4-.1.7.1.7.6,0,.6-.5.9-.8,1.6.5-.3.9-.6,1.3-1,0,1.1-.4,1.7-1,2.3-.5.5-1.1,1-1.7,1.6,0-.2,0-.5,0-.7-1,1.2-2.3,2.3-2.7,4.4v-.2c-.6,1.8-.2,1.7.3,1.8.4,0,.8,0,0,2.1-.9,1.1-1.9-2.1-3,1.2.7-.4.8.3.6,1.3-.3,1-.9,2.3-1.4,3.2,0-.9,0-1.7,0-2.6-.5.6-.9,1.9-1.4,2.1l.3.2c1.1.8-1.7,1.8-2.1,3.3-.2-2.6,0-2.4-1.1-3.9,0,.8-.1,1.7-.5,2.5-.3.9-.9,1.7-1.8,2.5.1-.8.3-1.6.4-2.4-1.2,1-2.1,2.5-3,4.1-.4.8-.8,1.6-1.2,2.4-.4.8-.7,1.5-1.1,2.2,0-1.3-1.2-1-.8-2.4-.8.7-1.6,1.3-2.3,2v-1.5c-.3,1.7-1.9,1.8-.9,3,.2-.4,0-.5.6-.8.2.4.3,1.6-1.1,2.4-1.1.3.2-.9-.3-1.1-.5,1.1-1.1.2-1.8,1.2h1.2c-.2,1.3-1.5,1.1-2.3,2,1-1,.3-1.2-.4-1.5h.1c-.7.5-1.3,1.5-2,1.3v-1.4s-.6,1.4-.6,1.4c-.5,0-.9-.2-.4-.8-1.7.4-1.4,1-1.3,1.6,0,.3.1.6-.2.9-.3.3-.9.6-2.1.7-.1-.5.3-.9,1.5-1.2-.1-.8-.6-1-1.8-.9,0,0,0,0,0-.1-2.2.9-5.1,1.7-6.4,3Z"/>
          <path class="cls-24" d="M831.1,536.5c1.2-.4,2.1-.9,2.5-1.3-.3-.1-2.8.6-2.5,1.3Z"/>
          <path class="cls-24" d="M782.7,425.6c-.1.1-.3.2-.4.3.1-.1.3-.2.4-.3Z"/>
          <path class="cls-24" d="M792.1,421.7c-.1,0-.4-.1-.6-.1,0,.2.2.4.6.1Z"/>
          <path class="cls-24" d="M753.1,505.8h0s0,0,0,0Z"/>
          <path class="cls-24" d="M756.3,450.7c0-1,0-1.4-.3-1.6-.2.5-.2,1.1.3,1.6Z"/>
          <path class="cls-24" d="M749,468.5c0,.1,0,.3.1.4,0-.3,0-.4-.1-.4Z"/>
          <path class="cls-24" d="M755,508.2c-.8-.6-1.3-1.7-1.9-2.4.3.3.5.9.7,1.4.3.5.6.9,1.1,1Z"/>
          <polygon class="cls-24" points="804.3 418.2 803.3 418.9 804.4 418.4 804.3 418.2"/>
          <path class="cls-24" d="M794.7,420c-.5,0-2,.7-1.5.9.4-.4.9-.7,1.5-.9Z"/>
          <polygon class="cls-24" points="762.5 437.9 762.7 438.7 762.9 437.7 762.5 437.9"/>
        </g>
      </g>
    </g>
    <g id="conector_cardiopatia" data-name="conector cardiopatia">
      <g id="conector_cardiopatia-2" data-name="conector cardiopatia">
        <rect class="cls-18" x="728.9" y="153.2" width="1" height="162.2" transform="translate(262.2 841.5) rotate(-70.2)"/>
        <circle class="cls-18" cx="657" cy="208.6" r="10.7"/>
      </g>
    </g>
    <g id="ic_cardiopatia" data-name="ic cardiopatia">
      <g id="ic_cardiopatia-2" data-name="ic cardiopatia">
        <circle class="cls-27" cx="853.5" cy="259.7" r="62.9"/>
        <g>
          <path class="cls-2" d="M836.4,273.3c1.4-.7,2.4-1.4,3-1.9.7-.5,1-.7,1-.7h0s0,0,0,0l-5-5.8c0,0-.8.9-2.7,2-1.8,1.2-4.8,2.4-9,3.2-4.1.8-9.2,1.2-14.9,2,.2.8.4,1.5.7,2.3,0,0,0,0,0,0,.4,1.2,1,2.2,1.6,3.3,4.8-.3,9.5-.4,13.7-1,4.7-.5,8.8-1.9,11.5-3.3Z"/>
          <path class="cls-2" d="M833.6,213.8c-2.1,1.5-3.8,2.9-5.5,3.9-3.1,2-4.9,3.2-4.9,3.2h-.2c0,.1,0,.1,0,.1-1.4.9-1.8,2.8-.9,4.2.9,1.4,2.8,1.8,4.2.9,0,0,1.9-1.2,5.1-3.4,1.7-1,3.5-2.6,5.7-4.2,2.2-1.6,4.5-3.8,7-6.1,1.8-1.8,3.6-3.7,5.3-6-2.1-.7-4.2-1.2-6.2-1.4-1,1.2-2.1,2.3-3.1,3.3-2.3,2.1-4.5,4.1-6.6,5.6Z"/>
          <g>
            <path class="cls-2" d="M816.4,238.2c3.8,1,7.6,1.4,11.3,1.6,1.8,0,3.8.2,5.5.2,1.8,0,3.7,0,5.4,0,1.7.1,3.4,0,5.2.1,1.8.2,3.7.4,5.5.5.6,0,1.1-.3,1.3-.9.3-.7-.1-1.5-.8-1.7-1.7-.6-3.5-1.2-5.3-1.7-1.8-.4-3.8-.7-5.7-.9-3.8-.3-7.4-.4-11-.5-3.6,0-7.1-.5-10.4-1.3-.7-.2-1.4-.5-2.2-.7-.5,1.5-1,2.9-1.5,4.4.8.3,1.6.7,2.4.9Z"/>
            <path class="cls-2" d="M810.6,249.6c.6.3,1.2.6,1.8,1,2.5,1.4,5.3,3,7.9,4.1,2.6,1.1,5.7,2.2,8.4,2.5,1.4.3,2.8.3,4.2.3.7,0,1.4,0,2,0,1,0,1.3-.2,1.9-.3,2.5-.6,5-1.6,6.6-2.9,1.8-1.2,3-2.7,3.9-4,.8-1.4,1.2-2.5,1.4-3.3.2-.8.3-1.2.3-1.2.3-.7,0-1.5-.8-1.7-.7-.3-1.5,0-1.7.8,0,0-.8,1.2-2.5,2.6-.9.7-2,1.5-3.4,2.2-1.4.8-2.9,1.2-4.8,1.7-.5,0-1.3.3-1.5.3-.5,0-1,0-1.6,0-1.1,0-2.2.1-3.3-.1-2.4-.3-4.6-.7-7.3-1.6-2.7-.8-5.2-2-8-3.2-.8-.4-1.7-.7-2.5-1.1,0,0,0,.2,0,.3-.3,1.2-.7,2.5-1,3.8Z"/>
            <path class="cls-2" d="M828.7,253.9c0-1-1-1.8-2-1.8,0,0-1.5,0-4,.3-1.3.1-2.9.2-4.5,0-1.7-.3-3.5-.2-5.6-.8-.7-.2-1.5-.3-2.3-.5-.3,1.1-.5,2.2-.8,3.4.8.2,1.6.3,2.3.5,2.1.6,4.4.7,6.3,1,1.9.3,3.5.2,4.8.2,2.6-.1,4-.2,4-.2,0,0,0,0,0,0,1,0,1.8-1,1.8-2Z"/>
          </g>
          <path class="cls-2" d="M821.9,235.8c0,3.3-1.7,13.9-1.7,13.9,0,1.3,2.4-6.4,3.6-6,1.5.5,3.2-.4,3.6-2h0c0-.1.5-1.8,1.1-5.2.5-3.4,1.6-8.5.3-15.4-.3-1.7-.7-3.6-1.6-5.4-.3-.8-.6-1.6-1.1-2.3-2.1,2.3-3.9,4.9-5.5,7.7.1.5.3,1.1.4,1.6,1,5.2.7,10,.7,13.2Z"/>
          <path class="cls-2" d="M838.5,213.6c-.4,1-.2,2.1.4,2.9.7-.3,1.5-.7,2.2-1,.5-.6,9.4-7.5,9.7-7.9l.7-.6c-2.8-1-5.6-1.8-8.3-2.1-.8,1-1.5,2-2.1,3-.9,1.9-1.8,3.7-2.6,5.7Z"/>
          <path class="cls-2" d="M839.5,302.5c-.2-2.3-.1-4-.5-6.7-1.1-9-3.9-16.4-5.8-22.9-2.1-6.5-3.7-11.9-4.5-16.4-.8-4.4-1.3-7.4-.9-10.3,1.8-12.2,2.2-21.7,1.7-22.5-.5-.7-1.9-1.2-1.7-1.2l-4.4,19.2c.1,0-1.3.2-2,.8-.6.6-.4,1.6-.7,2.9-.6,2.3-.6,7-.1,12.3.7,5.1,2,11.3,4.1,17.8,1.9,6.5,4.3,13.7,5.2,21.4,0,.6.1,1.3.2,2.1,3,2.9,6.1,5.6,9.5,7.9,0-1.5.1-3,0-4.4Z"/>
          <path class="cls-2" d="M850.2,226.1c.5.3,4.3,4.9,4.6,4.4,0,0-3.5-16.9-5.3-24.1-2.1-.7-4.3-1.2-6.3-1.4,0,0,0,0,0,0,.8,3.9,7,21.1,7,21.1Z"/>
          <path class="cls-2" d="M837.4,205.5c-2.8,1.1-5.2,2.6-7.4,4.4,6.4,6,12.8,13.2,18.2,20.6,1-1.7,2.7-3,4.7-3.7.5-.2,1-.3,1.5-.4.2,0,.4,0,.6,0-1.8-4.7-4.7-10.9-5.4-11.6-3.7-3.8-7.2-6.9-10.7-9.6-.5.1-1,.2-1.4.4Z"/>
          <path class="cls-2" d="M856,295.9c-3.4-.5-8,.9-10.6-1.4,0,4.3.4,9.2.2,10.8h0s-.1,2-.4,5.4c3.2,1.7,6.5,3,10,3.9.4-5.3.7-8.5.7-8.5,0,0,.6-7.4,0-10.1Z"/>
          <g>
            <path class="cls-13" d="M889.2,277.4c0-3.9-.4-7.9-2-11.5-.6-1.2-1.2-2.4-2-3.4-2.4-3.5-3.2-7.7-3.2-12,0-.8,0-1.5,0-2.3-.1-1.1-.3-2.1-.8-3.1-.8-1.6-2.5-2.7-4.3-3.1-1.2-.3-5.1-2.6-6.1-3.7-.2-1.5-.6-2.9-1.6-3.9-.8-.9-1.9-1.4-2.9-1.8-5-2.1-10.7-2.7-15.8-1.1-3.2,1-6.4,1.9-9.4,3.5-3.4,1.7-4.6,4.2-7,7-1.9,2.2-4.2,4-6.2,6.1-3.7,3.6-1.7,13.9-1.8,19.1,0,2.9.6,5.9,2.6,7.9.8.8,1.9,1.4,2.7,2.3,2.8,3.1,1.6,8.2,3,12.2,1.1,3.3,4,5.6,7.1,7.1,3.1,1.5,6.4,2.3,9.5,3.6,4.5,1.9,8.5,4.8,13,6.7,4.5,1.9,9.8,2.7,14,.3,1.7-1,3.1-2.4,4.4-3.9,5.6-7.1,7.2-16.7,7.1-25.8Z"/>
            <path class="cls-16" d="M870.2,236.2c-.3-.7-.6-1.3-1.1-1.8-.8-.9-1.9-1.4-2.9-1.8-5-2.1-10.7-2.7-15.8-1.1-2.7.9-5.2,2.5-7.2,4.5,5.4,4,11.4,10.7,19.1,6.8,1.8-.9,3.9-1.4,6-1.9.4-1.6,1.1-3.2,2-4.7Z"/>
            <path class="cls-16" d="M868.6,241.7c0,3.7-4.3,7.5-7.9,7.5s-9.3-4-9.3-7.7,5.6-6.6,9.3-6.6,8,3.1,8,6.8Z"/>
          </g>
          <path class="cls-2" d="M886.5,228.5c-1.6.3-3.2.6-4.7.6-3.4.2-11.5,1.8-14.1,3.1-1.4.6-13.8,4.7-11.4,10.8.9,2.3,4.4,3.4,6.4,2.2,3.3-1.2,6.9-9.7,9.8-10.4,2.8-.4,6.4-.4,9.9-.6,2,0,3.8-.4,5.6-.8-.5-1.6-.9-3.3-1.5-4.9Z"/>
          <g>
            <path class="cls-2" d="M898.1,263.3c-.1-1.5-.4-3.1-.7-4.6-1.1,0-2.3-.2-3.3-.3-1.9-.2-3.9,0-5.8,0-1.9,0-3.6.1-5.3.4-1.6.3-3.1.4-4.4.7-1.3.4-2.4.8-3.4,1.1-1.9.6-2.9,1-2.9,1,0,0-.1,0-.2,0-1.6.7-2.4,2.5-1.8,4.1.7,1.6,2.5,2.4,4.1,1.8l.6-.2s.9-.3,2.4-.9c.8-.3,1.7-.7,2.7-1.1,1.1-.4,2.4-.5,3.8-.9,1.4-.3,2.9-.6,4.6-.7,1.7,0,3.3-.4,5.3-.3,1.4,0,2.8,0,4.2,0Z"/>
            <path class="cls-2" d="M897.6,276.7c.2-1.8.4-3.5.5-5.3-.8-.2-1.7-.3-2.6-.4-2.2-.3-4.2-.5-6.1-.8-3.7-.6-7.1-.5-9.4-.7-2.3-.1-3.6-.2-3.6-.2,0,0-.1,0-.2,0-1.8,0-3.3,1.5-3.3,3.4,0,1.8,1.5,3.3,3.4,3.3h.2s1.2,0,3.3,0c2.2,0,5.1-.3,8.9,0,1.9.1,3.9.2,6.1.4.8,0,1.7.2,2.6.3Z"/>
          </g>
          <path class="cls-14" d="M871.6,230.8s-9.8-19.5-19.4-15.8c-9.6,3.7-15.9,9.7-13.3,30l4.3,3.7s7-4.2,9-4.7c0,0-6.2-13.4,5.4-13.2,1.3,0,5.5.7,7.1,2.6l6.9-2.6Z"/>
        </g>
        <g>
          <polygon class="cls-24" points="919.5 259.7 920.2 259.3 919.3 257.2 919.5 259.7"/>
          <path class="cls-24" d="M916.7,238.3c-.3-.4-.7-.9-1-1.4-.4-.5-.8-1.1-1.1-1.5-.7-1-1.5-1.6-2.2-1.4.9.9,1.6,1.8,2.4,2.7-.4.4-.4,1.1-.2,2,.2.8.7,1.8,1.1,2.7-.2-.7-.5-1.4-.7-2.1.3.5.8,0,1.1.5.3,1.7.8,2.7,1.2,3.7.4,1,.7,2,.5,3.7v-.2c-.1,0,1,2.4,1,2.4,0,.8-.5.6-.8.3.4,1.1.8,2,1.1,3.1.3,1.1.5,2.3.6,3.8.8-1.2.4-3-.2-4.6-.3-.8-.6-1.6-.7-2.4-.2-.8-.1-1.5.2-2.2v.2c-.4-1.4-.7-3-.9-4.7-.3-1.6-.6-3.3-1.3-4.6Z"/>
          <path class="cls-24" d="M917.9,249.8c0,0,0-.1,0-.2,0,0,0,.1,0,.2Z"/>
          <path class="cls-24" d="M823.1,199.2v.3c.1-.2.2-.4,0-.3Z"/>
          <path class="cls-24" d="M860.6,196c0,0-.1,0-.2,0-.3.4-.1.3.2,0Z"/>
          <path class="cls-24" d="M882.9,320.3h.9c-.3-.2-.6-.2-.9,0Z"/>
          <path class="cls-24" d="M917.2,282.7h0c0,0,0,0,0,0Z"/>
          <path class="cls-24" d="M901,299.6l-.3-.2c0,.2.2.2.3.2Z"/>
          <path class="cls-24" d="M908.8,286.3c.3-.3.5-.7.7-1.1-.3.2-.6.6-.7,1.1Z"/>
          <path class="cls-24" d="M917.2,283.3c0-.2,0-.4,0-.5,0,.2,0,.4,0,.5Z"/>
          <path class="cls-24" d="M882.8,313.7l-1-.6c.2.3.6.4,1,.6Z"/>
          <path class="cls-24" d="M909.6,282.6c.2-.1.4-.4.6-.6-.2,0-.5.3-.6.6Z"/>
          <path class="cls-24" d="M915.5,235.2c.2.4.4.9.7,1.5-.2-.6-.4-1.1-.7-1.5Z"/>
          <path class="cls-24" d="M805.8,296.8c.2,0,.3,0,.5,0-.3-.2-.4-.1-.5,0Z"/>
          <path class="cls-24" d="M848.3,320.1h.2c0,0,0-.1-.2-.2v.2Z"/>
          <path class="cls-24" d="M834,317.3c0,0,.2,0,.3-.1-.2,0-.2,0-.3.1Z"/>
          <path class="cls-24" d="M859.3,319.1c.2,0,.3-.2.5-.4-.2.1-.3.2-.5.4Z"/>
          <path class="cls-24" d="M869.7,318.1c-.5-.2-.1-.6.2-1.1-1.3.1-2.1.5-2.9.8-.4.2-.8.3-1.3.4-.5,0-1.1,0-1.8,0l1.3.2c-1.6,1-4.8,1.7-6.5.8l.5-.3c-.8.4-1.9.4-2.8.2-1-.2-1.8-.3-2.1,0,.7.4,0,.7,1.1,1-1.4.3-2.9.6-4.3.8l-.3-1.3c-.8.1-1.5.2-2.3.3.3.3-.5.1-1.3,0-.8-.1-1.7-.2-1.8.4-1.2-.6.7-.9,1.2-1.4-1.3.2-1.3-.3-2.6.2l-1-1.3c-1.1.1-2.2.1-3.3.1.2,0,0-.2.2-.3-.8.3-1.7,0-2.7-.4-.5-.2-1-.3-1.5-.4-.5,0-1.1,0-1.6.2.1,0,.1,0,.2-.1-1.3.5-3.5-1-4.3-1.6-1.6-.5-1.1.7-1.3,1.1-2.3-1.2-3-1.7-3.7-1.9-.8-.2-1.5-.2-3.7-.7-.7-1.3.2-1.3,1.1-1.5.8-.1,1.6-.2.4-1.5-.4.2-1.1,0-2-.2-.9-.3-2-.8-3.1-1.4-.4-.4-.9-.9-1.4-1.5-.5-.5-1-1.1-1.5-1.7-1-1.2-1.9-2.4-2.3-3.5l-.5.8-1.3-.9-1.3-1c.8.1,1.5.3,2.2.4-.6-.1-2.1-.9-3.2-1.3-2.8-2,.3-2.7-2.4-3.8,0-.1,0-.3,0-.4-.5-.1-1.1-.6-1.7-1.4-.6-.8-1.3-1.7-2.1-2.7h1.5c.2.6.5,1.1.7,1.5.4-1.3-1.6-2.1-2.4-3.5-1.2-1.2-1.6,0-2.4-.6-.3-.5-1-1.2-.9-1.8-.3-1.5,1.2-.8,1.8-.6-1.6-.6-1.8-1-3.4-3.4.5-.4.8-.3,1,0-.4-.5-.8-.8-1.4-.9l.3-1.2c0-.8-.3-1.4-.6-1.8-.3-.4-.7-.7-1.2-1-.4-.3-.9-.6-1.3-1.1-.4-.5-.7-1.2-.9-2.1.5.4.2-.4-.1-1.5-.3-1.1-.6-2.5-.3-3.1.4,1.3,1.6-1,2.5-.3,0-3-1.7-.9-2.3-3.3l1.6.8c-.9-2.2-.9-.4-1.6-2.8.5.6.3-1.1.9.3,0-1.6-.1-2.1-.1-2.7,0-.5,0-1,0-2.4l-1.4-.2c-.2-.9.4-1.3.7-1.6,0,.4,0,1,.2.9,1.2-1.1-.7-1.8.5-3-.5.3-1.1.6-1.2-.5.8.4.9-1.7,1.3-1.8-.7.7,0-2.5-1-2.7.8-1.3.6.5,1.1.6-.5-.6-.4-1.8-.2-2.9.2-1.1.5-2.2.3-2.8,0,0,.2,0,.2,0-.2-.8-.2-1.7-.2-2.9,0-1.1.1-2.5.1-4,.2.4.3.8.5,1.2,1.3-2.6-1.1-2.2-.2-4.5.5.4.8-.5,1.1-1.4.3-.9.7-1.6,1.1-.9,0-.8,0-1.6.1-2.3,0-.7,0-1.4-.2-2.1,1.2-.9.2,3.1,1.4,1.5l.4-2.1h.7c-.4-.3.5-1.9.1-2,.8.1,1.7-.3,2.1,0,.5-1.2,2-2.3,2.1-3.5h.4c-.5-1.7,2.1-3.1,1.4-4.5h1.1c1.2-1.7-.2-2.4.2-3.3.5-.6,1.1-1.5,1.8-2-.6,1.3-.1,1.2.5.9.7-.4,1.6-1,2-1,.7-.7,2.9-2.7,3.1-3.8-.5,1.3.5,1.3-1.1,2.8.9.2,1.5-.4,2.1-1.3.6-.8,1.3-1.8,2.3-2.5l.4.6c2.5-2.4,2.1-3.3,2.7-5.1.8.5.6.8.2,2.1,1.1-.4,2.4-1.2,3.7-2,1.3-.8,2.7-1.6,3.9-2.1,1,.2.6.7,0,1.3,2.1-1.7,5.5-2.1,6.7-4-.5.8,1.1,0,2.2,0,0-.3,0-.7.1-.7,1.4-1.1,5-2.4,7-2.2l-.6.5c1.1-.2,2.1-.4,2.9-.7.9-.3,1.7-.6,2.5-.9,1.6-.6,3.4-1,5.9-.5.9.3-.9,1.2.9,1.2.4-.3.6-.7.9-1,.3-.3.9-.5,2-.2l-.2.9,1.7-.8c-.7-.8-3.4-.8-1.5-1.5,2,1,2-.8,4.4.6-.6,0-1.5.6-1.9,1,2.6.9,4.4,1,6.3,1.1.9.1,1.9.2,2.9.4,1,.3,2.1.7,3.3,1.4,2.8,0,6.1,1.3,8.1,1.4-.5.8-.9,1.6-2.3,1.8,2,1,3.9-.4,4.7,1.6.8-.3,2.3.3,3.7.8,1.4.6,2.9,1.1,3.6.5-.1.4,2.1,1.5-.5.9,3,1.3,2.4,3.8,3.5,4.6.7.5,0-1.5,1.5-.3.1.2,0,.4.2.6h.8c.3.9-1.2.3-1.6.6.8,1,1.8,1.5,2.8,2,.5.3,1.1.5,1.6.9.5.4,1.1.8,1.6,1.3l-.6-.2c.7.8,1.4,1.5,2,2.3h-.2c.7.4,1.4.9,2.1,1.4l-.4.2c.5.4.8.3,1.3.9l-.6.2c.6,0,1.5.6,2.2,1.3.8.7,1.5,1.6,1.9,2.2v.4c0,0,1.4,1.1,1.4,1.1l1.4,1.2c.4,1.9-2.4-1.4-.2,1.6l-1.5-.2c.9,1,1.1,1.7,1.4,2.3.2.6.5,1.1,1,1.8.2-1-.4-2,.5-1.5-.1,1.2.2,1.9.9,2.5.6.6,1.5,1.1,2.1,1.9-.4-.9-.6-1.6-1.6-1.9-.4-1,.4-.6.2-1.2-.4-.4-.8-.7-1.2-1.1l.5-.7-1.8-2c.9-.3-1.1-2.1.3-1.7-1.2-1.4-1.3-2.6-3-3.5-.2-1.4,1.6,1.3,1,.1-4.6-5.7-9.6-11.4-15.4-16.3h.8c-.9,0-1.8-.3-2.5-.4-.3-.7-1.3-2-2.6-3-.6-.5-1.3-1-2-1.3-.7-.3-1.4-.4-1.9-.3-.2-.2.3-.2.5-.2-1.1-.6-2.6-1.6-4.2-2.6-.8-.5-1.7-1-2.6-1.5-.9-.5-1.8-.8-2.6-1.1-1,.4-2.2-.2-3.4-.8-1.2-.6-2.5-1-3.4-.2l.8-.2c1,.9-2.1.9-2.6,1.3-.7-1.5.2-1-.7-2.5l1.3.8v-1.2c-2.6.8-4.6.2-6.5-.5-.9-.3-1.8-.7-2.6-.8-.8-.1-1.7,0-2.4.4.2,0,.1-.3.3-.4-.9-.4-1.8-.2-2.5,0-.8.3-1.4.7-2.1.9-.2-.6.8-.9,1.6-1.3-.8-.1-1.8-.2-2.9,0-1.1.1-2.2.2-3.3.4-2.3.4-4.6.8-6.5.7-1.2,1,.6.9-.6,1.7-1.1,0-2.1-.5-.7-1.1-.9-.2-1.9-.1-3.1.2-1.2.2-2.5.7-3.8,1.3-1.3.5-2.7,1.1-4,1.6-1.3.6-2.6.9-3.9,1.2-2,1.8-.4,1.4-3.6,3.7.6-.9-1.7-1.2.4-2.3v-.7c-3.6,1.6-8.3,4.4-9,7-.8-.9-.7.2-2.3.6-.4.5.2.1.4,0-.5,1.7-1.7,1.3-2.4,2.1v-.4c-.4.8-1,1.6-1.5,2.4-.4.2-1.1.5-1.4.3l.6.6c-1.1,1.1-1.3-.3-2.5,1.2l.7.2c-1.1.6-1.8,2.6-2.6,2.2-.2,0,0-.2.3-.6-1.1.3-1.8,1.3-2.5,2.4-.6,1.1-1.3,2.3-2.2,3.1l1.4.3c-.9,2.1-1,.9-1.4.6-.9,1.2-1.4,1.2-2.6,2.9-.2,1,.2.7.3,1.2-.5.5-.9,1-1.3,1.6v-1.5c0,.9-.2,1.8-.6,2.7-.4.8-.8,1.7-1.3,2.5-.9,1.6-1.7,3.1-1.2,4.4-.8.9-.4-1.3-.8-.7-.5.8-.9,1.7-1.2,2.6-.3,1-.4,2-.6,3-.3,2-.5,3.9-1.3,5.3-.3.6-.5,1.2-.7,1.8-.2.6-.3,1.3-.5,1.9-.3,1.3-.4,2.7-.6,4.1-.1,1.4-.2,2.8-.3,4.2,0,1.4-.2,2.8-.3,4.2h.4c0,1.2-.2,2.6-.1,3.9.5.5.6,1.4.9,2.4.3,1,.5,2.1,1.1,2.8-.3,0-.7.3-1,0,.4,1.7,1.1,3.4.9,4.4l-.4-.5c.2.9.3,1.9.6,3,.3,1,.6,2,.9,3,.7,1.9,1.4,3.6,2.1,4.3.5,1.2,0,1.4-.4,1.9.8,2,1.8,3.2,3.1,4.5,0,.5.2,1,.1,1.6l1.2.3c.3.8-.5.5-.4,1.3,1.3,1.2,2.3,2.7,3.2,4.2.9,1.4,1.6,2.9,2.4,3.8v-.5c1,.6,1.7,2.4.6,1.8.7,1,1.4,1.8,2.1,2.4.7.7,1.5,1.2,2.3,1.8,1.6,1.1,3.5,2.3,5.8,4.4-.2.9,1,1.7,2.2,2.5,1.2.8,2.4,1.5,2.3,2.5,1.3.5,2.2,1.2,3,1.7.9.5,1.7.9,2.8.9,0,.2.1.4-.3.2.3.6,1.3,1.1,2.6,1.6,1.3.5,2.8.9,4.1,1.2v.6c.6-.4,2,0,3.4.2,1.4.2,2.8.5,3.4,0,.2.3-.6.4-1,.4,1,1.5,2.5.2,4.1.8-.2.3.2.7-.2.8,2.7,1.4,6.5,1.8,10.4,1.8,3.9,0,8-.3,11.9-.2,2.2-.2-.9-1.1,1.9-1.4.9.5-1.2,1.4.6,1.4,1.2-.9,1.7-.8,3.4-1.1-.2.4,0,.7-1.1,1.1.5.2,1.6-.3,2.7-.7,1.1-.4,2.4-.8,3.5-.6-.2-.3.1-.6.4-.9.6-.5,1.4-.7,2.1-.9.7-.2,1.5-.3,2.2-.4,1.4-.1,2.5-.2,2.5-.5,0,0,.9-.5,0-.3,1-.4,2.5-.8,2.5-.2.4-.5.6-1.2,1.4-1.6v.8c.3-.3.6-1,1-1.3-.3,0-.6,0-.9,0,1.4,0,2.9-2.4,3.4-1.2l-.4.2c.8-.2,1.5-.4,2.3-.6.6-.9,1.1-1.8,2.5-2.5,1.3.8,3.5-2,5.1-3.1l.2.4c.9-1.4,4-3.9,3.3-3.6,1.1-1,2.8-2.2,2.6-1.4.7-1,2.5-3,2.4-4l2.5-1.1c-.2-1.1.7-2,1.5-2.7.8-.8,1.4-1.4.7-2,1-1,1.2-.5,2-1.1.2-1.1.5-2,1-2.8.5-.9,1-1.7,1.6-2.5h.2c.6-.8.9-1.9,1.2-3,.3-1.2.6-2.4,1.1-3.7h1.5c.4-1.5-.5-2.2.2-3.4.3-.2.3,0,.2.5.2-1.4,1.1-3,1.7-3.9-.3-2.3.3-3.8-.3-5.8.7-.7.8,0,.8.6,0,.6,0,1.3.7.8,1.3-2.8,1.1-6,.7-9.4.3-.3.5.1.7.3,0,0-.2-.4-.5-1.1-.3-.6-.7-1.4-1.2-2.2-.9-1.5-2.1-2.8-2.7-2.2-.9-.8-1.4-1.6-2.2,1,.3.4.5,1.3.6,2,0,.8,0,1.5-.6,1.7l.9.2c0,1.8-.4,1.8-1,1.9-.6.1-1.2.3-1.4,2.3l.4-.8c0,.8.5,1.5,0,2.3-.3.2-.3-.4-.5-.7.2,1.2.5,2.4.6,3.6-.6,0-.8-.2-1.1-.9-.7,3,1.9-.2.6,3.4-.6.6-.5-.4-.7-1-1.3,1.5-.8,2.8-.9,4.7-.8-.3-.3-1.3-1.3-.1.5-.1,1.3,0,1,1-.6-.8-.7.7-1.3,1.6.4-.1.7.1.7.6,0,.6-.5.9-.8,1.6.5-.3.9-.6,1.3-1,0,1.1-.4,1.7-1,2.3-.5.5-1.1,1-1.7,1.6,0-.2,0-.5,0-.7-1,1.2-2.3,2.3-2.7,4.4v-.2c-.6,1.8-.2,1.7.3,1.8.4,0,.8,0,0,2.1-.9,1.1-1.9-2.1-3,1.2.7-.4.8.3.6,1.3-.3,1-.9,2.3-1.4,3.2,0-.9,0-1.7,0-2.6-.5.6-.9,1.9-1.4,2.1l.3.2c1.1.8-1.7,1.8-2.1,3.3-.2-2.6,0-2.4-1.1-3.9,0,.8-.1,1.7-.5,2.5-.3.9-.9,1.7-1.8,2.5.1-.8.3-1.6.4-2.4-1.2,1-2.1,2.5-3,4.1-.4.8-.8,1.6-1.2,2.4-.4.8-.7,1.5-1.1,2.2,0-1.3-1.2-1-.8-2.4-.8.7-1.6,1.3-2.3,2v-1.5c-.3,1.7-1.9,1.8-.9,3,.2-.4,0-.5.6-.8.2.4.3,1.6-1.1,2.4-1.1.3.2-.9-.3-1.1-.5,1.1-1.1.2-1.8,1.2h1.2c-.2,1.3-1.5,1.1-2.3,2,1-1,.3-1.2-.4-1.5h.1c-.7.5-1.3,1.5-2,1.3v-1.4s-.6,1.4-.6,1.4c-.5,0-.9-.2-.4-.8-1.7.4-1.4,1-1.3,1.6,0,.3.1.6-.2.9-.3.3-.9.6-2.1.7-.1-.5.3-.9,1.5-1.2-.1-.8-.6-1-1.8-.9,0,0,0,0,0-.1-2.2.9-5.1,1.7-6.4,3Z"/>
          <path class="cls-24" d="M876.1,315.2c1.2-.4,2.1-.9,2.5-1.3-.3-.1-2.8.6-2.5,1.3Z"/>
          <path class="cls-24" d="M827.6,204.3c-.1.1-.3.2-.4.3.1-.1.3-.2.4-.3Z"/>
          <path class="cls-24" d="M837.1,200.4c-.1,0-.4-.1-.6-.1,0,.2.2.4.6.1Z"/>
          <path class="cls-24" d="M798.1,284.5h0s0,0,0,0Z"/>
          <path class="cls-24" d="M801.3,229.4c0-1,0-1.4-.3-1.6-.2.5-.2,1.1.3,1.6Z"/>
          <path class="cls-24" d="M793.9,247.2c0,.1,0,.3.1.4,0-.3,0-.4-.1-.4Z"/>
          <path class="cls-24" d="M799.9,287c-.8-.6-1.3-1.7-1.9-2.4.3.3.5.9.7,1.4.3.5.6.9,1.1,1Z"/>
          <polygon class="cls-24" points="849.3 196.9 848.3 197.6 849.3 197.1 849.3 196.9"/>
          <path class="cls-24" d="M839.7,198.7c-.5,0-2,.7-1.5.9.4-.4.9-.7,1.5-.9Z"/>
          <polygon class="cls-24" points="807.4 216.6 807.6 217.4 807.9 216.4 807.4 216.6"/>
        </g>
      </g>
    </g>
    <g id="conector_retnopatia" data-name="conector retnopatia">
      <g id="conector_retnopatia-2" data-name="conector retnopatia">
        <rect class="cls-18" x="652" y="73.3" width="114.5" height="1"/>
        <circle class="cls-18" cx="656.2" cy="74.3" r="10.7"/>
      </g>
    </g>
    <g id="ic_retnopatia" data-name="ic retnopatia">
      <g id="ic_retnopatia-2" data-name="ic retnopatia">
        <g>
          <circle class="cls-27" cx="829.1" cy="76.1" r="62.9" transform="translate(35.1 326.5) rotate(-22.7)"/>
          <g>
            <path class="cls-7" d="M874,68.5s2.9,55.5-91.6,21.7c0,0,21.7-62.5,91.6-21.7Z"/>
            <path class="cls-19" d="M790.5,87.6c4.4,1.2,8.7,2.9,13.1,3.9,10.3,2.4,21,5.4,31.6,4.2,11.2-1.4,19.9-2.2,27.6-11.5,4.7-5.6,7.6-8.9,9.4-16.9-58.3-32.9-82.4,6.9-88.2,19.3,2.2,0,4.4.3,6.6.9Z"/>
            <g class="cls-32">
              <path class="cls-25" d="M853.4,62c10.2,4.5,11.1,21.6,2.4,28.2-8.3,6.3-21.1,10.2-48.9,2.5-8.6-2.4-10.9-13.6-4-19.3,9.4-7.8,23.5-23.3,50.4-11.5Z"/>
              <path class="cls-9" d="M829.1,59.4c10.9-.4,20.1,8.2,20.4,19.1.4,10.9-8.2,20.1-19.1,20.4-10.9.4-20.1-8.2-20.4-19.1-.4-10.9,8.2-20.1,19.1-20.4Z"/>
              <path class="cls-28" d="M829.1,61.3c9.9-.3,18.1,7.4,18.5,17.3.3,9.9-7.4,18.1-17.3,18.5-9.9.3-18.1-7.4-18.5-17.3-.3-9.9,7.4-18.1,17.3-18.5Z"/>
              <path class="cls-17" d="M829.4,68.5c5.9-.2,10.9,4.5,11.1,10.4.2,5.9-4.5,10.9-10.4,11.1-5.9.2-10.9-4.5-11.1-10.4-.2-5.9,4.5-10.9,10.4-11.1Z"/>
              <path class="cls-27" d="M839.5,69.1c-2.5,0-4.6,2.1-4.6,4.6s2.1,4.6,4.6,4.6,4.6-2.1,4.6-4.6-2.1-4.6-4.6-4.6Z"/>
            </g>
            <g>
              <path class="cls-1" d="M874,68.5c-19.4-11.3-31.4-16.4-44.3-15.6-27.3,1.7-41.3,24.9-45.7,33.9,0,0,0,0,0,0-1,2.1-1.5,3.5-1.5,3.5,94.5,33.8,91.6-21.7,91.6-21.7ZM861.7,84.3c-8,9-15.3,10.1-26.5,11.5-10.6,1.3-21.4-1.8-31.6-4.2-4.4-1-8.7-2.8-13.1-3.9-.5-.1-1.1-.3-1.6-.4,13.8-14.9,26.7-24.4,40.8-25.5,13.5-1,25.8,3.5,35.8,9.6,1.8,1.1,2.4,3.3,1.4,5.2-1.4,2.6-2.9,5.2-5.1,7.7Z"/>
              <path class="cls-7" d="M810.9,58.9h0c13.9-6.3,33.8-6.9,61.3,8.6-27.4-15.5-47.3-14.9-61.3-8.6Z"/>
              <path class="cls-7" d="M799,66.6c-1.3,1.2-2.6,2.3-3.7,3.6,1.2-1.2,2.4-2.4,3.7-3.6Z"/>
              <path class="cls-7" d="M800.1,65.6c2.1-1.7,4.4-3.3,6.9-4.8-2.5,1.4-4.8,3.1-6.9,4.8Z"/>
            </g>
          </g>
        </g>
        <g>
          <polygon class="cls-24" points="895.1 77.4 895.7 77 894.8 74.9 895.1 77.4"/>
          <path class="cls-24" d="M892.2,56c-.3-.4-.7-.9-1-1.4-.4-.5-.8-1.1-1.1-1.5-.7-1-1.5-1.6-2.2-1.4.9.9,1.6,1.8,2.4,2.7-.4.4-.4,1.1-.2,2,.2.8.7,1.8,1.1,2.7-.2-.7-.5-1.4-.7-2.1.3.5.8,0,1.1.5.3,1.7.8,2.7,1.2,3.7.4,1,.7,2,.5,3.7v-.2c-.1,0,1,2.4,1,2.4,0,.8-.5.6-.8.3.4,1.1.8,2,1.1,3.1.3,1.1.5,2.3.6,3.8.8-1.2.4-3-.2-4.6-.3-.8-.6-1.6-.7-2.4-.2-.8-.1-1.5.2-2.2v.2c-.4-1.4-.7-3-.9-4.7-.3-1.6-.6-3.3-1.3-4.6Z"/>
          <path class="cls-24" d="M893.5,67.4c0,0,0-.1,0-.2,0,0,0,.1,0,.2Z"/>
          <path class="cls-24" d="M798.6,16.9v.3c.1-.2.2-.4,0-.3Z"/>
          <path class="cls-24" d="M836.1,13.7c0,0-.1,0-.2,0-.3.4-.1.3.2,0Z"/>
          <path class="cls-24" d="M858.5,138h.9c-.3-.2-.6-.2-.9,0Z"/>
          <path class="cls-24" d="M892.7,100.4h0c0,0,0,0,0,0Z"/>
          <path class="cls-24" d="M876.6,117.3l-.3-.2c0,.2.2.2.3.2Z"/>
          <path class="cls-24" d="M884.3,104c.3-.3.5-.7.7-1.1-.3.2-.6.6-.7,1.1Z"/>
          <path class="cls-24" d="M892.7,101c0-.2,0-.4,0-.5,0,.2,0,.4,0,.5Z"/>
          <path class="cls-24" d="M858.3,131.4l-1-.6c.2.3.6.4,1,.6Z"/>
          <path class="cls-24" d="M885.1,100.3c.2-.1.4-.4.6-.6-.2,0-.5.3-.6.6Z"/>
          <path class="cls-24" d="M891,52.9c.2.4.4.9.7,1.5-.2-.6-.4-1.1-.7-1.5Z"/>
          <path class="cls-24" d="M781.3,114.5c.2,0,.3,0,.5,0-.3-.2-.4-.1-.5,0Z"/>
          <path class="cls-24" d="M823.9,137.8h.2c0,0,0-.1-.2-.2v.2Z"/>
          <path class="cls-24" d="M809.6,135c0,0,.2,0,.3-.1-.2,0-.2,0-.3.1Z"/>
          <path class="cls-24" d="M834.8,136.8c.2,0,.3-.2.5-.4-.2.1-.3.2-.5.4Z"/>
          <path class="cls-24" d="M845.2,135.8c-.5-.2-.1-.6.2-1.1-1.3.1-2.1.5-2.9.8-.4.2-.8.3-1.3.4-.5,0-1.1,0-1.8,0l1.3.2c-1.6,1-4.8,1.7-6.5.8l.5-.3c-.8.4-1.9.4-2.8.2-1-.2-1.8-.3-2.1,0,.7.4,0,.7,1.1,1-1.4.3-2.9.6-4.3.8l-.3-1.3c-.8.1-1.5.2-2.3.3.3.3-.5.1-1.3,0-.8-.1-1.7-.2-1.8.4-1.2-.6.7-.9,1.2-1.4-1.3.2-1.3-.3-2.6.2l-1-1.3c-1.1.1-2.2.1-3.3.1.2,0,0-.2.2-.3-.8.3-1.7,0-2.7-.4-.5-.2-1-.3-1.5-.4-.5,0-1.1,0-1.6.2.1,0,.1,0,.2-.1-1.3.5-3.5-1-4.3-1.6-1.6-.5-1.1.7-1.3,1.1-2.3-1.2-3-1.7-3.7-1.9-.8-.2-1.5-.2-3.7-.7-.7-1.3.2-1.3,1.1-1.5.8-.1,1.6-.2.4-1.5-.4.2-1.1,0-2-.2-.9-.3-2-.8-3.1-1.4-.4-.4-.9-.9-1.4-1.5-.5-.5-1-1.1-1.5-1.7-1-1.2-1.9-2.4-2.3-3.5l-.5.8-1.3-.9-1.3-1c.8.1,1.5.3,2.2.4-.6-.1-2.1-.9-3.2-1.3-2.8-2,.3-2.7-2.4-3.8,0-.1,0-.3,0-.4-.5-.1-1.1-.6-1.7-1.4-.6-.8-1.3-1.7-2.1-2.7h1.5c.2.6.5,1.1.7,1.5.4-1.3-1.6-2.1-2.4-3.5-1.2-1.2-1.6,0-2.4-.6-.3-.5-1-1.2-.9-1.8-.3-1.5,1.2-.8,1.8-.6-1.6-.6-1.8-1-3.4-3.4.5-.4.8-.3,1,0-.4-.5-.8-.8-1.4-.9l.3-1.2c0-.8-.3-1.4-.6-1.8-.3-.4-.7-.7-1.2-1-.4-.3-.9-.6-1.3-1.1-.4-.5-.7-1.2-.9-2.1.5.4.2-.4-.1-1.5-.3-1.1-.6-2.5-.3-3.1.4,1.3,1.6-1,2.5-.3,0-3-1.7-.9-2.3-3.3l1.6.8c-.9-2.2-.9-.4-1.6-2.8.5.6.3-1.1.9.3,0-1.6-.1-2.1-.1-2.7,0-.5,0-1,0-2.4l-1.4-.2c-.2-.9.4-1.3.7-1.6,0,.4,0,1,.2.9,1.2-1.1-.7-1.8.5-3-.5.3-1.1.6-1.2-.5.8.4.9-1.7,1.3-1.8-.7.7,0-2.5-1-2.7.8-1.3.6.5,1.1.6-.5-.6-.4-1.8-.2-2.9.2-1.1.5-2.2.3-2.8,0,0,.2,0,.2,0-.2-.8-.2-1.7-.2-2.9,0-1.1.1-2.5.1-4,.2.4.3.8.5,1.2,1.3-2.6-1.1-2.2-.2-4.5.5.4.8-.5,1.1-1.4.3-.9.7-1.6,1.1-.9,0-.8,0-1.6.1-2.3,0-.7,0-1.4-.2-2.1,1.2-.9.2,3.1,1.4,1.5l.4-2.1h.7c-.4-.3.5-1.9.1-2,.8.1,1.7-.3,2.1,0,.5-1.2,2-2.3,2.1-3.5h.4c-.5-1.7,2.1-3.1,1.4-4.5h1.1c1.2-1.7-.2-2.4.2-3.3.5-.6,1.1-1.5,1.8-2-.6,1.3-.1,1.2.5.9.7-.4,1.6-1,2-1,.7-.7,2.9-2.7,3.1-3.8-.5,1.3.5,1.3-1.1,2.8.9.2,1.5-.4,2.1-1.3.6-.8,1.3-1.8,2.3-2.5l.4.6c2.5-2.4,2.1-3.3,2.7-5.1.8.5.6.8.2,2.1,1.1-.4,2.4-1.2,3.7-2,1.3-.8,2.7-1.6,3.9-2.1,1,.2.6.7,0,1.3,2.1-1.7,5.5-2.1,6.7-4-.5.8,1.1,0,2.2,0,0-.3,0-.7.1-.7,1.4-1.1,5-2.4,7-2.2l-.6.5c1.1-.2,2.1-.4,2.9-.7.9-.3,1.7-.6,2.5-.9,1.6-.6,3.4-1,5.9-.5.9.3-.9,1.2.9,1.2.4-.3.6-.7.9-1,.3-.3.9-.5,2-.2l-.2.9,1.7-.8c-.7-.8-3.4-.8-1.5-1.5,2,1,2-.8,4.4.6-.6,0-1.5.6-1.9,1,2.6.9,4.4,1,6.3,1.1.9.1,1.9.2,2.9.4,1,.3,2.1.7,3.3,1.4,2.8,0,6.1,1.3,8.1,1.4-.5.8-.9,1.6-2.3,1.8,2,1,3.9-.4,4.7,1.6.8-.3,2.3.3,3.7.8,1.4.6,2.9,1.1,3.6.5-.1.4,2.1,1.5-.5.9,3,1.3,2.4,3.8,3.5,4.6.7.5,0-1.5,1.5-.3.1.2,0,.4.2.6h.8c.3.9-1.2.3-1.6.6.8,1,1.8,1.5,2.8,2,.5.3,1.1.5,1.6.9.5.4,1.1.8,1.6,1.3l-.6-.2c.7.8,1.4,1.5,2,2.3h-.2c.7.4,1.4.9,2.1,1.4l-.4.2c.5.4.8.3,1.3.9l-.6.2c.6,0,1.5.6,2.2,1.3.8.7,1.5,1.6,1.9,2.2v.4c0,0,1.4,1.1,1.4,1.1l1.4,1.2c.4,1.9-2.4-1.4-.2,1.6l-1.5-.2c.9,1,1.1,1.7,1.4,2.3.2.6.5,1.1,1,1.8.2-1-.4-2,.5-1.5-.1,1.2.2,1.9.9,2.5.6.6,1.5,1.1,2.1,1.9-.4-.9-.6-1.6-1.6-1.9-.4-1,.4-.6.2-1.2-.4-.4-.8-.7-1.2-1.1l.5-.7-1.8-2c.9-.3-1.1-2.1.3-1.7-1.2-1.4-1.3-2.6-3-3.5-.2-1.4,1.6,1.3,1,.1-4.6-5.7-9.6-11.4-15.4-16.3h.8c-.9,0-1.8-.3-2.5-.4-.3-.7-1.3-2-2.6-3-.6-.5-1.3-1-2-1.3-.7-.3-1.4-.4-1.9-.3-.2-.2.3-.2.5-.2-1.1-.6-2.6-1.6-4.2-2.6-.8-.5-1.7-1-2.6-1.5-.9-.5-1.8-.8-2.6-1.1-1,.4-2.2-.2-3.4-.8-1.2-.6-2.5-1-3.4-.2l.8-.2c1,.9-2.1.9-2.6,1.3-.7-1.5.2-1-.7-2.5l1.3.8v-1.2c-2.6.8-4.6.2-6.5-.5-.9-.3-1.8-.7-2.6-.8-.8-.1-1.7,0-2.4.4.2,0,.1-.3.3-.4-.9-.4-1.8-.2-2.5,0-.8.3-1.4.7-2.1.9-.2-.6.8-.9,1.6-1.3-.8-.1-1.8-.2-2.9,0-1.1.1-2.2.2-3.3.4-2.3.4-4.6.8-6.5.7-1.2,1,.6.9-.6,1.7-1.1,0-2.1-.5-.7-1.1-.9-.2-1.9-.1-3.1.2-1.2.3-2.5.7-3.8,1.3-1.3.5-2.7,1.1-4,1.6-1.3.6-2.6.9-3.9,1.2-2,1.8-.4,1.4-3.6,3.7.6-.9-1.7-1.2.4-2.3v-.7c-3.6,1.6-8.3,4.4-9,7-.8-.9-.7.2-2.3.6-.4.5.2.1.4,0-.5,1.7-1.7,1.3-2.4,2.1v-.4c-.4.8-1,1.6-1.5,2.4-.4.2-1.1.5-1.4.3l.6.6c-1.1,1.1-1.3-.3-2.5,1.2l.7.2c-1.1.6-1.8,2.6-2.6,2.2-.2,0,0-.2.3-.6-1.1.3-1.8,1.3-2.5,2.4-.6,1.1-1.3,2.3-2.2,3.1l1.4.3c-.9,2.1-1,.9-1.4.6-.9,1.2-1.4,1.2-2.6,2.9-.2,1,.2.7.3,1.2-.5.5-.9,1-1.3,1.6v-1.5c0,.9-.2,1.8-.6,2.7-.4.8-.8,1.7-1.3,2.5-.9,1.6-1.7,3.1-1.2,4.4-.8.9-.4-1.3-.8-.7-.5.8-.9,1.7-1.2,2.6-.3,1-.4,2-.6,3-.3,2-.5,3.9-1.3,5.3-.3.6-.5,1.2-.7,1.8-.2.6-.3,1.3-.5,1.9-.3,1.3-.4,2.7-.6,4.1-.1,1.4-.2,2.8-.3,4.2,0,1.4-.2,2.8-.3,4.2h.4c0,1.2-.2,2.6-.1,3.9.5.5.6,1.4.9,2.4.3,1,.5,2.1,1.1,2.8-.3,0-.7.3-1,0,.4,1.7,1.1,3.4.9,4.4l-.4-.5c.2.9.3,1.9.6,3,.3,1,.6,2,.9,3,.7,1.9,1.4,3.6,2.1,4.3.5,1.2,0,1.4-.4,1.9.8,2,1.8,3.2,3.1,4.5,0,.5.2,1,.1,1.6l1.2.3c.3.8-.5.5-.4,1.3,1.3,1.2,2.3,2.7,3.2,4.2.9,1.4,1.6,2.9,2.4,3.8v-.5c1,.6,1.7,2.4.6,1.8.7,1,1.4,1.8,2.1,2.4.7.7,1.5,1.2,2.3,1.8,1.6,1.1,3.5,2.3,5.8,4.4-.2.9,1,1.7,2.2,2.5,1.2.8,2.4,1.5,2.3,2.5,1.3.5,2.2,1.2,3,1.7.9.5,1.7.9,2.8.9,0,.2.1.4-.3.2.3.6,1.3,1.1,2.6,1.6,1.3.5,2.8.9,4.1,1.2v.6c.6-.4,2,0,3.4.2,1.4.2,2.8.5,3.4,0,.2.3-.6.4-1,.4,1,1.5,2.5.2,4.1.8-.2.3.2.7-.2.8,2.7,1.4,6.5,1.8,10.4,1.8,3.9,0,8-.3,11.9-.2,2.2-.2-.9-1.1,1.9-1.4.9.5-1.2,1.4.6,1.4,1.2-.9,1.7-.8,3.4-1.1-.2.4,0,.7-1.1,1.1.5.2,1.6-.3,2.7-.7,1.1-.4,2.4-.8,3.5-.6-.2-.3.1-.6.4-.9.6-.5,1.4-.7,2.1-.9.7-.2,1.5-.3,2.2-.4,1.4-.1,2.5-.2,2.5-.5,0,0,.9-.5,0-.3,1-.4,2.5-.8,2.5-.2.4-.5.6-1.2,1.4-1.6v.8c.3-.3.6-1,1-1.3-.3,0-.6,0-.9,0,1.4,0,2.9-2.4,3.4-1.2l-.4.2c.8-.2,1.5-.4,2.3-.6.6-.9,1.1-1.8,2.5-2.5,1.3.8,3.5-2,5.1-3.1l.2.4c.9-1.4,4-3.9,3.3-3.6,1.1-1,2.8-2.2,2.6-1.4.7-1,2.5-3,2.4-4l2.5-1.1c-.2-1.1.7-2,1.5-2.7.8-.8,1.4-1.4.7-2,1-1,1.2-.5,2-1.1.2-1.1.5-2,1-2.8.5-.9,1-1.7,1.6-2.5h.2c.6-.8.9-1.9,1.2-3,.3-1.2.6-2.4,1.1-3.7h1.5c.4-1.5-.5-2.2.2-3.4.3-.2.3,0,.2.5.2-1.4,1.1-3,1.7-3.9-.3-2.3.3-3.8-.3-5.8.7-.7.8,0,.8.6,0,.6,0,1.3.7.8,1.3-2.8,1.1-6,.7-9.4.3-.3.5.1.7.3,0,0-.2-.4-.5-1.1-.3-.6-.7-1.4-1.2-2.2-.9-1.5-2.1-2.8-2.7-2.2-.9-.8-1.4-1.6-2.2,1,.3.4.5,1.3.6,2,0,.8,0,1.5-.6,1.7l.9.2c0,1.8-.4,1.8-1,1.9-.6.1-1.2.3-1.4,2.3l.4-.8c0,.8.5,1.5,0,2.3-.3.2-.3-.4-.5-.7.2,1.2.5,2.4.6,3.6-.6,0-.8-.2-1.1-.9-.7,3,1.9-.2.6,3.4-.6.6-.5-.4-.7-1-1.3,1.5-.8,2.8-.9,4.7-.8-.3-.3-1.3-1.3-.1.5-.1,1.3,0,1,1-.6-.8-.7.7-1.3,1.6.4-.1.7.1.7.6,0,.6-.5.9-.8,1.6.5-.3.9-.6,1.3-1,0,1.1-.4,1.7-1,2.3-.5.5-1.1,1-1.7,1.6,0-.2,0-.5,0-.7-1,1.2-2.3,2.3-2.7,4.4v-.2c-.6,1.8-.2,1.7.3,1.8.4,0,.8,0,0,2.1-.9,1.1-1.9-2.1-3,1.2.7-.4.8.3.6,1.3-.3,1-.9,2.3-1.4,3.2,0-.9,0-1.7,0-2.6-.5.6-.9,1.9-1.4,2.1l.3.2c1.1.8-1.7,1.8-2.1,3.3-.2-2.6,0-2.4-1.1-3.9,0,.8-.1,1.7-.5,2.5-.3.9-.9,1.7-1.8,2.5.1-.8.3-1.6.4-2.4-1.2,1-2.1,2.5-3,4.1-.4.8-.8,1.6-1.2,2.4-.4.8-.7,1.5-1.1,2.2,0-1.3-1.2-1-.8-2.4-.8.7-1.6,1.3-2.3,2v-1.5c-.3,1.7-1.9,1.8-.9,3,.2-.4,0-.5.6-.8.2.4.3,1.6-1.1,2.4-1.1.3.2-.9-.3-1.1-.5,1.1-1.1.2-1.8,1.2h1.2c-.2,1.3-1.5,1.1-2.3,2,1-1,.3-1.2-.4-1.5h.1c-.7.5-1.3,1.5-2,1.3v-1.4s-.6,1.4-.6,1.4c-.5,0-.9-.2-.4-.8-1.7.4-1.4,1-1.3,1.6,0,.3.1.6-.2.9-.3.3-.9.6-2.1.7-.1-.5.3-.9,1.5-1.2-.1-.8-.6-1-1.8-.9,0,0,0,0,0-.1-2.2.9-5.1,1.7-6.4,3Z"/>
          <path class="cls-24" d="M851.6,132.9c1.2-.4,2.1-.9,2.5-1.3-.3-.1-2.8.6-2.5,1.3Z"/>
          <path class="cls-24" d="M803.2,22c-.1.1-.3.2-.4.3.1-.1.3-.2.4-.3Z"/>
          <path class="cls-24" d="M812.6,18.1c-.1,0-.4-.1-.6-.1,0,.2.2.4.6.1Z"/>
          <path class="cls-24" d="M773.6,102.2h0s0,0,0,0Z"/>
          <path class="cls-24" d="M776.8,47.1c0-1,0-1.4-.3-1.6-.2.5-.2,1.1.3,1.6Z"/>
          <path class="cls-24" d="M769.4,64.9c0,.1,0,.3.1.4,0-.3,0-.4-.1-.4Z"/>
          <path class="cls-24" d="M775.5,104.6c-.8-.6-1.3-1.7-1.9-2.4.3.3.5.9.7,1.4.3.5.6.9,1.1,1Z"/>
          <polygon class="cls-24" points="824.8 14.6 823.8 15.3 824.9 14.8 824.8 14.6"/>
          <path class="cls-24" d="M815.2,16.4c-.5,0-2,.7-1.5.9.4-.4.9-.7,1.5-.9Z"/>
          <polygon class="cls-24" points="783 34.3 783.2 35.1 783.4 34.1 783 34.3"/>
        </g>
      </g>
    </g>
  </g>
</svg>