<?xml version="1.0" encoding="UTF-8"?>
<svg id="Camada_1" data-name="Camada 1" xmlns="http://www.w3.org/2000/svg" xmlns:xlink="http://www.w3.org/1999/xlink" version="1.1" viewBox="0 0 1280 720">
  <defs>
    <style>
      .cls-1 {
        fill: #bfdbe3;
      }

      .cls-1, .cls-2, .cls-3, .cls-4, .cls-5, .cls-6 {
        stroke-width: 0px;
      }

      .cls-2 {
        fill: #2f3b64;
      }

      .cls-3 {
        fill: #52808f;
      }

      .cls-4 {
        fill: #2f3a64;
      }

      .cls-5 {
        fill: #e0d95a;
      }

      .cls-6 {
        fill: url(#Gradiente_sem_nome_57);
        opacity: .5;
      }
    </style>
    <linearGradient id="Gradiente_sem_nome_57" data-name="Gradiente sem nome 57" x1="140" y1="860" x2="1140" y2="-140" gradientUnits="userSpaceOnUse">
      <stop offset="0" stop-color="#f6f5d4"/>
      <stop offset=".1" stop-color="#f7f6d7"/>
      <stop offset=".2" stop-color="#f8f7dc"/>
      <stop offset=".3" stop-color="#faf9e6"/>
      <stop offset=".5" stop-color="#fbfaea"/>
      <stop offset=".7" stop-color="#faf9e5"/>
      <stop offset=".9" stop-color="#f7f6d9"/>
      <stop offset=".9" stop-color="#f6f5d4"/>
    </linearGradient>
  </defs>
  <rect class="cls-6" width="1280" height="720"/>
  <g>
    <rect class="cls-5" x="-295" y="315" width="77.5" height="77.5"/>
    <rect class="cls-2" x="-295" y="427.2" width="77.5" height="77.5"/>
    <rect class="cls-3" x="-295" y="539.3" width="77.5" height="77.5"/>
    <rect class="cls-1" x="-295" y="651.5" width="77.5" height="77.5"/>
  </g>
  <path class="cls-4" d="M31.5,333.2c-4.4,0-7.2-2.7-7.2-6.5s2.8-6.5,7.2-6.5,7.2,2.7,7.2,6.5-2.8,6.5-7.2,6.5ZM24.6,311.1v-4.5l26.2,17.9v4.5l-26.2-17.9ZM31.5,324c-2.8,0-4.2,1.1-4.2,2.7s1.4,2.7,4.2,2.7,4.2-1.1,4.2-2.7-1.3-2.7-4.2-2.7ZM43.9,315.4c-4.4,0-7.2-2.7-7.2-6.5s2.8-6.5,7.2-6.5,7.2,2.7,7.2,6.5-2.8,6.5-7.2,6.5ZM43.9,306.2c-2.8,0-4.2,1.1-4.2,2.7s1.3,2.7,4.2,2.7,4.2-1.1,4.2-2.7-1.4-2.7-4.2-2.7Z"/>
  <g>
    <g>
      <path class="cls-4" d="M102,57.9v4.4h-17.6v-3.5l9-8.5c2.1-2,2.4-3.2,2.4-4.3,0-1.8-1.3-2.9-3.7-2.9s-3.7.8-4.8,2.3l-3.9-2.5c1.8-2.6,5.1-4.3,9.3-4.3s8.7,2.7,8.7,6.9-.6,4.3-3.9,7.4l-5.4,5.1h10Z"/>
      <path class="cls-4" d="M104.8,50.6c0-7.7,4.3-12.1,10-12.1s10,4.4,10,12.1-4.2,12.1-10,12.1-10-4.4-10-12.1ZM119.4,50.6c0-5.3-1.9-7.5-4.6-7.5s-4.5,2.2-4.5,7.5,1.9,7.5,4.5,7.5,4.6-2.2,4.6-7.5Z"/>
      <path class="cls-4" d="M98.2,186.9v23.3h-5.4v-19h-4.7v-4.3h10.1Z"/>
      <path class="cls-4" d="M120.6,203c0,4.1-3,7.7-9.7,7.7s-6.6-.9-8.9-2.5l2.1-4.1c1.8,1.3,4.2,2.1,6.6,2.1s4.4-1.1,4.4-3-1.2-3-5.4-3h-6l1.2-13.1h14.2v4.3h-9.7l-.4,4.4h1.9c6.9,0,9.6,3.1,9.6,7.2Z"/>
      <path class="cls-4" d="M96.8,297.9v23.3h-5.4v-19h-4.7v-4.3h10.1Z"/>
      <path class="cls-4" d="M101.6,309.6c0-7.7,4.3-12.1,10-12.1s10,4.4,10,12.1-4.2,12.1-10,12.1-10-4.4-10-12.1ZM116.1,309.6c0-5.3-1.9-7.5-4.6-7.5s-4.5,2.2-4.5,7.5,1.9,7.5,4.5,7.5,4.6-2.2,4.6-7.5Z"/>
      <path class="cls-4" d="M114.1,462c0,4.1-3,7.7-9.7,7.7s-6.6-.9-8.9-2.5l2.1-4.1c1.8,1.3,4.2,2.1,6.6,2.1s4.4-1.1,4.4-3-1.2-3-5.4-3h-6l1.2-13.1h14.2v4.3h-9.7l-.4,4.4h1.9c6.9,0,9.6,3.1,9.6,7.2Z"/>
      <path class="cls-4" d="M95,568.6c0-7.7,4.3-12.1,10-12.1s10,4.4,10,12.1-4.2,12.1-10,12.1-10-4.4-10-12.1ZM109.6,568.6c0-5.3-1.9-7.5-4.6-7.5s-4.5,2.2-4.5,7.5,1.9,7.5,4.5,7.5,4.6-2.2,4.6-7.5Z"/>
    </g>
    <g>
      <rect class="cls-2" x="139" y="46" width="2" height="544"/>
      <rect class="cls-2" x="140" y="587" width="1063" height="2"/>
    </g>
    <circle class="cls-3" cx="170" cy="436" r="8"/>
    <circle class="cls-3" cx="235" cy="426" r="8"/>
    <circle class="cls-3" cx="303" cy="415" r="8"/>
    <circle class="cls-3" cx="370" cy="415" r="8"/>
    <circle class="cls-3" cx="435" cy="400" r="8"/>
    <circle class="cls-3" cx="501" cy="415" r="8"/>
    <circle class="cls-3" cx="570" cy="387" r="8"/>
    <circle class="cls-3" cx="634" cy="397" r="8"/>
    <circle class="cls-3" cx="702" cy="365" r="8"/>
    <circle class="cls-3" cx="769" cy="383" r="8"/>
    <circle class="cls-3" cx="833" cy="345" r="8"/>
    <circle class="cls-3" cx="900" cy="380" r="8"/>
    <circle class="cls-3" cx="968" cy="377" r="8"/>
    <circle class="cls-3" cx="1031" cy="384" r="8"/>
    <circle class="cls-3" cx="1100" cy="361" r="8"/>
    <circle class="cls-3" cx="1166" cy="336" r="8"/>
    <g>
      <path class="cls-4" d="M184.9,668.9h3.7v14.8h-2.9l-7.1-7.6c-1.7-1.7-2.7-2-3.6-2-1.5,0-2.4,1.1-2.4,3.1s.6,3.1,2,4.1l-2.1,3.3c-2.2-1.5-3.6-4.3-3.6-7.8s2.2-7.3,5.8-7.3,3.6.5,6.2,3.3l4.3,4.5v-8.4Z"/>
      <path class="cls-4" d="M178.8,666.5c-6.5,0-10.1-3.6-10.1-8.4s3.7-8.4,10.1-8.4,10.1,3.6,10.1,8.4-3.7,8.4-10.1,8.4ZM178.8,654.3c-4.5,0-6.3,1.6-6.3,3.8s1.8,3.8,6.3,3.8,6.3-1.6,6.3-3.8-1.8-3.8-6.3-3.8Z"/>
      <path class="cls-4" d="M178.8,646.9c-6.5,0-10.1-3.6-10.1-8.4s3.7-8.4,10.1-8.4,10.1,3.6,10.1,8.4-3.7,8.4-10.1,8.4ZM178.8,634.7c-4.5,0-6.3,1.6-6.3,3.8s1.8,3.8,6.3,3.8,6.3-1.6,6.3-3.8-1.8-3.8-6.3-3.8Z"/>
      <path class="cls-4" d="M182.4,611.1c4,0,6.5,3.3,6.5,7.4s-3.4,8.8-9.7,8.8-10.6-4.1-10.6-10,.5-4.1,1.3-5.5l3.3,1.7c-.7,1.1-1,2.4-1,3.7,0,3.3,1.9,5.4,5.7,5.5-1.1-1.1-1.7-2.8-1.7-4.8,0-3.8,2.4-6.8,6.1-6.8ZM182.6,615.5c-1.8,0-2.9,1.3-2.9,3.3s1.2,3.4,2.9,3.4,2.9-1.3,2.9-3.4-1.1-3.3-2.9-3.3Z"/>
      <path class="cls-4" d="M250.9,668.6h3.7v14.8h-2.9l-7.1-7.6c-1.7-1.7-2.7-2-3.6-2-1.5,0-2.4,1.1-2.4,3.1s.6,3.1,2,4.1l-2.1,3.3c-2.2-1.5-3.6-4.3-3.6-7.8s2.2-7.3,5.8-7.3,3.6.5,6.2,3.3l4.3,4.5v-8.4Z"/>
      <path class="cls-4" d="M244.8,666.2c-6.5,0-10.1-3.6-10.1-8.4s3.7-8.4,10.1-8.4,10.1,3.6,10.1,8.4-3.7,8.4-10.1,8.4ZM244.8,654c-4.5,0-6.3,1.6-6.3,3.8s1.8,3.8,6.3,3.8,6.3-1.6,6.3-3.8-1.8-3.8-6.3-3.8Z"/>
      <path class="cls-4" d="M244.8,646.6c-6.5,0-10.1-3.6-10.1-8.4s3.7-8.4,10.1-8.4,10.1,3.6,10.1,8.4-3.7,8.4-10.1,8.4ZM244.8,634.4c-4.5,0-6.3,1.6-6.3,3.8s1.8,3.8,6.3,3.8,6.3-1.6,6.3-3.8-1.8-3.8-6.3-3.8Z"/>
      <path class="cls-4" d="M235,611.8h2.9l16.7,7.3v4.9l-15.9-7v6.5h3.2v4h-6.9v-15.7Z"/>
      <path class="cls-4" d="M316.9,669.2h3.7v14.8h-2.9l-7.1-7.6c-1.7-1.7-2.7-2-3.6-2-1.5,0-2.4,1.1-2.4,3.1s.6,3.1,2,4.1l-2.1,3.3c-2.2-1.5-3.6-4.3-3.6-7.8s2.2-7.3,5.8-7.3,3.6.5,6.2,3.3l4.3,4.5v-8.4Z"/>
      <path class="cls-4" d="M310.8,666.8c-6.5,0-10.1-3.6-10.1-8.4s3.7-8.4,10.1-8.4,10.1,3.6,10.1,8.4-3.7,8.4-10.1,8.4ZM310.8,654.6c-4.5,0-6.3,1.6-6.3,3.8s1.8,3.8,6.3,3.8,6.3-1.6,6.3-3.8-1.8-3.8-6.3-3.8Z"/>
      <path class="cls-4" d="M310.8,647.2c-6.5,0-10.1-3.6-10.1-8.4s3.7-8.4,10.1-8.4,10.1,3.6,10.1,8.4-3.7,8.4-10.1,8.4ZM310.8,635c-4.5,0-6.3,1.6-6.3,3.8s1.8,3.8,6.3,3.8,6.3-1.6,6.3-3.8-1.8-3.8-6.3-3.8Z"/>
      <path class="cls-4" d="M314.9,611.2c3.7,0,6,3.3,6,8.3s-2.3,8.2-6,8.2-3.7-1.1-4.6-3c-.9,1.5-2.3,2.3-4,2.3-3.4,0-5.6-3.1-5.6-7.5s2.2-7.6,5.6-7.6,3.1.8,4,2.3c1-1.9,2.5-3,4.6-3ZM306.4,622.5c1.5,0,2.4-1.2,2.4-3s-.9-3.1-2.4-3.1-2.5,1.2-2.5,3.1.9,3,2.5,3ZM314.8,615.8c-1.7,0-2.8,1.4-2.8,3.7s1.1,3.6,2.8,3.6,2.8-1.4,2.8-3.6-1.1-3.7-2.8-3.7Z"/>
      <path class="cls-4" d="M382.9,668.9h3.7v14.8h-2.9l-7.1-7.6c-1.7-1.7-2.7-2-3.6-2-1.5,0-2.4,1.1-2.4,3.1s.6,3.1,2,4.1l-2.1,3.3c-2.2-1.5-3.6-4.3-3.6-7.8s2.2-7.3,5.8-7.3,3.6.5,6.2,3.3l4.3,4.5v-8.4Z"/>
      <path class="cls-4" d="M376.8,666.5c-6.5,0-10.1-3.6-10.1-8.4s3.7-8.4,10.1-8.4,10.1,3.6,10.1,8.4-3.7,8.4-10.1,8.4ZM376.8,654.3c-4.5,0-6.3,1.6-6.3,3.8s1.8,3.8,6.3,3.8,6.3-1.6,6.3-3.8-1.8-3.8-6.3-3.8Z"/>
      <path class="cls-4" d="M376.8,646.9c-6.5,0-10.1-3.6-10.1-8.4s3.7-8.4,10.1-8.4,10.1,3.6,10.1,8.4-3.7,8.4-10.1,8.4ZM376.8,634.7c-4.5,0-6.3,1.6-6.3,3.8s1.8,3.8,6.3,3.8,6.3-1.6,6.3-3.8-1.8-3.8-6.3-3.8Z"/>
      <path class="cls-4" d="M376.4,611.7c6.8,0,10.6,4.1,10.6,10s-.5,4.1-1.3,5.4l-3.3-1.7c.7-1.1,1-2.3,1-3.7,0-3.3-1.9-5.4-5.7-5.5,1.1,1.2,1.8,2.8,1.8,4.9,0,3.8-2.4,6.8-6.1,6.8s-6.5-3.3-6.5-7.4,3.4-8.8,9.7-8.8ZM372.9,616.7c-1.7,0-2.9,1.3-2.9,3.4s1.1,3.3,2.9,3.3,2.9-1.3,2.9-3.3-1.2-3.4-2.9-3.4Z"/>
      <path class="cls-4" d="M448.9,665.4h3.7v14.8h-2.9l-7.1-7.6c-1.7-1.7-2.7-2-3.6-2-1.5,0-2.4,1.1-2.4,3.1s.6,3.1,2,4.1l-2.1,3.3c-2.2-1.5-3.6-4.3-3.6-7.8s2.2-7.3,5.8-7.3,3.6.5,6.2,3.3l4.3,4.5v-8.4Z"/>
      <path class="cls-4" d="M442.8,663c-6.5,0-10.1-3.6-10.1-8.4s3.7-8.4,10.1-8.4,10.1,3.6,10.1,8.4-3.7,8.4-10.1,8.4ZM442.8,650.7c-4.5,0-6.3,1.6-6.3,3.8s1.8,3.8,6.3,3.8,6.3-1.6,6.3-3.8-1.8-3.8-6.3-3.8Z"/>
      <path class="cls-4" d="M433,636h19.6v4.5h-16v3.9h-3.6v-8.5Z"/>
      <path class="cls-4" d="M442.8,632c-6.5,0-10.1-3.6-10.1-8.4s3.7-8.4,10.1-8.4,10.1,3.6,10.1,8.4-3.7,8.4-10.1,8.4ZM442.8,619.8c-4.5,0-6.3,1.6-6.3,3.8s1.8,3.8,6.3,3.8,6.3-1.6,6.3-3.8-1.8-3.8-6.3-3.8Z"/>
      <path class="cls-4" d="M514.9,661.4h3.7v14.8h-2.9l-7.1-7.6c-1.7-1.7-2.7-2-3.6-2-1.5,0-2.4,1.1-2.4,3.1s.6,3.1,2,4.1l-2.1,3.3c-2.2-1.5-3.6-4.3-3.6-7.8s2.2-7.3,5.8-7.3,3.6.5,6.2,3.3l4.3,4.5v-8.4Z"/>
      <path class="cls-4" d="M508.8,659c-6.5,0-10.1-3.6-10.1-8.4s3.7-8.4,10.1-8.4,10.1,3.6,10.1,8.4-3.7,8.4-10.1,8.4ZM508.8,646.7c-4.5,0-6.3,1.6-6.3,3.8s1.8,3.8,6.3,3.8,6.3-1.6,6.3-3.8-1.8-3.8-6.3-3.8Z"/>
      <path class="cls-4" d="M499,632h19.6v4.5h-16v3.9h-3.6v-8.5Z"/>
      <path class="cls-4" d="M499,620.4h19.6v4.5h-16v3.9h-3.6v-8.5Z"/>
      <path class="cls-4" d="M580.9,664.1h3.7v14.8h-2.9l-7.1-7.6c-1.7-1.7-2.7-2-3.6-2-1.5,0-2.4,1.1-2.4,3.1s.6,3.1,2,4.1l-2.1,3.3c-2.2-1.5-3.6-4.3-3.6-7.8s2.2-7.3,5.8-7.3,3.6.5,6.2,3.3l4.3,4.5v-8.4Z"/>
      <path class="cls-4" d="M574.8,661.7c-6.5,0-10.1-3.6-10.1-8.4s3.7-8.4,10.1-8.4,10.1,3.6,10.1,8.4-3.7,8.4-10.1,8.4ZM574.8,649.5c-4.5,0-6.3,1.6-6.3,3.8s1.8,3.8,6.3,3.8,6.3-1.6,6.3-3.8-1.8-3.8-6.3-3.8Z"/>
      <path class="cls-4" d="M565,634.7h19.6v4.5h-16v3.9h-3.6v-8.5Z"/>
      <path class="cls-4" d="M580.9,616.1h3.7v14.8h-2.9l-7.1-7.6c-1.7-1.7-2.7-2-3.6-2-1.5,0-2.4,1.1-2.4,3.1s.6,3.1,2,4.1l-2.1,3.3c-2.2-1.5-3.6-4.3-3.6-7.8s2.2-7.3,5.8-7.3,3.6.5,6.2,3.3l4.3,4.5v-8.4Z"/>
      <path class="cls-4" d="M646.9,664.2h3.7v14.8h-2.9l-7.1-7.6c-1.7-1.7-2.7-2-3.6-2-1.5,0-2.4,1.1-2.4,3.1s.6,3.1,2,4.1l-2.1,3.3c-2.2-1.5-3.6-4.3-3.6-7.8s2.2-7.3,5.8-7.3,3.6.5,6.2,3.3l4.3,4.5v-8.4Z"/>
      <path class="cls-4" d="M640.8,661.8c-6.5,0-10.1-3.6-10.1-8.4s3.7-8.4,10.1-8.4,10.1,3.6,10.1,8.4-3.7,8.4-10.1,8.4ZM640.8,649.5c-4.5,0-6.3,1.6-6.3,3.8s1.8,3.8,6.3,3.8,6.3-1.6,6.3-3.8-1.8-3.8-6.3-3.8Z"/>
      <path class="cls-4" d="M631,634.8h19.6v4.5h-16v3.9h-3.6v-8.5Z"/>
      <path class="cls-4" d="M644.6,616.3c3.3,0,6.3,2.6,6.3,8.1s-.8,5.6-2.1,7.5l-3.5-1.8c1.1-1.5,1.8-3.6,1.8-5.6s-.9-3.7-2.5-3.7-2.4,1.1-2.4,3.7v2.1h-3l-4.6-4v8.4h-3.6v-13.7h2.9l5,4.4c.6-3.5,2.7-5.3,5.6-5.3Z"/>
      <path class="cls-4" d="M712.9,665.5h3.7v14.8h-2.9l-7.1-7.6c-1.7-1.7-2.7-2-3.6-2-1.5,0-2.4,1.1-2.4,3.1s.6,3.1,2,4.1l-2.1,3.3c-2.2-1.5-3.6-4.3-3.6-7.8s2.2-7.3,5.8-7.3,3.6.5,6.2,3.3l4.3,4.5v-8.4Z"/>
      <path class="cls-4" d="M706.8,663.1c-6.5,0-10.1-3.6-10.1-8.4s3.7-8.4,10.1-8.4,10.1,3.6,10.1,8.4-3.7,8.4-10.1,8.4ZM706.8,650.9c-4.5,0-6.3,1.6-6.3,3.8s1.8,3.8,6.3,3.8,6.3-1.6,6.3-3.8-1.8-3.8-6.3-3.8Z"/>
      <path class="cls-4" d="M697,636.1h19.6v4.5h-16v3.9h-3.6v-8.5Z"/>
      <path class="cls-4" d="M712.5,614.2v3.2h4.1v4.4h-4.1v10.6h-3.1l-12.4-9.2v-4.8l11.8,8.6v-5.3h-3.7v-4.3h3.7v-3.2h3.7Z"/>
      <path class="cls-4" d="M778.9,664.2h3.7v14.8h-2.9l-7.1-7.6c-1.7-1.7-2.7-2-3.6-2-1.5,0-2.4,1.1-2.4,3.1s.6,3.1,2,4.1l-2.1,3.3c-2.2-1.5-3.6-4.3-3.6-7.8s2.2-7.3,5.8-7.3,3.6.5,6.2,3.3l4.3,4.5v-8.4Z"/>
      <path class="cls-4" d="M772.8,661.8c-6.5,0-10.1-3.6-10.1-8.4s3.7-8.4,10.1-8.4,10.1,3.6,10.1,8.4-3.7,8.4-10.1,8.4ZM772.8,649.6c-4.5,0-6.3,1.6-6.3,3.8s1.8,3.8,6.3,3.8,6.3-1.6,6.3-3.8-1.8-3.8-6.3-3.8Z"/>
      <path class="cls-4" d="M763,634.8h19.6v4.5h-16v3.9h-3.6v-8.5Z"/>
      <path class="cls-4" d="M776.4,616c3.5,0,6.5,2.6,6.5,8.2s-.8,5.6-2.1,7.5l-3.5-1.8c1.1-1.5,1.8-3.5,1.8-5.6s-1-3.7-2.6-3.7-2.6,1-2.6,4.6v5l-11-1v-12h3.6v8.2l3.7.3v-1.6c0-5.8,2.6-8.1,6.1-8.1Z"/>
      <path class="cls-4" d="M844.9,664.8h3.7v14.8h-2.9l-7.1-7.6c-1.7-1.7-2.7-2-3.6-2-1.5,0-2.4,1.1-2.4,3.1s.6,3.1,2,4.1l-2.1,3.3c-2.2-1.5-3.6-4.3-3.6-7.8s2.2-7.3,5.8-7.3,3.6.5,6.2,3.3l4.3,4.5v-8.4Z"/>
      <path class="cls-4" d="M838.8,662.4c-6.5,0-10.1-3.6-10.1-8.4s3.7-8.4,10.1-8.4,10.1,3.6,10.1,8.4-3.7,8.4-10.1,8.4ZM838.8,650.2c-4.5,0-6.3,1.6-6.3,3.8s1.8,3.8,6.3,3.8,6.3-1.6,6.3-3.8-1.8-3.8-6.3-3.8Z"/>
      <path class="cls-4" d="M829,635.4h19.6v4.5h-16v3.9h-3.6v-8.5Z"/>
      <path class="cls-4" d="M842.4,615.2c4,0,6.5,3.3,6.5,7.4s-3.4,8.8-9.7,8.8-10.6-4.1-10.6-10,.5-4.1,1.3-5.5l3.3,1.7c-.7,1.1-1,2.4-1,3.7,0,3.3,1.9,5.4,5.7,5.5-1.1-1.1-1.7-2.8-1.7-4.8,0-3.8,2.4-6.8,6.1-6.8ZM842.6,619.6c-1.8,0-2.9,1.3-2.9,3.3s1.2,3.4,2.9,3.4,2.9-1.3,2.9-3.4-1.1-3.3-2.9-3.3Z"/>
      <path class="cls-4" d="M910.9,664.5h3.7v14.8h-2.9l-7.1-7.6c-1.7-1.7-2.7-2-3.6-2-1.5,0-2.4,1.1-2.4,3.1s.6,3.1,2,4.1l-2.1,3.3c-2.2-1.5-3.6-4.3-3.6-7.8s2.2-7.3,5.8-7.3,3.6.5,6.2,3.3l4.3,4.5v-8.4Z"/>
      <path class="cls-4" d="M904.8,662.2c-6.5,0-10.1-3.6-10.1-8.4s3.7-8.4,10.1-8.4,10.1,3.6,10.1,8.4-3.7,8.4-10.1,8.4ZM904.8,649.9c-4.5,0-6.3,1.6-6.3,3.8s1.8,3.8,6.3,3.8,6.3-1.6,6.3-3.8-1.8-3.8-6.3-3.8Z"/>
      <path class="cls-4" d="M895,635.2h19.6v4.5h-16v3.9h-3.6v-8.5Z"/>
      <path class="cls-4" d="M895,615.8h2.9l16.7,7.3v4.9l-15.9-7v6.5h3.2v4h-6.9v-15.7Z"/>
      <path class="cls-4" d="M976.9,665.1h3.7v14.8h-2.9l-7.1-7.6c-1.7-1.7-2.7-2-3.6-2-1.5,0-2.4,1.1-2.4,3.1s.6,3.1,2,4.1l-2.1,3.3c-2.2-1.5-3.6-4.3-3.6-7.8s2.2-7.3,5.8-7.3,3.6.5,6.2,3.3l4.3,4.5v-8.4Z"/>
      <path class="cls-4" d="M970.8,662.7c-6.5,0-10.1-3.6-10.1-8.4s3.7-8.4,10.1-8.4,10.1,3.6,10.1,8.4-3.7,8.4-10.1,8.4ZM970.8,650.5c-4.5,0-6.3,1.6-6.3,3.8s1.8,3.8,6.3,3.8,6.3-1.6,6.3-3.8-1.8-3.8-6.3-3.8Z"/>
      <path class="cls-4" d="M961,635.7h19.6v4.5h-16v3.9h-3.6v-8.5Z"/>
      <path class="cls-4" d="M974.9,615.3c3.7,0,6,3.3,6,8.3s-2.3,8.2-6,8.2-3.7-1.1-4.6-3c-.9,1.5-2.3,2.3-4,2.3-3.4,0-5.6-3.1-5.6-7.5s2.2-7.6,5.6-7.6,3.1.8,4,2.3c1-1.9,2.5-3,4.6-3ZM966.4,626.6c1.5,0,2.4-1.2,2.4-3s-.9-3.1-2.4-3.1-2.5,1.2-2.5,3.1.9,3,2.5,3ZM974.8,619.9c-1.7,0-2.8,1.4-2.8,3.7s1.1,3.6,2.8,3.6,2.8-1.4,2.8-3.6-1.1-3.7-2.8-3.7Z"/>
      <path class="cls-4" d="M1042.9,664.8h3.7v14.8h-2.9l-7.1-7.6c-1.7-1.7-2.7-2-3.6-2-1.5,0-2.4,1.1-2.4,3.1s.6,3.1,2,4.1l-2.1,3.3c-2.2-1.5-3.6-4.3-3.6-7.8s2.2-7.3,5.8-7.3,3.6.5,6.2,3.3l4.3,4.5v-8.4Z"/>
      <path class="cls-4" d="M1036.8,662.4c-6.5,0-10.1-3.6-10.1-8.4s3.7-8.4,10.1-8.4,10.1,3.6,10.1,8.4-3.7,8.4-10.1,8.4ZM1036.8,650.2c-4.5,0-6.3,1.6-6.3,3.8s1.8,3.8,6.3,3.8,6.3-1.6,6.3-3.8-1.8-3.8-6.3-3.8Z"/>
      <path class="cls-4" d="M1027,635.4h19.6v4.5h-16v3.9h-3.6v-8.5Z"/>
      <path class="cls-4" d="M1036.4,615.8c6.8,0,10.6,4.1,10.6,10s-.5,4.1-1.3,5.4l-3.3-1.7c.7-1.1,1-2.3,1-3.7,0-3.3-1.9-5.4-5.7-5.5,1.1,1.1,1.8,2.8,1.8,4.9,0,3.8-2.4,6.8-6.1,6.8s-6.5-3.3-6.5-7.4,3.4-8.8,9.7-8.8ZM1032.9,620.8c-1.7,0-2.9,1.3-2.9,3.4s1.1,3.3,2.9,3.3,2.9-1.3,2.9-3.3-1.2-3.4-2.9-3.4Z"/>
      <path class="cls-4" d="M1108.9,668.1h3.7v14.8h-2.9l-7.1-7.6c-1.7-1.7-2.7-2-3.6-2-1.5,0-2.4,1.1-2.4,3.1s.6,3.1,2,4.1l-2.1,3.3c-2.2-1.5-3.6-4.3-3.6-7.8s2.2-7.3,5.8-7.3,3.6.5,6.2,3.3l4.3,4.5v-8.4Z"/>
      <path class="cls-4" d="M1102.8,665.7c-6.5,0-10.1-3.6-10.1-8.4s3.7-8.4,10.1-8.4,10.1,3.6,10.1,8.4-3.7,8.4-10.1,8.4ZM1102.8,653.5c-4.5,0-6.3,1.6-6.3,3.8s1.8,3.8,6.3,3.8,6.3-1.6,6.3-3.8-1.8-3.8-6.3-3.8Z"/>
      <path class="cls-4" d="M1108.9,631.7h3.7v14.8h-2.9l-7.1-7.6c-1.7-1.7-2.7-2-3.6-2-1.5,0-2.4,1.1-2.4,3.1s.6,3.1,2,4.1l-2.1,3.3c-2.2-1.5-3.6-4.3-3.6-7.8s2.2-7.3,5.8-7.3,3.6.5,6.2,3.3l4.3,4.5v-8.4Z"/>
      <path class="cls-4" d="M1102.8,629.3c-6.5,0-10.1-3.6-10.1-8.4s3.7-8.4,10.1-8.4,10.1,3.6,10.1,8.4-3.7,8.4-10.1,8.4ZM1102.8,617c-4.5,0-6.3,1.6-6.3,3.8s1.8,3.8,6.3,3.8,6.3-1.6,6.3-3.8-1.8-3.8-6.3-3.8Z"/>
      <path class="cls-4" d="M1174.9,664.1h3.7v14.8h-2.9l-7.1-7.6c-1.7-1.7-2.7-2-3.6-2-1.5,0-2.4,1.1-2.4,3.1s.6,3.1,2,4.1l-2.1,3.3c-2.2-1.5-3.6-4.3-3.6-7.8s2.2-7.3,5.8-7.3,3.6.5,6.2,3.3l4.3,4.5v-8.4Z"/>
      <path class="cls-4" d="M1168.8,661.7c-6.5,0-10.1-3.6-10.1-8.4s3.7-8.4,10.1-8.4,10.1,3.6,10.1,8.4-3.7,8.4-10.1,8.4ZM1168.8,649.5c-4.5,0-6.3,1.6-6.3,3.8s1.8,3.8,6.3,3.8,6.3-1.6,6.3-3.8-1.8-3.8-6.3-3.8Z"/>
      <path class="cls-4" d="M1174.9,627.7h3.7v14.8h-2.9l-7.1-7.6c-1.7-1.7-2.7-2-3.6-2-1.5,0-2.4,1.1-2.4,3.1s.6,3.1,2,4.1l-2.1,3.3c-2.2-1.5-3.6-4.3-3.6-7.8s2.2-7.3,5.8-7.3,3.6.5,6.2,3.3l4.3,4.5v-8.4Z"/>
      <path class="cls-4" d="M1159,617.7h19.6v4.5h-16v3.9h-3.6v-8.5Z"/>
    </g>
    <g>
      <path class="cls-4" d="M168.6,400.4c0,3.4-2.4,6.1-7.4,6.1s-5.5-.9-7.2-2.4l1.3-2.2c1.3,1.2,3.5,2.1,5.9,2.1s4.6-1.4,4.6-3.5-1.4-3.6-5.9-3.6h-4.5l1-10.2h11.1v2.4h-8.7l-.5,5.4h2.2c5.9,0,8.1,2.4,8.1,5.9Z"/>
      <path class="cls-4" d="M175.2,404.6c0,.6-.1,1-.5,2l-1.3,3.9h-1.8l1-4.2c-.7-.3-1.2-.9-1.2-1.7s.8-1.9,1.9-1.9,1.8.8,1.8,1.9Z"/>
      <path class="cls-4" d="M192.1,400.4c0,3.4-2.4,6.1-7.4,6.1s-5.5-.9-7.2-2.4l1.3-2.2c1.3,1.2,3.5,2.1,5.9,2.1s4.6-1.4,4.6-3.5-1.4-3.6-5.9-3.6h-4.5l1-10.2h11.1v2.4h-8.7l-.5,5.4h2.2c5.9,0,8.1,2.4,8.1,5.9Z"/>
    </g>
    <g>
      <path class="cls-4" d="M234.5,392.4c0,3.4-2.4,6.1-7.4,6.1s-5.5-.9-7.2-2.4l1.3-2.2c1.3,1.2,3.5,2.1,5.9,2.1s4.6-1.4,4.6-3.5-1.4-3.6-5.9-3.6h-4.5l1-10.2h11.1v2.4h-8.7l-.5,5.4h2.2c5.9,0,8.1,2.4,8.1,5.9Z"/>
      <path class="cls-4" d="M241,396.6c0,.6-.1,1-.5,2l-1.3,3.9h-1.8l1-4.2c-.7-.3-1.2-.9-1.2-1.7s.8-1.9,1.9-1.9,1.8.8,1.8,1.9Z"/>
      <path class="cls-4" d="M260,392.8c0,3.6-3,5.8-7.8,5.8s-7.8-2.2-7.8-5.8,1.2-3.9,3.4-4.7c-1.8-.8-2.7-2.3-2.7-4.2,0-3.3,2.8-5.3,7.1-5.3s7.1,2,7.1,5.3-1,3.4-2.8,4.2c2.2.9,3.5,2.5,3.5,4.7ZM257.2,392.7c0-2.2-1.9-3.5-5-3.5s-5,1.3-5,3.5,1.8,3.6,5,3.6,5-1.4,5-3.6ZM247.9,383.9c0,1.9,1.6,3.1,4.3,3.1s4.4-1.2,4.4-3.1-1.7-3.2-4.4-3.2-4.3,1.2-4.3,3.2Z"/>
    </g>
    <g>
      <path class="cls-4" d="M303.1,382.4c0,3.8-3.1,6.2-6.9,6.2s-8.2-3.5-8.2-9.8,3.8-10.3,9.3-10.3,3.6.4,4.9,1.1l-1.1,2.2c-1-.7-2.4-.9-3.8-.9-4,0-6.5,2.5-6.5,7.4s0,.4,0,.7c1.1-1.7,3.2-2.6,5.6-2.6,3.9,0,6.7,2.3,6.7,5.9ZM300.4,382.5c0-2.3-1.7-3.8-4.5-3.8s-4.5,1.7-4.5,3.8,1.6,3.8,4.6,3.8,4.3-1.5,4.3-3.8Z"/>
      <path class="cls-4" d="M309.8,386.6c0,.6-.1,1-.5,2l-1.3,3.9h-1.8l1-4.2c-.7-.3-1.2-.9-1.2-1.7s.8-1.9,1.9-1.9,1.8.8,1.8,1.9Z"/>
      <path class="cls-4" d="M327,385.9v2.4h-14.1v-1.9l8-7.7c2.1-2,2.5-3.2,2.5-4.5,0-2-1.4-3.2-4.2-3.2s-3.8.7-5,2.1l-1.9-1.7c1.5-1.9,4.1-3,7.2-3s6.7,2.1,6.7,5.5-.6,3.6-3.2,6.2l-6,5.8h10.1Z"/>
    </g>
    <g>
      <path class="cls-4" d="M370.2,377.4c0,3.8-3.1,6.2-6.9,6.2s-8.2-3.5-8.2-9.8,3.8-10.3,9.3-10.3,3.6.4,4.9,1.1l-1.1,2.2c-1-.7-2.4-.9-3.8-.9-4,0-6.5,2.5-6.5,7.4s0,.4,0,.7c1.1-1.7,3.2-2.6,5.6-2.6,3.9,0,6.7,2.3,6.7,5.9ZM367.4,377.5c0-2.3-1.7-3.8-4.5-3.8s-4.5,1.7-4.5,3.8,1.6,3.8,4.6,3.8,4.3-1.5,4.3-3.8Z"/>
      <path class="cls-4" d="M376.8,381.6c0,.6-.1,1-.5,2l-1.3,3.9h-1.8l1-4.2c-.7-.3-1.2-.9-1.2-1.7s.8-1.9,1.9-1.9,1.8.8,1.8,1.9Z"/>
      <path class="cls-4" d="M393.7,377.6c0,3.3-2.4,6-7.4,6s-5.5-.9-7.2-2.4l1.3-2.2c1.3,1.2,3.5,2.1,5.9,2.1s4.6-1.3,4.6-3.5-1.5-3.4-4.8-3.4h-1.6v-2l4.9-6h-9.4v-2.4h12.9v1.9l-5.1,6.3c3.9.4,5.9,2.6,5.9,5.6Z"/>
    </g>
    <g>
      <path class="cls-4" d="M434.1,368.4c0,3.8-3.1,6.2-6.9,6.2s-8.2-3.5-8.2-9.8,3.8-10.3,9.3-10.3,3.6.4,4.9,1.1l-1.1,2.2c-1-.7-2.4-.9-3.8-.9-4,0-6.5,2.5-6.5,7.4s0,.4,0,.7c1.1-1.7,3.2-2.6,5.6-2.6,3.9,0,6.7,2.3,6.7,5.9ZM431.4,368.5c0-2.3-1.7-3.8-4.5-3.8s-4.5,1.7-4.5,3.8,1.6,3.8,4.6,3.8,4.3-1.5,4.3-3.8Z"/>
      <path class="cls-4" d="M440.8,372.6c0,.6-.1,1-.5,2l-1.3,3.9h-1.8l1-4.2c-.7-.3-1.2-.9-1.2-1.7s.8-1.9,1.9-1.9,1.8.8,1.8,1.9Z"/>
      <path class="cls-4" d="M459.7,368.8c0,3.6-3,5.8-7.8,5.8s-7.8-2.2-7.8-5.8,1.2-3.9,3.4-4.7c-1.8-.8-2.7-2.3-2.7-4.2,0-3.3,2.8-5.3,7.1-5.3s7.1,2,7.1,5.3-1,3.4-2.8,4.2c2.2.9,3.5,2.5,3.5,4.7ZM456.9,368.7c0-2.2-1.9-3.5-5-3.5s-5,1.3-5,3.5,1.8,3.6,5,3.6,5-1.4,5-3.6ZM447.6,359.9c0,1.9,1.6,3.1,4.3,3.1s4.4-1.2,4.4-3.1-1.7-3.2-4.4-3.2-4.3,1.2-4.3,3.2Z"/>
    </g>
    <g>
      <path class="cls-4" d="M502.2,377.4c0,3.8-3.1,6.2-6.9,6.2s-8.2-3.5-8.2-9.8,3.8-10.3,9.3-10.3,3.6.4,4.9,1.1l-1.1,2.2c-1-.7-2.4-.9-3.8-.9-4,0-6.5,2.5-6.5,7.4s0,.4,0,.7c1.1-1.7,3.2-2.6,5.6-2.6,3.9,0,6.7,2.3,6.7,5.9ZM499.4,377.5c0-2.3-1.7-3.8-4.5-3.8s-4.5,1.7-4.5,3.8,1.6,3.8,4.6,3.8,4.3-1.5,4.3-3.8Z"/>
      <path class="cls-4" d="M508.8,381.6c0,.6-.1,1-.5,2l-1.3,3.9h-1.8l1-4.2c-.7-.3-1.2-.9-1.2-1.7s.8-1.9,1.9-1.9,1.8.8,1.8,1.9Z"/>
      <path class="cls-4" d="M525.7,377.6c0,3.3-2.4,6-7.4,6s-5.5-.9-7.2-2.4l1.3-2.2c1.3,1.2,3.5,2.1,5.9,2.1s4.6-1.3,4.6-3.5-1.5-3.4-4.8-3.4h-1.6v-2l4.9-6h-9.4v-2.4h12.9v1.9l-5.1,6.3c3.9.4,5.9,2.6,5.9,5.6Z"/>
    </g>
    <g>
      <path class="cls-4" d="M567.3,336.7v1.9l-7.9,17.7h-3l7.8-17.2h-9v3.5h-2.7v-5.9h14.8Z"/>
      <path class="cls-4" d="M572.6,354.6c0,.6-.1,1-.5,2l-1.3,3.9h-1.8l1-4.2c-.7-.3-1.2-.9-1.2-1.7s.8-1.9,1.9-1.9,1.8.8,1.8,1.9Z"/>
      <path class="cls-4" d="M592.6,351.5h-3.7v4.8h-2.7v-4.8h-10.9v-2l10-12.8h3l-9.6,12.4h7.5v-4.3h2.6v4.3h3.7v2.4Z"/>
    </g>
    <g>
      <path class="cls-4" d="M634.7,365.4c0,3.8-3.1,6.2-6.9,6.2s-8.2-3.5-8.2-9.8,3.8-10.3,9.3-10.3,3.6.4,4.9,1.1l-1.1,2.2c-1-.7-2.4-.9-3.8-.9-4,0-6.5,2.5-6.5,7.4s0,.4,0,.7c1.1-1.7,3.2-2.6,5.6-2.6,3.9,0,6.7,2.3,6.7,5.9ZM631.9,365.5c0-2.3-1.7-3.8-4.5-3.8s-4.5,1.7-4.5,3.8,1.6,3.8,4.6,3.8,4.3-1.5,4.3-3.8Z"/>
      <path class="cls-4" d="M641.3,369.6c0,.6-.1,1-.5,2l-1.3,3.9h-1.8l1-4.2c-.7-.3-1.2-.9-1.2-1.7s.8-1.9,1.9-1.9,1.8.8,1.8,1.9Z"/>
      <path class="cls-4" d="M659.1,361.3c0,6.7-3.8,10.3-9.3,10.3s-3.6-.4-4.9-1.1l1.1-2.2c1,.7,2.4.9,3.8.9,4,0,6.5-2.5,6.5-7.4v-.7c-1.1,1.7-3.2,2.6-5.7,2.6-3.9,0-6.7-2.3-6.7-5.9s3-6.2,6.9-6.2,8.2,3.5,8.2,9.8ZM655.7,357.6c0-2-1.6-3.8-4.7-3.8s-4.3,1.5-4.3,3.8,1.7,3.8,4.5,3.8,4.5-1.7,4.5-3.8Z"/>
    </g>
    <g>
      <path class="cls-4" d="M700,331.8c0,3.6-3,5.8-7.8,5.8s-7.8-2.2-7.8-5.8,1.2-3.9,3.4-4.7c-1.8-.8-2.7-2.3-2.7-4.2,0-3.3,2.8-5.3,7.1-5.3s7.1,2,7.1,5.3-1,3.4-2.8,4.2c2.2.9,3.5,2.5,3.5,4.7ZM697.2,331.7c0-2.2-1.9-3.5-5-3.5s-5,1.3-5,3.5,1.8,3.6,5,3.6,5-1.4,5-3.6ZM687.9,322.9c0,1.9,1.6,3.1,4.3,3.1s4.4-1.2,4.4-3.1-1.7-3.2-4.4-3.2-4.3,1.2-4.3,3.2Z"/>
      <path class="cls-4" d="M707.1,335.6c0,.6-.1,1-.5,2l-1.3,3.9h-1.8l1-4.2c-.7-.3-1.2-.9-1.2-1.7s.8-1.9,1.9-1.9,1.8.8,1.8,1.9Z"/>
      <path class="cls-4" d="M710,327.5c0-6.4,3.4-10,8-10s8,3.6,8,10-3.4,10-8,10-8-3.6-8-10ZM723.2,327.5c0-5-2.1-7.5-5.2-7.5s-5.2,2.5-5.2,7.5,2.1,7.5,5.2,7.5,5.2-2.5,5.2-7.5Z"/>
    </g>
    <g>
      <path class="cls-4" d="M768.3,334.7v1.9l-7.9,17.7h-3l7.8-17.2h-9v3.5h-2.7v-5.9h14.8Z"/>
      <path class="cls-4" d="M773.6,352.6c0,.6-.1,1-.5,2l-1.3,3.9h-1.8l1-4.2c-.7-.3-1.2-.9-1.2-1.7s.8-1.9,1.9-1.9,1.8.8,1.8,1.9Z"/>
      <path class="cls-4" d="M793.6,349.5h-3.7v4.8h-2.7v-4.8h-10.9v-2l10-12.8h3l-9.6,12.4h7.5v-4.3h2.6v4.3h3.7v2.4Z"/>
    </g>
    <g>
      <path class="cls-4" d="M833.6,307.8c0,3.6-3,5.8-7.8,5.8s-7.8-2.2-7.8-5.8,1.2-3.9,3.4-4.7c-1.8-.8-2.7-2.3-2.7-4.2,0-3.3,2.8-5.3,7.1-5.3s7.1,2,7.1,5.3-1,3.4-2.8,4.2c2.2.9,3.5,2.5,3.5,4.7ZM830.8,307.7c0-2.2-1.9-3.5-5-3.5s-5,1.3-5,3.5,1.8,3.6,5,3.6,5-1.4,5-3.6ZM821.5,298.9c0,1.9,1.6,3.1,4.3,3.1s4.4-1.2,4.4-3.1-1.7-3.2-4.4-3.2-4.3,1.2-4.3,3.2Z"/>
      <path class="cls-4" d="M840.7,311.6c0,.6-.1,1-.5,2l-1.3,3.9h-1.8l1-4.2c-.7-.3-1.2-.9-1.2-1.7s.8-1.9,1.9-1.9,1.8.8,1.8,1.9Z"/>
      <path class="cls-4" d="M858.5,303.3c0,6.7-3.8,10.3-9.3,10.3s-3.6-.4-4.9-1.1l1.1-2.2c1,.7,2.4.9,3.8.9,4,0,6.5-2.5,6.5-7.4v-.7c-1.1,1.7-3.2,2.6-5.7,2.6-3.9,0-6.7-2.3-6.7-5.9s3-6.2,6.9-6.2,8.2,3.5,8.2,9.8ZM855,299.6c0-2-1.6-3.8-4.7-3.8s-4.3,1.5-4.3,3.8,1.7,3.8,4.5,3.8,4.5-1.7,4.5-3.8Z"/>
    </g>
    <g>
      <path class="cls-4" d="M901.1,328.7v1.9l-7.9,17.7h-3l7.8-17.2h-9v3.5h-2.7v-5.9h14.8Z"/>
      <path class="cls-4" d="M906.3,346.6c0,.6-.1,1-.5,2l-1.3,3.9h-1.8l1-4.2c-.7-.3-1.2-.9-1.2-1.7s.8-1.9,1.9-1.9,1.8.8,1.8,1.9Z"/>
      <path class="cls-4" d="M924.4,342.4c0,3.8-3.1,6.2-6.9,6.2s-8.2-3.5-8.2-9.8,3.8-10.3,9.3-10.3,3.6.4,4.9,1.1l-1.1,2.2c-1-.7-2.4-.9-3.8-.9-4,0-6.5,2.5-6.5,7.4s0,.4,0,.7c1.1-1.7,3.2-2.6,5.6-2.6,3.9,0,6.7,2.3,6.7,5.9ZM921.7,342.5c0-2.3-1.7-3.8-4.5-3.8s-4.5,1.7-4.5,3.8,1.6,3.8,4.6,3.8,4.3-1.5,4.3-3.8Z"/>
    </g>
    <g>
      <path class="cls-4" d="M966.3,328.7v1.9l-7.9,17.7h-3l7.8-17.2h-9v3.5h-2.7v-5.9h14.8Z"/>
      <path class="cls-4" d="M971.6,346.6c0,.6-.1,1-.5,2l-1.3,3.9h-1.8l1-4.2c-.7-.3-1.2-.9-1.2-1.7s.8-1.9,1.9-1.9,1.8.8,1.8,1.9Z"/>
      <path class="cls-4" d="M988.8,328.7v1.9l-7.9,17.7h-3l7.8-17.2h-9v3.5h-2.7v-5.9h14.8Z"/>
    </g>
    <g>
      <path class="cls-4" d="M1033.3,333.7v1.9l-7.9,17.7h-3l7.8-17.2h-9v3.5h-2.7v-5.9h14.8Z"/>
      <path class="cls-4" d="M1038.6,351.6c0,.6-.1,1-.5,2l-1.3,3.9h-1.8l1-4.2c-.7-.3-1.2-.9-1.2-1.7s.8-1.9,1.9-1.9,1.8.8,1.8,1.9Z"/>
      <path class="cls-4" d="M1058.6,348.5h-3.7v4.8h-2.7v-4.8h-10.9v-2l10-12.8h3l-9.6,12.4h7.5v-4.3h2.6v4.3h3.7v2.4Z"/>
    </g>
    <g>
      <path class="cls-4" d="M1099,328.8c0,3.6-3,5.8-7.8,5.8s-7.8-2.2-7.8-5.8,1.2-3.9,3.4-4.7c-1.8-.8-2.7-2.3-2.7-4.2,0-3.3,2.8-5.3,7.1-5.3s7.1,2,7.1,5.3-1,3.4-2.8,4.2c2.2.9,3.5,2.5,3.5,4.7ZM1096.2,328.7c0-2.2-1.9-3.5-5-3.5s-5,1.3-5,3.5,1.8,3.6,5,3.6,5-1.4,5-3.6ZM1086.9,319.9c0,1.9,1.6,3.1,4.3,3.1s4.4-1.2,4.4-3.1-1.7-3.2-4.4-3.2-4.3,1.2-4.3,3.2Z"/>
      <path class="cls-4" d="M1106.1,332.6c0,.6-.1,1-.5,2l-1.3,3.9h-1.8l1-4.2c-.7-.3-1.2-.9-1.2-1.7s.8-1.9,1.9-1.9,1.8.8,1.8,1.9Z"/>
      <path class="cls-4" d="M1123.4,331.9v2.4h-14.1v-1.9l8-7.7c2.1-2,2.5-3.2,2.5-4.5,0-2-1.4-3.2-4.2-3.2s-3.8.7-5,2.1l-1.9-1.7c1.5-1.9,4.1-3,7.2-3s6.7,2.1,6.7,5.5-.6,3.6-3.2,6.2l-6,5.8h10.1Z"/>
    </g>
    <g>
      <path class="cls-4" d="M1168,300.3c0,6.7-3.8,10.3-9.3,10.3s-3.6-.4-4.9-1.1l1.1-2.2c1,.7,2.4.9,3.8.9,4,0,6.5-2.5,6.5-7.4v-.7c-1.1,1.7-3.2,2.6-5.7,2.6-3.9,0-6.7-2.3-6.7-5.9s3-6.2,6.9-6.2,8.2,3.5,8.2,9.8ZM1164.6,296.6c0-2-1.6-3.8-4.7-3.8s-4.3,1.5-4.3,3.8,1.7,3.8,4.5,3.8,4.5-1.7,4.5-3.8Z"/>
      <path class="cls-4" d="M1174.6,308.6c0,.6-.1,1-.5,2l-1.3,3.9h-1.8l1-4.2c-.7-.3-1.2-.9-1.2-1.7s.8-1.9,1.9-1.9,1.8.8,1.8,1.9Z"/>
      <path class="cls-4" d="M1183.6,290.7v19.6h-2.8v-17.2h-4.4v-2.4h7.2Z"/>
    </g>
    <g>
      <rect class="cls-3" x="170.5" y="430.9" width="2" height="3" transform="translate(-33.3 14.7) rotate(-4.5)"/>
      <path class="cls-3" d="M176.6,433.5l-.2-3,4-.3.2,3-4,.3ZM184.6,432.9l-.2-3,4-.3.2,3-4,.3ZM192.6,432.3l-.2-3,4-.3.2,3-4,.3ZM200.5,431.6l-.2-3,4-.3.2,3-4,.3ZM208.5,431l-.2-3,4-.3.2,3-4,.3ZM216.5,430.4l-.2-3,4-.3.2,3-4,.3ZM224.5,429.8l-.2-3,4-.3.2,3-4,.3ZM232.5,429.1l-.2-3,4-.3.2,3-4,.3ZM240.4,428.5l-.2-3,4-.3.2,3-4,.3ZM248.4,427.9l-.2-3,4-.3.2,3-4,.3ZM256.4,427.3l-.2-3,4-.3.2,3-4,.3ZM264.4,426.6l-.2-3,4-.3.2,3-4,.3ZM272.4,426l-.2-3,4-.3.2,3-4,.3ZM280.3,425.4l-.2-3,4-.3.2,3-4,.3ZM288.3,424.8l-.2-3,4-.3.2,3-4,.3ZM296.3,424.1l-.2-3,4-.3.2,3-4,.3ZM304.3,423.5l-.2-3,4-.3.2,3-4,.3ZM312.3,422.9l-.2-3,4-.3.2,3-4,.3ZM320.2,422.2l-.2-3,4-.3.2,3-4,.3ZM328.2,421.6l-.2-3,4-.3.2,3-4,.3ZM336.2,421l-.2-3,4-.3.2,3-4,.3ZM344.2,420.4l-.2-3,4-.3.2,3-4,.3ZM352.2,419.7l-.2-3,4-.3.2,3-4,.3ZM360.2,419.1l-.2-3,4-.3.2,3-4,.3ZM368.1,418.5l-.2-3,4-.3.2,3-4,.3ZM376.1,417.9l-.2-3,4-.3.2,3-4,.3ZM384.1,417.2l-.2-3,4-.3.2,3-4,.3ZM392.1,416.6l-.2-3,4-.3.2,3-4,.3ZM400.1,416l-.2-3,4-.3.2,3-4,.3ZM408,415.4l-.2-3,4-.3.2,3-4,.3ZM416,414.7l-.2-3,4-.3.2,3-4,.3ZM424,414.1l-.2-3,4-.3.2,3-4,.3ZM432,413.5l-.2-3,4-.3.2,3-4,.3ZM440,412.8l-.2-3,4-.3.2,3-4,.3ZM447.9,412.2l-.2-3,4-.3.2,3-4,.3ZM455.9,411.6l-.2-3,4-.3.2,3-4,.3ZM463.9,411l-.2-3,4-.3.2,3-4,.3ZM471.9,410.3l-.2-3,4-.3.2,3-4,.3ZM479.9,409.7l-.2-3,4-.3.2,3-4,.3ZM487.8,409.1l-.2-3,4-.3.2,3-4,.3ZM495.8,408.5l-.2-3,4-.3.2,3-4,.3ZM503.8,407.8l-.2-3,4-.3.2,3-4,.3ZM511.8,407.2l-.2-3,4-.3.2,3-4,.3ZM519.8,406.6l-.2-3,4-.3.2,3-4,.3ZM527.7,406l-.2-3,4-.3.2,3-4,.3ZM535.7,405.3l-.2-3,4-.3.2,3-4,.3ZM543.7,404.7l-.2-3,4-.3.2,3-4,.3ZM551.7,404.1l-.2-3,4-.3.2,3-4,.3ZM559.7,403.4l-.2-3,4-.3.2,3-4,.3ZM567.6,402.8l-.2-3,4-.3.2,3-4,.3ZM575.6,402.2l-.2-3,4-.3.2,3-4,.3ZM583.6,401.6l-.2-3,4-.3.2,3-4,.3ZM591.6,400.9l-.2-3,4-.3.2,3-4,.3ZM599.6,400.3l-.2-3,4-.3.2,3-4,.3ZM607.5,399.7l-.2-3,4-.3.2,3-4,.3ZM615.5,399.1l-.2-3,4-.3.2,3-4,.3ZM623.5,398.4l-.2-3,4-.3.2,3-4,.3ZM631.5,397.8l-.2-3,4-.3.2,3-4,.3ZM639.5,397.2l-.2-3,4-.3.2,3-4,.3ZM647.4,396.6l-.2-3,4-.3.2,3-4,.3ZM655.4,395.9l-.2-3,4-.3.2,3-4,.3ZM663.4,395.3l-.2-3,4-.3.2,3-4,.3ZM671.4,394.7l-.2-3,4-.3.2,3-4,.3ZM679.4,394l-.2-3,4-.3.2,3-4,.3ZM687.3,393.4l-.2-3,4-.3.2,3-4,.3ZM695.3,392.8l-.2-3,4-.3.2,3-4,.3ZM703.3,392.2l-.2-3,4-.3.2,3-4,.3ZM711.3,391.5l-.2-3,4-.3.2,3-4,.3ZM719.3,390.9l-.2-3,4-.3.2,3-4,.3ZM727.2,390.3l-.2-3,4-.3.2,3-4,.3ZM735.2,389.7l-.2-3,4-.3.2,3-4,.3ZM743.2,389l-.2-3,4-.3.2,3-4,.3ZM751.2,388.4l-.2-3,4-.3.2,3-4,.3ZM759.2,387.8l-.2-3,4-.3.2,3-4,.3ZM767.2,387.2l-.2-3,4-.3.2,3-4,.3ZM775.1,386.5l-.2-3,4-.3.2,3-4,.3ZM783.1,385.9l-.2-3,4-.3.2,3-4,.3ZM791.1,385.3l-.2-3,4-.3.2,3-4,.3ZM799.1,384.6l-.2-3,4-.3.2,3-4,.3ZM807.1,384l-.2-3,4-.3.2,3-4,.3ZM815,383.4l-.2-3,4-.3.2,3-4,.3ZM823,382.8l-.2-3,4-.3.2,3-4,.3ZM831,382.1l-.2-3,4-.3.2,3-4,.3ZM839,381.5l-.2-3,4-.3.2,3-4,.3ZM847,380.9l-.2-3,4-.3.2,3-4,.3ZM854.9,380.3l-.2-3,4-.3.2,3-4,.3ZM862.9,379.6l-.2-3,4-.3.2,3-4,.3ZM870.9,379l-.2-3,4-.3.2,3-4,.3ZM878.9,378.4l-.2-3,4-.3.2,3-4,.3ZM886.9,377.8l-.2-3,4-.3.2,3-4,.3ZM894.8,377.1l-.2-3,4-.3.2,3-4,.3ZM902.8,376.5l-.2-3,4-.3.2,3-4,.3ZM910.8,375.9l-.2-3,4-.3.2,3-4,.3ZM918.8,375.2l-.2-3,4-.3.2,3-4,.3ZM926.8,374.6l-.2-3,4-.3.2,3-4,.3ZM934.7,374l-.2-3,4-.3.2,3-4,.3ZM942.7,373.4l-.2-3,4-.3.2,3-4,.3ZM950.7,372.7l-.2-3,4-.3.2,3-4,.3ZM958.7,372.1l-.2-3,4-.3.2,3-4,.3ZM966.7,371.5l-.2-3,4-.3.2,3-4,.3ZM974.6,370.9l-.2-3,4-.3.2,3-4,.3ZM982.6,370.2l-.2-3,4-.3.2,3-4,.3ZM990.6,369.6l-.2-3,4-.3.2,3-4,.3ZM998.6,369l-.2-3,4-.3.2,3-4,.3ZM1006.6,368.3l-.2-3,4-.3.2,3-4,.3ZM1014.5,367.7l-.2-3,4-.3.2,3-4,.3ZM1022.5,367.1l-.2-3,4-.3.2,3-4,.3ZM1030.5,366.5l-.2-3,4-.3.2,3-4,.3ZM1038.5,365.8l-.2-3,4-.3.2,3-4,.3ZM1046.5,365.2l-.2-3,4-.3.2,3-4,.3ZM1054.4,364.6l-.2-3,4-.3.2,3-4,.3ZM1062.4,364l-.2-3,4-.3.2,3-4,.3ZM1070.4,363.3l-.2-3,4-.3.2,3-4,.3ZM1078.4,362.7l-.2-3,4-.3.2,3-4,.3ZM1086.4,362.1l-.2-3,4-.3.2,3-4,.3ZM1094.3,361.5l-.2-3,4-.3.2,3-4,.3ZM1102.3,360.8l-.2-3,4-.3.2,3-4,.3ZM1110.3,360.2l-.2-3,4-.3.2,3-4,.3ZM1118.3,359.6l-.2-3,4-.3.2,3-4,.3ZM1126.3,358.9l-.2-3,4-.3.2,3-4,.3ZM1134.3,358.3l-.2-3,4-.3.2,3-4,.3ZM1142.2,357.7l-.2-3,4-.3.2,3-4,.3ZM1150.2,357.1l-.2-3,4-.3.2,3-4,.3ZM1158.2,356.4l-.2-3,4-.3.2,3-4,.3Z"/>
      <rect class="cls-3" x="1166.1" y="352.7" width="2" height="3" transform="translate(-24.1 92.2) rotate(-4.5)"/>
      <polygon class="cls-3" points="1151.1 365.1 1149.9 362.3 1167.8 354.2 1148.8 348.9 1149.6 346 1176.5 353.5 1151.1 365.1"/>
    </g>
  </g>
</svg>