<?xml version="1.0" encoding="UTF-8"?>
<svg id="Camada_1" data-name="Camada 1" xmlns="http://www.w3.org/2000/svg" xmlns:xlink="http://www.w3.org/1999/xlink" version="1.1" viewBox="0 0 1280 1280">
  <defs>
    <style>
      .cls-1 {
        fill: #bfdbe3;
      }

      .cls-1, .cls-2, .cls-3, .cls-4, .cls-5, .cls-6, .cls-7, .cls-8, .cls-9, .cls-10 {
        stroke-width: 0px;
      }

      .cls-11 {
        font-family: Montserrat-Bold, Montserrat;
        font-size: 33.3px;
        font-weight: 700;
      }

      .cls-11, .cls-4 {
        fill: #2f3a64;
      }

      .cls-2 {
        fill: #2f3b64;
      }

      .cls-3 {
        fill: #52808f;
      }

      .cls-5 {
        fill: #e0d95a;
      }

      .cls-6 {
        fill: url(#Gradiente_sem_nome_47-3);
      }

      .cls-7 {
        fill: url(#Gradiente_sem_nome_47-2);
      }

      .cls-8 {
        fill: #fff;
      }

      .cls-9 {
        fill: url(#Gradiente_sem_nome_47);
      }

      .cls-10 {
        fill: url(#Gradiente_sem_nome_57);
      }
    </style>
    <linearGradient id="Gradiente_sem_nome_57" data-name="Gradiente sem nome 57" x1="0" y1="1280" x2="1280" y2="0" gradientUnits="userSpaceOnUse">
      <stop offset="0" stop-color="#f6f5d4"/>
      <stop offset=".1" stop-color="#f7f6d7"/>
      <stop offset=".2" stop-color="#f8f7dc"/>
      <stop offset=".3" stop-color="#faf9e6"/>
      <stop offset=".5" stop-color="#fbfaea"/>
      <stop offset=".7" stop-color="#faf9e5"/>
      <stop offset=".9" stop-color="#f7f6d9"/>
      <stop offset=".9" stop-color="#f6f5d4"/>
    </linearGradient>
    <linearGradient id="Gradiente_sem_nome_47" data-name="Gradiente sem nome 47" x1="594.2" y1="278.8" x2="608.3" y2="278.8" gradientUnits="userSpaceOnUse">
      <stop offset=".2" stop-color="#f6f5d4"/>
      <stop offset=".5" stop-color="#fbfaea"/>
      <stop offset=".7" stop-color="#f6f5d4"/>
    </linearGradient>
    <linearGradient id="Gradiente_sem_nome_47-2" data-name="Gradiente sem nome 47" x1="617.6" y1="257.4" x2="638.1" y2="257.4" xlink:href="#Gradiente_sem_nome_47"/>
    <linearGradient id="Gradiente_sem_nome_47-3" data-name="Gradiente sem nome 47" x1="611.2" y1="283.3" x2="662.9" y2="283.3" xlink:href="#Gradiente_sem_nome_47"/>
  </defs>
  <g id="anq6ZI.tif">
    <image id="Layer_0" data-name="Layer 0" width="1934" height="876" transform="translate(-1105 735) scale(.5)" xlink:href="img10-1.png"/>
  </g>
  <g id="OUGwYM.tif">
    <image id="Layer_0-2" data-name="Layer 0" width="660" height="546" transform="translate(1320 233) scale(1.7)" xlink:href="img10-2.png"/>
  </g>
  <g>
    <rect class="cls-10" width="1280" height="1280"/>
    <path class="cls-9" d="M594.5,281.9c-.2.3-.3.7-.2,1.1,0,.3.3.5.6.7,1.3.8,3,.9,4.3.2,1.1-.6,1.9-1.6,3-2.1,1.4-.6,3.2-.3,4.4-1.2.7-.6,1.1-1.5,1.4-2.4.5-1.4.6-3.3-.6-4.1-3-1.8-5,1.2-6.8,2.8-2,1.8-4.7,2.6-6,5.1Z"/>
    <path class="cls-7" d="M618,262.9c.3.5,1,.7,1.6.8,2.4.2,4.7-1.6,7-1,1,.2,2,.9,3,.9.7,0,1.4-.3,2-.6l3.4-1.6c.8-.4,1.7-.8,2.3-1.5.6-.7,1-1.7.6-2.5-.3-.8-1.2-1.3-2-1.3-.8,0-1.7.2-2.5.5-6.4,2.7,0-7.8-6.4-4.7-2.5,1.2-11.3,8-9.1,11.2Z"/>
    <path class="cls-5" d="M250.2,491.4c-7.7,4.6-15.4,9.1-23.1,13.7-3.5,2.1-7.1,4.3-10.1,7.2-2.1,2.1-3.7,4.5-5.8,6.5-2.3,2.1-7.6,7.8-18.1,6.4-1.9-.3-2.8-2.9-2.5-4.9.4-2.7,3.1-4.5,3.5-7.2-6.6-4.4-15.4,1.6-23.4.7-.6,0-1.2-.2-1.7-.6-1.3-1.2,0-3.4-.7-5-.5-1.2-2-1.7-2.9-2.6-3.9-3.7,1.9-10.6-.4-15.5-1.3-2.8-4.5-3.8-7.5-4.6-1.2-.3-2.4-.6-3.6-.5-4,.5-5.8,5.2-8.8,7.8-2.9,2.4-7.1,2.9-10.8,1.8-3.6-1.1-6.8-3.4-9.5-6-2.7-2.6-5.4-5.8-9.2-6.1-2.4-.2-4.8.7-7.2.5-2.4-.2-4.9-2.5-3.9-4.7.6-1.2,2.1-1.7,2.9-2.8,1.2-1.6.7-3.9-.3-5.7-1-1.7-2.5-3.2-3.1-5.1-.5-1.5-.4-3.1-.9-4.5-.6-1.8-2-3.2-3.3-4.6-4.7-4.8-9.8-9.3-15-13.4-2.1-1.7-4.4-4.7-2.5-6.6.6-.6,1.4-.8,2.1-1.3,1.5-1,2.1-2.5,2.4-4.3,6.1-.6,12.1-.4,17.9,1.2,11.1,3,21,11.1,32.5,10.7,6.8-.2,13.6-3.5,20.1-1.8,4.4,1.1,8,4.3,11.3,7.3,15.1,13.6,32.8,27.7,53.2,26.6,3.9-.2,7.9-1,11.6.4,2.5.9,4.5,2.7,6.4,4.6,1.2,1.2,2.4,2.5,3.6,3.8,2.3,2.7,4.5,5.4,6.5,8.4,0,0,.1.2.2.3Z"/>
    <path class="cls-5" d="M627.1,242.9c-7.7,2.4-14.7,6.5-17.9,13.9-.8,1.9-1.4,3.9-2.6,5.6-2.7,3.7-7.5,4.8-11.5,7-6.5,3.6-10.6,10.2-14.4,16.5-.2.4-.5.8-.7,1.2-5.8.3-11.8-.6-14.4-5.6-.7-1.4-1-3-1.8-4.4-3.1-6.3-12.4-7.7-15.2-14.1-2-4.5,0-10-1.7-14.7-1.1-2.9-3.6-5.2-6-7.1-6.4-5.1-13.6-9.3-19.5-15-5-4.8-9.2-10.8-10.4-17.5,8.2,1.9,16,4.9,23.3,8.9.3-5.4,7.9-6.5,13.1-5s11.3,3.9,15.4.3c3.2-14.5,10.2-28.1,20.1-39.1,1.1-1.2,2.2-2.4,3.8-2.9,6.2-2.2,9.7,7,10.5,13.5,1.8,14.6,7.6,28.6,16.6,40.2,2.4,3.1,5.8,6.3,9.6,5.3,3.3-.9,7.1,1.3,8.1,4.6.9,3.3-1.2,7.2-4.4,8.2Z"/>
    <path class="cls-1" d="M905.2,372.6c-3.6,3.5-7.6,6.8-12,9.3-5.3,3-11.6,5.5-14.2,11-2.9,5.9-.6,13.8-3.2,19.5-.4.8-.9,1.7-1.5,2.4-1.8,2.1-4.5,3.3-6.4,5.2-4.4,4.5-3.9,11.8-2.5,17.9.5,2,1,4.1,1.4,6.2-2.1.9-4.2,1.5-6.2.8-1.8-.6-3.2-2.1-4.6-3.5-6.2-6-14.6-9.4-23.2-10,.9-1.1,1.8-2.2,2.3-3.5,1.7-4.4-1.4-9.1-2.5-13.7-1.8-8.2,3.2-17.1.4-25.1-2-5.8-7.9-11.5-4.9-16.8.9-1.6,2.5-2.8,3.3-4.4,2.1-4.7-3.3-8.9-7-12.4-6.4-6.3-7.6-16.7-4.3-24.9,0,0,0,0,0,0,1.9.4,3.9.9,5.8.4,2.2-.5,3.9-2.1,6-3,3.2-1.4,6.9-1.1,10.4-.6,14.4,1.9,30.2,6.5,37.5,19.1,1.9,3.3,3.1,6.9,5.1,10.1,3.8,5.9,10,9.8,15.9,13.5,1.4.9,2.8,1.7,4.2,2.6Z"/>
    <path class="cls-1" d="M962.4,422.1c0,.4,0,.8,0,1.3-3.8-1.2-7.4-2.9-10.8-5-3-1.9-5.8-4.1-9.2-5-3.4-.9-7.6-.2-9.3,2.8-.7,1.1-.9,2.5-1.9,3.3-.9.9-2.3,1-3.6,1-7,0-14.8-4.5-20.3-.2-2.2,1.7-3.7,4.7-6.5,4.8-2.7,0-4.5-2.8-5.2-5.4-.6-2.6-.8-5.6-2.6-7.6-2.5-2.8-6.9-2.4-10.6-1.6-2.3.5-4.5,1.1-6.7,1.7,2.6-5.7.3-13.6,3.2-19.5,2.7-5.5,9-7.9,14.2-11,4.4-2.5,8.3-5.8,12-9.3,6.2,3.7,12.7,7.1,19.8,8.3,6.8,1.2,14.2.4,20.4,3.5,9.1,4.5,12.4,15.5,14.9,25.3,1,4.1,2.1,8.3,2,12.5Z"/>
    <path class="cls-1" d="M804.1,750.6c-1.3,6.5,1,14.4-3.9,18.7-4.4,3.8-12,2.2-15.9,6.5-2.3,2.5-2.5,6.5-4.9,8.9-1.5,1.6-3.7,2.3-5.8,2.9-9,2.8-18.6,5.6-27.8,3.2-4.5-1.2-8.7-3.5-13.3-3.4-2.6,0-4.9.8-7,2-1.6-3.5-2.3-7.1-.5-10.3,1-1.7,2.6-3,3.3-4.8.7-1.9.3-3.8-.8-5.5,2.7-1.9,5.3-3.8,8-5.7,1.5-1.1,3.2-2.2,5-2.5,2.1-.3,4.2.5,6.2.9,11,2.5,21.7-4.4,30.8-11,3-2.2,6.3-4.8,6.7-8.4,1.2.9,2.3,2,3.6,2.8,2.3,1.4,5,1.8,7.6,2.4,3,.7,6,1.8,8.8,3.1Z"/>
    <path class="cls-1" d="M724.9,779.2c-1.9,3.2-1.1,6.8.5,10.3-7.5,4.2-13.2,13.3-21.9,15-4,.8-8.2-.2-12.3.3-4.2.5-8,2.6-11.6,4.8-9.9,6.1-18.9,13.5-26.7,22-2.2-.2-4.3-.7-6.2-1.8-3-1.7-5.2-4.3-7.3-6.9-4.9-5.9-10.1-13.5-7.3-20.6-4.6-.4-9.2-.8-13.8-1.1-1.9-5.1,6.1-8.9,6.5-14.4.3-4.8-5.4-7.8-10.2-7.5-3.5.2-7.4,1.3-10.2-.8-1.2-.9-1.9-2.2-2.8-3.3-4.1-4.8-11.3-5.1-17.6-4.3-6.2.8-12.8,2.3-18.6,0-3.6-1.4-6.4-4.2-9.8-5.9-3.6-1.8-7.4-2.5-11.4-2.5.4-.7.9-1.3,1.4-1.9,6.5-7.3,19.7-6.7,24.5-15.2,3.2-5.6,1.3-13.1,4.7-18.6,4.4-7.2,16.4-9,17.2-17.3.3-2.9-1-5.7-2.5-8.2,2.2-.6,4.6-1,6.9-1.1,4.9-.2,9.9.8,13.9,3.6,2.8,1.9,5.2,4.5,8.5,5.1,3.7.7,7.5-1.5,11-.5,2,.6,3.6,2,5.5,2.9,6,2.9,13-.6,19-3.5,6-2.9,14-5,18.7-.3,2.4,2.4,3.1,5.9,3.8,9.2,1.3,6.5,2.7,13,4,19.5.4,2.1.9,4.4,2.5,5.9,2.3,2.2,6.8,2.5,7.5,5.7.6,2.8-2.3,4.9-4.4,6.9-5.3,5.1-5.2,14.7,0,19.8,4.5-2,9-4,13.5-5.9,7.6-3.3,16.5-6.7,23.9-2.8,1.5.8,2.9,2,3.8,3.5,1.1,1.7,1.6,3.7.8,5.5-.7,1.8-2.4,3.1-3.3,4.8Z"/>
    <path class="cls-6" d="M659.5,273.3c-1.9.8-4.2,1.3-5.3,3.1-.5.9-.6,2-.7,3-.2,1.8-.3,3.6-.5,5.3,0,1.2-.2,2.4-.8,3.5-.5.8-1.3,1.5-2,2.1-2.3,1.8-4.5,3.6-6.7,5.4-1,.8-2.1,1.7-3.3,2.1-4.7,1.5-10.1-2.1-15.3-.9-2.7.6-13.2,6-13.7.6-.1-1.2.8-2.3.8-3.5,0-1-.5-2-.1-2.9.2-.6.8-.9,1.3-1.2,2.3-1.2,4.8-1.8,6.7-3.6,1.8-1.7,2.6-5,.7-6.7-1.5-1.2-3.8-1-5.1-2.3-.6-.6-.9-1.4-1.2-2.2-.6-1.8-1.2-4.1.2-5.6,1.5-1.6,4.2-.8,6,.5,1.8,1.3,3.5,3,5.7,3.1,3.4.1,5.5-3.6,8.5-5.2,5.8-3,12.9,2.6,19.2.8,1.6-.5,3.1-1.4,4.7-1.8,1.7-.3,3.7.2,4.3,1.8.7,2-1.3,3.8-3.3,4.6Z"/>
    <g>
      <path class="cls-3" d="M604.3,513.4c1.2,8.1,4.1,16.2,2.3,24.1-.7,3.2-2.2,6.3-3.1,9.4,0,.3-.1.5-.2.8-2.3,9.2.2,19.3-3.8,28-5.1,11.3-19.1,15.8-26.1,26.1-6.3,9.3-6.3,22.6-14.7,30.2-2.5,2.3-5.6,3.9-7.5,6.6-3.9,5.3-2.3,13.2-5.7,18.8-1.2,1.9-2.8,3.5-4.5,5-2.6-.5-5.4-.7-7.8-1.4-6.1-1.6-12.3-6.8-18-3.9-2,1-3.5,2.9-5.7,3.4-4.5,1-7.4-4.2-10.1-7.9-7.6-10.2-24.8-11.1-33.4-1.7-1.2,1.3-2.2,2.7-3.7,3.6-1.5.8-3.2.9-4.8,1.2-2.6.4-5.2,1.4-7.4,2.8-.8-.8-1.7-1.4-2.6-1.9-2.1-1.2-4.4-1.8-6.4-3-3-1.9-4.9-5.4-5-8.9,0-1.3.1-2.6-.6-3.6-1.1-1.5-3.5-1.3-4.8-2.6-1.6-1.7-.4-4.5,1.1-6.2,1.5-1.8,3.4-3.8,2.8-6-6.7-3.4-14.5,3.8-22,2.5-3.8-.7-6.9-3.6-10.7-4.3-4.9-.9-9.6,1.9-13.7,4.6-1.2.8-3.2.4-4.5-.3,1.7-4.8,3.4-9.5,5.2-14.3.5-1.4,1-2.9,1-4.4,0-2.6-1.8-4.8-2.8-7.2-1-2.4-.9-5.8,1.5-6.9.7-.3,1.6-.4,2.2-.9,1-.9.7-2.4.3-3.7-1.9-6.5-3.8-13-5.7-19.5-.2-.7-.4-1.3-.9-1.8-.6-.6-1.4-.8-2.2-.8,0,0-.1,0-.2,0,4.3-9.1,8-18.7,15.2-25.7,2.2-2.1,4.8-4.3,5.1-7.3.5-5-5.6-9.4-3.9-14.2,1.4-3.7,7.1-5.2,7.2-9.1,0-4.2-5.7-5.2-9.9-4.8-10,.9-20,1.9-29.9,2.9,6.2-5.8,5-16,2-23.9-2.3-6-5.3-11.9-6.2-18.1,2.3-3.9,5-7.5,8.9-9.4,8.4-4.1,18.3,1.5,27.5.6,8.4-.8,17-6.7,24.6-3.1,1.5.7,2.9,1.8,4.6,2.1,3.4.5,6.3-2.8,7.2-6.2.9-3.3.6-6.9,1.7-10.2.9-2.6,2.5-4.9,4.2-7.1,1.6-2.2,3.3-4.4,4.9-6.6,2,1.9,3.6,4,4.3,6.7,1,3.7-.2,7.7,0,11.5.4,8.5,7.3,15.3,14.4,20.1,19.4,13,44.2,17.7,67,12.7,7.4-1.6,14.8-4.3,22.4-4,4.2.2,8.3,1.2,12.4,1.9,6,1,12.1,1.1,18.2,1.2,8.8.2,17.6.4,26.4.6-5.5,10.3-7.6,22.4-5.9,33.9Z"/>
      <path class="cls-3" d="M959.9,439.3c0,1.6,0,3.3.2,4.9-4.3.9-8.7,1-13.1.3-7.1-1.2-14.4-4.3-21.1-1.7-5.5,2.2-11.2,8.3-16.2,5.1-3-1.9-3.3-6-4.6-9.3-1.2-3.3-5.4-6.4-7.9-4-1.4,2.8-2.9,5.7-5.4,7.6-2.5,1.9-6.3,2.6-8.7.6-1-.8-1.6-1.8-2.6-2.6-4-3-8.8,1.6-13.7,3.8-.4-2.1-1-4.1-1.4-6.2-1.4-6.1-1.9-13.4,2.5-17.9,1.9-2,4.6-3.2,6.4-5.2.7-.7,1.2-1.5,1.5-2.4,2.2-.7,4.5-1.2,6.7-1.7,3.7-.8,8.1-1.1,10.6,1.6,1.8,2,2,4.9,2.6,7.6.6,2.6,2.5,5.5,5.2,5.4,2.8,0,4.3-3.1,6.5-4.8,5.4-4.3,13.3,0,20.3.2,1.3,0,2.7-.2,3.6-1,1-.9,1.3-2.2,1.9-3.3,1.8-3,6-3.8,9.3-2.8,3.4.9,6.2,3.2,9.2,5,3.4,2.1,7,3.8,10.8,5-.3,5.3-2.3,10.5-2.4,15.9Z"/>
      <path class="cls-3" d="M955.2,473.5c-4.4,8.2-9.2,16.4-16,22.6-6.8,6.2-15.6,10.3-21.6,17.3-.5.6-.9,1.1-1.4,1.7-.6-.8-1.2-1.8-1.7-2.7-2.3-4.3-3.4-9.1-5.1-13.7-.4-1-.8-2-1.8-2.4-.9-.4-2,0-3,.3-5,1.7-10.6,1.5-15.5-.4-1.6-.7-3.2-1.5-5-1.9-.6-.1-1.2-.2-1.8-.2.4-1.4.7-2.8.9-4.2.6-4.2-.3-8.5-2.2-12.3.7-.4,1.3-.7,2.1-1.1,5-2.3,11.1-2.8,15.8.1,2.3,1.4,4.2,3.6,6.8,4.4,5.6,1.8,10.7-3.6,16-6.1,10.2-5,22.6.4,33.6-1.6Z"/>
      <path class="cls-3" d="M591.9,709.3c-.8,8.3-12.9,10.2-17.2,17.3-3.3,5.5-1.5,13-4.7,18.6-4.8,8.5-18,7.9-24.5,15.2-.5.6-1,1.2-1.4,1.9-3.8,5.8-3.7,13.9-7.5,19.8-2.3,3.6-5.9,6.1-9.3,8.7-1.6,1.3-3.1,2.5-4.6,3.9,0-.3,0-.6,0-1-3.9-1.7-8.5-1.6-12.3.3-2,1-3.9,2.5-6,2.3-2.2-.1-3.9-1.8-5.3-3.5-3.3-4.3-5.4-9.6-5.9-15.1-.4-4.3.2-8.7-.6-12.9-.8-4.2-3.5-8.6-7.8-9.3-7.2-1.3-13.5,7.8-20.5,5.8-5.6-1.6-7.5-9.5-13.1-11.3-.9-.3-1.9-.4-2.8-.9-2.1-1.1-2.7-3.9-2.3-6.3.4-2.4,1.5-4.5,1.9-6.9,1.5-9-7.7-16.9-7.2-26,.4-8.2,8.7-14.6,8.7-22.8,0-1.8-.4-3.5,0-5.2.5-2.6,2.4-4.6,3.6-6.9,2.9-5.4,1.4-12.6-3-16.8,2.3-1.4,4.8-2.3,7.4-2.8,1.7-.3,3.4-.4,4.8-1.2,1.5-.8,2.6-2.3,3.7-3.6,8.6-9.4,25.8-8.5,33.4,1.7,2.7,3.7,5.7,8.8,10.1,7.9,2.2-.5,3.7-2.4,5.7-3.4,5.7-2.9,11.8,2.3,18,3.9,2.5.7,5.3.9,7.8,1.4,3.1.6,5.8,1.6,7.2,4.3,1.1,2,1,4.5,2,6.5,2.6,5.1,9.9,4.5,15.5,5.7,10.3,2.1,17,11.9,22.6,20.8.3.5.6.9.9,1.4,1.5,2.6,2.8,5.3,2.5,8.2Z"/>
      <path class="cls-3" d="M652.9,831.5c-3.2,3.5-6.3,7.1-9.1,10.9-2.5-.2-5-.3-7.5-.5-3.6-.2-7.3-.4-10.4,1.3-3.1,1.7-5.2,6-3.2,8.9-9.4-6.1-20.3-12.5-31.1-9.5-6.8,1.8-12.3,7.2-19.2,8.8-12.4,2.9-25-7-37.4-4.5-.3,0-.5.1-.8.2-.3-1.4-.6-2.7-1-4-.6-2.3-1.4-4.8-3.5-6-3.8-2.1-10.1,1.2-12.2-2.6-2-3.7,3.6-6.8,5-10.7,1-2.7,0-5.8-.8-8.6-.7-2.8-.7-6.4,1.8-8.1-.2-4.4-.8-8-1.1-12.3h0c1.5-1.3,3-2.6,4.6-3.9,3.3-2.7,6.9-5.2,9.3-8.7,3.9-5.9,3.8-14,7.5-19.8,4,0,7.9.7,11.4,2.5,3.4,1.8,6.3,4.5,9.8,5.9,5.8,2.4,12.4.9,18.6,0,6.2-.8,13.5-.5,17.6,4.3.9,1.1,1.7,2.4,2.8,3.3,2.8,2.1,6.7,1,10.2.8,4.8-.3,10.5,2.7,10.2,7.5-.4,5.5-8.4,9.3-6.5,14.4,4.6.4,9.2.8,13.8,1.1-2.8,7.2,2.4,14.7,7.3,20.6,2.2,2.6,4.4,5.3,7.3,6.9,2,1.1,4.1,1.7,6.2,1.8Z"/>
      <path class="cls-3" d="M616.3,927.1c-.1,3.9-6.3,6.5-9.6,9.1-3,2.4-5.3,5.5-7.6,8.5-12.3,16.4-24.6,32.9-36.9,49.3-2.1,2.7-4.1,5.5-5.6,8.6-1,2.1-1.8,4.3-3,6.3-3.6,6-11.1,9.2-17.9,7.7-1.6-5.8,2.2-11.7,2.2-17.7s-2.3-9.1-4.6-13.3c-3.1-5.7-6.7-11.8-12.8-14.2-4.5-1.7-10.2-1.4-13-5.3-2.6-3.6-1.8-10-5.9-11.5-4.8-1.7-9.5,5.8-14.2,3.7-2.4-1.1-3.1-4.1-4.1-6.5-3.2-8-13.3-12.5-21.4-9.5-3.2,1.2-7.5,3-9.4.2-.6-.8-.7-1.9-.6-3,.5-4.7,5.3-7.7,9.7-9.5,4.4-1.8,9.4-3.3,11.9-7.3,1.3-2.2,1.8-4.8,2.7-7.1,1.7-4.6,5.1-8.3,8.4-11.9,11.8-12.8,23.9-25.6,39.1-33.9.6-.3,1.3-.7,1.9-1,6.4.2,12.7,1.4,18.6,3.8,4.3,1.7,9,4,13.3,2.5,1.8-.6,3.3-1.8,5.2-2,2-.1,3.8,1,5.4,2.1,6.5,4.3,13.6,9.3,15.5,17,5.4,2.6,11.7,1.2,17.7,1.6,5.9.4,12.8,4.7,11.8,10.6-.9,5.2-7.9,9.8-5.1,14.3.7,1.1,1.9,1.8,3,2.6,2.1,1.5,3.9,3.5,5.4,5.6Z"/>
      <path class="cls-3" d="M702.3,574.4c-1.5,7.5-2,15.1-1.6,22.7-2.6-1.2-5.2-2.2-7.9-1.7-4.7.9-7.5,5.5-10.2,9.4-2.7,3.9-6.8,8-11.4,6.9,5.2,5.7-4.9,14.8-1.9,21.9,1.7,4,6.6,5.3,10.8,6-1.2,4.3-4.5,8-8.6,9.5,2.6,2.5,5.1,5,7.7,7.5-1.9,4.8-11.2,3.2-12.2,8.2-.2,1.3.2,2.7.3,4,0,4.7-5.5,7.6-10.2,7-4.6-.6-8.6-3.5-12.8-5.5-4.3-2-9.7-2.9-13.3.2-3.2,2.7-3.8,7.5-6.9,10.2-4.2,3.6-10.7,1.7-16,3-6.4,1.6-10.6,8-11.8,14.5,0,.6-.2,1.1-.2,1.7-2.3.1-4.7.5-6.9,1.1-.3-.5-.6-1-.9-1.4-5.6-9-12.3-18.7-22.6-20.8-5.6-1.2-12.9-.5-15.5-5.7-1-2-.9-4.5-2-6.5-1.4-2.7-4.2-3.7-7.2-4.3,1.7-1.5,3.4-3.1,4.5-5,3.4-5.7,1.8-13.5,5.7-18.8,2-2.7,5.1-4.3,7.5-6.6,8.3-7.6,8.3-20.8,14.7-30.2,7-10.3,21-14.8,26.1-26.1,3.9-8.6,1.5-18.8,3.8-28,3.5-2.5,7.3-4.6,11.3-6.3,4,4.3,3.5,12.3,8.9,14.5,2,.8,4.2.6,6.3.3,5.5-.7,10.9-1.4,16.4-2.2,3.3-.4,6.7-.8,9.6.7,4.2,2.2,6.3,8,10.9,8.9,4.6.8,8.3-3.6,12.4-5.8,5.5-3,12-2,18.4-.9h0c-.2,3.3.3,6.4,2.2,9,1,1.3,2.3,2.5,2.7,4,.4,1.4.1,3-.2,4.4Z"/>
      <path class="cls-3" d="M829.5,644.8c-4.4,3.9-9.7,9.2-7.4,14.5.6,1.5,1.8,2.7,2.4,4.1,1.4,3.5-.7,7.1-2.3,10.6-5.1-1.2-10.2,2.6-14.2,6.3-2.6,2.4-5.3,4.8-6.8,8-3.7,7.7.2,17.6-4.2,24.9-4.3,7.2-15.8,10.5-15.3,18.8.2,3.5,2.7,6.6,2.5,10,0,0,0,.2,0,.2-.4,3.6-3.7,6.2-6.7,8.4-9.2,6.5-19.8,13.4-30.8,11-2.1-.5-4.1-1.3-6.2-.9-1.9.3-3.5,1.4-5,2.5-2.7,1.9-5.3,3.8-8,5.7-.9-1.5-2.3-2.7-3.8-3.5-7.4-3.8-16.3-.5-23.9,2.8-4.5,2-9,4-13.5,5.9-5.3-5.1-5.4-14.7,0-19.8,2.1-2,5.1-4.1,4.4-6.9-.7-3.2-5.2-3.4-7.5-5.7-1.6-1.5-2.1-3.8-2.5-5.9-1.3-6.5-2.6-13-4-19.5-.7-3.3-1.4-6.8-3.8-9.2-4.7-4.7-12.7-2.7-18.7.3-6,2.9-12.9,6.4-19,3.5-1.9-.9-3.5-2.3-5.5-2.9-3.6-1-7.4,1.2-11,.5-3.3-.6-5.7-3.3-8.5-5.1-4-2.8-9-3.8-13.9-3.6,0-.6.1-1.1.2-1.7,1.1-6.5,5.4-12.9,11.8-14.5,5.3-1.4,11.8.5,16-3,3.2-2.7,3.8-7.5,6.9-10.2,3.6-3,9-2.1,13.3-.2,4.3,2,8.2,4.9,12.8,5.5,4.6.6,10.3-2.3,10.2-7,0-1.3-.5-2.7-.3-4,1-5,10.3-3.4,12.2-8.2-2.6-2.5-5.1-5-7.7-7.5,4.2-1.6,7.5-5.2,8.6-9.5-4.3-.8-9.2-2-10.8-6-3-7.1,7.1-16.3,1.9-21.9,4.6,1.1,8.8-2.9,11.4-6.9,2.7-3.9,5.5-8.5,10.2-9.4,2.7-.5,5.3.4,7.9,1.7,3.5,1.7,7,3.9,10.9,3.8,8.6-.3,12.7-11.7,21-13.9,10.7-2.8,19.1,10.8,30.1,11.6,6.9.6,15.5-3.5,19.8,1.9,1.5,1.8,1.9,4.3,3,6.4,5.7,10.5,24.8,4.7,31.3,14.6.9,1.4,1.5,3,2.7,4.2,3.6,3.4,10.2.9,13.9,4.1,4.4,3.9.4,11-3.9,14.9Z"/>
      <path class="cls-3" d="M916.2,515.1c-2,2.5-3.8,5.1-6.2,7.1-2.5,2-5.5,3.3-8,5.3-4.3,3.7-6,9.6-8.3,14.8-.3-.3-.5-.7-.7-1.1-1.5-2.6-2.6-5.4-4.8-7.4-1.8-1.6-4.1-2.4-5.9-3.9-6-4.8-4.3-16.1,2.9-18.8-3.5-1.6-4.8-6.1-4.4-9.9.3-2.4.9-4.7,1.6-7.1.6,0,1.2,0,1.8.2,1.8.3,3.3,1.2,5,1.9,4.9,2,10.5,2.1,15.5.4,1-.3,2-.7,3-.3.9.4,1.4,1.4,1.8,2.4,1.7,4.6,2.8,9.4,5.1,13.7.5.9,1.1,1.8,1.7,2.7Z"/>
    </g>
    <g>
      <path class="cls-2" d="M484.9,314.5c-1.3,6.3-10.5,6.3-15.7,10.1-7.6,5.4-5.5,16.9-7.6,26-2,8.4-8,15.2-13.1,22.2-7.2,9.7-12.9,20.5-17.1,31.9-.9,2.4-1.7,5-1.4,7.6.7,7.6,9.5,11.1,15.1,16.4-1.6,2.2-3.3,4.4-4.9,6.6-1.7,2.2-3.3,4.5-4.2,7.1-1.1,3.3-.8,6.9-1.7,10.2-.9,3.3-3.8,6.7-7.2,6.2-1.7-.2-3.1-1.3-4.6-2.1-7.6-3.7-16.2,2.3-24.6,3.1-9.3.8-19.2-4.7-27.5-.6-3.9,1.9-6.5,5.5-8.9,9.4-.3-2.1-.4-4.1-.1-6.3.2-1.8.7-3.8-.1-5.4-2.9-5.6-13.1,2.2-17.3-2.4-1.3-1.4-1.5-3.6-2.1-5.5-1.8-5.7-8.1-8.9-14.1-9-6,0-11.6,2.3-17.1,4.6-1.5.6-3,1.3-4.1,2.5-2,2.3-1.6,5.8-2.7,8.7-1.5,3.9-5.7,6-9.4,7.8-6.4,3-12.8,6-19.2,9-3.2,1.5-6.3,3-9.5,4.5-2.2,1-4.4,2.1-6.8,2.5-2.9.5-5.8.2-8.7.6-2.4.3-4.7,1.2-6.9,2.3-1.2-1.3-2.3-2.6-3.6-3.8-1.9-1.9-3.9-3.7-6.4-4.6-3.7-1.3-7.7-.6-11.6-.4-20.3,1.1-38-13-53.2-26.6-3.4-3-6.9-6.2-11.3-7.3-6.6-1.7-13.3,1.6-20.1,1.8-11.5.4-21.4-7.6-32.5-10.7-5.9-1.6-11.9-1.8-17.9-1.2.5-2.6.3-5.7,1.6-7.9,1.3-2.4,4.2-3.7,7-4,2.8-.3,5.6.2,8.3.3,1,0,2.1,0,3.1-.4,2.5-1.2,2.8-4.9,1.4-7.4-1.4-2.4-3.8-4.1-5.9-6-2-2-2.3-4.1-2-6.9,1.6-15.6,15.8-26.6,29.9-33.6,13.5-6.7,29.8-11.3,43.3-4.6-4.5-14.2-1.9-30.4,6.8-42.4,1.8-2.4,2-5.6,2.1-8.6.3-17.3-5.4-34.7-16-48.4-3.7-4.7,4.4-9.7,10.4-9.8,5.9,0,14.5-2.2,13.3-8-5.9-1.3-12.5-3.2-15.4-8.5-2.9-5.3,2.3-14,7.8-11.3,12.7,6.2,27.3-2.4,38.9-10.6,2.2-1.5,4.7-3.1,7.3-2.4,3.1.9,4.2,4.7,4.8,7.9,1,5.5,2,11,3,16.6,3.1-1.8,6.7-3.6,10.1-2.5,3.4,1.1,4.8,6.8,1.5,8.1,5.1,7.4,18.5,5.8,21.8-2.5,2,2.9,3.1,6.4,3.1,10,4.5-5.8,10.6-10.3,17.5-12.8,9.8-3.5,18.7-9.3,25.9-16.7,1.9-2,3.3-5.3,3.1-7.8,4.1.1,8.1,1.6,10.5,4.9,1.1,1.5,1.8,3.2,3.3,4.3,1.5,1,3.4,1.1,4.9,2.1,2.9,2,2.6,6.6,1.1,9.8-1.5,3.2-4,6.2-4.3,9.8-.5,5.8,4.9,10.7,5.4,16.5.5,5.8-3.9,12.1-.8,17.1,1,1.6,2.7,2.8,3.3,4.6.6,1.8-.2,3.8-.3,5.7-.1,3.5,2,6.6,4.1,9.3,2.2,2.9,5.4,6.2,8.8,5,3.9-1.3,3.8-6.7,3.8-10.8,0-4.7,1-9.7,4.4-12.8,3.4-3.2,9.8-3.3,12.3.6,1.8,2.8,1.4,6.9,4.1,8.8,2.8,1.9,6.9-.5,8.1-3.8,1.1-3.2.2-6.8-.7-10.1-.8-3.3-1.6-6.9-.2-10.1,7.5-1.8,15-3.7,22.5-5.5,2.5-.6,5.1-1.2,7.6-1-.9,4.6-1.4,9.2-.6,13.7,1.1,6.2,5.2,12.3,11.4,13.7,2.8.7,5.9.3,8.6,1.4,2.8,1.2,4.8,3.7,6.8,6,6.6,7.4,15.8,12.5,25.5,14.3,3.6.7,7.4.9,10.7,2.5,3.3,1.6,6,5.2,5.3,8.8Z"/>
      <path class="cls-2" d="M422,232.5c-1.2,5.5-2.4,11-3.7,16.5-.4,1.6-.7,3.3-1.1,5-2.5-.2-5.1.4-7.6,1-7.5,1.8-15,3.7-22.5,5.5-1.4,3.1-.7,6.8.2,10.1.8,3.3,1.8,6.8.7,10.1-1.1,3.3-5.2,5.7-8.1,3.8-2.7-1.8-2.4-6-4.1-8.8-2.5-3.9-8.8-3.8-12.3-.6-3.4,3.2-4.5,8.2-4.4,12.8,0,4.1,0,9.4-3.8,10.8-3.4,1.2-6.7-2.1-8.8-5-2.1-2.8-4.3-5.9-4.1-9.3,0-1.9.8-3.8.3-5.7-.6-1.8-2.2-3-3.3-4.6-3.1-4.9,1.3-11.3.8-17.1-.5-5.8-5.8-10.7-5.4-16.5.3-3.6,2.7-6.6,4.3-9.8,1.5-3.2,1.9-7.8-1.1-9.8-1.5-1-3.4-1.1-4.9-2.1-1.5-1-2.2-2.8-3.3-4.3-2.4-3.2-6.4-4.8-10.5-4.9-.1-1.6-.9-2.9-2.7-3.1-1.8,2.8-6.3,2.3-8.6,0-2.3-2.3-3.1-5.8-3.7-9-1.1-5.4-2.1-10.9-3.2-16.3-6.1-2.3-10.4-8.6-10.4-15.1,11.3,2.7,22.7,4.7,34.3,6-1,4.3,2.6,9.2,7,8.9,4.4-.3,7.3-6.4,4.3-9.6,14.6.4,29.3-5.3,39.5-15.6,3.7-3.7,7-8.1,11.8-10.2,4.8-2.1,11.8-.4,12.9,4.8.7,3.1-.9,6.1-1.4,9.2-.6,3.1.8,7.2,3.9,7.3,3.9.2,4.5,5.8,3.1,9.4-2.7,6.9-8,12.8-9.5,20-1.5,7.3,4.1,16.8,11.2,14.7-2.5,5.7-1.1,12.9,3.4,17.2,2.8,2.8,6.8,4.3,10.8,4.3Z"/>
      <path class="cls-2" d="M707.2,288.1c-1.2,15.3-4.2,30.6-14.7,41.3-2.9,3-6.4,5.7-7.5,9.7-.9,3.2,0,6.6-.4,9.9-1.5,12.9-19.3,16.2-27.8,25.7-1.6,1.7-2.8,3.7-3.6,5.9-2.2,6.3-.2,13.8-3.7,19.5-2.8,4.5-8.4,6.7-10.9,11.3-3.4,6.3.2,14-.9,21.1-1.8,11.8-15.8,18.2-19.5,29.6-.7,2.2-1,4.4-1.8,6.6-.9,2.5-2.6,4.7-4,6.9-.8,1.3-1.6,2.6-2.3,3.9-8.8-.2-17.6-.4-26.4-.6-6.1-.1-12.2-.3-18.2-1.2-4.1-.7-8.2-1.7-12.4-1.9-7.6-.3-15,2.3-22.4,4-22.8,5-47.6.3-67-12.7-7.1-4.8-14-11.5-14.4-20.1-.2-3.8,1-7.8,0-11.5-.7-2.6-2.3-4.8-4.3-6.7-5.6-5.3-14.4-8.8-15.1-16.4-.2-2.6.6-5.2,1.4-7.6,4.1-11.4,9.9-22.2,17.1-31.9,5.1-7,11.2-13.8,13.1-22.2,2.1-9.1,0-20.6,7.6-26,5.3-3.8,14.4-3.8,15.7-10.1.8-3.6-2-7.2-5.3-8.8-3.3-1.6-7.1-1.9-10.7-2.5-9.8-1.8-18.9-6.9-25.5-14.3-2-2.3-4-4.9-6.8-6-2.7-1.1-5.8-.7-8.6-1.4-6.1-1.4-10.3-7.5-11.4-13.7-.8-4.6-.3-9.2.6-13.7.3-1.7.7-3.3,1.1-5,1.2-5.5,2.4-11,3.7-16.5,2.2,0,4.5-.4,6.5-1.4,9.3-4.4,19.2-7.6,29.3-9.5,10.4-2,21.1-2.5,31.7-3.1-.5-3.9-3-7.6-6.4-9.5,4.2-2.6,9.5-2.7,14.4-2.3,4.5.4,9.1,1.1,13.5,2.1,1.2,6.7,5.4,12.8,10.4,17.5,5.9,5.7,13.1,9.9,19.5,15,2.5,1.9,4.9,4.2,6,7.1,1.7,4.7-.3,10.2,1.7,14.7,2.8,6.4,12.1,7.8,15.2,14.1.7,1.4,1,3,1.8,4.4,2.5,4.9,8.5,5.9,14.4,5.6-1.3,2.2-2.7,4.5-4.1,6.7-1.6,2.7-2.8,7,.1,8.1,2.3.9,4.5-1.5,6.1-3.5,3.3-4.1,7.6-7.2,12.4-9.1,2.4-.9,5.2-1.5,7.4-.2,5.3,3.1,1.8,12.6,6.6,16.5,3.5,2.9,8.5.7,12.8-.7,6-1.9,12.5-1.8,18.4,0-1.8,3-2.6,6.6-2.2,10,2.8-1.4,4.7-3.9,6.5-6.4,6.3-8.5,12.5-16.9,18.8-25.3,1-1.4,2.1-2.8,3.6-3.5,1.5-.7,3.3-.8,4.9-.5,6.5,1.1,11.8,6.1,18.3,7.3,3.2.6,6.5.3,9.8.4,2.6.1,5.1.5,7.6,1.1Z"/>
      <path class="cls-2" d="M398.4,521.7c-1.7,4.7,4.4,9.2,3.9,14.2-.3,3-2.9,5.2-5.1,7.3-7.1,7-10.8,16.6-15.2,25.7-3.4-.1-6.6,2-10.1,1.9-7.4-.2-11.7-9.9-19.1-10.4-2.8-.2-5.4,1-8.1,1.1s-6-1.3-6.2-4c0-1.2.5-2.5.2-3.7-.7-3-5.3-2.3-8.1-3.7-3-1.4-4.2-5.4-7.2-6.8-5.9-2.9-11.6,5.9-18.2,5.6-4.3-.2-7.3-4.3-9.1-8.2-1.8-3.9-3.3-8.3-6.9-10.7-1.3-.9-2.8-1.4-4.2-2.2-4.3-2.5-6.9-7.7-6.3-12.6.3-2.4,1.3-4.8,1-7.3-.3-2.4-2.6-4.9-4.9-4.1.9-5.1,1.8-10.2,2.7-15.3.2-1.2.4-2.6-.1-3.7-1.1-2.2-4.4-2.1-6.5-.9-2.2,1.1-4,3-6.4,3.5-1.9.4-3.9-.1-5.8,0-2.4.2-4.7,1.5-6.8,2.8-.6.4-1.3.8-1.9,1.1,0,0-.1-.2-.2-.3-2-2.9-4.1-5.7-6.5-8.4,2.2-1.2,4.4-2,6.9-2.3,2.9-.4,5.8,0,8.7-.6,2.4-.4,4.6-1.5,6.8-2.5,3.2-1.5,6.3-3,9.5-4.5,6.4-3,12.8-6,19.2-9,3.8-1.8,7.9-3.9,9.4-7.8,1.1-2.8.7-6.4,2.7-8.7,1-1.2,2.6-1.9,4.1-2.5,5.5-2.3,11.2-4.7,17.1-4.6,5.9,0,12.3,3.3,14.1,9,.6,1.9.7,4,2.1,5.5,4.3,4.6,14.5-3.2,17.3,2.4.8,1.6.4,3.6.1,5.4-.3,2.1-.2,4.2.1,6.3.9,6.2,4,12.1,6.2,18.1,3,7.9,4.2,18.1-2,23.9,10-1,20-1.9,29.9-2.9,4.1-.4,9.9.6,9.9,4.8,0,4-5.8,5.4-7.2,9.1Z"/>
      <path class="cls-2" d="M808.4,328.8c-1.5,3.3-3.7,6.4-6.4,8.9-6.3,5.9-15.8,10.1-16.8,18.7-.5,4.4,1.5,8.7,1.3,13.1-.2,5.7-3.9,10.5-6.9,15.4-3,4.9-5.3,11-2.6,16.1,2.4,4.5,8.6,7.8,7.6,12.8-1.1,5.8-9.5,5.4-15.2,3.9-4.3-1.2-8.8-2.1-13.2-1.5-4.4.7-8.8,3.3-10.3,7.5-1.5,4.1-1.6,10.3-6,10.5-1.4,0-2.7-.8-4-1.3-7-2.9-15.3,1.4-19.4,7.8-4.1,6.4-5.1,14.2-5.9,21.7-.8,7.3-1.2,15.7,4.1,20.7,2.3,2.1,5.5,3.4,7,6.2,1.6,2.9.7,6.4.5,9.8,0,.7,0,1.3,0,2-1.3-1.6-2.2-3.4-2.6-5.5-2.6.5-5.1,1.5-7.3,2.9-1-4.8-3.7-9.4-8.3-9.3-1.5,0-3.1.7-4.6.3-2.4-.6-3.5-3.5-3.3-6,.1-2.5,1-4.9.6-7.4-.4-3.2-2.8-5.9-3.5-9-1-4.9,2.3-9.6,4-14.4,1.7-4.8.5-11.8-4.5-12.3-3.4-.3-7.5,2.8-10,.4-3.8-3.6,4.6-10.9.9-14.6-2.7-2.7-8.8.5-10.5-2.9-.7-1.4,0-3.1.5-4.5,4.1-9.7,6.5-20.1,7.2-30.6-4.7,1.7-8.1-4.2-11.3-7.9-3.2-3.7-7.9-5.4-12.7-5.5,8.5-9.4,26.2-12.8,27.8-25.7.4-3.3-.4-6.7.4-9.9,1.1-4,4.6-6.7,7.5-9.7,10.4-10.8,13.5-26,14.7-41.3,3.8.9,7.5,2.2,11.2,3.5,1.3.5,2.7,1,3.5,2.1.8,1.1.8,2.4,1,3.7.5,3.6,2.2,7,4.8,9.5.8-2.1,1-4.4.4-6.6,7.5.2,14.8,4.6,18.6,11.1.5.9,1,1.9,1,3,0,1.2-.6,2.4-1.1,3.5-2.5,5.3-3.8,11.1-4,16.9.8,1.4,3.1,1.2,4.3,0,1.1-1.2,1.5-2.9,1.9-4.5,1.4-5.2,4.5-10.2,9.3-12.6,7.7-4,16.3-4.1,24.3-.9,1.8.8,3.7,1.7,4.8,3.3,1.1,1.6,1.5,3.9,3.3,4.7,5.4,2.6,11.6,3.3,17.8,3.9Z"/>
      <path class="cls-2" d="M835.1,427.8c-.5,1.3-1.3,2.4-2.3,3.5-2.4,2.8-5.4,5.3-4.5,8.6.4,1.5,1.7,2.8,1.9,4.4.2,1.7-.9,3.3-2,4.6-3.6,4.2-7.7,7.9-11.6,11.8-1.3-1.2-2.9-1.8-4.6-1.4-3.6,1-4,6-6.3,9-4.4,5.7-14.2,2.6-20.1,6.8-1.6,1.2-2.9,2.8-4.7,3.7-3.9,1.8-8.2-1.1-12-3-3.9-1.9-10-1.9-10.9,2.3-1.1,4.6,5.8,7.9,5.7,12.6,0,3.3-3.3,5.6-6.5,6.4-3.2.8-6.6.8-9.5,2.3-2.4,1.3-4.3,3.5-6.5,5-5.9,4.1-14.6,1.9-19.1-3.5,0-.7,0-1.3,0-2,.2-3.3,1-6.8-.5-9.8-1.5-2.8-4.7-4.1-7-6.2-5.3-5-4.9-13.4-4.1-20.7.8-7.5,1.8-15.4,5.9-21.7,4.1-6.4,12.4-10.7,19.4-7.8,1.3.5,2.6,1.3,4,1.3,4.3-.2,4.4-6.5,6-10.5,1.6-4.2,5.9-6.8,10.3-7.5,4.4-.7,8.9.3,13.2,1.5,5.7,1.6,14.1,1.9,15.2-3.9.9-5-5.2-8.3-7.6-12.8-2.7-5-.3-11.2,2.6-16.1,2.9-4.8,6.7-9.7,6.9-15.4.2-4.4-1.8-8.7-1.3-13.1,1.1-8.5,10.6-12.8,16.8-18.7,2.7-2.5,4.8-5.6,6.4-8.9,4,.4,8,.8,11.8,1.7-3.3,8.3-2.1,18.6,4.3,24.9,3.6,3.6,9,7.8,7,12.4-.7,1.7-2.4,2.8-3.3,4.4-3,5.3,2.9,11,4.9,16.8,2.8,8-2.2,16.8-.4,25.1,1,4.6,4.2,9.3,2.5,13.7Z"/>
      <path class="cls-2" d="M961.1,459.9c-.7,3.7-2.4,7-4.1,10.3l-1.7,3.3c-11,2-23.4-3.4-33.6,1.6-5.3,2.6-10.3,7.9-16,6.1-2.6-.8-4.5-3-6.8-4.4-4.7-2.9-10.8-2.4-15.8-.1-.7.3-1.4.7-2.1,1.1-2.3-4.7-6.3-8.7-11-11-8.6-4.1-19.2-2.9-27.3,2.1-3.1,1.9-5.8,4.4-9.1,5.8-3.3,1.4-7.5,1.6-10.2-.8-2.5-2.2-3-5.9-4.1-9.1-.5-1.5-1.5-3.1-2.7-4.2,3.9-3.9,8-7.6,11.6-11.8,1.1-1.3,2.3-2.9,2-4.6-.2-1.6-1.4-2.8-1.9-4.4-.9-3.3,2.1-5.8,4.5-8.6,8.6.6,17,4,23.2,10,1.4,1.3,2.8,2.8,4.6,3.5,2,.7,4.1.2,6.2-.8,4.8-2.2,9.6-6.7,13.7-3.8,1,.7,1.7,1.8,2.6,2.6,2.5,2,6.2,1.3,8.7-.6,2.5-1.9,4-4.8,5.4-7.6,2.6-2.4,6.7.7,7.9,4,1.2,3.3,1.6,7.4,4.6,9.3,5,3.2,10.7-2.9,16.2-5.1,6.6-2.7,14,.5,21.1,1.7,4.3.7,8.8.6,13.1-.3.6,5.3,1.9,10.5.9,15.7Z"/>
      <path class="cls-2" d="M893.6,542.4s0,0,0,0c-3.2,7.3-7.8,13.8-13.6,19.3-2.3,2.2-5.4,4.4-8.5,3.5-1.2-.3-2.4-1.1-3.6-.9-1.3.2-2.1,1.4-2.7,2.5-2.6,4.7-4.2,10-4.7,15.4-.3,2.5-.3,5-.2,7.5.3,5.9,1.7,12.3-1.2,17.5-3.3,5.7-1.7,13.5,2.2,18.8,1.3,1.7,2.8,3.3,3.3,5.3,1.1,5.2-5.2,8.5-8.4,12.7-6,7.9-1.4,21-8.4,27.9-2.6,2.6-6.3,3.7-9.4,5.6-2.3,1.4-4.5,3.6-5.1,6.2-.8-.8-1.6-1.6-2.3-2.4-2.3-2.7-4.5-5.9-7.9-7-.2,0-.5-.2-.7-.2,1.5-3.5,3.6-7.1,2.3-10.6-.6-1.5-1.7-2.7-2.4-4.1-2.3-5.3,3-10.6,7.4-14.5s8.3-11,3.9-14.9c-3.7-3.3-10.4-.7-13.9-4.1-1.2-1.2-1.8-2.8-2.7-4.2-6.5-10-25.6-4.2-31.3-14.6-1.2-2.1-1.5-4.5-3-6.4-4.3-5.4-12.9-1.3-19.8-1.9-11-.9-19.4-14.4-30.1-11.6-8.3,2.2-12.4,13.6-21,13.9-3.8.1-7.3-2.1-10.9-3.8-.4-7.6,0-15.3,1.6-22.7.3-1.5.6-3,.2-4.4-.5-1.5-1.8-2.7-2.7-4-1.9-2.6-2.4-5.8-2.2-9h0c.2-2.2.6-4.4,1.3-6.4,1.6-5.1,4.1-10,4.2-15.3.2-5.3-2-10.3-2.3-15.6-.6-8.5,4.3-16.9,11.5-21.3,2.3-1.4,4.7-2.4,7.3-2.9.4,2.1,1.3,3.9,2.6,5.5,4.4,5.4,13.1,7.6,19.1,3.5,2.3-1.6,4.1-3.8,6.5-5,2.9-1.5,6.3-1.5,9.5-2.3,3.2-.8,6.4-3.1,6.5-6.4,0-4.8-6.8-8-5.7-12.6,1-4.2,7.1-4.2,10.9-2.3,3.8,1.9,8.1,4.7,12,3,1.8-.8,3.1-2.5,4.7-3.7,5.9-4.2,15.7-1.1,20.1-6.8,2.3-3,2.6-7.9,6.3-9,1.7-.5,3.3.2,4.6,1.4,1.2,1.1,2.2,2.7,2.7,4.2,1.1,3.2,1.6,6.8,4.1,9.1,2.7,2.4,6.9,2.2,10.2.8,3.3-1.4,6.1-3.9,9.1-5.8,8.1-5.1,18.7-6.3,27.3-2.1,4.8,2.3,8.7,6.3,11,11,1.9,3.8,2.8,8,2.2,12.3-.2,1.4-.5,2.8-.9,4.2-.6,2.3-1.3,4.7-1.6,7.1-.4,3.8.9,8.3,4.4,9.9-7.2,2.7-9,14-2.9,18.8,1.8,1.5,4.1,2.3,5.9,3.9,2.2,2,3.3,4.8,4.8,7.4.2.4.4.7.7,1.1Z"/>
      <path class="cls-2" d="M835,707.8c-3.3,4.1-7.6,7.4-9.8,12.1-1.6,3.3-2.1,7.1-3.9,10.4-4,7.3-13.8,10.4-16.5,18.2-.2.7-.4,1.4-.6,2.2-2.8-1.3-5.7-2.4-8.8-3.1-2.6-.6-5.3-1.1-7.6-2.4-1.3-.8-2.4-1.9-3.6-2.8,0,0,0-.2,0-.2.3-3.5-2.2-6.6-2.5-10-.5-8.3,11-11.7,15.3-18.8,4.4-7.3.5-17.3,4.2-24.9,1.5-3.2,4.2-5.6,6.8-8,4-3.6,9.1-7.5,14.2-6.3.2,0,.5.1.7.2,3.4,1.1,5.6,4.3,7.9,7,.7.8,1.5,1.7,2.3,2.4-.2.9-.2,1.8,0,2.7.7,2.8,3.3,4.5,4.8,7,2.6,4.5.3,10.3-2.9,14.4Z"/>
      <path class="cls-2" d="M637.3,898.2c-1.3,3.8-2.8,7.6-5.5,10.5-2.8,3-6.8,4.6-10.2,7-3.4,2.4-6.3,6.3-5.4,10.4,0,.3.1.7,0,1-1.4-2.2-3.3-4.1-5.4-5.6-1.1-.8-2.3-1.5-3-2.6-2.8-4.5,4.1-9.1,5.1-14.3,1.1-5.9-5.8-10.2-11.8-10.6-6-.4-12.3,1-17.7-1.6-1.9-7.6-9-12.6-15.5-17-1.6-1.1-3.4-2.2-5.4-2.1-1.8.1-3.4,1.3-5.2,2-4.4,1.6-9-.7-13.3-2.5-5.9-2.3-12.3-3.6-18.6-3.8,2.5-1.3,4.9-2.7,6.6-4.9,3.8-4.6,3.4-11,2.1-17.1.3,0,.5-.1.8-.2,12.4-2.6,25.1,7.4,37.4,4.5,6.9-1.6,12.3-6.9,19.2-8.8,10.8-2.9,21.7,3.4,31.1,9.5-2-3,0-7.2,3.2-8.9,3.1-1.7,6.9-1.5,10.4-1.3,2.5.2,5,.3,7.5.5-.9,1.2-1.8,2.4-2.6,3.7-.7,1.1-1.5,2.2-1.7,3.5-.4,2.2.8,4.3,1.7,6.3,5.8,13.3,1,28.6-3.8,42.3Z"/>
      <path class="cls-2" d="M700.8,519.6c.3,5.3,2.5,10.3,2.3,15.6-.2,5.3-2.6,10.3-4.2,15.3-.7,2-1.1,4.2-1.3,6.4-6.4-1.1-12.9-2.1-18.4.9-4.1,2.2-7.8,6.6-12.4,5.8-4.7-.9-6.7-6.7-10.9-8.9-2.9-1.5-6.4-1.1-9.6-.7-5.5.7-10.9,1.4-16.4,2.2-2.1.3-4.3.6-6.3-.3-5.4-2.3-4.9-10.3-8.9-14.5-4,1.6-7.8,3.7-11.3,6.3,0-.3.1-.5.2-.8.9-3.2,2.4-6.2,3.1-9.4,1.8-7.9-1.2-16.1-2.3-24.1-1.7-11.6.5-23.6,5.9-33.9.7-1.3,1.5-2.7,2.3-3.9,1.4-2.2,3.1-4.4,4-6.9.8-2.1,1.1-4.4,1.8-6.6,3.7-11.4,17.7-17.8,19.5-29.6,1.1-7.1-2.5-14.8.9-21.1,2.5-4.6,8.1-6.8,10.9-11.3,3.5-5.7,1.4-13.2,3.7-19.5.8-2.3,2-4.2,3.6-5.9,4.8,0,9.5,1.8,12.7,5.5,3.2,3.8,6.6,9.6,11.3,7.9-.7,10.5-3.1,20.9-7.2,30.6-.6,1.4-1.3,3.1-.5,4.5,1.7,3.4,7.8.2,10.5,2.9,3.7,3.7-4.7,11-.9,14.6,2.5,2.4,6.6-.7,10-.4,5,.5,6.3,7.5,4.5,12.3-1.8,4.8-5.1,9.4-4,14.4.7,3.2,3.1,5.8,3.5,9,.3,2.5-.5,4.9-.6,7.4-.1,2.5.9,5.4,3.3,6,1.5.4,3-.3,4.6-.3,4.6-.2,7.3,4.5,8.3,9.3-7.2,4.4-12,12.8-11.5,21.3Z"/>
    </g>
    <path class="cls-8" d="M597.2,285.9c-1.1,0-2.2-.3-3.2-.9-.2-.2-1-.6-1.3-1.5-.2-.7-.1-1.5.3-2.4,1-2,2.8-3.1,4.3-4,.8-.5,1.5-1,2.1-1.5.3-.3.6-.6.9-.9,1.6-1.6,4.2-4.3,7.8-2.1,1.7,1,2.2,3.2,1.3,6-.4,1.2-.8,2.3-1.9,3.2-1,.8-2.3,1-3.3,1.1-.6,0-1.1.1-1.5.3-.4.2-.8.5-1.3.9-.5.4-1,.8-1.6,1.2-.9.5-1.8.7-2.8.7ZM596,282.4c.8.4,1.7.4,2.4,0,.4-.2.7-.5,1.1-.8.6-.5,1.2-1,2.1-1.4.8-.3,1.6-.4,2.3-.5.7,0,1.4-.2,1.7-.5.4-.3.6-.9.8-1.6.4-1.2.3-2.1,0-2.3-1.2-.7-2-.3-3.9,1.6-.4.4-.7.7-1,1-.8.7-1.7,1.3-2.5,1.8-1.3.8-2.4,1.5-3.1,2.7Z"/>
    <path class="cls-8" d="M620,265.3c-.2,0-.4,0-.6,0-1.2-.1-2.2-.7-2.7-1.5h0c-.4-.7-.9-1.8-.5-3.3,1.1-4.2,8.2-9.3,10.2-10.2,1.1-.5,2.7-1.1,4.1-.3,1.4.9,1.4,2.6,1.4,4s0,1,0,1.3c.2,0,.5-.1.9-.3.8-.3,2-.8,3.2-.6,1.5.1,2.8,1.1,3.4,2.3.5,1.4.2,3-.9,4.2-.8.9-1.9,1.4-2.8,1.8l-3.4,1.6c-.7.3-1.6.8-2.7.8h0c-.9,0-1.7-.3-2.4-.6-.3-.1-.6-.3-.9-.3-.8-.2-1.8.1-2.8.5-1,.3-2.1.7-3.3.7ZM619.3,262s.2.1.4.1c.8,0,1.7-.2,2.7-.5,1.3-.4,2.8-.9,4.5-.5.5.1,1,.3,1.5.5.5.2.9.4,1.2.4h0c.4,0,.9-.2,1.3-.5l3.4-1.6c.7-.3,1.4-.7,1.8-1.1.3-.3.4-.7.3-.8,0-.1-.3-.3-.7-.3-.4,0-1,0-1.7.4-.6.3-2.6,1.1-4,.1-1.4-.9-1.4-2.7-1.4-4.1s0-.8,0-1.1c-.2,0-.5.2-.8.3-2.1,1-7.8,5.5-8.5,8.2-.1.4,0,.6,0,.7Z"/>
    <path class="cls-8" d="M196.4,527c-1.1,0-2.3,0-3.5-.3-1.1-.1-2-.7-2.7-1.7-1-1.3-1.4-3.3-1.1-5,.3-1.7,1.2-3.1,2-4.3.4-.6.9-1.3,1.2-1.9-3.2-1.5-7.2-.6-11.3.3-3.4.8-6.9,1.6-10.3,1.2-.9-.1-1.8-.3-2.5-1-1.3-1.2-1.2-2.8-1.1-4,0-.6,0-1.2,0-1.5-.1-.4-.7-.7-1.2-1.1-.5-.3-.9-.6-1.3-1-2.8-2.7-1.9-6.3-1.1-9.6.6-2.4,1.2-4.7.4-6.5-1-2.1-3.7-3-6.4-3.7-1.1-.3-2.1-.5-3-.4-1.9.2-3.3,1.9-4.8,3.9-1,1.2-1.9,2.5-3.2,3.5-3.1,2.6-7.8,3.4-12.2,2.1-3.4-1-6.7-3.1-10.1-6.4l-1-.9c-2.2-2.2-4.5-4.5-7.2-4.7-1-.1-2.1,0-3.3.2-1.2.2-2.5.4-3.9.3-2-.2-4.1-1.4-5-3.1-.7-1.3-.8-2.6-.2-3.9.5-1,1.4-1.7,2-2.2.4-.3.8-.6,1-.9.7-.9.3-2.6-.4-3.9-.3-.6-.7-1.1-1.1-1.6-.8-1.2-1.7-2.3-2.1-3.8-.3-.9-.4-1.7-.5-2.5-.1-.7-.2-1.4-.4-2-.5-1.4-1.7-2.7-2.9-3.9-4.6-4.6-9.6-9.1-14.9-13.3-.9-.7-3.7-3.1-3.8-5.9,0-1.2.3-2.2,1.1-3.1.6-.6,1.2-.9,1.8-1.2.2-.1.4-.2.7-.3.9-.6,1.4-1.5,1.6-3.2l.2-1.2h1.2c7-.8,13-.4,18.5,1.1,4.3,1.2,8.4,3.1,12.4,4.9,6.6,3,12.8,5.9,19.6,5.7,2.5,0,5-.6,7.5-1.1,4.3-.9,8.7-1.8,13.1-.6,4.8,1.2,8.6,4.7,12,7.7,14.7,13.2,32.1,27.2,52,26.2.8,0,1.6-.1,2.3-.2,3.3-.3,6.6-.5,9.9.7,2.8,1,5,3,7,5,1.1,1.1,2.2,2.3,3.6,3.8,2.5,2.8,4.7,5.7,6.6,8.6,0,0,.1.2.2.3l.8,1.4-1.3.9c-4.7,2.8-9.3,5.5-14,8.3l-9.1,5.4c-3.5,2.1-7,4.2-9.7,6.9-.9.9-1.7,1.9-2.6,2.9-1,1.2-2.1,2.5-3.3,3.6l-.4.4c-2.2,2.1-7,6.7-15.5,6.7ZM188.2,509.9c2.4,0,4.6.5,6.8,1.9l.9.6-.2,1c-.3,1.7-1.2,3-2,4.2-.7,1-1.4,2-1.5,2.9-.1.9,0,2,.6,2.6.3.4.5.4.6.4,9.2,1.3,14.1-3.3,16.4-5.6l.4-.4c1.1-1,2-2.1,3-3.3.9-1.1,1.8-2.2,2.8-3.2,3-3,6.7-5.2,10.2-7.3l9.2-5.5c4.2-2.5,8.4-5,12.5-7.5-1.7-2.5-3.6-4.8-5.6-7.1-1.4-1.5-2.4-2.7-3.5-3.7-1.7-1.7-3.6-3.4-5.9-4.2-2.6-.9-5.5-.7-8.5-.5-.8,0-1.6.1-2.4.2-21.2,1.1-39.1-13.4-54.3-27-3.3-2.9-6.6-5.9-10.7-7-3.7-.9-7.6-.2-11.7.7-2.6.5-5.3,1.1-8,1.2-7.5.3-14.4-2.9-21-6-3.9-1.8-7.9-3.6-11.9-4.7-4.8-1.3-10.1-1.7-16.2-1.2-.4,1.4-1.1,3.1-2.8,4.2-.3.2-.6.4-.9.5-.4.2-.7.4-.9.5-.2.2-.2.4-.2.6,0,.9,1.2,2.5,2.6,3.6,5.4,4.3,10.5,8.8,15.2,13.6,1.5,1.5,2.9,3.1,3.7,5.2.3.9.4,1.7.5,2.6.1.7.2,1.4.4,2,.3,1,1,2,1.7,3,.4.6.9,1.2,1.2,1.9,1.3,2.1,2,5.2.2,7.5-.5.6-1.1,1.1-1.6,1.5-.5.4-.9.7-1.1,1,0,.1-.2.4,0,.9.4.8,1.5,1.4,2.5,1.5,1,0,2,0,3.1-.3,1.3-.2,2.7-.4,4.1-.3,3.9.4,6.7,3.2,9.2,5.7l.9.9c3.1,3,5.9,4.8,8.8,5.7,3.4,1,7,.4,9.3-1.5,1-.8,1.8-1.9,2.7-3,1.8-2.2,3.7-4.8,7-5.1,1.6-.2,3.1.2,4.2.5,3.3.9,7,2.1,8.5,5.5,1.3,2.8.5,5.8-.2,8.6-.8,3.2-1.2,5.2.2,6.5.3.2.6.5.9.7.8.6,1.9,1.3,2.4,2.5.4,1,.3,2.1.3,3,0,.5,0,1.3,0,1.4,0,0,.2,0,.8.2,2.9.3,6.1-.4,9.2-1.1,2.7-.6,5.4-1.2,8-1.2Z"/>
    <path class="cls-8" d="M243.1,484.7l-.8-.9c-1.4-1.5-2.4-2.7-3.5-3.7-1.7-1.7-3.6-3.4-5.9-4.2-2.6-.9-5.5-.7-8.5-.5-.8,0-1.6.1-2.4.2-21.2,1.1-39.1-13.4-54.3-27-3.3-2.9-6.6-5.9-10.7-7-3.7-.9-7.6-.2-11.7.7-2.6.5-5.3,1.1-8,1.2-7.5.3-14.4-2.9-21-6-3.9-1.8-7.9-3.6-11.9-4.7-5.1-1.4-10.8-1.8-17.4-1.1l-2.1.2.4-2.1c.1-.8.2-1.6.3-2.4.2-2.1.4-4.2,1.4-6.1,1.5-2.6,4.4-4.4,8.2-4.8,2.1-.2,4.1,0,6.1,0,.8,0,1.7.1,2.5.2.8,0,1.7,0,2.4-.3.5-.2.9-.7,1.1-1.4.4-1.1.2-2.6-.4-3.7-.9-1.5-2.3-2.7-3.8-4-.6-.5-1.2-1.1-1.8-1.6-2.5-2.4-2.8-5-2.5-8.2,1.8-17.1,17.7-28.4,30.8-34.9,16.4-8.1,30.3-10.1,41.6-6-3.3-13.8-.4-29.1,7.9-40.6,1.5-2.1,1.7-4.9,1.8-7.7.3-17.1-5.2-33.9-15.7-47.4-1.4-1.8-1.6-3.9-.7-5.8,1.8-3.8,7.8-6.5,12.3-6.5,4.1,0,9.3-1.1,11.1-3.4.4-.5.6-1,.7-1.7-6-1.4-12.3-3.5-15.4-9-2.2-4-.6-9,2-11.8,2.3-2.4,5.2-3,7.9-1.7,11.8,5.8,26.1-2.5,37.2-10.4,1.8-1.3,5.2-3.6,8.6-2.6,4,1.2,5.3,5.5,5.9,9.2l2.6,14.4c2.9-1.5,6.2-2.6,9.4-1.5,2.9.9,4.4,3.9,4.5,6.4,0,1.4-.4,2.6-1.2,3.5,2.2,2.1,5.5,3.2,9.1,2.8,4.2-.5,7.6-2.8,8.9-6.1l1.1-2.8,1.7,2.4c1.5,2.1,2.5,4.5,3,7,4.3-4.6,9.8-8.3,15.7-10.4,9.5-3.4,18.3-9,25.3-16.3,1.6-1.7,2.8-4.6,2.6-6.6l-.2-1.8h1.8c5,.2,9.3,2.2,11.7,5.6.3.5.7,1,1,1.5.6,1,1.2,1.9,1.9,2.4.6.4,1.3.6,2.1.9.9.3,1.9.6,2.8,1.2,3.8,2.6,3.5,7.9,1.6,11.8-.5,1-1,2-1.6,2.9-1.2,2.1-2.4,4.1-2.5,6.3-.2,2.7,1.1,5.3,2.5,8,1.3,2.6,2.6,5.2,2.9,8.2.2,2.6-.4,5.1-1,7.6-.8,3.4-1.5,6.4,0,8.8.3.5.7,1,1.2,1.5.8.9,1.8,2,2.2,3.4.5,1.5.2,3.1,0,4.4,0,.6-.2,1.2-.2,1.8-.1,2.9,1.7,5.6,3.8,8.3,1.9,2.5,4.6,5.3,7,4.4,2.6-.9,2.8-5.1,2.7-9.2,0-4.3.7-10.2,4.9-14.1,2.3-2.1,5.6-3.1,8.7-2.7,2.6.3,4.7,1.6,6,3.6.8,1.3,1.2,2.8,1.6,4.2.5,1.8.9,3.3,2.1,4.1.8.6,1.8.4,2.5.2,1.4-.5,2.7-1.7,3.2-3.2.9-2.7.1-6-.7-9.1-.9-3.6-1.7-7.6,0-11.2l.3-.7,23.3-5.7c2.8-.7,5.4-1.3,8.1-1.1h1.8c0,.1-.3,1.9-.3,1.9-.7,3.7-1.4,8.5-.6,13.2.9,5.2,4.4,11.1,10.1,12.4,1,.2,2.2.3,3.3.4,1.8.1,3.7.3,5.6,1,2.8,1.1,4.7,3.3,6.5,5.4l.9,1c6.4,7.2,15.2,12.1,24.6,13.8.8.1,1.6.3,2.4.4,2.9.4,5.9.9,8.7,2.3,3.8,1.8,7.1,6.1,6.1,10.5h0c-1,4.9-5.6,6.6-10.1,8.2-2.2.8-4.6,1.7-6.3,2.9-4.7,3.4-5.2,9.6-5.8,16.2-.3,3-.5,6-1.2,8.9-1.7,7.4-6.3,13.4-10.8,19.3-.9,1.1-1.7,2.3-2.6,3.4-7.1,9.6-12.8,20.2-16.8,31.5-.8,2.2-1.6,4.6-1.4,6.9.4,4.6,4.6,7.7,9,10.9,1.9,1.4,3.9,2.9,5.6,4.5l1,1-.8,1.1c-1.6,2.2-3.3,4.4-4.9,6.6-1.6,2.1-3.2,4.3-4,6.7-.5,1.6-.7,3.3-.9,5.1-.2,1.6-.3,3.3-.8,5-1.1,4-4.6,8-9,7.3-1.5-.2-2.7-.9-3.8-1.5-.4-.2-.8-.5-1.2-.7-4.3-2.1-9.2-.6-14.4,1-3,.9-6.2,1.9-9.3,2.2-3.9.4-7.9-.4-11.8-1.1-5.5-1-10.7-1.9-15.2.3-3.7,1.8-6.1,5.3-8.2,8.8l-2.3,3.8-.7-4.4c-.4-2.4-.4-4.6-.1-6.7v-.8c.3-1.4.5-2.7,0-3.6-.8-1.6-2.8-1.4-6.7-.7-3.6.7-7.7,1.5-10.3-1.4-1.3-1.3-1.7-3.1-2-4.6-.1-.5-.2-1-.4-1.5-1.6-5.1-7.5-7.8-12.6-7.9-5.6,0-11.2,2.2-16.5,4.5-1.3.6-2.7,1.1-3.5,2.1-.9,1.1-1.2,2.7-1.5,4.4-.2,1.3-.4,2.6-.9,3.8-1.7,4.3-6,6.7-10.2,8.7-4.3,2-8.6,4-12.8,6l-6.4,3c-3.2,1.5-6.3,3-9.5,4.5-2.3,1.1-4.6,2.1-7.1,2.6-1.7.3-3.3.3-5,.4-1.3,0-2.6,0-3.8.2-2.1.3-4.2,1-6.3,2.2l-1.1.6ZM228.4,471.9c1.9,0,3.8.2,5.6.9,2.8,1,5,3,7,5,.9.9,1.8,1.8,2.8,2.9,2.1-1,4.1-1.6,6.3-1.9,1.4-.2,2.8-.2,4.2-.3,1.6,0,3,0,4.4-.3,2.2-.4,4.3-1.4,6.4-2.4,3.2-1.5,6.4-3,9.5-4.5l6.4-3c4.3-2,8.6-4,12.8-6,3.8-1.8,7.4-3.7,8.6-6.9.4-.9.5-2,.7-3.2.3-2,.7-4.2,2.2-6,1.3-1.5,3.2-2.3,4.6-3,5.3-2.2,11.2-4.7,17.4-4.7s.2,0,.4,0c6,0,13.4,3.3,15.6,10.1.2.5.3,1.1.4,1.7.3,1.2.6,2.4,1.3,3.1,1.5,1.6,4.4,1,7.4.4,3.6-.7,8.2-1.6,10.2,2.3,1,1.8.7,3.8.4,5.6v.7c-.2.4-.2.7-.2,1.1,1.8-2.4,4-4.5,6.8-5.9,5.5-2.7,11.4-1.6,17.2-.5,3.6.7,7.4,1.3,10.9,1,2.8-.3,5.8-1.2,8.7-2.1,5.6-1.7,11.3-3.5,16.8-.9.5.2.9.5,1.4.8.9.5,1.8,1,2.7,1.2,2.5.4,4.7-2.3,5.4-5,.4-1.4.5-2.9.7-4.5.2-1.9.4-3.9,1-5.8,1-2.9,2.8-5.4,4.4-7.6,1.3-1.8,2.7-3.6,4-5.4-1.3-1.1-2.8-2.2-4.2-3.3-4.8-3.5-9.7-7.1-10.3-13.2-.3-3,.6-5.8,1.5-8.3,4.2-11.6,10-22.4,17.3-32.3.9-1.2,1.7-2.3,2.6-3.5,4.3-5.6,8.7-11.4,10.2-18.1.6-2.6.9-5.6,1.1-8.5.6-7,1.2-14.3,7.1-18.5,2.1-1.5,4.6-2.4,7.1-3.3,4-1.4,7.4-2.7,8-5.9h0c.6-2.9-1.8-5.7-4.4-7-2.3-1.2-5-1.6-7.7-2-.8-.1-1.7-.3-2.5-.4-10.2-1.9-19.6-7.2-26.4-14.9l-.9-1c-1.7-1.9-3.2-3.7-5.3-4.6-1.4-.6-2.9-.7-4.6-.8-1.2,0-2.5-.2-3.8-.5-7.2-1.6-11.5-8.7-12.6-15-.8-4.4-.3-8.8.3-12.4-1.7.1-3.4.5-5.3,1l-21.7,5.3c-.8,2.5-.2,5.6.5,8.3.9,3.5,1.9,7.3.6,11-.8,2.3-2.8,4.4-5.2,5.1-1.9.6-3.8.4-5.3-.6-2.1-1.4-2.8-3.8-3.4-5.9-.3-1.2-.7-2.4-1.2-3.3-.7-1.2-2.1-2-3.7-2.2-2.2-.3-4.6.4-6.1,1.9-3.3,3-3.9,8-3.9,11.6,0,4,.2,10.6-4.8,12.3-3.4,1.2-7-.7-10.7-5.6-2.3-3.1-4.6-6.5-4.4-10.3,0-.7.1-1.4.2-2.2.2-1.1.3-2.1,0-2.9-.2-.8-.9-1.5-1.6-2.3-.5-.6-1-1.2-1.5-1.9-2.2-3.5-1.3-7.4-.4-11.2.5-2.2,1.1-4.5.9-6.6-.2-2.4-1.3-4.6-2.6-7-1.5-3-3.1-6.1-2.8-9.7.2-2.9,1.6-5.3,3-7.6.5-.9,1-1.8,1.5-2.7,1.3-2.7,1.5-6.4-.5-7.8-.5-.4-1.3-.6-2-.8-.9-.3-2-.6-2.9-1.3-1.3-.9-2.1-2.2-2.8-3.4-.3-.4-.5-.9-.8-1.3-1.6-2.2-4.4-3.7-7.6-4.1-.3,2.5-1.6,5.3-3.5,7.2-7.4,7.6-16.6,13.5-26.6,17.1-6.6,2.3-12.5,6.7-16.8,12.2l-2.9,3.8v-4.8c0-2.3-.4-4.6-1.4-6.7-2.2,3-5.8,5-10,5.5-5.4.6-10.4-1.4-13.1-5.3l-1.2-1.7,1.9-.7c.6-.2.9-.8.9-1.6,0-1.3-.9-3-2.3-3.4-2.8-.9-5.9.7-8.8,2.3l-2,1.1-3.4-18.8c-.5-2.7-1.4-6-3.7-6.7-1.8-.5-4,.8-5.9,2.2-11.8,8.4-27.1,17.2-40.5,10.7-1.9-.9-3.4.3-4.2,1.1-1.8,1.9-2.9,5.5-1.5,8,2.6,4.7,8.5,6.4,14.4,7.7l1,.2.2,1c.4,1.9,0,3.8-1.2,5.3-2.7,3.3-8.8,4.6-13.6,4.6-3.7,0-8.3,2.4-9.4,4.7-.4.9-.3,1.7.3,2.5,10.9,14.1,16.7,31.7,16.4,49.4,0,3.3-.4,6.7-2.4,9.5-8.4,11.6-10.9,27.4-6.5,41l1.1,3.6-3.4-1.7c-10.8-5.3-24.9-3.8-41.9,4.6-12.3,6.1-27.4,16.7-29,32.3-.3,2.8.1,4.2,1.5,5.6.5.5,1.1,1,1.7,1.5,1.6,1.4,3.3,2.9,4.5,4.9,1.1,1.9,1.3,4.3.7,6.3-.5,1.5-1.5,2.7-2.8,3.4-1.3.6-2.7.6-3.9.6-.9,0-1.8-.1-2.6-.2-1.9-.2-3.7-.3-5.4-.1-2.7.3-4.8,1.5-5.8,3.2-.7,1.3-.9,3-1.1,4.8,0,.2,0,.4,0,.6,6.1-.4,11.6,0,16.5,1.4,4.3,1.2,8.4,3.1,12.4,4.9,6.6,3,12.8,5.9,19.6,5.7,2.5,0,5-.6,7.5-1.1,4.3-.9,8.7-1.8,13.1-.6,4.8,1.2,8.6,4.7,12,7.7,14.7,13.2,32.1,27.2,52,26.2.8,0,1.6-.1,2.3-.2,1.4-.1,2.8-.2,4.3-.2Z"/>
    <path class="cls-8" d="M353.8,300.5c-2.8,0-5.7-2-8.6-5.9-2.3-3.1-4.6-6.5-4.4-10.3,0-.7.1-1.4.2-2.2.2-1.1.3-2.1,0-2.9-.2-.8-.9-1.5-1.6-2.3-.5-.6-1-1.2-1.5-1.9-2.2-3.5-1.3-7.4-.4-11.2.5-2.2,1.1-4.5.9-6.6-.2-2.4-1.3-4.6-2.6-7-1.5-3-3.1-6.1-2.8-9.7.2-2.9,1.6-5.3,3-7.6.5-.9,1-1.8,1.5-2.7,1.3-2.7,1.5-6.4-.5-7.8-.5-.4-1.3-.6-2-.8-.9-.3-2-.6-2.9-1.3-1.3-.9-2.1-2.2-2.8-3.4-.3-.4-.5-.9-.8-1.3-1.9-2.6-5.2-4.1-9.2-4.2h-1.4s-.1-1.5-.1-1.5c0-.8-.3-1.2-.6-1.4-.9.9-2.2,1.5-3.7,1.6-2.4.2-4.9-.6-6.6-2.3-2.8-2.8-3.6-6.9-4.2-9.8l-3-15.5c-6.3-2.8-10.6-9.3-10.6-16.2v-2s2,.5,2,.5c11.2,2.6,22.7,4.6,34.1,5.9l1.8.2-.4,1.8c-.4,1.6.1,3.6,1.4,5,1.1,1.3,2.5,2,4,1.9,1.7,0,3.1-1.6,3.7-3,.6-1.5.5-3-.4-4l-2.6-2.8h3.8c14.2.5,28.5-5.2,38.4-15.1.8-.8,1.6-1.6,2.4-2.5,2.9-3.1,5.9-6.3,10-8,3.3-1.4,7.5-1.3,10.6.3,2.4,1.2,4,3.2,4.5,5.6.6,2.5,0,4.9-.7,7.1-.3.9-.5,1.8-.7,2.7-.3,1.7,0,3.5.9,4.6.4.5.9.8,1.5.8,1.7,0,3.1.9,4,2.3,1.8,2.7,1.5,6.7.5,9.2-1.2,3-2.8,5.8-4.4,8.5-2.2,3.7-4.3,7.3-5.1,11.2-.8,3.8.7,8.6,3.6,11.2,1.2,1.1,3.2,2.3,5.7,1.6l3.3-1-1.4,3.1c-2.2,5.1-.9,11.6,3,15.4,2.5,2.4,6,3.8,9.7,3.8h2s-4.1,18.4-4.1,18.4c-.4,1.6-.7,3.3-1,4.9l-.3,1.4h-1.4c-2.2-.2-4.5.3-7.1.9l-21.7,5.3c-.8,2.5-.2,5.6.5,8.3.9,3.5,1.9,7.3.6,11-.8,2.3-2.8,4.4-5.2,5.1-1.9.6-3.8.4-5.3-.6-2.1-1.4-2.8-3.8-3.4-5.9-.3-1.2-.7-2.4-1.2-3.3-.7-1.2-2.1-2-3.7-2.2-2.2-.3-4.6.4-6.1,1.9-3.3,3-3.9,8-3.9,11.6,0,4,.2,10.6-4.8,12.3-.7.2-1.3.3-2,.3ZM320.7,208.2c4.4.4,8.2,2.4,10.4,5.4.3.5.7,1,1,1.5.6,1,1.2,1.9,1.9,2.4.6.4,1.3.6,2.1.9.9.3,1.9.6,2.8,1.2,3.8,2.6,3.5,7.9,1.6,11.8-.5,1-1,2-1.6,2.9-1.2,2.1-2.4,4.1-2.5,6.3-.2,2.7,1.1,5.3,2.5,8,1.3,2.6,2.6,5.2,2.9,8.2.2,2.6-.4,5.1-1,7.6-.8,3.4-1.5,6.4,0,8.8.3.5.7,1,1.2,1.5.8.9,1.8,2,2.2,3.4.5,1.5.2,3.1,0,4.4,0,.6-.2,1.2-.2,1.8-.1,2.9,1.7,5.6,3.8,8.3,1.9,2.5,4.6,5.3,7,4.4,2.6-.9,2.8-5.1,2.7-9.2,0-4.3.7-10.2,4.9-14.1,2.3-2.1,5.6-3.1,8.7-2.7,2.6.3,4.7,1.6,6,3.6.8,1.3,1.2,2.8,1.6,4.2.5,1.8.9,3.3,2.1,4.1.8.6,1.8.4,2.5.2,1.4-.5,2.7-1.7,3.2-3.2.9-2.7.1-6-.7-9.1-.9-3.6-1.7-7.6,0-11.2l.3-.7,23.3-5.7c2.3-.6,4.5-1.1,6.7-1.1.3-1.2.5-2.5.8-3.7l3.3-14.7c-3.8-.4-7.3-2.1-10-4.6-4.3-4.2-6.1-10.7-4.6-16.5-2.1,0-4.2-1-6-2.6-3.6-3.4-5.5-9.4-4.5-14.2.9-4.5,3.2-8.4,5.5-12.2,1.5-2.6,3.1-5.3,4.2-8,.8-2.2.7-4.9-.2-6.3-.4-.6-.8-.8-1.5-.9-1.5,0-2.8-.8-3.8-2-1.4-1.8-2.1-4.6-1.6-7.2.2-1,.5-2,.7-3,.6-2,1.1-3.8.7-5.6-.4-1.8-1.8-2.9-2.9-3.4-2.3-1.2-5.5-1.3-7.9-.2-3.5,1.5-6.1,4.3-8.9,7.3-.8.9-1.6,1.7-2.4,2.5-9.8,9.9-23.9,15.8-38.1,16.1.4,1.4.2,3.1-.4,4.6-1.2,2.9-3.7,4.8-6.4,5-2.4.1-4.9-1-6.6-3.1-1.5-1.8-2.3-3.9-2.2-6.1-10.3-1.2-20.6-3-30.7-5.3.8,5,4.4,9.7,9.2,11.5l.8.3,3.4,17.2c.7,3.3,1.4,6.3,3.3,8.2,1,1,2.6,1.6,4,1.4.7,0,1.6-.3,2.1-1.2l.5-.8h1c1.9.4,3.3,1.5,3.9,3.3Z"/>
    <path class="cls-8" d="M512.8,483.2c-17.6,0-35.3-5.2-49.8-14.9-9.6-6.5-14.7-13.6-15.1-21.3,0-1.6,0-3.2.2-4.7.2-2.3.4-4.5-.1-6.5-.5-2.1-1.8-3.9-3.9-5.9-1.6-1.5-3.5-2.9-5.3-4.2-4.8-3.5-9.7-7.1-10.3-13.2-.3-3,.6-5.8,1.5-8.3,4.2-11.6,10-22.4,17.3-32.3.9-1.2,1.7-2.3,2.6-3.5,4.3-5.6,8.7-11.4,10.2-18.1.6-2.6.9-5.6,1.1-8.5.6-7,1.2-14.3,7.1-18.5,2.1-1.5,4.6-2.4,7.1-3.3,4-1.4,7.4-2.7,8-5.9.6-2.9-1.8-5.7-4.4-7-2.3-1.2-5-1.6-7.7-2-.8-.1-1.7-.3-2.5-.4-10.2-1.9-19.6-7.2-26.4-14.9l-.9-1c-1.7-1.9-3.2-3.7-5.3-4.6-1.4-.6-2.9-.7-4.6-.8-1.2,0-2.5-.2-3.8-.5-7.2-1.6-11.5-8.7-12.6-15-.9-5.2-.1-10.4.6-14.3.3-1.7.7-3.4,1.1-5l4-17.8h1.3c2.1,0,4.1-.4,5.8-1.2,9.5-4.5,19.5-7.7,29.7-9.6,10.1-1.9,20.6-2.5,30-3-.8-2.8-2.7-5.2-5.3-6.6l-2.3-1.3,2.3-1.4c4.8-3,10.7-2.9,15.4-2.6,4.7.4,9.3,1.1,13.7,2.1l1,.2.2,1c1.3,7.2,6.1,13,9.9,16.6,3.6,3.5,7.9,6.5,11.9,9.4,2.5,1.8,5,3.6,7.5,5.5,2.7,2.1,5.3,4.5,6.5,7.8.9,2.5.9,5.2.8,7.7,0,2.5-.1,4.9.8,6.9,1.2,2.8,4.1,4.6,7,6.5,3.2,2,6.4,4,8.1,7.5.4.8.7,1.6.9,2.3.2.7.5,1.4.8,2,1.8,3.5,6.1,5.1,12.9,4.7l3-.2-1.6,2.6c-.9,1.5-1.8,2.9-2.7,4.4l-1.4,2.3c-1.1,1.8-1.7,4-1.3,5.1.1.4.3.6.7.7,1.2.5,2.9-1.3,4.2-3,3.4-4.3,8-7.6,13.1-9.6,3.6-1.4,6.5-1.4,8.8-.1,3.4,2,3.9,6,4.3,9.5.3,2.9.7,5.7,2.5,7.1,2.4,2,6.2.7,9.8-.5.5-.2,1-.3,1.5-.5,6.3-2,13.2-1.9,19.4.1l1.9.6-1.1,1.7c-1.2,1.9-1.8,4-2,6.2,1.4-1.3,2.6-2.9,3.7-4.3l18.8-25.3c1.1-1.4,2.3-3.1,4.2-4,1.6-.8,3.6-1,5.9-.6,3.6.6,6.8,2.3,9.8,3.9,2.9,1.5,5.6,2.9,8.6,3.5,2,.4,4.1.4,6.2.3,1.1,0,2.2,0,3.3,0,2.6.1,5.2.5,7.9,1.1l1.3.3v1.4c-1.1,13.5-3.8,30.5-15.2,42.3-.6.6-1.1,1.1-1.7,1.7-2.4,2.3-4.6,4.5-5.4,7.3-.4,1.6-.4,3.3-.3,5.2,0,1.4.1,2.9,0,4.5-1.1,8.8-8.8,13.4-16.4,17.9-4.3,2.6-8.8,5.2-11.8,8.6-1.5,1.7-2.6,3.5-3.3,5.4-.9,2.5-1,5.3-1.2,8.2-.2,4-.4,8-2.6,11.6-1.5,2.4-3.6,4.1-5.7,5.8-2.1,1.7-4,3.3-5.2,5.4-1.8,3.3-1.4,7.3-.9,11.5.3,3,.7,6.1.2,9.1-1,6.8-5.8,11.9-10.3,16.8-3.9,4.2-7.6,8.1-9.2,13.1-.3.9-.5,1.8-.7,2.7-.3,1.3-.6,2.6-1.1,3.9-.8,2.1-2,4-3.2,5.8-.3.5-.6.9-.9,1.4-.9,1.3-1.6,2.6-2.2,3.8l-.5.9-27.8-.6c-5.9-.1-12.1-.3-18.1-1.2-1.3-.2-2.6-.5-3.9-.7-2.8-.5-5.5-1.1-8.3-1.2-5.4-.2-10.7,1.1-16.3,2.5-1.9.5-3.8,1-5.7,1.4-6,1.3-12.2,2-18.5,2ZM423.3,234.1l-3.4,15.3c-.4,1.6-.7,3.3-1,4.9-.7,3.7-1.4,8.5-.6,13.2.9,5.2,4.4,11.1,10.1,12.4,1,.2,2.2.3,3.3.4,1.8.1,3.7.3,5.6,1,2.8,1.1,4.7,3.3,6.5,5.4l.9,1c6.4,7.2,15.2,12.1,24.6,13.8.8.1,1.6.3,2.4.4,2.9.4,5.9.9,8.7,2.3,3.8,1.8,7.1,6.1,6.1,10.5-1,4.9-5.6,6.6-10.1,8.2-2.2.8-4.6,1.7-6.3,2.9-4.7,3.4-5.2,9.6-5.8,16.2-.3,3-.5,6-1.2,8.9-1.7,7.4-6.3,13.4-10.8,19.3-.9,1.1-1.7,2.3-2.6,3.4-7.1,9.6-12.8,20.2-16.8,31.5-.8,2.2-1.6,4.6-1.4,6.9.4,4.6,4.6,7.7,9,10.9,1.9,1.4,3.9,2.9,5.6,4.5,2.5,2.4,4.1,4.8,4.8,7.4.7,2.5.4,5.1.2,7.5-.1,1.5-.2,2.9-.2,4.3.3,6.6,5,12.9,13.7,18.8,18.9,12.7,43.5,17.4,65.8,12.5,1.9-.4,3.7-.9,5.6-1.4,5.6-1.4,11.3-2.9,17.2-2.6,3,.1,5.9.7,8.7,1.2,1.3.2,2.5.5,3.8.7,5.8.9,11.8,1.1,17.6,1.2l25.8.5c.6-1,1.2-2.1,1.9-3.2.3-.5.6-1,1-1.5,1.2-1.7,2.2-3.4,2.9-5.2.4-1.1.7-2.3,1-3.5.2-1,.5-2,.8-3,1.8-5.6,5.9-10,9.9-14.3,4.4-4.7,8.6-9.2,9.5-15.1.4-2.6,0-5.5-.2-8.3-.5-4.5-1-9.1,1.3-13.3,1.5-2.7,3.8-4.5,6-6.3,1.9-1.6,3.8-3.1,5-5,1.8-2.9,1.9-6.4,2.1-10.1.2-3,.3-6.1,1.4-9.1.8-2.3,2.1-4.4,3.9-6.5,3.4-3.7,8-6.5,12.5-9.2,7.2-4.3,14-8.3,14.8-15.6.2-1.3.1-2.6,0-3.9,0-2-.2-4.1.4-6.2,1-3.6,3.7-6.2,6.2-8.7.6-.5,1.1-1.1,1.6-1.6,10.4-10.7,13-26.2,14.1-38.9-2-.4-4-.7-6-.8-1,0-2.1,0-3.1,0-2.2,0-4.6,0-6.9-.4-3.4-.6-6.5-2.3-9.5-3.8-3-1.6-5.8-3-8.9-3.5-1.6-.3-3-.1-4,.3-1.2.6-2.1,1.8-3,3.1l-18.8,25.3c-1.7,2.4-3.9,5.3-7.1,6.8l-2,1-.3-2.2c-.4-3.2,0-6.4,1.4-9.2-5.1-1.3-10.6-1.1-15.6.4-.5.2-1,.3-1.5.5-4.1,1.3-9.1,3-12.8-.1-2.8-2.3-3.2-6-3.6-9.2-.4-3.2-.7-5.9-2.8-7.1-1.4-.8-3.4-.7-6,.3-4.6,1.8-8.7,4.8-11.8,8.6-1.4,1.8-4.4,5.4-7.9,4-1.2-.5-2.1-1.4-2.5-2.7-.8-2.5.3-5.6,1.6-7.8l1.4-2.3c.4-.6.8-1.3,1.2-1.9-6.5-.2-10.8-2.4-12.9-6.5-.4-.8-.7-1.6-1-2.4-.2-.7-.5-1.4-.8-1.9-1.3-2.7-4.1-4.4-7-6.3-3.3-2.1-6.6-4.2-8.3-7.9-1.2-2.7-1.1-5.5-1.1-8.2,0-2.4,0-4.6-.6-6.5-1-2.6-3.2-4.6-5.5-6.4-2.4-1.9-4.9-3.7-7.3-5.4-4.2-3-8.5-6-12.3-9.7-4-3.8-9-9.8-10.7-17.3-4-.9-8.1-1.5-12.2-1.8-3.6-.3-7.7-.3-11.2,1,2.6,2.3,4.5,5.6,4.9,9.1l.2,1.7h-1.7c-9.8.6-20.9,1.1-31.5,3.1-10,1.9-19.7,5-29,9.4-1.8.8-3.8,1.4-5.9,1.5Z"/>
    <path class="cls-8" d="M578,288.7c-7,0-11.6-2.2-13.8-6.5-.4-.8-.7-1.6-1-2.4-.2-.7-.5-1.4-.8-1.9-1.3-2.7-4.1-4.4-7-6.3-3.3-2.1-6.6-4.2-8.3-7.9-1.2-2.7-1.1-5.5-1.1-8.2,0-2.4,0-4.6-.6-6.5-1-2.6-3.2-4.6-5.5-6.4-2.4-1.9-4.9-3.7-7.3-5.4-4.2-3-8.5-6-12.3-9.7-4.2-3.9-9.4-10.3-10.9-18.4l-.4-2.4,2.4.6c7.7,1.8,15,4.5,21.9,8.1.5-1.1,1.3-2.1,2.4-2.9,3.4-2.4,8.7-2.3,12.2-1.3l1.5.4c4.4,1.3,9,2.7,12,.5,3.3-14.6,10.3-28.1,20.4-39.2,1.2-1.3,2.6-2.7,4.4-3.4,2-.7,4-.5,5.8.6,4,2.5,6.1,9,6.8,14.3,1.8,14.4,7.4,28,16.3,39.4,2,2.6,5,5.5,8,4.7,4.2-1.1,8.8,1.6,10,5.8,1.2,4.1-1.4,8.9-5.5,10.1-8.6,2.7-14.3,7-16.9,13-.2.5-.4,1-.6,1.6-.6,1.5-1.2,3-2.1,4.4-2.1,2.9-5.3,4.4-8.4,5.8-1.3.6-2.4,1.1-3.5,1.7-6.3,3.5-10.3,10.1-13.8,15.9-.2.4-.5.8-.7,1.2l-.4.7h-.8c-.7,0-1.4.1-2,.1ZM513.2,211c1.8,6.1,6,11,9.4,14.2,3.6,3.5,7.9,6.5,11.9,9.4,2.5,1.8,5,3.6,7.5,5.5,2.7,2.1,5.3,4.5,6.5,7.8.9,2.5.9,5.2.8,7.7,0,2.5-.1,4.9.8,6.9,1.2,2.8,4.1,4.6,7,6.5,3.2,2,6.4,4,8.1,7.5.4.8.7,1.6.9,2.3.2.7.5,1.4.8,2,1.7,3.4,5.8,4.9,12.1,4.8,0-.1.2-.3.2-.4,3.6-5.9,8-13.2,15-17.1,1.2-.7,2.5-1.3,3.8-1.8,2.8-1.3,5.5-2.5,7.1-4.7.7-1,1.2-2.3,1.8-3.6.2-.6.4-1.1.7-1.7,3-6.9,9.3-11.8,18.9-14.8h0c2.4-.7,4.1-3.7,3.4-6.2-.7-2.5-3.7-4.2-6.1-3.5-2.6.7-6.6.2-11.3-5.9-9.2-11.9-15.1-26.1-17-41-.6-4.5-2.5-10.2-5.3-11.9-1-.6-1.9-.7-3.1-.3-1.2.4-2.1,1.4-3.1,2.5-9.8,10.8-16.6,24.1-19.7,38.3v.5c-.1,0-.5.3-.5.3-4.4,3.8-10.5,1.9-15.5.4l-1.4-.4c-3.4-1-7.3-.6-9.4.8-1,.7-1.5,1.6-1.6,2.7l-.2,2.5-2.2-1.2c-6.4-3.5-13.3-6.3-20.4-8.2Z"/>
    <path class="cls-8" d="M372.2,572.3c0,0-.1,0-.2,0-4.3-.1-7.6-2.9-10.7-5.6-2.8-2.4-5.4-4.6-8.5-4.8-1.4,0-2.8.2-4.2.5-1.2.3-2.4.5-3.7.6-3.6.2-7.7-1.8-7.9-5.5,0-.7,0-1.4.2-2,0-.5.2-1.1,0-1.4-.2-.9-1.3-1.2-3.5-1.6-1.2-.2-2.5-.5-3.7-1-1.9-.9-3.1-2.5-4.2-3.9-.9-1.2-1.8-2.4-3-2.9-2.3-1.1-4.6.1-8.2,2.3-2.9,1.8-5.9,3.6-9.3,3.4-5.3-.3-8.6-5.1-10.5-9.1-.3-.6-.6-1.2-.8-1.9-1.5-3.3-2.9-6.4-5.5-8.2-.6-.4-1.4-.8-2.2-1.2-.7-.3-1.3-.6-1.9-1-4.8-2.8-7.7-8.6-7.1-14.2.1-.9.3-1.9.5-2.8.3-1.4.6-2.8.5-4.1-.1-1-.8-2.1-1.6-2.6-.6-.4-1-.2-1.2-.2l-2.6,1,3.2-18c.2-.9.3-2,0-2.7-.2-.3-.5-.6-.9-.7-.9-.3-2.3-.1-3.4.5-.7.4-1.4.8-2.1,1.3-1.4,1-2.9,2-4.7,2.4-1.3.3-2.6.2-3.8.1-.8,0-1.5-.1-2.2,0-2.1.2-4.1,1.4-6.1,2.5l-3.3,1.9-1-1.6c-1.9-2.8-4-5.6-6.3-8.2l-1.3-1.5,1.8-1c2.5-1.3,4.9-2.2,7.4-2.5,1.4-.2,2.8-.2,4.2-.3,1.6,0,3,0,4.4-.3,2.2-.4,4.3-1.4,6.4-2.4,3.2-1.5,6.4-3,9.5-4.5l6.4-3c4.3-2,8.6-4,12.8-6,3.8-1.8,7.4-3.7,8.6-6.9.4-.9.5-2,.7-3.2.3-2,.7-4.2,2.2-6,1.3-1.5,3.2-2.3,4.6-3,5.3-2.2,11.2-4.7,17.4-4.7s.2,0,.4,0c6,0,13.4,3.3,15.6,10.1.2.5.3,1.1.4,1.7.3,1.2.6,2.4,1.3,3.1,1.5,1.6,4.4,1,7.4.4,3.6-.7,8.2-1.6,10.2,2.3,1,1.8.7,3.8.4,5.6v.7c-.4,1.8-.3,3.7,0,5.8.7,4.3,2.5,8.7,4.2,13,.7,1.6,1.3,3.2,1.9,4.8,1.7,4.5,4.8,14.9.2,22.5,8.7-.8,17.5-1.7,26.2-2.5,3.2-.3,7.5.1,9.8,2.3,1.2,1.1,1.8,2.5,1.8,4.1,0,3-2.2,4.7-4.2,6.3-1.3,1.1-2.6,2.1-3.1,3.4-.7,1.9.4,3.8,1.7,6.2,1.2,2.2,2.6,4.8,2.3,7.6-.3,3.3-2.7,5.6-4.9,7.6l-.7.7c-5.9,5.8-9.3,13.3-12.9,21.2-.6,1.4-1.2,2.7-1.9,4.1l-.5,1h-1.1c-1.4,0-3,.4-4.6.8-1.7.5-3.4,1-5.2,1ZM352.3,558.7c.2,0,.5,0,.7,0,4.2.3,7.3,3,10.3,5.6,2.8,2.4,5.5,4.7,8.7,4.8,1.4,0,2.9-.4,4.5-.9,1.4-.4,2.9-.9,4.5-1,.5-1,1-2.1,1.4-3.1,3.6-7.8,7.3-15.9,13.6-22.2l.7-.7c1.9-1.8,3.7-3.5,3.9-5.6.2-1.8-.8-3.7-1.9-5.8-1.4-2.6-3-5.6-1.9-8.8h0c.8-2.1,2.5-3.5,4.1-4.8,1.8-1.5,3-2.5,3-3.8,0-.7-.2-1.2-.7-1.7-1.5-1.4-4.8-1.7-7.4-1.5-10,.9-20,1.9-29.9,2.9l-4.6.4,3.4-3.2c6.8-6.5,2.9-18.6,1.6-22.2-.6-1.6-1.2-3.2-1.9-4.7-1.8-4.4-3.7-9-4.4-13.7-.4-2.3-.4-4.5-.1-6.7v-.8c.3-1.4.5-2.7,0-3.6-.8-1.6-2.8-1.4-6.7-.7-3.6.7-7.7,1.5-10.3-1.4-1.3-1.3-1.7-3.1-2-4.6-.1-.5-.2-1-.4-1.5-1.6-5.1-7.5-7.8-12.6-7.9-5.6,0-11.2,2.2-16.5,4.5-1.3.6-2.7,1.1-3.5,2.1-.9,1.1-1.2,2.7-1.5,4.4-.2,1.3-.4,2.6-.9,3.8-1.7,4.3-6,6.7-10.2,8.7-4.3,2-8.6,4-12.8,6l-6.4,3c-3.2,1.5-6.3,3-9.5,4.5-2.3,1.1-4.6,2.1-7.1,2.6-1.7.3-3.3.3-5,.4-1.3,0-2.6,0-3.8.2-1.5.2-3,.6-4.5,1.3,1.7,2,3.2,4,4.6,6l.6-.4c2.1-1.3,4.6-2.7,7.4-3,.9,0,1.8,0,2.7,0,1,0,2,.1,2.9,0,1.2-.3,2.4-1,3.6-1.9.8-.5,1.5-1.1,2.4-1.5,1.8-1,4.1-1.3,5.9-.7,1.3.4,2.3,1.2,2.8,2.3.8,1.6.5,3.4.3,4.7l-2.4,13.3c.5.1,1,.3,1.5.6,1.6,1,2.8,2.9,3.1,4.9.2,1.8-.2,3.5-.5,5.2-.2.8-.4,1.6-.4,2.4-.5,4.3,1.8,8.9,5.5,11.1.6.3,1.1.6,1.7.9.8.4,1.7.8,2.6,1.4,3.4,2.3,5,6,6.6,9.5.3.6.5,1.2.8,1.8,1.2,2.6,3.9,7,7.8,7.3,2.4.1,5-1.4,7.5-3,3.4-2.1,7.3-4.4,11.3-2.4,1.8.9,3,2.5,4.1,3.9,1,1.2,1.9,2.4,3,3,.8.4,1.9.6,2.9.8,2.4.4,5.4,1,6.1,4,.2,1,0,1.9,0,2.7,0,.5-.2.9-.1,1.2.1,1.6,2.4,2.6,4.5,2.5,1,0,2.1-.3,3.2-.5,1.4-.3,2.9-.6,4.4-.6Z"/>
    <path class="cls-8" d="M723.9,505.7l-3-3.7c-1.1-1.4-2-3-2.5-4.6-1.8.5-3.6,1.3-5.3,2.3l-1.9,1.2-.5-2.2c-.8-4-3.1-8.2-6.6-8-.5,0-1,.1-1.5.2-1.1.2-2.3.4-3.5,0-3.4-.8-4.7-4.6-4.5-7.7,0-1,.2-2,.4-3,.2-1.4.4-2.8.3-4.1-.2-1.4-.9-2.8-1.6-4.3-.7-1.4-1.5-2.9-1.9-4.6-.9-4.2.9-8,2.5-11.6.6-1.3,1.1-2.4,1.5-3.6,1-2.8.8-6.3-.5-8.4-.7-1.1-1.6-1.6-2.7-1.7-1,0-2.3.3-3.6.6-2.3.6-5.2,1.4-7.4-.7-2.7-2.6-1.2-6.2,0-9.1,1.2-2.8,1.8-4.5.8-5.5-.8-.8-2.4-.8-4.1-.7-2.4,0-5.3.1-6.7-2.6-1.1-2.1-.1-4.3.5-5.8,3.8-9,6.1-18.4,6.9-28.1-3.8,0-6.7-3.7-9.1-6.8-.6-.7-1.1-1.4-1.6-2-2.7-3.1-6.8-4.9-11.5-4.9h-3.6s2.4-2.7,2.4-2.7c3.4-3.7,8-6.5,12.5-9.2,7.2-4.3,14-8.3,14.8-15.6.2-1.3.1-2.6,0-3.9,0-2-.2-4.1.4-6.2,1-3.6,3.7-6.2,6.2-8.7.6-.5,1.1-1.1,1.6-1.6,10.7-11,13.2-27.4,14.2-40.3v-1.9c.1,0,2,.4,2,.4,3.9.9,7.9,2.3,11.3,3.5,1.3.5,3.2,1.1,4.3,2.7.8,1.2,1,2.6,1.2,3.8v.6c.4,2.2,1.2,4.3,2.4,6.2,0-.9,0-1.8-.3-2.7l-.5-2.1h2.1c8.1.3,15.9,5,19.9,11.9.6,1,1.2,2.3,1.3,3.8,0,1.6-.6,2.9-1.2,4.1-2.3,5-3.7,10.4-3.9,15.7,0,0,0,0,.1,0,.4,0,1-.2,1.4-.5.7-.7,1-1.9,1.3-3.2l.2-.7c1.7-6.2,5.3-11.2,10.1-13.6,7.9-4.1,17-4.4,25.7-.9,1.8.7,4.1,1.9,5.5,3.9.4.6.7,1.3,1,1.9.5,1,.9,1.9,1.6,2.3,5.3,2.5,11.7,3.2,17.3,3.8l2.2.2-.9,2c-1.7,3.6-3.9,6.8-6.7,9.4-1.8,1.7-3.9,3.2-5.8,4.8-5,3.8-9.8,7.4-10.5,12.9-.2,2.1.2,4.2.6,6.5.4,2.1.8,4.2.7,6.5-.2,5.2-3,9.6-5.6,13.8-.5.8-1,1.6-1.5,2.3-2.5,4.1-5,9.9-2.6,14.5.8,1.5,2.1,2.9,3.3,4.2,2.4,2.6,5.2,5.6,4.4,9.6-.4,2-1.5,3.5-3.1,4.6-4.5,2.8-11.9,1.1-14,.5-3.8-1-8.3-2.1-12.6-1.4-4.3.7-7.9,3.2-9.1,6.5-.4,1-.6,2.1-.9,3.3-.9,3.6-2,8.1-6.5,8.3-1.5,0-2.8-.5-3.9-1-.3-.1-.6-.3-.8-.4-6.3-2.6-13.9,1.6-17.5,7.2-4,6.2-4.9,14.1-5.7,21-.8,7.5-1,15,3.6,19.3.7.7,1.6,1.3,2.5,1.9,1.8,1.3,3.7,2.6,4.8,4.7,1.5,2.7,1.2,5.8.9,8.5,0,.7-.1,1.4-.2,2,0,.6,0,1.2,0,1.8v4.8ZM704.3,487.5c4.1,0,7.4,3.1,9.1,8.5,1.9-1,4-1.7,6-2l1.6-.3v.6c.2-1.5,0-3-.6-4.2-.8-1.5-2.3-2.5-3.8-3.6-1-.7-2-1.4-2.9-2.2-5.6-5.3-5.6-13.7-4.6-22,.8-7.3,1.8-15.6,6.1-22.4,4.3-6.6,13.2-11.8,21.4-8.4.3.1.6.3.9.4.9.4,1.7.8,2.4.8,1.9,0,2.6-2.3,3.5-5.9.3-1.2.6-2.5,1.1-3.6,1.6-4.3,6.2-7.7,11.6-8.5,4.9-.7,9.7.4,13.9,1.5,3.6,1,8.8,1.5,11.5-.2.9-.6,1.5-1.4,1.7-2.5.5-2.4-1.4-4.5-3.6-6.9-1.4-1.5-2.8-3.1-3.8-4.9-2.5-4.6-1.5-10.7,2.7-17.6.5-.8,1-1.6,1.5-2.4,2.5-3.9,5-7.9,5.1-12.2,0-1.9-.3-3.7-.7-5.7-.5-2.4-1-4.9-.6-7.5.8-6.9,6.4-11,11.7-15.1,1.9-1.5,3.9-3,5.6-4.5,2-1.9,3.6-4,5-6.4-5.2-.6-10.9-1.4-16-3.8-1.7-.8-2.5-2.4-3.1-3.8-.2-.5-.5-1-.8-1.5-.9-1.4-2.7-2.2-4.1-2.8-7.8-3.1-15.9-2.8-23,.8-3.9,2-7,6.3-8.5,11.6l-.2.6c-.4,1.5-.9,3.2-2.1,4.6-1,1.1-2.6,1.6-4.1,1.5-1.2-.2-2.2-.8-2.7-1.8l-.2-.4v-.4c.1-6,1.5-12.1,4.1-17.5.5-1.1,1-2,.9-2.8,0-.8-.4-1.6-.8-2.2-3.2-5.5-9.1-9.3-15.3-10.1.1,1.8-.1,3.7-.8,5.4l-.9,2.3-1.7-1.7c-2.8-2.8-4.7-6.5-5.3-10.4v-.7c-.2-.9-.3-1.8-.7-2.4-.5-.7-1.5-1.1-2.8-1.5-3-1-6.1-2.1-9.2-3-1.1,13.2-4,29.2-15,40.4-.6.6-1.1,1.1-1.7,1.7-2.4,2.3-4.6,4.5-5.4,7.3-.4,1.6-.4,3.3-.3,5.2,0,1.4.1,2.9,0,4.5-1.1,8.8-8.8,13.4-16.4,17.9-3.3,2-6.6,4-9.4,6.3,4.1.8,7.7,2.7,10.3,5.7.6.7,1.1,1.4,1.7,2.1,3,3.7,5.3,6.3,7.8,5.4l2.3-.8-.2,2.4c-.7,10.7-3.1,21.2-7.3,31.1-.4,1-1,2.4-.6,3.2.4.8,1.5.9,3.8.8,2.2,0,4.7-.1,6.5,1.7,2.6,2.6,1.1,6.2-.2,9.1-1.2,2.8-1.8,4.5-.8,5.5.8.8,2.2.5,4.3,0,1.5-.4,3.1-.8,4.7-.7,2.1.2,3.9,1.3,5.1,3.2,1.8,2.9,2.2,7.5.8,11.2-.5,1.3-1.1,2.6-1.6,3.9-1.5,3.3-3,6.5-2.3,9.6.3,1.3.9,2.5,1.6,3.9.8,1.6,1.7,3.3,2,5.3.2,1.8,0,3.4-.3,5-.1.9-.3,1.8-.3,2.7-.1,1.9.6,4,2.1,4.4.6.1,1.3,0,2.2-.1.6-.1,1.3-.2,1.9-.2,0,0,.2,0,.3,0Z"/>
    <path class="cls-8" d="M734.2,508.2c-5.1,0-10.3-2.5-13.3-6.2l-.3-.4v-.5c0-.7,0-1.4,0-2.1,0-.7.1-1.4.2-2.2.2-2.5.5-4.9-.5-6.7-.8-1.5-2.3-2.5-3.8-3.6-1-.7-2-1.4-2.9-2.2-5.6-5.3-5.6-13.7-4.6-22,.8-7.3,1.8-15.6,6.1-22.4,4.3-6.6,13.2-11.8,21.4-8.4.3.1.6.3.9.4.9.4,1.7.8,2.4.8,1.9,0,2.6-2.3,3.5-5.9.3-1.2.6-2.5,1.1-3.6,1.6-4.3,6.2-7.7,11.6-8.5,4.9-.7,9.7.4,13.9,1.5,3.6,1,8.8,1.5,11.5-.2.9-.6,1.5-1.4,1.7-2.5.5-2.4-1.4-4.5-3.6-6.9-1.4-1.5-2.8-3.1-3.8-4.9-2.5-4.6-1.5-10.7,2.7-17.6.5-.8,1-1.6,1.5-2.4,2.5-3.9,5-7.9,5.1-12.2,0-1.9-.3-3.7-.7-5.7-.5-2.4-1-4.9-.6-7.5.8-6.9,6.4-11,11.7-15.1,1.9-1.5,3.9-3,5.6-4.5,2.5-2.4,4.5-5.2,6-8.4l.5-1,1.7.2c3.8.4,7.7.8,11.4,1.7l1.8.4-.7,1.7c-3.3,8.1-1.6,17.6,4,23.2.4.4.9.9,1.4,1.3,3.7,3.5,8.2,7.8,5.9,12.9-.5,1.2-1.3,2.1-2,2.9-.5.6-1,1.1-1.3,1.7-1.6,2.9.2,6.1,2.3,9.9,1,1.8,2,3.7,2.7,5.6,1.6,4.6.8,9.4,0,14-.6,3.9-1.2,7.7-.5,11.2.3,1.3.8,2.7,1.3,4.1,1.2,3.4,2.5,7,1.1,10.6-.6,1.6-1.6,2.9-2.5,4-.4.4-.8.9-1.2,1.3-2.2,2.4-3.5,4-3,5.8.1.5.4,1,.7,1.5.5.9,1,1.9,1.2,3.1.3,2.3-1.1,4.2-2.4,5.8-2.8,3.2-5.9,6.3-8.8,9.2-.9.9-1.9,1.8-2.8,2.8l-1.1,1.1-1.1-1c-.7-.7-1.8-1.4-3-1-1.5.4-2.2,1.9-3.3,4.4-.6,1.4-1.2,2.8-2.2,4.1-2.8,3.7-7.3,4.2-11.7,4.7-3.3.4-6.4.8-8.7,2.4-.6.4-1.1.9-1.6,1.4-1,.9-2,1.9-3.4,2.5-4.1,1.8-8.2-.3-11.8-2.2-.6-.3-1.1-.6-1.6-.8-2.3-1.1-5.4-1.4-7.2-.5-.8.4-1.3,1-1.5,1.8-.4,1.6.7,3,2.4,5.2,1.6,2,3.4,4.2,3.3,7,0,4.1-3.9,7-7.7,7.9-1.2.3-2.4.5-3.6.7-2,.3-3.9.6-5.6,1.5-1.3.7-2.4,1.6-3.5,2.7s-1.8,1.6-2.8,2.3c-2.4,1.7-5.2,2.4-7.9,2.4ZM723.8,500.4c3.8,4.2,11.3,6.4,16.6,2.8.9-.6,1.7-1.3,2.5-2,1.3-1.1,2.6-2.3,4.2-3.1,2.1-1.1,4.4-1.5,6.6-1.8,1.1-.2,2.2-.4,3.3-.6,2.5-.7,5.3-2.5,5.3-4.9,0-1.7-1.3-3.3-2.6-5-1.8-2.2-3.8-4.8-3-8,.4-1.8,1.5-3.1,3.2-3.9,3.1-1.5,7.2-.8,10,.5.6.3,1.1.6,1.7.9,3.1,1.6,6.3,3.3,9,2.1.9-.4,1.7-1.1,2.5-1.9.6-.5,1.2-1.1,1.9-1.6,3-2.1,6.7-2.5,10.2-3,3.9-.5,7.5-.9,9.5-3.5.7-.9,1.2-2.1,1.8-3.4,1.1-2.5,2.3-5.3,5.3-6.2,1.6-.5,3.3-.2,4.9.8.6-.6,1.2-1.2,1.8-1.8,2.9-2.9,6-5.8,8.6-8.9.9-1.1,1.8-2.3,1.7-3.3,0-.6-.4-1.2-.8-1.9-.4-.7-.8-1.4-1-2.3-1-3.7,1.5-6.4,3.7-8.8.4-.4.7-.8,1.1-1.2.7-.9,1.6-1.9,2-3h0c1-2.5,0-5.3-1.1-8.3-.5-1.4-1.1-2.9-1.4-4.5-.9-4.1-.2-8.4.4-12.4.7-4.4,1.4-8.6,0-12.5-.6-1.6-1.5-3.4-2.5-5.1-2.2-4-4.8-8.6-2.3-13,.5-.9,1.1-1.6,1.7-2.3.6-.7,1.2-1.3,1.5-2.1,1.3-2.8-1.4-5.6-5.2-9.3-.5-.5-1-.9-1.4-1.4-6.2-6.1-8.2-15.9-5.3-24.9-2.8-.5-5.8-.9-8.7-1.2-1.6,3.2-3.7,6-6.2,8.4-1.8,1.7-3.9,3.2-5.8,4.8-5,3.8-9.8,7.4-10.5,12.9-.2,2.1.2,4.2.6,6.5.4,2.1.8,4.2.7,6.5-.2,5.2-3,9.6-5.6,13.8-.5.8-1,1.6-1.5,2.3-2.5,4.1-5,9.9-2.6,14.5.8,1.5,2.1,2.9,3.3,4.2,2.4,2.6,5.2,5.6,4.4,9.6-.4,2-1.5,3.5-3.1,4.6-4.5,2.8-11.9,1.1-14,.5-3.8-1-8.3-2.1-12.6-1.4-4.3.7-7.9,3.2-9.1,6.5-.4,1-.6,2.1-.9,3.3-.9,3.6-2,8.1-6.5,8.3-1.5,0-2.8-.5-3.9-1-.3-.1-.6-.3-.8-.4-6.3-2.6-13.9,1.6-17.5,7.2-4,6.2-4.9,14.1-5.7,21-.8,7.5-1,15,3.6,19.3.7.7,1.6,1.3,2.5,1.9,1.8,1.3,3.7,2.6,4.8,4.7,1.5,2.7,1.2,5.8.9,8.5,0,.7-.1,1.4-.2,2,0,.4,0,.8,0,1.3Z"/>
    <path class="cls-8" d="M862.6,446.7c-.8,0-1.6-.1-2.4-.4-2-.7-3.5-2.1-4.8-3.4l-.4-.4c-5.8-5.5-13.7-8.9-22.2-9.6l-3.2-.2,2.1-2.4c.7-.9,1.6-1.9,2-3,1-2.5,0-5.3-1.1-8.3-.5-1.4-1.1-2.9-1.4-4.5-.9-4.1-.2-8.4.4-12.4.7-4.4,1.4-8.6,0-12.5-.6-1.6-1.5-3.4-2.5-5.1-2.2-4-4.8-8.6-2.3-13,.5-.9,1.1-1.6,1.7-2.3.6-.7,1.2-1.3,1.5-2.1,1.3-2.8-1.4-5.6-5.2-9.3-.5-.5-1-.9-1.4-1.4-6.6-6.5-8.5-17.2-4.7-26.6l.4-1h1.6c1.6.4,3.5.9,5,.5,1.1-.3,2.1-.9,3.2-1.5.8-.5,1.6-1,2.5-1.3,3.6-1.6,7.6-1.2,11.3-.8,19.7,2.6,32.4,9.1,38.7,19.9.9,1.6,1.7,3.2,2.4,4.8.9,1.9,1.7,3.6,2.7,5.2,3.7,5.8,9.9,9.6,15.4,13,1.4.9,2.8,1.7,4.2,2.5l1.8,1.1-1.5,1.5c-4.2,4-8.2,7.2-12.3,9.5-1,.6-2,1.1-3.1,1.7-4.4,2.4-8.6,4.6-10.5,8.6-1.3,2.7-1.4,6-1.6,9.4-.1,3.4-.2,6.9-1.6,10-.5,1-1.1,2-1.8,2.8-1.1,1.2-2.4,2.1-3.6,3-1,.7-2,1.4-2.8,2.2-3.2,3.3-3.8,8.6-2.1,16.5.2.7.3,1.4.5,2.2.3,1.3.6,2.7.9,4l.3,1.3-1.2.5c-1.3.6-3,1.2-4.9,1.2ZM835.8,430.1c8.2,1.2,15.7,4.7,21.4,10.1l.4.4c1.2,1.1,2.3,2.2,3.6,2.7,1.1.4,2.3.3,3.8-.2-.2-.9-.4-1.7-.6-2.6-.2-.7-.4-1.5-.5-2.2-2.1-9-1.1-15.3,2.9-19.4,1-1,2.1-1.8,3.2-2.6,1.1-.8,2.2-1.6,3.1-2.5.5-.6.9-1.2,1.3-2,1.2-2.5,1.3-5.6,1.4-8.8.1-3.6.2-7.4,1.9-10.7,2.4-4.9,7.2-7.5,11.9-10,1-.5,2-1.1,3-1.6,3.4-1.9,6.7-4.4,10.1-7.6-.8-.5-1.6-1-2.4-1.5-5.8-3.6-12.4-7.6-16.4-14-1.1-1.8-2-3.7-2.9-5.6-.7-1.6-1.4-3.1-2.3-4.5-5.8-9.9-17.7-15.9-36.3-18.3-3.3-.4-6.7-.7-9.6.5-.7.3-1.4.7-2.1,1.2-1.3.8-2.6,1.6-4.2,1.9-1.8.4-3.6.2-5.2-.2-2.6,7.8-.9,16.6,4.4,21.9.4.4.9.9,1.4,1.3,3.7,3.5,8.2,7.8,5.9,12.9-.5,1.2-1.3,2.1-2,2.9-.5.6-1,1.1-1.3,1.7-1.6,2.9.2,6.1,2.3,9.9,1,1.8,2,3.7,2.7,5.6,1.6,4.6.8,9.4,0,14-.6,3.9-1.2,7.7-.5,11.2.3,1.3.8,2.7,1.3,4.1,1.2,3.4,2.5,7,1.1,10.6-.2.6-.5,1.1-.8,1.6Z"/>
    <path class="cls-8" d="M900.7,426.8c-3.4,0-5.8-3.3-6.6-6.6-.1-.6-.3-1.3-.4-1.9-.4-1.9-.7-3.8-1.8-5-1.6-1.7-4.5-2.1-9-1.1-2.2.5-4.4,1-6.6,1.7l-3.4,1,1.5-3.2c1.1-2.5,1.2-5.5,1.3-8.8.1-3.6.2-7.4,1.9-10.7,2.4-4.9,7.2-7.5,11.9-10,1-.5,2-1.1,3-1.6,3.9-2.2,7.7-5.2,11.6-9l.9-.9,1.1.6c5.9,3.5,12.3,6.9,19.3,8.1,2.2.4,4.6.6,6.9.7,4.7.3,9.5.7,13.9,2.9,9.6,4.8,13.2,16.1,15.8,26.3,1,4.2,2.1,8.4,2.1,12.9,0,.5,0,.9,0,1.4l-.2,2-1.9-.6c-3.9-1.3-7.7-3-11.1-5.2-.6-.4-1.3-.8-1.9-1.2-2.3-1.5-4.4-2.9-6.8-3.6-2.6-.7-6.1-.2-7.5,2.1-.2.3-.3.7-.5,1.1-.4.9-.8,1.9-1.7,2.7-1.1,1-2.6,1.5-4.7,1.4-2.5,0-5-.6-7.4-1.1-4.5-.9-8.7-1.8-11.8.6-.6.5-1.1,1.1-1.7,1.7-1.5,1.6-3.1,3.4-5.7,3.4,0,0-.1,0-.2,0ZM887.1,408.4c3.1,0,5.5.9,7.1,2.7,1.7,1.9,2.2,4.4,2.6,6.5.1.6.2,1.2.4,1.8.5,2.1,1.9,4.3,3.5,4.2,1.2,0,2.3-1.1,3.4-2.4.6-.7,1.3-1.4,2.1-2,4.2-3.4,9.4-2.3,14.4-1.2,2.3.5,4.7,1,6.8,1,1.2,0,2-.2,2.5-.6.4-.3.6-.9.9-1.6.2-.5.4-.9.7-1.4,2.2-3.8,7.3-4.7,11.1-3.6,2.9.8,5.4,2.4,7.7,4,.6.4,1.2.8,1.8,1.2,2.6,1.7,5.4,3,8.4,4.2,0-3.8-1-7.5-2-11.2-2.4-9.5-5.7-20.1-14.1-24.2-3.8-1.9-8.2-2.2-12.7-2.6-2.4-.2-4.8-.3-7.2-.8-7.1-1.2-13.4-4.5-19.3-7.9-3.8,3.6-7.6,6.5-11.4,8.7-1,.6-2,1.1-3.1,1.7-4.4,2.4-8.6,4.6-10.5,8.6-1.3,2.7-1.4,6-1.6,9.4,0,2.3-.2,4.7-.7,7,1.3-.3,2.6-.7,3.9-.9,1.8-.4,3.5-.6,4.9-.6Z"/>
    <path class="cls-8" d="M912.9,450.5c-1.3,0-2.6-.3-3.9-1.2-2.7-1.8-3.6-4.9-4.4-7.6-.2-.8-.5-1.6-.8-2.4-.6-1.7-2.3-3.4-3.8-3.7-.7-.2-1.1,0-1.4.2-1.4,2.7-3,5.8-5.7,7.8-2.9,2.2-7.5,3.1-10.7.6-.6-.4-1-.9-1.4-1.4-.4-.4-.8-.8-1.2-1.1-2.1-1.5-4.5-.3-8.3,1.9-1.2.7-2.5,1.4-3.8,2l-1.8.8-.4-2c-.3-1.3-.6-2.6-.9-3.9-.2-.7-.4-1.5-.5-2.2-2.1-9-1.1-15.3,2.9-19.4,1-1,2.1-1.8,3.2-2.6,1.1-.8,2.2-1.6,3.1-2.5.5-.6.9-1.2,1.3-2l.3-.7.7-.2c2.3-.7,4.6-1.3,6.8-1.7,5.7-1.2,9.7-.5,12.1,2.1,1.7,1.9,2.2,4.4,2.6,6.5.1.6.2,1.2.4,1.8.5,2.1,1.9,4.3,3.5,4.2,1.2,0,2.3-1.1,3.4-2.4.6-.7,1.3-1.4,2.1-2,4.2-3.4,9.4-2.3,14.4-1.2,2.3.5,4.7,1,6.8,1,1.2,0,2-.2,2.5-.6.4-.3.6-.9.9-1.6.2-.5.4-.9.7-1.4,2.2-3.8,7.3-4.7,11.1-3.6,2.9.8,5.4,2.4,7.7,4,.6.4,1.2.8,1.8,1.2,3.2,2,6.7,3.7,10.4,4.9l1.2.4v1.2c-.2,2.6-.8,5.2-1.3,7.7-.6,2.8-1.1,5.4-1.2,8.1h0c0,1.4,0,2.8.2,4.7l.2,1.4-1.4.3c-4.6.9-9.2,1.1-13.6.3-1.9-.3-3.8-.8-5.6-1.2-5.2-1.2-10.2-2.4-14.6-.6-1.5.6-3.2,1.6-4.7,2.6-2.8,1.7-5.9,3.6-9,3.6ZM899.5,432.2c.4,0,.8,0,1.2.1,2.5.6,5,3,6.1,5.8.3.9.6,1.7.8,2.6.7,2.4,1.4,4.7,3.1,5.8,2.5,1.6,5.3.1,9.5-2.5,1.7-1,3.4-2.1,5.2-2.8,5.4-2.2,11.1-.8,16.5.4,1.8.4,3.6.9,5.4,1.1,3.6.6,7.3.6,11.1,0-.1-1.4-.1-2.5-.1-3.7,0-3,.7-5.9,1.3-8.7.4-2.1.8-4.1,1-6.1-3.5-1.2-6.8-2.8-9.9-4.8-.6-.4-1.3-.8-1.9-1.2-2.3-1.5-4.4-2.9-6.8-3.6-2.6-.7-6.1-.2-7.5,2.1-.2.3-.3.7-.5,1.1-.4.9-.8,1.9-1.7,2.7-1.1,1-2.6,1.5-4.7,1.4-2.5,0-5-.6-7.4-1.1-4.5-.9-8.7-1.8-11.8.6-.6.5-1.1,1.1-1.7,1.7-1.5,1.6-3.1,3.4-5.7,3.4-3.5,0-6-3.2-6.8-6.6-.1-.6-.3-1.3-.4-1.9-.4-1.9-.7-3.8-1.8-5-1.6-1.7-4.5-2.1-9-1.1-2,.4-3.9.9-5.9,1.5-.4.8-.9,1.5-1.5,2.1-1.1,1.2-2.4,2.1-3.6,3-1,.7-2,1.4-2.8,2.2-3.2,3.3-3.8,8.6-2.1,16.5.2.7.3,1.4.5,2.2.2.7.3,1.3.5,2,.6-.3,1.1-.6,1.7-1,3.7-2.1,7.9-4.6,11.8-1.7.7.5,1.2,1.1,1.6,1.6.3.4.7.7,1,1,1.9,1.5,4.9.8,6.7-.6,2.2-1.7,3.6-4.4,5-7l.3-.4c.9-.8,2-1.3,3.2-1.3Z"/>
    <path class="cls-8" d="M908,483.2c-.9,0-1.8-.1-2.8-.4-1.9-.6-3.5-1.8-4.9-2.9-.8-.6-1.5-1.2-2.2-1.6-3.8-2.3-9.1-2.4-14.3,0-.7.3-1.3.6-1.9,1l-1.5.8-.8-1.5c-2.2-4.4-5.9-8.2-10.3-10.2-7.7-3.7-17.8-2.9-25.7,2-1,.6-2,1.4-3,2.1-2,1.4-4,2.8-6.3,3.9-3.3,1.4-8.5,2-11.9-1-2.2-2-3-4.7-3.8-7.4-.2-.8-.5-1.6-.7-2.3-.5-1.4-1.3-2.7-2.3-3.5l-1.3-1.1,1.2-1.2c.9-.9,1.9-1.9,2.8-2.8,2.9-2.9,6-5.8,8.6-8.9.9-1.1,1.8-2.3,1.7-3.3,0-.6-.4-1.2-.8-1.9-.4-.7-.8-1.4-1-2.3-1-3.7,1.5-6.4,3.7-8.8.4-.4.7-.8,1.1-1.2l.5-.6h.8c9.3.7,17.9,4.4,24.2,10.5l.4.4c1.2,1.1,2.3,2.2,3.6,2.7,1.4.5,2.9.2,5-.7,1.1-.5,2.3-1.2,3.5-1.9,3.7-2.1,7.9-4.6,11.8-1.7.7.5,1.2,1.1,1.6,1.6.3.4.7.7,1,1,1.9,1.5,4.9.8,6.7-.6,2.2-1.7,3.6-4.4,5-7l.3-.4c1.2-1.1,2.8-1.5,4.5-1.1,2.5.6,5,3,6.1,5.8.3.9.6,1.7.8,2.6.7,2.4,1.4,4.7,3.1,5.8,2.5,1.6,5.3.1,9.5-2.5,1.7-1,3.4-2.1,5.2-2.8,5.4-2.2,11.1-.8,16.5.4,1.8.4,3.6.9,5.4,1.1,4.1.7,8.3.6,12.5-.3l1.7-.4.2,1.7c.1,1.2.3,2.5.5,3.7.6,4,1.2,8.2.4,12.4-.7,3.9-2.5,7.4-4.3,10.7l-2.1,4h-.8c-4.8,1-9.8.5-14.6,0-6.7-.6-13-1.2-18.6,1.5-1.4.7-2.8,1.6-4.2,2.5-3.2,2-6.5,4.2-10.1,4.2ZM891.4,473.2c3.1,0,5.9.7,8.3,2.2.9.6,1.7,1.2,2.5,1.8,1.3,1,2.5,2,3.9,2.4,3.4,1,6.7-1.1,10.2-3.4,1.5-.9,3-1.9,4.6-2.7,6.4-3.1,13.4-2.4,20.3-1.8,4.4.4,8.8.8,13,.2l1.4-2.6c1.7-3.1,3.4-6.4,4-9.8h0c.7-3.7.1-7.4-.4-11.4-.1-.7-.2-1.4-.3-2.1-4,.6-8,.6-11.9,0-1.9-.3-3.8-.8-5.6-1.2-5.2-1.2-10.2-2.4-14.6-.6-1.5.6-3.2,1.6-4.7,2.6-4,2.4-8.6,5.2-12.9,2.4-2.7-1.8-3.6-4.9-4.4-7.6-.2-.8-.5-1.6-.8-2.4-.6-1.7-2.3-3.4-3.8-3.7-.7-.2-1.1,0-1.4.2-1.4,2.7-3,5.8-5.7,7.8-2.9,2.2-7.5,3.1-10.7.6-.6-.4-1-.9-1.4-1.4-.4-.4-.8-.8-1.2-1.1-2.1-1.5-4.5-.3-8.3,1.9-1.2.7-2.5,1.4-3.8,2-1.8.8-4.5,1.8-7.4.9-2-.7-3.5-2.1-4.8-3.4l-.4-.4c-5.6-5.4-13.2-8.7-21.4-9.5-.2.2-.4.5-.6.7-2.2,2.4-3.5,4-3,5.8.1.5.4,1,.7,1.5.5.9,1,1.9,1.2,3.1.3,2.3-1.1,4.2-2.4,5.8-2.8,3.2-5.9,6.3-8.8,9.2-.6.6-1.1,1.1-1.7,1.7.8,1,1.5,2.3,2,3.6.3.8.5,1.7.8,2.5.7,2.3,1.3,4.5,2.9,5.9,2.3,2.1,6.1,1.6,8.5.5,2-.9,3.8-2.2,5.7-3.5,1-.7,2.1-1.5,3.2-2.2,8.8-5.5,20.1-6.4,28.8-2.2,4.6,2.2,8.4,5.8,11,10.2.2-.1.5-.2.7-.3,3-1.4,6.1-2,9-2Z"/>
    <path class="cls-8" d="M916.2,517.8l-1.3-1.7c-.7-.9-1.3-1.9-1.8-2.9-1.6-2.9-2.6-6.1-3.6-9.1-.5-1.6-1-3.2-1.6-4.8-.1-.4-.5-1.3-.9-1.5-.3-.2-1.1.1-1.7.3-5.6,1.9-11.5,1.7-16.8-.4-.5-.2-.9-.4-1.4-.6-1.1-.5-2.2-1-3.3-1.2-.5,0-1-.1-1.4-.1h-2.2c0,0,.6-2,.6-2,.4-1.6.7-2.8.9-4,.5-3.8-.2-7.7-2-11.3l-.7-1.4,1.3-.8c.7-.4,1.4-.8,2.2-1.1,6.1-2.8,12.6-2.7,17.3.2.9.6,1.7,1.2,2.5,1.8,1.3,1,2.5,2,3.9,2.4,3.4,1,6.7-1.1,10.2-3.4,1.5-.9,3-1.9,4.6-2.7,6.4-3.1,13.4-2.4,20.3-1.8,4.6.4,9.4.9,13.8,0l3.2-.6-1.6,2.9c-4.1,7.7-9.1,16.5-16.4,23-2.9,2.7-6.2,4.9-9.4,7.1-4.5,3.1-8.7,6.1-12.1,10-.5.5-.9,1.1-1.3,1.6l-1.3,1.7ZM906.7,494.6c.5,0,1,0,1.5.3,1.5.6,2.2,2,2.7,3.3.6,1.6,1.1,3.3,1.7,4.9,1,3,1.9,5.9,3.3,8.6.1.2.3.5.4.7,0,0,0,0,0,0,3.7-4.2,8.3-7.4,12.7-10.5,3.1-2.1,6.3-4.4,9.1-6.9,6.1-5.5,10.4-12.5,14.2-19.5-3.8.3-7.7,0-11.5-.4-6.7-.6-13-1.2-18.6,1.5-1.4.7-2.8,1.6-4.2,2.5-4,2.6-8.1,5.2-12.9,3.7-1.9-.6-3.5-1.8-4.9-2.9-.8-.6-1.5-1.2-2.2-1.6-3.8-2.3-9.1-2.4-14.3,0-.2,0-.4.2-.6.3,1.6,3.8,2.2,7.8,1.7,11.8-.1.8-.3,1.7-.5,2.6,0,0,0,0,0,0,1.4.3,2.7.8,3.9,1.4.4.2.9.4,1.3.6,4.5,1.8,9.8,2,14.4.4.8-.3,1.7-.6,2.6-.6Z"/>
    <path class="cls-8" d="M834.1,686.6l-2-1.8c-.9-.8-1.7-1.6-2.5-2.5-.4-.5-.8-.9-1.2-1.4-1.9-2.2-3.6-4.3-6-5.1-.1,0-.3-.1-.4-.1l-2-.3.8-1.9c.2-.5.4-.9.6-1.4,1.3-2.9,2.6-5.6,1.6-8-.2-.6-.6-1.2-1.1-1.9-.4-.7-.9-1.4-1.3-2.2-2.9-6.8,4.3-13.2,7.8-16.3,2.5-2.3,5.3-6.2,5.3-9.4s-.4-2.3-1.4-3.1c-1.4-1.3-3.6-1.4-6-1.6-2.7-.2-5.8-.4-8-2.6-1-.9-1.6-2-2.1-3.1-.3-.5-.5-.9-.8-1.4-2.8-4.3-8.5-5.3-14.6-6.4-6.6-1.2-13.5-2.4-16.8-8.4-.5-.9-.9-1.9-1.3-2.9-.5-1.2-.9-2.4-1.6-3.3-2.3-2.9-6.4-2.4-11.2-1.8-2.5.3-5.1.7-7.5.5-5.3-.4-9.9-3.5-14.4-6.4-5.1-3.4-10-6.6-15.2-5.2-3.4.9-6.1,3.6-8.9,6.5-3.5,3.6-7.1,7.3-12.4,7.4-3.5.1-6.6-1.4-9.6-3-.7-.3-1.3-.7-2-1l-.9-.4v-.9c-.5-7.7,0-15.5,1.5-23.1.3-1.4.5-2.6.2-3.6-.2-.8-.9-1.6-1.5-2.4-.3-.4-.6-.8-.9-1.2-1.9-2.7-2.8-6-2.5-10,.2-2.2.6-4.4,1.4-6.8.4-1.4,1-2.8,1.5-4.2,1.3-3.6,2.6-7.1,2.7-10.7,0-2.7-.5-5.4-1.1-8.3-.5-2.3-1-4.7-1.2-7.2-.6-8.8,4.3-17.9,12.2-22.7,2.5-1.5,5.2-2.6,7.9-3.1l1.6-.3.3,1.6c.3,1.7,1.1,3.3,2.2,4.8,3.7,4.5,11.5,6.9,16.9,3.2.9-.6,1.7-1.3,2.5-2,1.3-1.1,2.6-2.3,4.2-3.1,2.1-1.1,4.4-1.5,6.6-1.8,1.1-.2,2.2-.4,3.3-.6,2.5-.7,5.3-2.5,5.3-4.9,0-1.7-1.3-3.3-2.6-5-1.8-2.2-3.8-4.8-3-8,.4-1.8,1.5-3.1,3.2-3.9,3.1-1.5,7.2-.8,10,.5.6.3,1.1.6,1.7.9,3.1,1.6,6.3,3.3,9,2.1.9-.4,1.7-1.1,2.5-1.9.6-.5,1.2-1.1,1.9-1.6,3-2.1,6.7-2.5,10.2-3,3.9-.5,7.5-.9,9.5-3.5.7-.9,1.2-2.1,1.8-3.4,1.1-2.5,2.3-5.3,5.3-6.2,2.1-.6,4.3,0,6.1,1.7,1.3,1.2,2.5,2.9,3.1,4.8.3.8.5,1.7.8,2.5.7,2.3,1.3,4.5,2.9,5.9,2.3,2.1,6.1,1.6,8.5.5,2-.9,3.8-2.2,5.7-3.5,1-.7,2.1-1.5,3.2-2.2,8.8-5.5,20.1-6.4,28.8-2.2,5,2.4,9.2,6.6,11.7,11.7,2.1,4.2,2.9,8.8,2.3,13.2-.2,1.3-.5,2.7-.9,4.4l-.3,1.1c-.5,2-1,3.8-1.2,5.7-.3,3.2.7,7,3.5,8.3l3.5,1.6-3.6,1.3c-2.8,1-4.9,3.9-5.4,7.4-.5,3.5.6,6.8,2.9,8.6.8.6,1.6,1.1,2.6,1.6,1.2.7,2.3,1.3,3.4,2.3,1.9,1.7,3,3.8,4.1,5.8.4.7.7,1.3,1.1,2,.2.3.4.7.6,1l.8,1.2-.8.7c-3.2,7.3-8,14-13.8,19.6-3.7,3.5-7,4.7-10.1,3.9-.4-.1-.8-.3-1.3-.4-.6-.2-1.2-.5-1.6-.4-.6.1-1.2,1.1-1.6,1.8-2.4,4.3-3.9,9.3-4.5,14.7-.3,2.4-.3,4.8-.2,7.2,0,1.1.2,2.3.3,3.4.5,5.1.9,10.4-1.7,15-3,5.3-1.2,12.6,2.1,17,.2.3.5.6.7.9,1.1,1.4,2.4,3,2.8,5,.9,4.5-2.4,7.7-5.4,10.5-1.2,1.2-2.4,2.3-3.3,3.4-2.6,3.4-3,7.9-3.4,12.7-.5,5.6-1,11.3-5.2,15.4-1.9,1.9-4.2,3-6.5,4.1-1.1.6-2.2,1.1-3.2,1.7-2.3,1.4-4,3.3-4.4,5.2l-.6,2.6ZM824.4,673.1c2.7,1.2,4.6,3.5,6.5,5.7.4.5.8.9,1.2,1.4.2.2.4.4.6.7,1-1.8,2.7-3.5,4.9-4.7,1.1-.7,2.3-1.3,3.5-1.8,2.1-1,4.1-2,5.7-3.5,3.3-3.2,3.7-8.2,4.2-13.4.5-5,.9-10.2,4.1-14.4,1-1.4,2.3-2.6,3.6-3.8,3.2-3,5-5,4.5-7.6-.3-1.3-1.2-2.4-2.2-3.7-.3-.3-.5-.7-.8-1-4.7-6.3-5.7-14.7-2.3-20.6,2.1-3.7,1.7-8.3,1.3-13.1-.1-1.2-.2-2.3-.3-3.5-.2-2.6,0-5.2.2-7.8.6-5.9,2.3-11.2,4.9-16,.5-.9,1.7-2.9,3.8-3.3,1.3-.2,2.4.2,3.3.6.3.1.6.3.9.3,1.9.5,4.2-.5,7-3.1,5.4-5.1,9.8-11.3,12.9-18.1,0-.1-.2-.3-.3-.4-.4-.7-.8-1.4-1.1-2.1-1-1.9-1.9-3.7-3.4-4.9-.8-.7-1.8-1.3-2.9-1.9-1-.6-2-1.1-2.9-1.9-3.2-2.6-4.8-7-4.1-11.7.6-3.6,2.4-6.7,5-8.6-2.6-2.6-3.3-6.7-3-9.9.2-2.2.8-4.2,1.3-6.3l.3-1.1c.4-1.6.7-2.9.9-4,.5-3.8-.2-7.7-2-11.3-2.2-4.4-5.9-8.2-10.3-10.2-7.7-3.7-17.8-2.9-25.7,2-1,.6-2,1.4-3,2.1-2,1.4-4,2.8-6.3,3.9-3.3,1.4-8.5,2-11.9-1-2.2-2-3-4.7-3.8-7.4-.2-.8-.5-1.6-.7-2.3-.5-1.4-1.3-2.7-2.3-3.5-.7-.7-1.8-1.4-3.1-1-1.5.4-2.2,1.9-3.3,4.4-.6,1.4-1.2,2.8-2.2,4.1-2.8,3.7-7.3,4.2-11.7,4.7-3.3.4-6.4.8-8.7,2.4-.6.4-1.1.9-1.6,1.4-1,.9-2,1.9-3.4,2.5-4.1,1.8-8.2-.3-11.8-2.2-.6-.3-1.1-.6-1.6-.8-2.3-1.1-5.4-1.4-7.2-.5-.8.4-1.3,1-1.5,1.8-.4,1.6.7,3,2.4,5.2,1.6,2,3.4,4.2,3.3,7,0,4.1-3.9,7-7.7,7.9-1.2.3-2.4.5-3.6.7-2,.3-3.9.6-5.6,1.5-1.3.7-2.4,1.6-3.5,2.7s-1.8,1.6-2.8,2.3c-6.9,4.7-16.6,1.9-21.2-3.8-1.1-1.4-2-3-2.5-4.6-1.8.5-3.6,1.3-5.3,2.3-6.9,4.2-11.2,12.2-10.7,19.8.1,2.2.6,4.4,1.1,6.7.6,2.9,1.3,6,1.2,9.1-.1,4.1-1.5,8-2.9,11.7-.5,1.4-1,2.7-1.4,4.1-.7,2.1-1.1,4.1-1.2,6-.2,3.3.4,5.9,1.9,7.9.2.3.5.7.8,1,.8,1,1.7,2.1,2.1,3.5.5,1.8.2,3.5-.1,5-1.4,7.2-2,14.4-1.6,21.6.4.2.8.4,1.2.6,2.8,1.4,5.5,2.7,8.1,2.6,4-.1,7-3.2,10.2-6.5,3-3.1,6.1-6.2,10.4-7.4,6.6-1.7,12.3,2,17.8,5.7,4.1,2.7,8.4,5.5,12.8,5.9,2.1.2,4.5-.1,6.9-.5,5.2-.7,10.6-1.4,14.1,2.9,1,1.3,1.6,2.7,2.1,4.2.3.9.6,1.7,1.1,2.5,2.6,4.7,8.4,5.7,14.5,6.8,6.4,1.1,13.1,2.3,16.7,7.8.3.5.6,1,.9,1.6.5.9.9,1.7,1.5,2.3,1.4,1.3,3.7,1.5,6,1.7,2.6.2,5.6.4,7.8,2.4,1.6,1.4,2.4,3.3,2.4,5.5,0,4.5-3.4,9.2-6.4,11.8-4.7,4.1-8.8,8.6-7,12.7.2.6.6,1.1,1,1.7.5.8,1,1.5,1.4,2.5,1.4,3.6-.1,7.1-1.6,10.3Z"/>
    <path class="cls-8" d="M805.3,753l-1.9-.9c-2.7-1.3-5.5-2.3-8.4-3-.5-.1-.9-.2-1.4-.3-2.2-.5-4.5-1-6.6-2.3-.9-.6-1.7-1.2-2.4-1.8-.4-.4-.9-.7-1.3-1.1l-.9-.6.3-1.1c.1-1.5-.5-3.1-1.1-4.7-.6-1.6-1.2-3.2-1.3-5-.4-5.9,4.2-9.5,8.6-12.9,2.6-2.1,5.4-4.2,6.9-6.8,2.1-3.4,2.1-7.7,2.1-12.1,0-4.3,0-8.7,2-12.7,1.7-3.6,4.7-6.3,7.2-8.5,4.2-3.8,9.8-8,15.6-6.6.2,0,.5.1.8.2,3.2,1.1,5.4,3.6,7.4,6.1.4.5.8.9,1.2,1.4.7.8,1.4,1.6,2.2,2.3l.7.6-.2.9c-.2.7-.2,1.3,0,2,.3,1.3,1.3,2.4,2.3,3.6.8.9,1.6,1.8,2.3,3,3,5.3.4,11.9-3.1,16.2h0c-1.2,1.4-2.4,2.8-3.7,4.1-2.4,2.5-4.6,4.8-6,7.7-.7,1.4-1.2,3-1.7,4.6-.6,1.9-1.2,3.9-2.3,5.8-2,3.6-5.2,6.2-8.3,8.7-3.5,2.8-6.8,5.5-8.1,9.3-.2.6-.4,1.3-.5,1.9l-.4,2.1ZM785.8,741.6c.3.2.5.4.8.6.7.6,1.4,1.1,2.1,1.5,1.6,1,3.6,1.4,5.7,1.9.5.1,1,.2,1.4.3,2.5.6,4.9,1.4,7.3,2.4,0-.2.1-.3.2-.5,1.6-4.7,5.4-7.7,9.1-10.7,3-2.4,5.8-4.7,7.5-7.8.9-1.6,1.4-3.3,2-5.2.5-1.7,1.1-3.4,1.9-5.1,1.6-3.3,4.1-5.9,6.5-8.5,1.2-1.3,2.4-2.6,3.5-3.9,2.8-3.5,5-8.7,2.8-12.6-.5-.8-1.2-1.6-1.9-2.4-1.2-1.4-2.5-2.9-3-4.9-.2-.8-.3-1.7-.2-2.5-.6-.6-1.3-1.3-1.8-1.9-.4-.5-.8-.9-1.2-1.4-1.9-2.2-3.6-4.3-6-5.1-.1,0-.3-.1-.4-.1-4.5-1.1-9.2,2.6-12.8,5.9-2.8,2.6-5.1,4.7-6.4,7.5-1.6,3.3-1.6,7.2-1.7,11.3,0,4.7,0,9.5-2.6,13.7-1.9,3.1-4.8,5.4-7.7,7.7-4.1,3.2-7.6,6-7.4,10.2,0,1.3.6,2.7,1.1,4.1.7,1.7,1.4,3.5,1.3,5.5Z"/>
    <path class="cls-8" d="M753.1,793.4c-2.6,0-5.2-.3-7.8-.9-1.6-.4-3.1-.9-4.5-1.5-2.9-1-5.6-2-8.3-1.9-2.1,0-4.1.6-6.3,1.8l-1.5.8-.7-1.6c-2.2-4.7-2.3-8.5-.4-11.8.5-.8,1.1-1.5,1.6-2.2.7-.8,1.3-1.6,1.6-2.4.6-1.6-.2-3.3-.7-4.1l-.8-1.3,9.2-6.6c1.5-1.1,3.4-2.4,5.7-2.8,1.9-.3,3.7.2,5.4.6.5.1.9.2,1.4.3,10.2,2.3,20.2-4,29.6-10.7,2.9-2.1,5.7-4.3,6-7.3l.3-2.8,2.2,1.6c.5.4,1,.8,1.5,1.2.7.6,1.4,1.1,2.1,1.5,1.6,1,3.6,1.4,5.7,1.9.5.1,1,.2,1.4.3,3.1.8,6.2,1.8,9.1,3.2l1.1.5-.2,1.2c-.4,2-.4,4.3-.5,6.4,0,4.8-.1,9.8-4,13.1-2.4,2.1-5.5,2.7-8.5,3.3-2.9.6-5.6,1.1-7.3,3-.9,1-1.5,2.4-2.1,3.9-.7,1.8-1.4,3.6-2.9,5.1-1.8,1.8-4.1,2.6-6.5,3.3-6.2,1.9-13.5,4.2-20.9,4.2ZM732.7,785.8c3.3,0,6.3,1.1,9.2,2.1,1.5.5,2.9,1,4.3,1.4,9,2.4,18.9-.7,26.9-3.2,2.1-.6,3.9-1.3,5.2-2.5,1-1,1.6-2.5,2.2-4,.7-1.7,1.3-3.4,2.6-4.9,2.4-2.7,5.8-3.4,9.1-4,2.7-.5,5.2-1.1,7-2.6,2.8-2.4,2.8-6.5,2.9-10.8,0-1.9,0-3.8.3-5.7-2.4-1-4.8-1.9-7.4-2.5-.5-.1-.9-.2-1.4-.3-2.2-.5-4.5-1-6.6-2.3-.7-.4-1.3-.9-1.9-1.4-1.3,2.9-4,5.1-6.6,6.9-9.5,6.8-20.6,13.8-32.1,11.2-.5-.1-1-.2-1.5-.4-1.5-.4-2.9-.7-4.2-.6-1.4.2-2.8,1.1-4.3,2.2l-6.8,4.9c.8,1.9.9,3.8.3,5.6-.5,1.3-1.4,2.4-2.2,3.3-.5.6-1,1.2-1.3,1.7-1.1,1.9-1.2,4.3,0,7.3,2.1-.9,4.1-1.4,6.2-1.4.1,0,.2,0,.3,0Z"/>
    <path class="cls-8" d="M653.5,833.1h-.8c-2.6-.3-4.8-.9-6.9-2.1-3.3-1.8-5.8-4.9-7.8-7.3-4.7-5.7-9.7-13-8.2-20.2l-12.9-1-.4-1c-1.4-3.7,1.1-6.7,3.2-9.3,1.6-1.9,3.1-3.8,3.2-5.7,0-1.2-.4-2.3-1.4-3.3-1.6-1.7-4.6-2.7-7.2-2.5-.7,0-1.5.1-2.2.2-2.9.3-6.3.7-9-1.3-1-.7-1.6-1.6-2.3-2.5-.3-.4-.5-.7-.8-1-3-3.5-8.4-4.7-16.2-3.7-.9.1-1.8.2-2.7.4-5.6.8-11.4,1.7-16.7-.5-2.2-.9-4.1-2.2-5.9-3.4-1.4-.9-2.7-1.8-4-2.5-3-1.5-6.5-2.3-10.7-2.3h-2.8l1.4-2.4c.4-.7,1-1.5,1.6-2.2,3.2-3.6,7.9-5.4,12.4-7.1,5-1.9,9.6-3.7,12-7.8,1.4-2.5,1.7-5.4,2-8.5.4-3.4.7-7,2.6-10.1,2.1-3.4,5.5-5.6,8.8-7.7,4.2-2.7,7.8-5,8.2-9,.2-2.5-1-5-2.3-7.3l-1.1-1.8,2-.6c2.3-.6,4.8-1,7.2-1.2,5.7-.2,10.9,1.1,14.9,3.9.8.5,1.6,1.2,2.4,1.8,1.8,1.4,3.5,2.8,5.5,3.1,1.5.3,3,0,4.7-.3,2.1-.4,4.3-.8,6.5-.1,1.4.4,2.6,1.2,3.8,1.9.7.4,1.3.8,1.9,1.1,5.2,2.5,11.5-.6,17.2-3.3l.4-.2c5.2-2.5,14.7-5.8,20.5,0,2.8,2.8,3.6,7,4.2,10,1.3,6.5,2.7,13,4,19.5.4,1.8.8,3.8,2,5,.7.7,1.8,1.2,2.9,1.7,2.1,1,4.4,2.1,5,4.8.7,3.3-1.8,5.6-3.9,7.5-.3.3-.7.6-1,.9-2.2,2.1-3.5,5.3-3.4,8.7,0,3,1,5.9,2.8,8,4.2-1.8,8.4-3.7,12.5-5.5,8-3.5,17.3-7,25.3-2.8,1.8.9,3.4,2.4,4.4,4,1.5,2.3,1.8,4.8,1,7-.5,1.3-1.4,2.4-2.2,3.3-.5.6-1,1.2-1.3,1.7h0c-1.3,2.3-1.1,5.1.6,8.8l.6,1.3-1.3.7c-2.8,1.5-5.3,3.8-8,6.2-4.3,3.9-8.7,7.8-14.4,8.9-2.4.5-4.7.3-7,.2-1.9,0-3.6-.2-5.4,0-3.9.5-7.6,2.5-11,4.6-9.8,6-18.7,13.3-26.4,21.7l-.5.6ZM619.5,799.5l14.8,1.2-.8,2c-2.5,6.3,2.2,13.1,7.1,19,1.9,2.3,4.1,5,6.9,6.5,1.5.8,3.1,1.3,4.8,1.6,7.8-8.4,16.7-15.6,26.5-21.7,3.7-2.3,7.8-4.5,12.3-5,2-.2,4-.2,5.9,0,2.2.1,4.2.2,6.2-.2,4.9-.9,8.8-4.4,12.9-8.1,2.3-2.1,4.7-4.2,7.3-5.9-1.6-4.1-1.6-7.5.2-10.4h0c.5-.8,1.1-1.5,1.6-2.2.7-.8,1.3-1.6,1.6-2.4.6-1.6-.2-3.3-.7-4.1-.8-1.2-1.9-2.3-3.2-2.9-6.8-3.5-15.2-.3-22.6,2.9-4.5,2-9,4-13.5,5.9l-1,.4-.8-.7c-2.9-2.7-4.5-6.7-4.5-11,0-4.3,1.6-8.3,4.4-11.1.3-.3.7-.6,1-1,2-1.8,3.2-3.1,2.9-4.4-.2-1.1-1.4-1.7-3.3-2.6-1.3-.6-2.7-1.2-3.8-2.3-2-1.8-2.5-4.5-3-6.7-1.3-6.5-2.6-13-4-19.5-.7-3.4-1.4-6.4-3.4-8.3-4.4-4.5-12.5-1.6-16.8.6l-.4.2c-6,2.9-13.4,6.5-19.9,3.3-.8-.4-1.6-.9-2.3-1.3-1-.6-1.9-1.2-2.9-1.5-1.5-.4-3.2-.1-5.1.2-1.9.3-3.8.7-5.8.3-2.7-.5-4.8-2.1-6.9-3.7-.7-.6-1.4-1.1-2.2-1.6-3.5-2.4-8-3.5-12.9-3.3-1.5,0-3,.3-4.5.6,1.1,2.2,2,4.7,1.7,7.3-.6,5.6-5.2,8.5-9.6,11.3-3,1.9-6.2,3.9-7.8,6.7-1.5,2.5-1.8,5.5-2.2,8.8-.4,3.3-.7,6.7-2.4,9.8-2.9,5.1-8.3,7.2-13.6,9.2-4,1.5-7.8,3-10.5,5.7,3.3.3,6.3,1.1,9,2.5,1.6.8,3,1.8,4.4,2.7,1.8,1.2,3.4,2.4,5.3,3.1,4.6,1.9,9.9,1.1,15.1.3.9-.1,1.8-.3,2.7-.4,8.9-1.1,15.3.5,19,4.8.3.4.6.8,1,1.2.5.7,1,1.4,1.6,1.8,1.7,1.3,4.1,1,6.7.7.8,0,1.6-.2,2.4-.2,3.5-.2,7.3,1.1,9.6,3.4,1.6,1.6,2.4,3.6,2.3,5.8-.2,3-2.2,5.4-3.9,7.5-1.8,2.2-2.9,3.7-2.9,5.2Z"/>
    <path class="cls-8" d="M521.2,798.1l-.2-3.2c-3.2-1.1-6.9-.9-10,.7-.4.2-.9.5-1.3.7-1.6.9-3.4,1.9-5.5,1.8-2.3-.1-4.4-1.5-6.5-4.1-3.5-4.6-5.8-10.2-6.3-15.9-.2-1.8-.2-3.7-.1-5.5,0-2.5,0-4.9-.4-7.3-.7-3.5-2.9-7.4-6.5-8.1-2.9-.5-5.9,1.1-9,2.8-3.7,2-7.4,4.2-11.7,3-3.4-1-5.4-3.6-7.5-6.2-1.7-2.2-3.4-4.3-5.7-5.1-.3-.1-.6-.2-.9-.3-.7-.2-1.4-.4-2.1-.7-2.8-1.5-3.6-5.1-3.1-8,.2-1.3.6-2.5,1-3.7.4-1.1.7-2.1.9-3.2.7-4.2-1.3-8.2-3.4-12.5-2-4.2-4.1-8.5-3.9-13.2.2-4.4,2.4-8.2,4.6-11.9,2.1-3.6,4.1-7.1,4.1-10.9,0-.6,0-1.1,0-1.7,0-1.2-.2-2.5,0-3.8.4-2.1,1.5-3.7,2.5-5.3.4-.7.9-1.3,1.2-2,2.5-4.7,1.3-11.1-2.7-14.9l-1.5-1.5,1.8-1.1c2.5-1.5,5.2-2.5,8-3,.3,0,.7-.1,1-.2,1.2-.2,2.4-.3,3.3-.8,1-.5,1.8-1.5,2.6-2.5l.7-.8c4.4-4.8,11.1-7.4,18.4-7,7.2.4,13.6,3.6,17.5,8.9.4.5.7,1,1.1,1.5,2.7,3.7,4.8,6.3,7.4,5.7,1-.2,1.9-.9,2.9-1.6.7-.6,1.5-1.1,2.4-1.6,4.6-2.3,9.2-.3,13.6,1.7,1.8.8,3.7,1.6,5.4,2.1,1.4.4,2.9.6,4.5.8,1.1.2,2.1.3,3.2.5,3.1.6,6.5,1.7,8.3,5.1.6,1.2.9,2.5,1.2,3.7.2,1,.4,2,.8,2.8,1.6,3.1,5.7,3.6,10,4.2,1.4.2,2.9.4,4.3.6,10.8,2.2,17.6,11.9,23.7,21.6.3.4.5.8.8,1.3v.2c1.7,2.6,3.2,5.8,2.9,9.2h0c-.6,5.6-5.2,8.5-9.6,11.3-3,1.9-6.2,3.9-7.8,6.7-1.5,2.5-1.8,5.5-2.2,8.8-.4,3.3-.7,6.7-2.4,9.8-2.9,5.1-8.3,7.2-13.6,9.2-4.3,1.7-8.4,3.2-11.1,6.3-.5.5-.9,1.1-1.2,1.7-1.7,2.7-2.6,5.9-3.5,9.3-1,3.6-1.9,7.3-4,10.5-2.2,3.3-5.3,5.7-8.3,8l-1.4,1.1c-1.4,1.1-2.9,2.4-4.5,3.8l-2.5,2.2ZM483.2,753.9c.6,0,1.2,0,1.8.2,5.4,1,8.2,6.3,9,10.6.5,2.6.5,5.3.5,7.9,0,1.8,0,3.5.1,5.2.5,5.1,2.4,10.2,5.6,14.2,1.5,1.9,2.8,2.8,4.1,2.9,1.2,0,2.5-.6,3.8-1.4.5-.3,1-.5,1.4-.8,4.2-2.1,9.2-2.3,13.4-.4,1.1-.9,2.1-1.8,3.2-2.6l1.4-1.1c2.9-2.3,5.7-4.4,7.6-7.3,1.8-2.8,2.7-6.1,3.6-9.6.9-3.5,1.9-7.1,3.9-10.2.4-.7,1-1.4,1.6-2.1,3.2-3.6,7.9-5.4,12.4-7.1,5-1.9,9.6-3.7,12-7.8,1.4-2.5,1.7-5.4,2-8.5.4-3.4.7-7,2.6-10.1,2.1-3.4,5.5-5.6,8.8-7.7,4.2-2.7,7.8-5,8.2-9,.2-2.5-1-5-2.3-7.3v-.2c-.4-.4-.6-.8-.8-1.2-5.7-9.1-12-18.2-21.6-20.1-1.3-.3-2.6-.4-4.1-.6-4.7-.6-10.1-1.2-12.5-5.9-.6-1.2-.9-2.4-1.1-3.6-.2-1.1-.4-2.1-.9-2.9-.9-1.8-2.7-2.8-6.1-3.5-1-.2-2-.3-3-.5-1.6-.2-3.3-.5-4.9-.9-2-.5-4-1.4-5.9-2.3-4-1.8-7.7-3.4-10.9-1.8-.7.3-1.3.8-1.9,1.3-1.1.9-2.4,1.8-4.1,2.2-4.9,1.1-8.1-3.4-10.7-7-.4-.5-.7-1-1.1-1.5-3.3-4.5-8.9-7.2-15.1-7.6-6.3-.3-12.1,1.9-15.8,6l-.6.7c-1,1.1-2,2.4-3.5,3.2-1.4.8-2.9,1-4.4,1.2h-1c-1.8.4-3.5,1-5.1,1.8,3.8,4.8,4.6,11.8,1.8,17.1-.4.8-.9,1.5-1.4,2.3-.9,1.4-1.8,2.7-2.1,4.2-.2.9-.1,1.9,0,3,0,.6,0,1.3,0,1.9,0,4.6-2.3,8.6-4.6,12.4-2,3.5-4,6.8-4.2,10.5-.2,3.9,1.6,7.7,3.6,11.7,2.2,4.6,4.5,9.3,3.7,14.5-.2,1.3-.6,2.5-1,3.7-.4,1.1-.7,2.2-.9,3.2-.3,1.8.1,3.9,1.5,4.6.4.2.9.3,1.4.5.4,0,.8.2,1.1.3,3.2,1,5.2,3.6,7.2,6.2,1.8,2.3,3.5,4.4,5.8,5.1,2.9.8,6-.9,9.2-2.7,3-1.7,6-3.4,9.3-3.4Z"/>
    <path class="cls-8" d="M628.4,857.7l-6.5-4.2c-9.6-6.2-19.8-12.1-29.8-9.3-3.1.8-5.9,2.4-8.9,4.2-3.2,1.8-6.6,3.8-10.3,4.6-6.7,1.6-13.3-.3-19.7-2.2-6.2-1.8-12-3.5-17.7-2.3l-2.3.5-.3-1.6c-.3-1.3-.6-2.6-1-3.9-.6-2.1-1.2-4.2-2.7-5-1.2-.7-3.1-.6-5-.5-2.7.1-6.2.3-7.8-2.7-1.8-3.3.6-6.1,2.5-8.4,1-1.2,2-2.4,2.5-3.6.7-1.8.1-4-.5-6.3-.1-.5-.2-.9-.4-1.4-.9-4-.3-7.2,1.7-9.1-.1-2-.3-3.9-.5-5.7-.2-1.9-.4-3.8-.5-5.8v-.8s.5-.5.5-.5c1.6-1.5,3.2-2.7,4.7-3.9l1.4-1.1c2.9-2.3,5.7-4.4,7.6-7.3,1.8-2.8,2.7-6.1,3.6-9.6.9-3.5,1.9-7.1,3.9-10.2l.5-.7h.9c4.7,0,8.7.9,12.2,2.7,1.6.8,3,1.8,4.4,2.7,1.8,1.2,3.4,2.4,5.3,3.1,4.6,1.9,9.9,1.1,15.1.3.9-.1,1.8-.3,2.7-.4,8.9-1.1,15.3.5,19,4.8.3.4.6.8,1,1.2.5.7,1,1.4,1.6,1.8,1.7,1.3,4.1,1,6.7.7.8,0,1.6-.2,2.4-.2,3.5-.2,7.3,1.1,9.6,3.4,1.6,1.6,2.4,3.6,2.3,5.8-.2,3-2.2,5.4-3.9,7.5-1.8,2.2-2.9,3.7-2.9,5.2l14.8,1.2-.8,2c-2.5,6.3,2.2,13.1,7.1,19,1.9,2.3,4.1,5,6.9,6.5,1.7.9,3.5,1.5,5.6,1.6l3.3.3-2.3,2.4c-3.2,3.4-6.2,7-8.9,10.8l-.5.7-8.4-.5c-3.2-.2-6.8-.4-9.6,1.1-1.4.8-2.6,2.3-3,3.8-.2.7-.3,1.8.4,2.8l4.3,6.5ZM539.4,844.9c4.9,0,9.8,1.4,14.6,2.8,6.3,1.8,12.3,3.5,18.1,2.2,3.3-.8,6.3-2.5,9.5-4.3,3-1.7,6.1-3.5,9.6-4.5,10.1-2.7,20.2,2.1,29.2,7.7,0-.4,0-.7.2-1.1.6-2.4,2.4-4.7,4.6-5.9,3.6-1.9,7.7-1.7,11.3-1.5l6.6.4c2.1-2.8,4.3-5.5,6.7-8.2-1.4-.3-2.6-.9-3.9-1.5-3.3-1.8-5.8-4.9-7.8-7.3-4.7-5.7-9.7-13-8.2-20.2l-12.9-1-.4-1c-1.4-3.7,1.1-6.7,3.2-9.3,1.6-1.9,3.1-3.8,3.2-5.7,0-1.2-.4-2.3-1.4-3.3-1.6-1.7-4.6-2.7-7.2-2.5-.7,0-1.5.1-2.2.2-2.9.3-6.3.7-9-1.3-1-.7-1.6-1.6-2.3-2.5-.3-.4-.5-.7-.8-1-3-3.5-8.4-4.7-16.2-3.7-.9.1-1.8.2-2.7.4-5.6.8-11.4,1.7-16.7-.5-2.2-.9-4.1-2.2-5.9-3.4-1.4-.9-2.7-1.8-4-2.5-2.8-1.4-6-2.2-9.8-2.3-1.4,2.5-2.2,5.5-3,8.6-1,3.6-1.9,7.3-4,10.5-2.2,3.3-5.3,5.7-8.3,8l-1.4,1.1c-1.3,1-2.6,2.1-3.9,3.3.1,1.7.3,3.3.5,4.9.2,2.1.4,4.3.6,6.7v.9s-.7.5-.7.5c-2.1,1.4-1.4,5.2-1.1,6.4.1.4.2.9.3,1.3.7,2.5,1.4,5.4.4,8.2-.6,1.7-1.8,3.1-3,4.5-2,2.4-2.8,3.6-2.1,4.8.6,1.1,2,1.2,4.9,1.1,2.2-.1,4.6-.2,6.7.9,2.8,1.6,3.7,4.9,4.2,7,.2.8.4,1.7.6,2.5,1.3-.2,2.6-.3,3.9-.3Z"/>
    <path class="cls-8" d="M617.4,931.6l-2.4-3.6c-1.4-2.1-3.1-3.9-5-5.2l-.5-.3c-1-.7-2.1-1.5-2.9-2.7-2.2-3.6,0-7,2.1-10,1.2-1.8,2.4-3.6,2.7-5.3.3-1.5-.1-2.9-1.1-4.3-1.8-2.4-5.5-4.2-9.2-4.5-1.8-.1-3.7,0-5.5,0-4.3.1-8.7.2-12.7-1.7l-.7-.3-.2-.7c-1.7-6.8-8-11.5-14.9-16-1.5-1-3-1.9-4.4-1.8-.9,0-1.8.5-2.7,1-.7.3-1.3.7-2,.9-4.5,1.6-9.1-.3-13.2-2l-1.2-.5c-5.7-2.3-11.8-3.5-18.1-3.6h-6c0-.1,5.3-3,5.3-3,2.4-1.3,4.6-2.6,6.2-4.5,2.8-3.4,3.4-8.4,1.7-15.7l-.3-1.6,2.4-.5c6.5-1.3,13,.5,19.3,2.3,6.3,1.8,12.3,3.5,18.1,2.2,3.3-.8,6.3-2.5,9.5-4.3,3-1.7,6.1-3.5,9.6-4.5,10.1-2.7,20.2,2.1,29.2,7.7,0-.4,0-.7.2-1.1.6-2.4,2.4-4.7,4.6-5.9,3.6-1.9,7.7-1.7,11.3-1.5l10.4.6-1.7,2.4c-.9,1.2-1.8,2.4-2.6,3.6-.7,1-1.3,1.9-1.4,2.8-.2,1.4.4,3,1.2,4.6l.4.8c5.9,13.5,1.4,28.9-3.8,43.5h0c-1.3,3.7-2.8,7.9-5.8,11.1-2,2.1-4.4,3.5-6.8,4.9-1.3.8-2.5,1.5-3.6,2.3-2.8,2-5.5,5.3-4.8,8.7,0,.4.2.9,0,1.5l-.5,4.3ZM598.5,892.3c.9,0,1.9,0,2.8,0,4.6.3,9.1,2.6,11.5,5.7,1.6,2.1,2.2,4.4,1.8,6.8-.4,2.4-1.9,4.5-3.2,6.6-2,2.9-3.1,4.8-2.1,6.6.4.7,1.2,1.2,2,1.8l.5.4c1,.7,2,1.5,2.9,2.4.8-3.4,3.4-6.3,6-8.2,1.2-.9,2.6-1.7,3.8-2.4,2.3-1.3,4.4-2.6,6.1-4.4,2.5-2.7,3.9-6.4,5.2-10,5.2-14.6,9.3-28.7,3.9-41.2l-.3-.8c-.9-1.9-1.8-4.1-1.4-6.5.3-1.6,1.1-2.9,2-4.1.3-.5.6-.9.9-1.3l-4.6-.3c-3.2-.2-6.8-.4-9.6,1.1-1.4.8-2.6,2.3-3,3.8-.2.7-.3,1.8.4,2.8l4.3,6.5-6.5-4.2c-9.6-6.2-19.8-12.1-29.8-9.3-3.1.8-5.9,2.4-8.9,4.2-3.2,1.8-6.6,3.8-10.3,4.6-6.7,1.6-13.3-.3-19.7-2.2-5.9-1.7-11.5-3.3-17-2.4,1,5.1,1.4,11.8-2.7,16.9-.8,1-1.8,1.8-2.8,2.6,4.9.5,9.6,1.7,14.1,3.5l1.3.5c3.7,1.5,7.6,3.1,10.9,1.9.6-.2,1.1-.5,1.7-.7,1.1-.6,2.4-1.2,3.9-1.3,2.4-.2,4.5,1.1,6.4,2.4,7.1,4.7,13.7,9.6,16,17.1,3.2,1.3,6.8,1.2,10.6,1.1,1,0,2,0,3,0Z"/>
    <path class="cls-8" d="M539.1,1018.7c-1.2,0-2.5-.1-3.7-.4l-.9-.2-.3-.9c-1-3.8,0-7.5.9-11.1.6-2.4,1.3-4.8,1.3-7.1,0-4.5-2.3-8.7-4.4-12.5-3.2-5.9-6.6-11.4-11.9-13.4-1.3-.5-2.8-.8-4.4-1.2-3.5-.8-7.1-1.6-9.4-4.7-1.2-1.7-1.7-3.7-2.2-5.7-.7-2.9-1.3-4.7-2.9-5.2-1.7-.6-3.6.6-5.7,1.8-2.6,1.5-5.5,3.3-8.6,1.9-2.6-1.2-3.6-3.8-4.4-6.1-.2-.4-.3-.9-.5-1.3-2.9-7.2-12.1-11.3-19.4-8.6l-.7.3c-3.2,1.2-8.1,3-10.6-.6-.7-1.1-1-2.5-.9-4.1.5-4.5,4.2-8.2,10.7-10.8l1.5-.6c3.8-1.5,7.7-3,9.6-6.1.8-1.3,1.2-2.7,1.7-4.3.3-.8.5-1.7.8-2.5,1.9-5,5.5-8.9,8.7-12.4,12.8-13.9,24.7-26.1,39.6-34.2.6-.3,1.2-.6,1.8-1l.4-.2h.5c6.7.1,13.1,1.4,19.2,3.8l1.3.5c3.7,1.5,7.6,3.1,10.9,1.9.6-.2,1.1-.5,1.7-.7,1.1-.6,2.4-1.2,3.9-1.3,2.4-.2,4.5,1.1,6.4,2.4,7.1,4.7,13.7,9.6,16,17.1,3.2,1.3,6.8,1.2,10.6,1.1,1.9,0,3.9-.1,5.8,0,4.6.3,9.1,2.6,11.5,5.7,1.6,2.1,2.2,4.4,1.8,6.8-.4,2.4-1.9,4.5-3.2,6.6-2,2.9-3.1,4.8-2.1,6.6.4.7,1.2,1.2,2,1.8l.5.4c2.2,1.6,4.2,3.6,5.8,6.1l.3.4v.5c-.1,3.7-3.9,6.1-7.3,8.3-1.1.7-2.2,1.4-3,2-2.9,2.3-5.2,5.5-7.3,8.2-12.3,16.4-24.6,32.9-36.9,49.4-2,2.6-4,5.3-5.5,8.3-.4.8-.7,1.6-1.1,2.4-.6,1.4-1.2,2.8-2,4.1-3.3,5.5-9.6,8.8-15.9,8.8ZM537,1015.4c5.9.9,12.1-2,15.2-7.2.7-1.1,1.2-2.4,1.8-3.7.4-.9.7-1.7,1.1-2.5,1.6-3.3,3.8-6.2,5.8-8.8,12.3-16.5,24.6-32.9,36.9-49.3,2.2-2.9,4.7-6.3,7.9-8.8,1-.8,2.1-1.5,3.3-2.2,2.5-1.6,5.3-3.4,5.7-5.2-1.3-1.9-2.9-3.5-4.6-4.7l-.5-.3c-1-.7-2.1-1.5-2.9-2.7-2.2-3.6,0-7,2.1-10,1.2-1.8,2.4-3.6,2.7-5.3.3-1.5-.1-2.9-1.1-4.3-1.8-2.4-5.5-4.2-9.2-4.5-1.8-.1-3.7,0-5.5,0-4.3.1-8.7.2-12.7-1.7l-.7-.3-.2-.7c-1.7-6.8-8-11.5-14.9-16-1.5-1-3-1.9-4.4-1.8-.9,0-1.8.5-2.7,1-.7.3-1.3.7-2,.9-4.5,1.6-9.1-.3-13.2-2l-1.2-.5c-5.6-2.2-11.5-3.4-17.7-3.6-.5.3-1,.5-1.5.8-14.5,7.9-26.1,19.8-38.7,33.6-3,3.3-6.5,7-8.1,11.4-.3.8-.5,1.5-.7,2.3-.5,1.7-1,3.5-2.1,5.1-2.5,4-7.1,5.8-11.2,7.4l-1.5.6c-3.7,1.5-8.2,4.1-8.7,8.2,0,.8,0,1.5.3,1.9,1,1.5,3.6.7,6.8-.5l.7-.3c8.9-3.3,19.9,1.5,23.5,10.4.2.4.4.9.5,1.4.7,1.9,1.4,3.6,2.7,4.3,1.5.7,3.1-.2,5.7-1.7,2.5-1.5,5.3-3.2,8.4-2.1,3.3,1.2,4.2,4.5,5,7.4.4,1.7.9,3.4,1.7,4.6,1.5,2.1,4.4,2.8,7.5,3.4,1.6.4,3.3.7,4.8,1.3,6.4,2.5,10.1,8.5,13.6,14.9,2.1,3.9,4.8,8.8,4.8,14.1s-.7,5.3-1.4,7.9c-.8,3-1.5,5.8-1.1,8.4Z"/>
    <path class="cls-8" d="M614.3,301.3c-1.1,0-2.1-.2-2.9-.7-.7-.5-1.6-1.4-1.8-3.1,0-1,.2-1.9.5-2.6.2-.4.3-.8.3-1.1,0-.2,0-.5-.1-.8-.1-.7-.3-1.7.1-2.7.5-1,1.3-1.5,2.1-1.9.7-.4,1.5-.7,2.2-1,1.5-.7,3-1.3,4.1-2.3.8-.7,1.3-1.9,1.3-2.9,0-.6-.2-1-.6-1.3-.4-.4-1.1-.5-1.9-.8-1.1-.3-2.4-.6-3.4-1.7-.8-.8-1.2-1.9-1.5-2.8-.5-1.3-1.7-4.9.5-7.2,2.2-2.3,5.7-1.4,8.1.3.4.3.8.6,1.2.9,1.2,1,2.4,1.9,3.6,1.9,1.5,0,2.8-1.1,4.3-2.4,1-.9,2.1-1.9,3.4-2.5,3.6-1.9,7.5-.9,11.2,0,3,.7,5.8,1.4,8.3.7.6-.2,1.2-.5,1.9-.8.9-.4,1.9-.8,2.9-1.1,2.3-.5,5.3.3,6.1,2.9,1,2.8-1.4,5.4-4.2,6.6h0c-.4.2-.8.3-1.2.4-1.4.5-2.7,1-3.3,1.9-.4.6-.4,1.4-.5,2.3l-.5,5.4c-.1,1.4-.3,2.8-1.1,4.1-.6,1-1.5,1.8-2.3,2.5-1.7,1.3-3.2,2.6-4.8,3.9l-2,1.6c-1.2,1-2.4,1.9-3.8,2.3-2.8.9-5.7.2-8.4-.4-2.5-.5-4.8-1.1-7-.5-.5.1-1.4.4-2.3.8-2.6,1-5.9,2.2-8.6,2.2ZM616.7,270.2c-.4,0-.8.1-1.1.4-.6.6-.5,1.9.2,3.9.2.7.5,1.3.8,1.6.4.4,1.1.6,1.9.8,1,.3,2.1.6,3.1,1.4,1.1.9,1.7,2.2,1.7,3.7,0,1.9-.8,4-2.3,5.4-1.5,1.4-3.3,2.1-5,2.9-.7.3-1.4.6-2,.9-.5.2-.6.4-.6.4,0,.1,0,.5.1.8,0,.4.2.9.2,1.4,0,.9-.3,1.6-.5,2.2-.2.4-.3.9-.3,1.1,0,.6.2.7.3.7,1.4.9,6.3-.9,8.7-1.8,1.1-.4,2.1-.8,2.7-.9,2.9-.7,5.7,0,8.4.5,2.5.5,4.8,1.1,6.8.4.9-.3,1.8-1,2.8-1.8l2-1.6c1.6-1.3,3.2-2.6,4.8-3.8.7-.6,1.3-1.1,1.6-1.6.4-.7.6-1.7.6-2.8l.5-5.4c.1-1.2.2-2.5,1-3.7,1.1-1.9,3.2-2.7,5-3.3.4-.1.7-.3,1.1-.4h0c1.3-.5,2.6-1.7,2.4-2.6-.2-.7-1.5-1-2.4-.8-.7.2-1.5.5-2.3.8-.7.3-1.5.7-2.3.9-3.3,1-6.7.1-9.9-.7-3.3-.8-6.4-1.6-9-.3-.9.5-1.8,1.3-2.7,2.1-1.8,1.6-3.7,3.4-6.5,3.2-2.3,0-4-1.4-5.5-2.6-.4-.3-.7-.6-1.1-.8-.9-.6-2-1.1-2.8-1.1Z"/>
    <path class="cls-8" d="M588.6,703l-.7-1.2c-.2-.4-.5-.8-.7-1.2-5.7-9.1-12-18.2-21.6-20.1-1.3-.3-2.6-.4-4.1-.6-4.7-.6-10.1-1.2-12.5-5.9-.6-1.2-.9-2.4-1.1-3.6-.2-1.1-.4-2.1-.9-2.9-.9-1.8-2.7-2.8-6.1-3.5l-3.2-.6,2.4-2.1c1.5-1.3,3.1-2.8,4.2-4.6,1.4-2.4,1.9-5.3,2.4-8.5.5-3.6,1.1-7.4,3.4-10.5,1.4-1.9,3.2-3.3,5-4.6,1-.7,1.9-1.4,2.7-2.2,4.4-4.1,6.4-9.9,8.4-16.1,1.6-4.7,3.2-9.6,6-13.8,3.3-4.8,8-8.4,12.6-11.9,5.5-4.2,10.7-8.1,13.4-14,2.1-4.7,2.3-9.8,2.4-15.3.1-4.1.2-8.3,1.2-12.4v-.6c.1,0,.6-.3.6-.3,3.7-2.7,7.6-4.8,11.6-6.4l1-.4.7.8c1.9,2,2.8,4.7,3.8,7.2,1.1,3.2,2.1,5.9,4.6,6.9,1.5.6,3.3.5,5.5.2l16.4-2.2c3.7-.5,7.4-.8,10.6.9,2.1,1.1,3.6,2.9,5.1,4.6,1.7,1.9,3.3,3.8,5.4,4.2,2.6.5,5-1.3,7.6-3.1,1.2-.9,2.4-1.8,3.8-2.5,6.1-3.3,13.2-2.1,19.4-1.1l1.3.2v1.4c-.2,3.4.4,6,1.9,8.1.2.3.5.7.8,1,.8,1,1.7,2.1,2.1,3.5.5,1.8.2,3.5-.1,5v.2c-1.5,7.4-2,14.9-1.6,22.3l.2,2.7-2.4-1.2c-2.2-1.1-4.6-2-6.9-1.5-3.7.7-6.2,4.4-8.6,7.9l-.6.8c-1.9,2.8-5.4,7-10,7.7,1,3.2-.4,6.8-1.7,10.1-1.4,3.5-2.7,6.8-1.5,9.6,1.3,3.2,5.6,4.3,9.6,5.1l1.7.3-.5,1.7c-1.1,4-3.8,7.5-7.4,9.6,2,2,4,3.9,6.1,5.9l.8.7-.4,1c-1.2,3-4.4,4-7.2,4.9-2.8.9-4.6,1.5-4.9,3.1-.1.5,0,1.1.1,1.9,0,.6.2,1.2.2,1.8,0,2.2-.9,4.3-2.7,5.9-2.4,2.1-6,3.2-9.3,2.7-3.6-.5-6.7-2.2-9.7-3.8-1.2-.6-2.4-1.3-3.6-1.9-1.8-.8-7.8-3.3-11.6,0-1.3,1.1-2.2,2.8-3.1,4.6-1,2-2,4.1-3.8,5.6-3.1,2.6-7,2.7-10.7,2.8-2.1,0-4.1.1-5.9.6-6,1.5-9.6,7.8-10.6,13.2,0,.5-.2,1.1-.2,1.6v1.4c-.1,0-1.5,0-1.5,0-2.2.1-4.4.5-6.5,1l-1.2.3ZM544.3,661.6c2.1.8,4.2,2,5.4,4.3.6,1.2.9,2.5,1.2,3.7.2,1,.4,2,.8,2.8,1.6,3.1,5.7,3.6,10,4.2,1.4.2,2.9.4,4.3.6,10.8,2.2,17.6,11.9,23.7,21.6,0,.1.2.3.3.4,1.5-.4,3.1-.6,4.7-.8,0-.2,0-.3,0-.5,1.4-7.9,6.5-14.1,12.9-15.8,2.2-.6,4.4-.6,6.6-.7,3.3,0,6.5-.2,8.7-2,1.3-1.1,2.2-2.8,3-4.6,1-2,2-4.1,3.9-5.6,3.5-3,9.1-3.1,15-.4,1.3.6,2.5,1.3,3.8,1.9,2.9,1.6,5.6,3,8.6,3.4,2.3.3,5-.5,6.7-2,.8-.7,1.7-1.8,1.6-3.4,0-.5,0-.9-.2-1.3-.1-.9-.3-1.9,0-3,.7-3.6,4.1-4.6,7.1-5.5,1.9-.6,3.7-1.1,4.6-2.1-2-2-4-3.9-6.1-5.9l-2.5-2.4,2.3-.9c3.1-1.2,5.7-3.7,7.1-6.8-4.3-.9-8.5-2.6-10.2-6.6-1.6-3.9,0-8.2,1.5-11.9,1.8-4.5,2.7-7.4.7-9.5l-3.5-3.8,5,1.2c4.3,1,8.3-4,9.7-6.2l.5-.8c2.6-3.9,5.6-8.3,10.6-9.3,2.3-.4,4.5,0,6.5.7-.2-6.9.4-13.8,1.7-20.6v-.2c.3-1.3.5-2.5.2-3.5-.2-.8-.9-1.6-1.5-2.4-.3-.4-.6-.8-.9-1.2-1.7-2.3-2.5-5.2-2.5-8.6-5.6-.9-11.2-1.6-16,1-1.1.6-2.2,1.4-3.4,2.3-2.9,2.1-6.1,4.4-10,3.7-3.2-.6-5.2-2.9-7.2-5.2-1.3-1.6-2.6-3-4.2-3.8-2.4-1.2-5.3-1-8.7-.5l-16.4,2.2c-2.1.3-4.7.6-7.1-.4-3.7-1.6-5.1-5.2-6.4-8.8-.7-2-1.4-3.8-2.4-5.3-3.2,1.4-6.4,3.2-9.4,5.3-.8,3.6-.9,7.4-1,11.1-.2,5.6-.3,11.3-2.7,16.6-3,6.6-8.8,11-14.3,15.2-4.4,3.3-8.9,6.7-11.9,11.1-2.6,3.8-4.1,8.5-5.6,13-2.1,6.3-4.2,12.8-9.3,17.4-1,.9-2,1.6-3,2.4-1.7,1.2-3.2,2.4-4.4,3.9-1.8,2.5-2.3,5.7-2.8,9.1-.5,3.3-1,6.7-2.8,9.6-.8,1.3-1.7,2.4-2.7,3.4Z"/>
    <path class="cls-8" d="M685.8,776.1l-.8-.7c-2.9-2.7-4.5-6.7-4.5-11,0-4.3,1.6-8.3,4.4-11.1.3-.3.7-.6,1-1,2-1.8,3.2-3.1,2.9-4.4-.2-1.1-1.4-1.7-3.3-2.6-1.3-.6-2.7-1.2-3.8-2.3-2-1.8-2.5-4.5-3-6.7-1.3-6.5-2.6-13-4-19.5-.7-3.4-1.4-6.4-3.4-8.3-4.4-4.5-12.5-1.6-16.8.6l-.4.2c-6,2.9-13.4,6.5-19.9,3.3-.8-.4-1.6-.9-2.3-1.3-1-.6-1.9-1.2-2.9-1.5-1.5-.4-3.2-.1-5.1.2-1.9.3-3.8.7-5.8.3-2.7-.5-4.8-2.1-6.9-3.7-.7-.6-1.4-1.1-2.2-1.6-3.5-2.4-8-3.5-12.9-3.3h-1.8c0,0,.2-1.8.2-1.8,0-.6.1-1.2.2-1.8,1.4-7.9,6.5-14.1,12.9-15.8,2.2-.6,4.4-.6,6.6-.7,3.3,0,6.5-.2,8.7-2,1.3-1.1,2.2-2.8,3-4.6,1-2,2-4.1,3.9-5.6,3.5-3,9.1-3.1,15-.4,1.3.6,2.5,1.3,3.8,1.9,2.9,1.6,5.6,3,8.6,3.4,2.3.3,5-.5,6.7-2,.8-.7,1.7-1.8,1.6-3.4,0-.5,0-.9-.2-1.3-.1-.9-.3-1.9,0-3,.7-3.6,4.1-4.6,7.1-5.5,1.9-.6,3.7-1.1,4.6-2.1-2-2-4-3.9-6.1-5.9l-2.5-2.4,2.3-.9c3.1-1.2,5.7-3.7,7.1-6.8-4.3-.9-8.5-2.6-10.2-6.6-1.6-3.9,0-8.2,1.5-11.9,1.8-4.5,2.7-7.4.7-9.5l-3.5-3.8,5,1.2c4.3,1,8.3-4,9.7-6.2l.5-.8c2.6-3.9,5.6-8.3,10.6-9.3,3.3-.6,6.2.5,8.9,1.8.7.3,1.4.7,2,1,2.8,1.4,5.5,2.7,8.1,2.6,4-.1,7-3.2,10.2-6.5,3-3.1,6.1-6.2,10.4-7.4,6.6-1.7,12.3,2,17.8,5.7,4.1,2.7,8.4,5.5,12.8,5.9,2.1.2,4.5-.1,6.9-.5,5.2-.7,10.6-1.4,14.1,2.9,1,1.3,1.6,2.7,2.1,4.2.3.9.6,1.7,1.1,2.5,2.6,4.7,8.4,5.7,14.5,6.8,6.4,1.1,13.1,2.3,16.7,7.8.3.5.6,1,.9,1.6.5.9.9,1.7,1.5,2.3,1.4,1.3,3.7,1.5,6,1.7,2.6.2,5.6.4,7.8,2.4,1.6,1.4,2.4,3.3,2.4,5.5,0,4.5-3.4,9.2-6.4,11.8-4.7,4.1-8.8,8.6-7,12.7.2.6.6,1.1,1,1.7.5.8,1,1.5,1.4,2.5,1.4,3.7-.2,7.3-1.7,10.5-.2.4-.4.9-.6,1.3l-.5,1.2-1.3-.3c-4.4-1.1-9.1,2.6-12.7,5.9-2.8,2.6-5.1,4.7-6.4,7.5-1.6,3.3-1.6,7.2-1.7,11.3,0,4.7,0,9.5-2.6,13.7-1.9,3.1-4.8,5.4-7.7,7.7-4.1,3.2-7.6,6-7.4,10.2,0,1.3.6,2.7,1.1,4.1.7,1.9,1.5,3.9,1.3,6.2,0,.1,0,.3,0,.4-.5,4.2-4,7-7.3,9.4-9.5,6.8-20.6,13.8-32.1,11.2-.5-.1-1-.2-1.5-.4-1.5-.4-2.9-.8-4.2-.6-1.4.2-2.8,1.1-4.3,2.2l-9.4,6.7-.9-1.4c-.7-1.2-1.9-2.2-3.2-2.9-6.8-3.5-15.2-.3-22.6,2.9-4.5,2-9,4-13.5,5.9l-1,.4ZM665.3,702.9c3.1,0,6.1.9,8.5,3.3,2.8,2.8,3.6,7,4.2,10,1.3,6.5,2.7,13,4,19.5.4,1.8.8,3.8,2,5,.7.7,1.8,1.2,2.9,1.7,2.1,1,4.4,2.1,5,4.8.7,3.3-1.8,5.6-3.9,7.5-.3.3-.7.6-1,.9-2.2,2.1-3.5,5.3-3.4,8.7,0,3,1,5.9,2.8,8,4.2-1.8,8.4-3.7,12.5-5.5,8-3.5,17.3-7,25.3-2.8,1.3.7,2.5,1.6,3.4,2.7l6.7-4.8c1.5-1.1,3.4-2.4,5.7-2.8,1.9-.3,3.7.2,5.4.6.5.1.9.2,1.4.3,10.2,2.3,20.2-4,29.6-10.7,2.9-2.1,5.7-4.3,6-7.3v-.2c.2-1.5-.4-3.1-1.1-4.7-.6-1.6-1.2-3.2-1.3-5-.4-5.9,4.2-9.5,8.6-12.9,2.6-2.1,5.4-4.2,6.9-6.8,2.1-3.4,2.1-7.7,2.1-12.1,0-4.3,0-8.7,2-12.7,1.7-3.6,4.7-6.3,7.2-8.5,3.9-3.5,8.9-7.4,14.3-6.8,0,0,0-.1.1-.2,1.3-2.9,2.6-5.6,1.6-8-.2-.6-.6-1.2-1.1-1.9-.4-.7-.9-1.4-1.3-2.2-2.9-6.8,4.3-13.2,7.8-16.3,2.5-2.3,5.3-6.2,5.3-9.4s-.4-2.3-1.4-3.1c-1.4-1.3-3.6-1.4-6-1.6-2.7-.2-5.8-.4-8-2.6-1-.9-1.6-2-2.1-3.1-.3-.5-.5-.9-.8-1.4-2.8-4.3-8.5-5.3-14.6-6.4-6.6-1.2-13.5-2.4-16.8-8.4-.5-.9-.9-1.9-1.3-2.9-.5-1.2-.9-2.4-1.6-3.3-2.3-2.9-6.4-2.4-11.2-1.8-2.5.3-5.1.7-7.5.5-5.3-.4-9.9-3.5-14.4-6.4-5.1-3.4-10-6.6-15.2-5.2-3.4.9-6.1,3.6-8.9,6.5-3.5,3.6-7.1,7.3-12.4,7.4-3.5.1-6.6-1.4-9.6-3-.7-.3-1.3-.7-2-1-2.2-1.1-4.6-2-6.9-1.5-3.7.7-6.2,4.4-8.6,7.9l-.6.8c-1.9,2.8-5.4,7-10,7.7,1,3.2-.4,6.8-1.7,10.1-1.4,3.5-2.7,6.8-1.5,9.6,1.3,3.2,5.6,4.3,9.6,5.1l1.7.3-.5,1.7c-1.1,4-3.8,7.5-7.4,9.6,2,2,4,3.9,6.1,5.9l.8.7-.4,1c-1.2,3-4.4,4-7.2,4.9-2.8.9-4.6,1.5-4.9,3.1-.1.5,0,1.1.1,1.9,0,.6.2,1.2.2,1.8,0,2.2-.9,4.3-2.7,5.9-2.4,2.1-6,3.2-9.3,2.7-3.6-.5-6.7-2.2-9.7-3.8-1.2-.6-2.4-1.3-3.6-1.9-1.8-.8-7.8-3.3-11.6,0-1.3,1.1-2.2,2.8-3.1,4.6-1,2-2,4.1-3.8,5.6-3.1,2.6-7,2.7-10.7,2.8-2.1,0-4.1.1-5.9.6-5.9,1.5-9.5,7.6-10.5,13,4.9.1,9.4,1.4,13,3.9.8.5,1.6,1.2,2.4,1.8,1.8,1.4,3.5,2.8,5.5,3.1,1.5.3,3,0,4.7-.3,2.1-.4,4.3-.8,6.5-.1,1.4.4,2.6,1.2,3.8,1.9.7.4,1.3.8,1.9,1.1,5.2,2.5,11.5-.6,17.2-3.3l.4-.2c3-1.5,7.6-3.2,12-3.2Z"/>
    <path class="cls-8" d="M894,545.6l-1.6-2.3c-.3-.4-.5-.8-.8-1.2-.4-.7-.8-1.4-1.1-2.1-1-1.9-1.9-3.7-3.4-4.9-.8-.7-1.8-1.3-2.9-1.9-1-.6-2-1.1-2.9-1.9-3.2-2.6-4.8-7-4.1-11.7.6-3.6,2.4-6.7,5-8.6-2.6-2.6-3.3-6.7-3-9.9.2-2.2.8-4.2,1.3-6.3l.6-2.2h1.2c.7,0,1.4,0,2.1.1,1.4.3,2.7.8,3.9,1.4.4.2.9.4,1.3.6,4.5,1.8,9.8,2,14.4.4,1.2-.4,2.6-.9,4.1-.3,1.5.6,2.2,2,2.7,3.3.6,1.6,1.1,3.3,1.7,4.9,1,3,1.9,5.9,3.3,8.6.5.9,1,1.7,1.6,2.5l.7,1-1.8,2.3c-1.6,2.1-3.3,4.3-5.4,6-1.3,1-2.6,1.8-4,2.6-1.4.9-2.8,1.7-3.9,2.7-3.2,2.8-4.9,6.9-6.6,11.2-.4,1-.8,2.1-1.3,3.1l-1.1,2.6ZM883.5,495.9c-.5,1.9-1,3.7-1.2,5.6-.3,3.2.7,7,3.5,8.3l3.5,1.6-3.6,1.3c-2.8,1-4.9,3.9-5.4,7.4-.5,3.5.6,6.8,2.9,8.6.8.6,1.6,1.1,2.6,1.6,1.2.7,2.3,1.3,3.4,2.3,1.9,1.7,3,3.8,4.1,5.8,0,0,.1.2.1.3,0,0,0,0,0,0,1.8-4.5,3.7-9.1,7.5-12.4,1.4-1.2,2.9-2.1,4.4-3,1.3-.8,2.5-1.5,3.6-2.4,1.9-1.5,3.3-3.4,4.9-5.5l.3-.4c-.4-.6-.8-1.2-1.1-1.9-1.6-2.9-2.6-6.1-3.6-9.1-.5-1.6-1-3.2-1.6-4.8-.1-.4-.5-1.3-.9-1.5-.3-.2-1.1.1-1.7.3-5.6,1.9-11.5,1.7-16.8-.4-.5-.2-.9-.4-1.4-.6-1.1-.5-2.2-1-3.3-1.2,0,0-.2,0-.3,0Z"/>
    <path class="cls-8" d="M668,565.4c-.5,0-1,0-1.4-.1-3.2-.6-5.2-2.9-7.2-5.2-1.3-1.6-2.6-3-4.2-3.8-2.4-1.2-5.3-1-8.7-.5l-16.4,2.2c-2.1.3-4.7.6-7.1-.4-3.7-1.6-5.1-5.2-6.4-8.8-.7-2-1.4-3.8-2.4-5.3-3.4,1.5-6.7,3.3-9.9,5.6l-3.4,2.4.9-4.1c0-.3.1-.6.2-.9.4-1.4.9-2.9,1.4-4.2.6-1.7,1.2-3.4,1.6-5.1,1.2-5.4,0-11-1.1-16.9-.4-2.2-.9-4.5-1.2-6.7-1.7-11.8.5-24.2,6.1-34.9.7-1.3,1.4-2.6,2.4-4.1.3-.5.6-1,1-1.5,1.2-1.7,2.2-3.4,2.9-5.2.4-1.1.7-2.3,1-3.5.2-1,.5-2,.8-3,1.8-5.6,5.9-10,9.9-14.3,4.4-4.7,8.6-9.2,9.5-15.1.4-2.6,0-5.5-.2-8.3-.5-4.5-1-9.1,1.3-13.3,1.5-2.7,3.8-4.5,6-6.3,1.9-1.6,3.8-3.1,5-5,1.8-2.9,1.9-6.4,2.1-10.1.2-3,.3-6.1,1.4-9.1.8-2.3,2.1-4.4,3.9-6.5l.5-.5h.7c5.6,0,10.6,2.3,13.9,6,.6.7,1.1,1.4,1.7,2.1,3,3.7,5.3,6.3,7.8,5.4l2.3-.8-.2,2.4c-.7,10.7-3.1,21.2-7.3,31.1-.4,1-1,2.4-.6,3.2.4.8,1.5.9,3.8.8,2.2,0,4.7-.1,6.5,1.7,2.6,2.6,1.1,6.2-.2,9.1-1.2,2.8-1.8,4.5-.8,5.5.8.8,2.2.5,4.3,0,1.5-.4,3.1-.8,4.7-.7,2.1.2,3.9,1.3,5.1,3.2,1.8,2.9,2.2,7.5.8,11.2-.5,1.3-1.1,2.6-1.6,3.9-1.5,3.3-3,6.5-2.3,9.6.3,1.3.9,2.5,1.6,3.9.8,1.6,1.7,3.3,2,5.3.2,1.8,0,3.4-.3,5-.1.9-.3,1.8-.3,2.7-.1,1.9.6,4,2.1,4.4.6.1,1.3,0,2.2-.1.6-.1,1.3-.2,1.9-.2,4.7-.2,8.5,3.8,9.9,10.6l.2,1.1-1,.6c-6.9,4.2-11.2,12.2-10.7,19.8h0c.1,2.2.6,4.4,1.1,6.7.6,2.9,1.3,6,1.2,9.1-.1,4.1-1.5,8-2.9,11.7-.5,1.4-1,2.7-1.4,4.1-.7,2.1-1.1,4.1-1.2,6v1.8c-.1,0-1.9-.3-1.9-.3-6-1-12.2-2.1-17.4.7-1.1.6-2.2,1.4-3.4,2.3-2.5,1.8-5.3,3.8-8.6,3.8ZM650.8,552.1c2,0,4,.3,5.8,1.3,2.1,1.1,3.6,2.9,5.1,4.6,1.7,1.9,3.3,3.8,5.4,4.2,2.6.5,5-1.3,7.6-3.1,1.2-.9,2.4-1.8,3.8-2.5,5.6-3,11.9-2.3,17.8-1.4.2-1.6.6-3.3,1.2-5,.4-1.4,1-2.8,1.5-4.2,1.3-3.6,2.6-7.1,2.7-10.7,0-2.7-.5-5.4-1.1-8.3-.5-2.3-1-4.7-1.2-7.1h0c-.6-8.4,3.9-17.1,11.2-22.1-1-3.6-3-7-6.2-7s-.1,0-.2,0c-.5,0-1,.1-1.5.2-1.1.2-2.3.4-3.5,0-3.4-.8-4.7-4.6-4.5-7.7,0-1,.2-2,.4-3,.2-1.4.4-2.8.3-4.1-.2-1.4-.9-2.8-1.6-4.3-.7-1.4-1.5-2.9-1.9-4.6-.9-4.2.9-8,2.5-11.6.6-1.3,1.1-2.4,1.5-3.6,1-2.8.8-6.3-.5-8.4-.7-1.1-1.6-1.6-2.7-1.7-1,0-2.3.3-3.6.6-2.3.6-5.2,1.4-7.4-.7-2.7-2.6-1.2-6.2,0-9.1,1.2-2.8,1.8-4.5.8-5.5-.8-.8-2.4-.8-4.1-.7-2.4,0-5.3.1-6.7-2.6-1.1-2.1-.1-4.3.5-5.8,3.8-9,6.1-18.4,6.9-28.1-3.8,0-6.7-3.7-9.1-6.8-.6-.7-1.1-1.4-1.6-2-2.5-2.9-6.4-4.7-10.7-4.9-1.3,1.5-2.2,3.1-2.8,4.8-.9,2.5-1,5.3-1.2,8.2-.2,4-.4,8-2.6,11.6-1.5,2.4-3.6,4.1-5.7,5.8-2.1,1.7-4,3.3-5.2,5.4-1.8,3.3-1.4,7.3-.9,11.5.3,3,.7,6.1.2,9.1-1,6.8-5.8,11.9-10.3,16.8-3.9,4.2-7.6,8.1-9.2,13.1-.3.9-.5,1.8-.7,2.7-.3,1.3-.6,2.6-1.1,3.9-.8,2.1-2,4-3.2,5.8-.3.5-.6.9-.9,1.4-.9,1.3-1.6,2.6-2.2,3.8-5.4,10.1-7.4,21.8-5.8,33,.3,2.2.8,4.4,1.2,6.5,1.2,5.9,2.5,12.1,1.1,18.2-.4,1.9-1.1,3.7-1.7,5.5,0,.2-.1.4-.2.6,2.5-1.5,5.2-2.9,7.8-3.9l1-.4.7.8c1.9,2,2.8,4.7,3.8,7.2,1.1,3.2,2.1,5.9,4.6,6.9,1.5.6,3.3.5,5.5.2l16.4-2.2c1.6-.2,3.2-.4,4.8-.4Z"/>
    <rect class="cls-5" x="910" y="734" width="77.5" height="77.5"/>
    <rect class="cls-2" x="910" y="846.2" width="77.5" height="77.5"/>
    <rect class="cls-3" x="910" y="958.3" width="77.5" height="77.5"/>
    <rect class="cls-1" x="910" y="1070.5" width="77.5" height="77.5"/>
    <g>
      <path class="cls-4" d="M1041.2,777.4c0,4.1-3,7.7-9.7,7.7s-6.6-.9-8.9-2.5l2.1-4.1c1.8,1.3,4.2,2.1,6.6,2.1s4.4-1.1,4.4-3-1.2-3-5.4-3h-6l1.2-13.1h14.2v4.3h-9.7l-.4,4.4h1.9c6.9,0,9.6,3.1,9.6,7.2Z"/>
      <path class="cls-4" d="M1044.5,773.3h9.4v4.2h-9.4v-4.2Z"/>
      <path class="cls-4" d="M1077,777.4c0,4.8-3.9,7.8-8.8,7.8s-10.4-4-10.4-11.6,4.9-12.6,11.9-12.6,4.9.6,6.5,1.6l-2,4c-1.3-.9-2.8-1.2-4.4-1.2-3.9,0-6.4,2.3-6.6,6.8,1.4-1.4,3.3-2.1,5.8-2.1,4.5,0,8,2.9,8,7.3ZM1071.7,777.7c0-2.1-1.6-3.5-4-3.5s-4,1.5-4,3.5,1.5,3.5,4.1,3.5,3.9-1.3,3.9-3.5Z"/>
      <path class="cls-4" d="M1078.5,767.6c0-3.9,2.4-6.4,5.8-6.4s5.8,2.5,5.8,6.4-2.4,6.4-5.8,6.4-5.8-2.5-5.8-6.4ZM1086.8,767.6c0-2.5-1-3.7-2.4-3.7s-2.4,1.2-2.4,3.7,1,3.7,2.4,3.7,2.4-1.2,2.4-3.7ZM1098.2,761.4h4l-15.9,23.3h-4l15.9-23.3ZM1094.4,778.6c0-3.9,2.4-6.4,5.8-6.4s5.8,2.5,5.8,6.4-2.4,6.4-5.8,6.4-5.8-2.5-5.8-6.4ZM1102.6,778.6c0-2.5-1-3.7-2.4-3.7s-2.4,1.2-2.4,3.7,1,3.7,2.4,3.7,2.4-1.2,2.4-3.7Z"/>
      <path class="cls-4" d="M1042.1,888.4c0,4.8-3.9,7.8-8.8,7.8s-10.4-4-10.4-11.6,4.9-12.6,11.9-12.6,4.9.6,6.5,1.6l-2,4c-1.3-.9-2.8-1.2-4.4-1.2-3.9,0-6.4,2.3-6.6,6.8,1.4-1.4,3.3-2.1,5.8-2.1,4.5,0,8,2.9,8,7.3ZM1036.9,888.7c0-2.1-1.6-3.5-4-3.5s-4,1.5-4,3.5,1.5,3.5,4.1,3.5,3.9-1.3,3.9-3.5Z"/>
      <path class="cls-4" d="M1045.3,884.3h9.4v4.2h-9.4v-4.2Z"/>
      <path class="cls-4" d="M1076.4,872.4v3.5l-8.7,19.8h-5.9l8.4-18.9h-7.7v3.8h-4.8v-8.2h18.7Z"/>
      <path class="cls-4" d="M1079.2,878.6c0-3.9,2.4-6.4,5.8-6.4s5.8,2.5,5.8,6.4-2.4,6.4-5.8,6.4-5.8-2.5-5.8-6.4ZM1087.5,878.6c0-2.5-1-3.7-2.4-3.7s-2.4,1.2-2.4,3.7,1,3.7,2.4,3.7,2.4-1.2,2.4-3.7ZM1098.9,872.4h4l-15.9,23.3h-4l15.9-23.3ZM1095.1,889.6c0-3.9,2.4-6.4,5.8-6.4s5.8,2.5,5.8,6.4-2.4,6.4-5.8,6.4-5.8-2.5-5.8-6.4ZM1103.3,889.6c0-2.5-1-3.7-2.4-3.7s-2.4,1.2-2.4,3.7,1,3.7,2.4,3.7,2.4-1.2,2.4-3.7Z"/>
      <path class="cls-4" d="M1041.7,983.4v3.5l-8.7,19.8h-5.9l8.4-18.9h-7.7v3.8h-4.8v-8.2h18.7Z"/>
      <path class="cls-4" d="M1043.6,995.3h9.4v4.2h-9.4v-4.2Z"/>
      <path class="cls-4" d="M1076.2,1000c0,4.4-3.9,7.2-9.9,7.2s-9.8-2.8-9.8-7.2,1.3-4.4,3.5-5.5c-1.7-1.1-2.7-2.7-2.7-4.8,0-4.1,3.7-6.7,9-6.7s9,2.6,9,6.7-1,3.7-2.7,4.8c2.3,1.1,3.6,3,3.6,5.5ZM1070.7,999.8c0-2.1-1.7-3.3-4.4-3.3s-4.3,1.3-4.3,3.3,1.7,3.4,4.3,3.4,4.4-1.3,4.4-3.4ZM1062.7,989.9c0,1.8,1.4,2.9,3.6,2.9s3.7-1.1,3.7-2.9-1.5-2.9-3.7-2.9-3.6,1.1-3.6,2.9Z"/>
      <path class="cls-4" d="M1078.6,989.6c0-3.9,2.4-6.4,5.8-6.4s5.8,2.5,5.8,6.4-2.4,6.4-5.8,6.4-5.8-2.5-5.8-6.4ZM1086.8,989.6c0-2.5-1-3.7-2.4-3.7s-2.4,1.2-2.4,3.7,1,3.7,2.4,3.7,2.4-1.2,2.4-3.7ZM1098.3,983.4h4l-15.9,23.3h-4l15.9-23.3ZM1094.5,1000.6c0-3.9,2.4-6.4,5.8-6.4s5.8,2.5,5.8,6.4-2.4,6.4-5.8,6.4-5.8-2.5-5.8-6.4ZM1102.7,1000.6c0-2.5-1-3.7-2.4-3.7s-2.4,1.2-2.4,3.7,1,3.7,2.4,3.7,2.4-1.2,2.4-3.7Z"/>
      <path class="cls-4" d="M1041.7,1111c0,4.4-3.9,7.2-9.9,7.2s-9.8-2.8-9.8-7.2,1.3-4.4,3.5-5.5c-1.7-1.1-2.7-2.7-2.7-4.8,0-4.1,3.7-6.7,9-6.7s9,2.6,9,6.7-1,3.7-2.7,4.8c2.3,1.1,3.6,3,3.6,5.5ZM1036.2,1110.8c0-2.1-1.7-3.3-4.4-3.3s-4.3,1.3-4.3,3.3,1.7,3.4,4.3,3.4,4.4-1.3,4.4-3.4ZM1028.2,1100.9c0,1.8,1.4,2.9,3.6,2.9s3.7-1.1,3.7-2.9-1.5-2.9-3.7-2.9-3.6,1.1-3.6,2.9Z"/>
      <path class="cls-4" d="M1045.3,1106.3h9.4v4.2h-9.4v-4.2Z"/>
      <path class="cls-4" d="M1077,1105.6c0,8.1-4.8,12.6-11.9,12.6s-4.8-.6-6.5-1.6l2-4c1.3.9,2.8,1.2,4.4,1.2,3.9,0,6.4-2.3,6.6-6.8-1.4,1.4-3.4,2.1-5.8,2.1-4.5,0-8-2.9-8-7.3s3.9-7.8,8.8-7.8,10.4,4,10.4,11.6ZM1071,1101.5c0-2-1.5-3.5-4.1-3.5s-3.9,1.3-3.9,3.5,1.6,3.5,4,3.5,4-1.5,4-3.5Z"/>
      <path class="cls-4" d="M1079.9,1100.6c0-3.9,2.4-6.4,5.8-6.4s5.8,2.5,5.8,6.4-2.4,6.4-5.8,6.4-5.8-2.5-5.8-6.4ZM1088.1,1100.6c0-2.5-1-3.7-2.4-3.7s-2.4,1.2-2.4,3.7,1,3.7,2.4,3.7,2.4-1.2,2.4-3.7ZM1099.6,1094.4h4l-15.9,23.3h-4l15.9-23.3ZM1095.8,1111.6c0-3.9,2.4-6.4,5.8-6.4s5.8,2.5,5.8,6.4-2.4,6.4-5.8,6.4-5.8-2.5-5.8-6.4ZM1104,1111.6c0-2.5-1-3.7-2.4-3.7s-2.4,1.2-2.4,3.7,1,3.7,2.4,3.7,2.4-1.2,2.4-3.7Z"/>
    </g>
  </g>
  <text class="cls-11" transform="translate(1626.1 1009.3)"><tspan x="0" y="0">5-6%</tspan><tspan x="-.4" y="111">6-7%</tspan><tspan x="-.8" y="222">7-8%</tspan><tspan x="-1.1" y="333">8-9%</tspan></text>
</svg>